<svg width="22" height="19" viewBox="0 0 22 19" fill="none" xmlns="http://www.w3.org/2000/svg">
<path d="M6 14C6 14.2652 5.89464 14.5196 5.70711 14.7071C5.51957 14.8946 5.26522 15 5 15C4.73478 15 4.48043 14.8946 4.29289 14.7071C4.10536 14.5196 4 14.2652 4 14C4 13.7348 4.10536 13.4804 4.29289 13.2929C4.48043 13.1054 4.73478 13 5 13C5.26522 13 5.51957 13.1054 5.70711 13.2929C5.89464 13.4804 6 13.7348 6 14ZM9 14C9 14.2652 8.89464 14.5196 8.70711 14.7071C8.51957 14.8946 8.26522 15 8 15C7.73478 15 7.48043 14.8946 7.29289 14.7071C7.10536 14.5196 7 14.2652 7 14C7 13.7348 7.10536 13.4804 7.29289 13.2929C7.48043 13.1054 7.73478 13 8 13C8.26522 13 8.51957 13.1054 8.70711 13.2929C8.89464 13.4804 9 13.7348 9 14Z" fill="#344054"/>
<path d="M1 14C1 12.114 1 11.172 1.586 10.586C2.172 10 3.114 10 5 10H17C18.886 10 19.828 10 20.414 10.586C21 11.172 21 12.114 21 14C21 15.886 21 16.828 20.414 17.414C19.828 18 18.886 18 17 18H5C3.114 18 2.172 18 1.586 17.414C1 16.828 1 15.886 1 14Z" stroke="#344054" stroke-width="1.5"/>
<path d="M6 10.0002L2 3.00024M16 10.0002L20 3.00024M13 14.0002H17M16.167 4.39724C15.7507 3.39169 15.0455 2.5322 14.1406 1.92748C13.2357 1.32277 12.1718 1 11.0835 1C9.99517 1 8.93128 1.32277 8.02641 1.92748C7.12154 2.5322 6.41634 3.39169 6 4.39724" stroke="#344054" stroke-width="1.5" stroke-linecap="round"/>
<path d="M13.9651 5.65744C13.7827 5.03485 13.4035 4.48812 12.8843 4.09917C12.3651 3.71022 11.7338 3.5 11.0851 3.5C10.4363 3.5 9.80506 3.71022 9.28585 4.09917C8.76663 4.48812 8.38744 5.03485 8.20508 5.65744" stroke="#344054" stroke-width="1.5" stroke-linecap="round"/>
<path d="M12.084 6C12.084 6.26522 11.9786 6.51957 11.7911 6.70711C11.6036 6.89464 11.3492 7 11.084 7C10.8188 7 10.5644 6.89464 10.3769 6.70711C10.1893 6.51957 10.084 6.26522 10.084 6C10.084 5.73478 10.1893 5.48043 10.3769 5.29289C10.5644 5.10536 10.8188 5 11.084 5C11.3492 5 11.6036 5.10536 11.7911 5.29289C11.9786 5.48043 12.084 5.73478 12.084 6Z" fill="#344054"/>
</svg>
