<svg width="22" height="18" viewBox="0 0 22 18" fill="none" xmlns="http://www.w3.org/2000/svg">
<path fill-rule="evenodd" clip-rule="evenodd" d="M8.94435 0.25H13.0564C14.8944 0.25 16.3504 0.25 17.4894 0.403C18.6614 0.561 19.6103 0.893 20.3594 1.641C21.1073 2.39 21.4394 3.339 21.5974 4.511C21.6874 5.184 21.7244 5.967 21.7394 6.874C21.7524 6.95001 21.7538 7.02758 21.7434 7.104C21.7504 7.67 21.7504 8.282 21.7504 8.944V9.056C21.7504 10.894 21.7504 12.35 21.5974 13.489C21.4394 14.661 21.1073 15.61 20.3594 16.359C19.6103 17.107 18.6614 17.439 17.4894 17.597C16.3494 17.75 14.8944 17.75 13.0564 17.75H8.94435C7.10635 17.75 5.65035 17.75 4.51135 17.597C3.33935 17.439 2.39035 17.107 1.64135 16.359C0.893351 15.61 0.561351 14.661 0.403351 13.489C0.250351 12.349 0.250351 10.894 0.250351 9.056V8.944C0.250351 8.282 0.250351 7.67 0.257351 7.104C0.24663 7.02763 0.247641 6.95007 0.260351 6.874C0.276351 5.967 0.313351 5.184 0.403351 4.511C0.561351 3.339 0.893351 2.39 1.64135 1.641C2.39035 0.893 3.33935 0.561 4.51135 0.403C5.65135 0.25 7.10635 0.25 8.94435 0.25ZM1.75235 7.75C1.75035 8.138 1.75035 8.554 1.75035 9C1.75035 10.907 1.75235 12.261 1.89035 13.29C2.02535 14.295 2.27935 14.875 2.70235 15.298C3.12535 15.721 3.70535 15.975 4.71135 16.11C5.73935 16.248 7.09335 16.25 9.00035 16.25H13.0004C14.9074 16.25 16.2624 16.248 17.2904 16.11C18.2954 15.975 18.8754 15.721 19.2984 15.298C19.7214 14.875 19.9754 14.295 20.1104 13.289C20.2484 12.261 20.2504 10.907 20.2504 9C20.2504 8.554 20.2504 8.138 20.2484 7.75H1.75235ZM20.2244 6.25H1.77635C1.79635 5.663 1.83035 5.156 1.89035 4.71C2.02535 3.705 2.27935 3.125 2.70235 2.702C3.12535 2.279 3.70535 2.025 4.71135 1.89C5.73935 1.752 7.09335 1.75 9.00035 1.75H13.0004C14.9074 1.75 16.2624 1.752 17.2904 1.89C18.2954 2.025 18.8754 2.279 19.2984 2.702C19.7214 3.125 19.9754 3.705 20.1104 4.711C20.1704 5.156 20.2044 5.663 20.2244 6.25ZM4.25035 13C4.25035 12.8011 4.32937 12.6103 4.47002 12.4697C4.61067 12.329 4.80144 12.25 5.00035 12.25H9.00035C9.19926 12.25 9.39003 12.329 9.53068 12.4697C9.67133 12.6103 9.75035 12.8011 9.75035 13C9.75035 13.1989 9.67133 13.3897 9.53068 13.5303C9.39003 13.671 9.19926 13.75 9.00035 13.75H5.00035C4.80144 13.75 4.61067 13.671 4.47002 13.5303C4.32937 13.3897 4.25035 13.1989 4.25035 13ZM10.7504 13C10.7504 12.8011 10.8294 12.6103 10.97 12.4697C11.1107 12.329 11.3014 12.25 11.5004 12.25H13.0004C13.1993 12.25 13.39 12.329 13.5307 12.4697C13.6713 12.6103 13.7504 12.8011 13.7504 13C13.7504 13.1989 13.6713 13.3897 13.5307 13.5303C13.39 13.671 13.1993 13.75 13.0004 13.75H11.5004C11.3014 13.75 11.1107 13.671 10.97 13.5303C10.8294 13.3897 10.7504 13.1989 10.7504 13Z" fill="#344054"/>
</svg>
