<svg width="34" height="34" viewBox="0 0 34 34" fill="none" xmlns="http://www.w3.org/2000/svg">
<circle cx="17" cy="17" r="16.5" stroke="#ED1C24"/>
<path d="M13.4375 9.3125H13.25C13.3531 9.3125 13.4375 9.22812 13.4375 9.125V9.3125H20.5625V9.125C20.5625 9.22812 20.6469 9.3125 20.75 9.3125H20.5625V11H22.25V9.125C22.25 8.29766 21.5773 7.625 20.75 7.625H13.25C12.4227 7.625 11.75 8.29766 11.75 9.125V11H13.4375V9.3125ZM25.25 11H8.75C8.33516 11 8 11.3352 8 11.75V12.5C8 12.6031 8.08437 12.6875 8.1875 12.6875H9.60312L10.182 24.9453C10.2195 25.7445 10.8805 26.375 11.6797 26.375H22.3203C23.1219 26.375 23.7805 25.7469 23.818 24.9453L24.3969 12.6875H25.8125C25.9156 12.6875 26 12.6031 26 12.5V11.75C26 11.3352 25.6648 11 25.25 11ZM22.1398 24.6875H11.8602L11.293 12.6875H22.707L22.1398 24.6875Z" fill="#ED1C24"/>
</svg>
