<svg width="24" height="24" viewBox="0 0 24 24" fill="none" xmlns="http://www.w3.org/2000/svg">
<path d="M2 2H11V11H2V2ZM4 4V9H9V4H4ZM17.5 4C16.837 4 16.2011 4.26339 15.7322 4.73223C15.2634 5.20107 15 5.83696 15 6.5C15 7.16304 15.2634 7.79893 15.7322 8.26777C16.2011 8.73661 16.837 9 17.5 9C18.163 9 18.7989 8.73661 19.2678 8.26777C19.7366 7.79893 20 7.16304 20 6.5C20 5.83696 19.7366 5.20107 19.2678 4.73223C18.7989 4.26339 18.163 4 17.5 4ZM13 6.5C13 5.90905 13.1164 5.32389 13.3425 4.77792C13.5687 4.23196 13.9002 3.73588 14.318 3.31802C14.7359 2.90016 15.232 2.56869 15.7779 2.34254C16.3239 2.1164 16.9091 2 17.5 2C18.0909 2 18.6761 2.1164 19.2221 2.34254C19.768 2.56869 20.2641 2.90016 20.682 3.31802C21.0998 3.73588 21.4313 4.23196 21.6575 4.77792C21.8836 5.32389 22 5.90905 22 6.5C22 7.69347 21.5259 8.83807 20.682 9.68198C19.8381 10.5259 18.6935 11 17.5 11C16.3065 11 15.1619 10.5259 14.318 9.68198C13.4741 8.83807 13 7.69347 13 6.5ZM2 13H11V22H2V13ZM4 15V20H9V15H4ZM13 13H22V22H13V13ZM15 15V20H20V15H15Z" fill="#344054"/>
</svg>
