<svg width="32" height="38" viewBox="0 0 32 38" fill="none" xmlns="http://www.w3.org/2000/svg">
<path d="M12.3612 18.5833H9.9445V16.1667H12.3612V18.5833ZM22.0278 18.5833H19.6112V16.1667H22.0278V18.5833ZM31.6945 16.1667V21H29.2778V27.0417C29.2778 27.5451 29.1834 28.0171 28.9946 28.4577C28.8058 28.8982 28.5478 29.2821 28.2205 29.6094C27.8933 29.9366 27.5094 30.1946 27.0688 30.3834C26.6283 30.5723 26.1563 30.6667 25.6528 30.6667H20.6684L12.3612 37.7656V30.6667H6.3195C5.81602 30.6667 5.34402 30.5723 4.90348 30.3834C4.46294 30.1946 4.07905 29.9366 3.75179 29.6094C3.42453 29.2821 3.1665 28.8982 2.9777 28.4577C2.7889 28.0171 2.6945 27.5451 2.6945 27.0417V21H0.277832V16.1667H2.6945V12.5417C2.6945 12.0382 2.7889 11.5662 2.9777 11.1256C3.1665 10.6851 3.42453 10.3012 3.75179 9.97395C4.07905 9.6467 4.46294 9.38867 4.90348 9.19986C5.34402 9.01106 5.81602 8.91666 6.3195 8.91666H14.7778V4.9707C14.4128 4.75672 14.1233 4.46093 13.9093 4.08333C13.6954 3.70572 13.5821 3.30295 13.5695 2.875C13.5695 2.53515 13.6324 2.22048 13.7583 1.93099C13.8842 1.64149 14.0541 1.38975 14.2681 1.17578C14.482 0.961802 14.7401 0.785587 15.0421 0.647132C15.3442 0.508677 15.6589 0.445743 15.9862 0.45833C16.326 0.45833 16.6407 0.521264 16.9302 0.647132C17.2197 0.773 17.4714 0.942922 17.6854 1.1569C17.8994 1.37087 18.0756 1.6289 18.214 1.93099C18.3525 2.23307 18.4154 2.54774 18.4028 2.875C18.4028 3.30295 18.2958 3.70572 18.0819 4.08333C17.8679 4.46093 17.5721 4.75672 17.1945 4.9707V8.91666H25.6528C26.1563 8.91666 26.6283 9.01106 27.0688 9.19986C27.5094 9.38867 27.8933 9.6467 28.2205 9.97395C28.5478 10.3012 28.8058 10.6851 28.9946 11.1256C29.1834 11.5662 29.2778 12.0382 29.2778 12.5417V16.1667H31.6945ZM26.8612 12.5417C26.8612 12.2144 26.7416 11.9312 26.5024 11.692C26.2633 11.4529 25.9801 11.3333 25.6528 11.3333H6.3195C5.99224 11.3333 5.70904 11.4529 5.46989 11.692C5.23074 11.9312 5.11116 12.2144 5.11116 12.5417V27.0417C5.11116 27.3689 5.23074 27.6521 5.46989 27.8913C5.70904 28.1304 5.99224 28.25 6.3195 28.25H14.7778V32.5169L19.7622 28.25H25.6528C25.9801 28.25 26.2633 28.1304 26.5024 27.8913C26.7416 27.6521 26.8612 27.3689 26.8612 27.0417V12.5417ZM10.7941 21.2643C11.4864 21.9566 12.2793 22.4852 13.173 22.8503C14.0667 23.2153 15.0044 23.4041 15.9862 23.4167C16.9679 23.4167 17.9056 23.2341 18.7993 22.8691C19.693 22.5041 20.4859 21.9692 21.1782 21.2643L22.8774 22.9824C21.9586 23.9012 20.9076 24.6061 19.7244 25.097C18.5413 25.5879 17.2952 25.8333 15.9862 25.8333C14.6897 25.8333 13.4499 25.5879 12.2668 25.097C11.0836 24.6061 10.0263 23.9012 9.09489 22.9824L10.7941 21.2643Z" fill="#344054"/>
</svg>
