<svg width="16" height="18" viewBox="0 0 16 18" fill="none" xmlns="http://www.w3.org/2000/svg">
<path d="M4.66667 10.6665C4.43056 10.6665 4.23278 10.5865 4.07333 10.4265C3.91389 10.2665 3.83389 10.0687 3.83333 9.83317C3.83333 9.59706 3.91333 9.39928 4.07333 9.23984C4.23333 9.08039 4.43111 9.00039 4.66667 8.99984C4.90278 8.99984 5.10083 9.07984 5.26083 9.23984C5.42083 9.39984 5.50056 9.59761 5.5 9.83317C5.5 10.0693 5.42 10.2673 5.26 10.4273C5.1 10.5873 4.90222 10.6671 4.66667 10.6665ZM8 10.6665C7.76389 10.6665 7.56611 10.5865 7.40667 10.4265C7.24722 10.2665 7.16722 10.0687 7.16667 9.83317C7.16667 9.59706 7.24667 9.39928 7.40667 9.23984C7.56667 9.08039 7.76444 9.00039 8 8.99984C8.23611 8.99984 8.43417 9.07984 8.59417 9.23984C8.75417 9.39984 8.83389 9.59761 8.83333 9.83317C8.83333 10.0693 8.75333 10.2673 8.59333 10.4273C8.43333 10.5873 8.23556 10.6671 8 10.6665ZM11.3333 10.6665C11.0972 10.6665 10.8994 10.5865 10.74 10.4265C10.5806 10.2665 10.5006 10.0687 10.5 9.83317C10.5 9.59706 10.58 9.39928 10.74 9.23984C10.9 9.08039 11.0978 9.00039 11.3333 8.99984C11.5694 8.99984 11.7675 9.07984 11.9275 9.23984C12.0875 9.39984 12.1672 9.59761 12.1667 9.83317C12.1667 10.0693 12.0867 10.2673 11.9267 10.4273C11.7667 10.5873 11.5689 10.6671 11.3333 10.6665ZM2.16667 17.3332C1.70833 17.3332 1.31611 17.1701 0.99 16.844C0.663889 16.5179 0.500556 16.1254 0.5 15.6665V3.99984C0.5 3.5415 0.663333 3.14928 0.99 2.82317C1.31667 2.49706 1.70889 2.33373 2.16667 2.33317H3V0.666504H4.66667V2.33317H11.3333V0.666504H13V2.33317H13.8333C14.2917 2.33317 14.6842 2.4965 15.0108 2.82317C15.3375 3.14984 15.5006 3.54206 15.5 3.99984V15.6665C15.5 16.1248 15.3369 16.5173 15.0108 16.844C14.6847 17.1707 14.2922 17.3337 13.8333 17.3332H2.16667ZM2.16667 15.6665H13.8333V7.33317H2.16667V15.6665ZM2.16667 5.6665H13.8333V3.99984H2.16667V5.6665Z" fill="#667085"/>
</svg>
