<svg width="40" height="40" viewBox="0 0 40 40" fill="none" xmlns="http://www.w3.org/2000/svg">
<rect x="0.5" y="0.5" width="39" height="39" rx="7.5" fill="white" stroke="#D0D5DD"/>
<path d="M26.25 17.5C28.3211 17.5 30 15.8211 30 13.75C30 11.6789 28.3211 10 26.25 10C24.1789 10 22.5 11.6789 22.5 13.75C22.5 15.8211 24.1789 17.5 26.25 17.5Z" stroke="#344054" stroke-width="1.5" stroke-linecap="round" stroke-linejoin="round"/>
<path d="M13.75 30C15.8211 30 17.5 28.3211 17.5 26.25C17.5 24.1789 15.8211 22.5 13.75 22.5C11.6789 22.5 10 24.1789 10 26.25C10 28.3211 11.6789 30 13.75 30Z" stroke="#344054" stroke-width="1.5" stroke-linecap="round" stroke-linejoin="round"/>
<path d="M22.5 22.5H30V28.75C30 29.0815 29.8683 29.3995 29.6339 29.6339C29.3995 29.8683 29.0815 30 28.75 30H23.75C23.4185 30 23.1005 29.8683 22.8661 29.6339C22.6317 29.3995 22.5 29.0815 22.5 28.75V22.5ZM10 10H17.5V16.25C17.5 16.5815 17.3683 16.8995 17.1339 17.1339C16.8995 17.3683 16.5815 17.5 16.25 17.5H11.25C10.9185 17.5 10.6005 17.3683 10.3661 17.1339C10.1317 16.8995 10 16.5815 10 16.25V10Z" stroke="#344054" stroke-width="1.5" stroke-linecap="round" stroke-linejoin="round"/>
</svg>
