<svg width="15" height="15" viewBox="0 0 15 15" fill="none" xmlns="http://www.w3.org/2000/svg">
<path d="M14.1354 10.1417L10.823 8.65743L10.8138 8.65321C10.6419 8.57966 10.4543 8.55015 10.268 8.56734C10.0818 8.58452 9.90279 8.64787 9.74719 8.75165C9.72887 8.76375 9.71127 8.7769 9.69446 8.79103L7.98305 10.25C6.89883 9.72337 5.77946 8.61243 5.25282 7.54228L6.71391 5.80485C6.72798 5.78728 6.74133 5.7697 6.75399 5.75071C6.85554 5.59554 6.91716 5.41766 6.93335 5.23291C6.94954 5.04817 6.91981 4.86229 6.8468 4.69181V4.68337L5.35829 1.36532C5.26178 1.14262 5.09583 0.957099 4.88522 0.836459C4.6746 0.715819 4.43062 0.66653 4.18969 0.695948C3.23694 0.82132 2.3624 1.28922 1.72941 2.01226C1.09643 2.73531 0.748284 3.66404 0.750006 4.62501C0.750006 10.2078 5.29219 14.75 10.875 14.75C11.836 14.7517 12.7647 14.4036 13.4878 13.7706C14.2108 13.1376 14.6787 12.2631 14.8041 11.3103C14.8335 11.0695 14.7844 10.8256 14.6638 10.615C14.5433 10.4044 14.358 10.2384 14.1354 10.1417ZM10.875 13.625C8.48886 13.6224 6.20119 12.6734 4.51392 10.9861C2.82666 9.29883 1.87761 7.01116 1.87501 4.62501C1.87236 3.9384 2.11973 3.2743 2.57091 2.75674C3.0221 2.23918 3.64625 1.90354 4.3268 1.81251C4.32653 1.81532 4.32653 1.81814 4.3268 1.82095L5.80337 5.12564L4.35001 6.86517C4.33525 6.88214 4.32185 6.90024 4.30993 6.91931C4.20412 7.08167 4.14205 7.26862 4.12973 7.46202C4.11741 7.65543 4.15526 7.84874 4.23962 8.02321C4.87665 9.32611 6.18938 10.629 7.50633 11.2653C7.68209 11.3489 7.87652 11.3854 8.07062 11.3714C8.26473 11.3573 8.45187 11.2932 8.61376 11.1852C8.63181 11.173 8.64918 11.1599 8.66579 11.1458L10.3751 9.68751L13.6798 11.1676H13.6875C13.5976 11.8491 13.2624 12.4745 12.7448 12.9268C12.2271 13.3791 11.5624 13.6273 10.875 13.625Z" fill="#667085"/>
</svg>
