<svg width="24" height="24" viewBox="0 0 24 24" fill="none" xmlns="http://www.w3.org/2000/svg">
<path fill-rule="evenodd" clip-rule="evenodd" d="M18.8512 6.45104C18.9367 6.36563 19.0045 6.26421 19.0509 6.15258C19.0972 6.04094 19.1211 5.92127 19.1211 5.80041C19.1212 5.67954 19.0975 5.55985 19.0513 5.44815C19.0051 5.33646 18.9374 5.23496 18.852 5.14944C18.7666 5.06393 18.6651 4.99607 18.5535 4.94975C18.4419 4.90343 18.3222 4.87955 18.2013 4.87947C18.0805 4.8794 17.9608 4.90313 17.8491 4.94931C17.7374 4.9955 17.6359 5.06323 17.5504 5.14864L12 10.699L6.45116 5.14864C6.27846 4.97593 6.04421 4.87891 5.79996 4.87891C5.55572 4.87891 5.32147 4.97593 5.14876 5.14864C4.97606 5.32135 4.87903 5.55559 4.87903 5.79984C4.87903 6.04409 4.97606 6.27833 5.14876 6.45104L10.6992 11.9998L5.14876 17.5486C5.06325 17.6342 4.99541 17.7357 4.94913 17.8474C4.90285 17.9591 4.87903 18.0789 4.87903 18.1998C4.87903 18.3208 4.90285 18.4405 4.94913 18.5523C4.99541 18.664 5.06325 18.7655 5.14876 18.851C5.32147 19.0238 5.55572 19.1208 5.79996 19.1208C5.9209 19.1208 6.04066 19.097 6.15239 19.0507C6.26412 19.0044 6.36565 18.9366 6.45116 18.851L12 13.3006L17.5504 18.851C17.7231 19.0235 17.9572 19.1204 18.2013 19.1202C18.4454 19.1201 18.6795 19.023 18.852 18.8502C19.0245 18.6775 19.1213 18.4434 19.1211 18.1993C19.121 17.9552 19.0239 17.7211 18.8512 17.5486L13.3008 11.9998L18.8512 6.45104Z" fill="#FCFCFD"/>
</svg>
