<svg width="28" height="28" viewBox="0 0 28 28" fill="none" xmlns="http://www.w3.org/2000/svg">
<circle cx="14" cy="14" r="13.5" stroke="#ED1C24"/>
<path d="M11.06 7.66803H10.9056C10.9905 7.66803 11.06 7.59854 11.06 7.51361V7.66803H16.9276V7.51361C16.9276 7.59854 16.9971 7.66803 17.082 7.66803H16.9276V9.05773H18.3173V7.51361C18.3173 6.83227 17.7634 6.27832 17.082 6.27832H10.9056C10.2242 6.27832 9.67027 6.83227 9.67027 7.51361V9.05773H11.06V7.66803ZM20.7879 9.05773H7.19968C6.85804 9.05773 6.58203 9.33374 6.58203 9.67538V10.293C6.58203 10.378 6.65152 10.4474 6.73644 10.4474H7.90225L8.379 20.5421C8.40988 21.2003 8.95418 21.7195 9.61236 21.7195H18.3752C19.0353 21.7195 19.5777 21.2022 19.6086 20.5421L20.0853 10.4474H21.2511C21.3361 10.4474 21.4056 10.378 21.4056 10.293V9.67538C21.4056 9.33374 21.1295 9.05773 20.7879 9.05773ZM18.2266 20.3298H9.76098L9.29389 10.4474H18.6937L18.2266 20.3298Z" fill="#ED1C24"/>
</svg>
