<svg width="36" height="36" viewBox="0 0 36 36" fill="none" xmlns="http://www.w3.org/2000/svg">
<circle cx="18" cy="18" r="18" fill="#E7E7E7"/>
<path d="M21 25.88C21.04 26.18 20.94 26.5 20.71 26.71C20.6175 26.8027 20.5076 26.8762 20.3866 26.9264C20.2657 26.9766 20.136 27.0024 20.005 27.0024C19.874 27.0024 19.7444 26.9766 19.6234 26.9264C19.5024 26.8762 19.3925 26.8027 19.3 26.71L15.29 22.7C15.1809 22.5934 15.098 22.463 15.0477 22.319C14.9974 22.175 14.9811 22.0213 15 21.87V16.75L10.21 10.62C10.0476 10.4115 9.97434 10.1473 10.0062 9.88493C10.0381 9.6226 10.1724 9.38355 10.38 9.22C10.57 9.08 10.78 9 11 9H25C25.22 9 25.43 9.08 25.62 9.22C25.8276 9.38355 25.962 9.6226 25.9938 9.88493C26.0257 10.1473 25.9524 10.4115 25.79 10.62L21 16.75V25.88ZM13.04 11L17 16.06V21.58L19 23.58V16.05L22.96 11H13.04Z" fill="#344054"/>
</svg>
