<svg width="25" height="25" viewBox="0 0 25 25" fill="none" xmlns="http://www.w3.org/2000/svg">
<path d="M20.3936 18.9472C20.845 18.2291 21.1117 17.3982 21.1117 16.4955C21.1117 13.9412 19.0498 11.8792 16.4954 11.8792C13.9411 11.8792 11.8792 13.9412 11.8792 16.4955C11.8792 19.0498 13.9411 21.1117 16.4852 21.1117C17.3879 21.1117 18.2291 20.845 18.9369 20.3937L22.1375 23.5943L23.5942 22.1376L20.3936 18.9472ZM16.4954 19.0601C15.8153 19.0601 15.163 18.7899 14.682 18.3089C14.2011 17.828 13.9309 17.1757 13.9309 16.4955C13.9309 15.8153 14.2011 15.163 14.682 14.6821C15.163 14.2011 15.8153 13.9309 16.4954 13.9309C17.1756 13.9309 17.8279 14.2011 18.3089 14.6821C18.7898 15.163 19.06 15.8153 19.06 16.4955C19.06 17.1757 18.7898 17.828 18.3089 18.3089C17.8279 18.7899 17.1756 19.0601 16.4954 19.0601ZM16.1261 10.3405C15.367 10.361 14.6387 10.5251 13.9719 10.8021L13.4077 9.95067L9.50952 16.2903L6.42176 12.6794L2.69799 18.6395L1.02588 17.4393L6.15505 9.23259L9.23254 12.823L13.3359 6.15509L16.1261 10.3405ZM18.7831 10.8534C18.1265 10.5662 17.4187 10.3918 16.6801 10.3507L21.9324 2.05176L23.5942 3.26224L18.7831 10.8534Z" fill="#ED1C24"/>
</svg>
