<svg width="16" height="16" viewBox="0 0 16 16" fill="none" xmlns="http://www.w3.org/2000/svg">
<path d="M7.99992 2.66536C10.9406 2.66536 13.3333 5.05803 13.3333 7.9987C13.3333 10.9394 10.9406 13.332 7.99992 13.332C5.05925 13.332 2.66659 10.9394 2.66659 7.9987C2.66659 5.05803 5.05925 2.66536 7.99992 2.66536ZM7.99992 1.33203C4.31792 1.33203 1.33325 4.3167 1.33325 7.9987C1.33325 11.6807 4.31792 14.6654 7.99992 14.6654C11.6819 14.6654 14.6666 11.6807 14.6666 7.9987C14.6666 4.3167 11.6819 1.33203 7.99992 1.33203ZM8.66658 9.9987H7.33325V11.332H8.66658V9.9987ZM7.33325 8.66536H8.66658L8.99992 4.66536H6.99992L7.33325 8.66536Z" fill="#ED1C24"/>
</svg>
