<svg width="24" height="24" viewBox="0 0 24 24" fill="none" xmlns="http://www.w3.org/2000/svg">
<path d="M17 18L15.6 16.6L20.15 12L15.6 7.4L17 6L23 12L17 18ZM7 18L1 12L7 6L8.4 7.4L3.85 12L8.4 16.6L7 18ZM8 13C7.71667 13 7.479 12.904 7.287 12.712C7.095 12.52 6.99933 12.2827 7 12C7 11.7167 7.096 11.479 7.288 11.287C7.48 11.095 7.71733 10.9993 8 11C8.28333 11 8.521 11.096 8.713 11.288C8.905 11.48 9.00067 11.7173 9 12C9 12.2833 8.904 12.521 8.712 12.713C8.52 12.905 8.28267 13.0007 8 13ZM12 13C11.7167 13 11.479 12.904 11.287 12.712C11.095 12.52 10.9993 12.2827 11 12C11 11.7167 11.096 11.479 11.288 11.287C11.48 11.095 11.7173 10.9993 12 11C12.2833 11 12.521 11.096 12.713 11.288C12.905 11.48 13.0007 11.7173 13 12C13 12.2833 12.904 12.521 12.712 12.713C12.52 12.905 12.2827 13.0007 12 13ZM16 13C15.7167 13 15.479 12.904 15.287 12.712C15.095 12.52 14.9993 12.2827 15 12C15 11.7167 15.096 11.479 15.288 11.287C15.48 11.095 15.7173 10.9993 16 11C16.2833 11 16.521 11.096 16.713 11.288C16.905 11.48 17.0007 11.7173 17 12C17 12.2833 16.904 12.521 16.712 12.713C16.52 12.905 16.2827 13.0007 16 13Z" fill="black"/>
</svg>
