<svg width="38" height="40" viewBox="0 0 38 40" fill="none" xmlns="http://www.w3.org/2000/svg">
<g filter="url(#filter0_d_4_2525)">
<path d="M31.6924 11.2113H25.7415C26.0469 11.0196 26.3363 10.8035 26.6068 10.5652C27.0149 10.2016 27.3436 9.75779 27.5724 9.26147C27.8012 8.76514 27.9252 8.22697 27.9367 7.68056C27.9544 7.07948 27.8492 6.48112 27.6275 5.92212C27.4058 5.36312 27.0724 4.85526 26.6476 4.42965C26.2228 4.00403 25.7156 3.66962 25.157 3.44691C24.5984 3.22419 24.0003 3.11785 23.3992 3.1344C22.8527 3.14585 22.3146 3.26985 21.8182 3.49866C21.3219 3.72746 20.8781 4.05616 20.5145 4.46421C19.8464 5.25264 19.3327 6.15978 19.0001 7.13825C18.6683 6.16051 18.1555 5.25389 17.4886 4.46565C17.1248 4.05699 16.6806 3.72781 16.1837 3.49874C15.6869 3.26967 15.1481 3.14564 14.6011 3.1344C13.9996 3.11706 13.4009 3.22276 12.8418 3.44503C12.2826 3.66731 11.7748 4.00146 11.3494 4.427C10.924 4.85255 10.59 5.36051 10.3679 5.91973C10.1458 6.47896 10.0403 7.07766 10.0578 7.67912C10.0693 8.22552 10.1932 8.7637 10.4221 9.26003C10.6509 9.75635 10.9796 10.2002 11.3876 10.5637C11.6579 10.8024 11.9474 11.0185 12.253 11.2099H6.30781C6.04251 11.2099 5.77982 11.2622 5.53475 11.3637C5.28967 11.4653 5.06701 11.6142 4.87948 11.8018C4.69196 11.9895 4.54326 12.2122 4.44187 12.4574C4.34047 12.7025 4.28839 12.9653 4.28857 13.2306V17.8459C4.28857 18.3815 4.50131 18.8951 4.87999 19.2738C5.25867 19.6524 5.77227 19.8652 6.30781 19.8652H6.59627V29.3844C6.59627 29.9199 6.80901 30.4335 7.18769 30.8122C7.56637 31.1909 8.07996 31.4036 8.6155 31.4036H29.3847C29.9203 31.4036 30.4339 31.1909 30.8125 30.8122C31.1912 30.4335 31.404 29.9199 31.404 29.3844V19.8652H31.6924C32.228 19.8652 32.7416 19.6524 33.1202 19.2738C33.4989 18.8951 33.7117 18.3815 33.7117 17.8459V13.2306C33.7117 12.695 33.4989 12.1814 33.1202 11.8027C32.7416 11.4241 32.228 11.2113 31.6924 11.2113ZM20.1208 9.62479C20.4453 7.87671 21.028 6.48777 21.8068 5.60796C22.0153 5.37794 22.2688 5.19329 22.5517 5.0655C22.8346 4.93771 23.1407 4.86952 23.4511 4.86517H23.5304C23.8892 4.86522 24.2444 4.93724 24.5749 5.07699C24.9054 5.21674 25.2045 5.42137 25.4545 5.67877C25.7045 5.93617 25.9003 6.2411 26.0304 6.57553C26.1604 6.90996 26.2221 7.26708 26.2117 7.62575C26.2068 7.93644 26.1379 8.24279 26.0093 8.52568C25.8808 8.80857 25.6953 9.06194 25.4645 9.26998C23.9184 10.6344 21.2963 11.0426 19.9145 11.1608C19.9506 10.744 20.0097 10.2133 20.1208 9.62479ZM12.5746 5.65123C13.0781 5.14964 13.7592 4.86714 14.4698 4.86517H14.5492C14.8598 4.87007 15.1662 4.93894 15.4491 5.06748C15.732 5.19602 15.9853 5.38148 16.1934 5.61229C17.5578 7.15844 17.966 9.78056 18.0842 11.1623C17.6674 11.1262 17.1367 11.0642 16.554 10.956C14.8059 10.6344 13.4169 10.0488 12.5371 9.26854C12.306 9.06101 12.1202 8.80798 11.9913 8.52529C11.8625 8.24261 11.7935 7.93636 11.7886 7.62575C11.7786 7.2605 11.8432 6.89705 11.9783 6.55757C12.1135 6.21809 12.3164 5.90971 12.5746 5.65123ZM6.01934 17.8459V13.2306C6.01934 13.1541 6.04974 13.0807 6.10383 13.0266C6.15793 12.9725 6.2313 12.9421 6.30781 12.9421H18.1347V18.1344H6.30781C6.2313 18.1344 6.15793 18.104 6.10383 18.0499C6.04974 17.9958 6.01934 17.9224 6.01934 17.8459ZM8.32704 29.3844V19.8652H18.1347V29.6729H8.6155C8.53899 29.6729 8.46562 29.6425 8.41152 29.5884C8.35743 29.5343 8.32704 29.4609 8.32704 29.3844ZM29.6732 29.3844C29.6732 29.4609 29.6428 29.5343 29.5887 29.5884C29.5346 29.6425 29.4612 29.6729 29.3847 29.6729H19.8655V19.8652H29.6732V29.3844ZM31.9809 17.8459C31.9809 17.9224 31.9505 17.9958 31.8964 18.0499C31.8423 18.104 31.7689 18.1344 31.6924 18.1344H19.8655V12.9421H31.6924C31.7689 12.9421 31.8423 12.9725 31.8964 13.0266C31.9505 13.0807 31.9809 13.1541 31.9809 13.2306V17.8459Z" fill="#ED1C24"/>
</g>
<defs>
<filter id="filter0_d_4_2525" x="-3.46143" y="0.538574" width="44.9231" height="44.9231" filterUnits="userSpaceOnUse" color-interpolation-filters="sRGB">
<feFlood flood-opacity="0" result="BackgroundImageFix"/>
<feColorMatrix in="SourceAlpha" type="matrix" values="0 0 0 0 0 0 0 0 0 0 0 0 0 0 0 0 0 0 127 0" result="hardAlpha"/>
<feOffset dy="4"/>
<feGaussianBlur stdDeviation="2"/>
<feComposite in2="hardAlpha" operator="out"/>
<feColorMatrix type="matrix" values="0 0 0 0 0 0 0 0 0 0 0 0 0 0 0 0 0 0 0.25 0"/>
<feBlend mode="normal" in2="BackgroundImageFix" result="effect1_dropShadow_4_2525"/>
<feBlend mode="normal" in="SourceGraphic" in2="effect1_dropShadow_4_2525" result="shape"/>
</filter>
</defs>
</svg>
