<svg width="32" height="32" viewBox="0 0 32 32" fill="none" xmlns="http://www.w3.org/2000/svg">
<path d="M29.5 7C28.119 7 27 8.1195 27 9.5C27 9.7835 27.0575 10.051 27.144 10.305L21.05 15.5525C20.6225 15.212 20.089 15 19.5 15C18.8205 15 18.206 15.273 17.756 15.713L12.9825 13.323C12.8895 12.0265 11.82 11 10.5 11C9.11953 11 8 12.1195 8 13.5C8 13.878 8.09 14.2325 8.24 14.5535L3.373 20.1655C3.1 20.0635 2.8085 20 2.5 20C1.1195 20 0 21.1195 0 22.5C0 23.8805 1.1195 25 2.5 25C3.8805 25 5 23.8805 5 22.5C5 22.1675 4.932 21.851 4.814 21.561L9.76 15.876C9.9955 15.949 10.2405 16 10.5 16C11.2275 16 11.8765 15.684 12.3335 15.1875L17.0025 17.5285C17.019 18.8955 18.129 20 19.5 20C20.881 20 22 18.8805 22 17.5C22 17.4555 21.9895 17.414 21.987 17.37L28.49 11.7835C28.7995 11.9205 29.1395 12 29.5 12C30.881 12 32 10.881 32 9.5C32 8.1195 30.881 7 29.5 7Z" fill="#ED1C24"/>
</svg>
