<svg width="60" height="61" viewBox="0 0 60 61" fill="none" xmlns="http://www.w3.org/2000/svg">
<circle cx="30" cy="30.5596" r="30" fill="#FCFCFD"/>
<path fill-rule="evenodd" clip-rule="evenodd" d="M14.3076 30.56C14.3076 32.6208 14.7135 34.6613 15.5021 36.5652C16.2907 38.4691 17.4466 40.199 18.9038 41.6562C20.361 43.1133 22.0909 44.2692 23.9947 45.0578C25.8986 45.8464 27.9392 46.2523 29.9999 46.2523C32.0607 46.2523 34.1012 45.8464 36.0051 45.0578C37.909 44.2692 39.6389 43.1133 41.0961 41.6562C42.5532 40.199 43.7091 38.4691 44.4977 36.5652C45.2863 34.6613 45.6922 32.6208 45.6922 30.56C45.6922 26.3982 44.0389 22.4068 41.0961 19.4639C38.1532 16.521 34.1618 14.8677 29.9999 14.8677C25.8381 14.8677 21.8467 16.521 18.9038 19.4639C15.9609 22.4068 14.3076 26.3982 14.3076 30.56ZM43.8461 30.56C43.8461 34.2323 42.3873 37.7541 39.7906 40.3507C37.194 42.9474 33.6722 44.4062 29.9999 44.4062C26.3277 44.4062 22.8059 42.9474 20.2092 40.3507C17.6126 37.7541 16.1538 34.2323 16.1538 30.56C16.1538 26.8878 17.6126 23.366 20.2092 20.7693C22.8059 18.1727 26.3277 16.7139 29.9999 16.7139C33.6722 16.7139 37.194 18.1727 39.7906 20.7693C42.3873 23.366 43.8461 26.8878 43.8461 30.56Z" fill="#ED1C24"/>
<path fill-rule="evenodd" clip-rule="evenodd" d="M23.5383 30.56C23.5383 38.6757 26.2005 45.3293 29.9999 45.3293C33.7993 45.3293 36.4614 38.6757 36.4614 30.56C36.4614 22.4443 33.7993 15.7908 29.9999 15.7908C26.2005 15.7908 23.5383 22.4443 23.5383 30.56ZM34.6153 30.56C34.6153 37.7397 32.3168 43.4831 29.9999 43.4831C27.6829 43.4831 25.3845 37.7397 25.3845 30.56C25.3845 23.3803 27.6829 17.637 29.9999 17.637C32.3168 17.637 34.6153 23.3803 34.6153 30.56Z" fill="#ED1C24"/>
<path d="M18.4338 21.9053L19.6707 20.5354C19.8683 20.7126 20.0787 20.8862 20.3039 21.0542C22.7372 22.8782 26.5772 23.9896 30.7624 23.9896C34.331 23.9896 37.6615 23.1828 40.0947 21.7926C40.6553 21.4754 41.185 21.1064 41.6769 20.6905L42.8769 22.0936C42.3267 22.5643 41.7027 22.9982 41.0123 23.3933C38.2855 24.9533 34.6393 25.8357 30.7624 25.8357C26.2024 25.8357 21.971 24.6117 19.1963 22.5311C18.9326 22.3337 18.6782 22.1261 18.4338 21.9053ZM18.4338 39.237L19.6707 40.6031C19.8683 40.4259 20.0787 40.2523 20.3039 40.0862C22.7372 38.2622 26.5772 37.1508 30.7624 37.1508C34.331 37.1508 37.6615 37.9557 40.0947 39.3477C40.6873 39.6874 41.2172 40.0566 41.6769 40.448L42.8769 39.045C42.2973 38.5544 41.673 38.1193 41.0123 37.7453C38.2855 36.1871 34.6393 35.3046 30.7624 35.3046C26.2024 35.3046 21.971 36.5286 19.1963 38.6074C18.9267 38.8105 18.6719 39.021 18.4338 39.237ZM15.2307 31.4831V29.637H44.7692V31.4831H15.2307Z" fill="#ED1C24"/>
</svg>
