<svg width="21" height="16" viewBox="0 0 21 16" fill="none" xmlns="http://www.w3.org/2000/svg">
<path d="M3.50056 0.714844C2.76174 0.714844 2.05318 1.00834 1.53076 1.53076C1.00834 2.05318 0.714844 2.76174 0.714844 3.50056V12.5006C0.714844 13.2394 1.00834 13.9479 1.53076 14.4704C2.05318 14.9928 2.76174 15.2863 3.50056 15.2863H12.5023C13.2411 15.2863 13.9497 14.9928 14.4721 14.4704C14.9945 13.9479 15.288 13.2394 15.288 12.5006V11.1463L19.1803 13.8137C19.3411 13.924 19.5291 13.9884 19.7238 13.9997C19.9185 14.0111 20.1127 13.9691 20.2853 13.8782C20.4579 13.7874 20.6025 13.6511 20.7033 13.4842C20.8042 13.3172 20.8576 13.1259 20.8577 12.9308V3.06942C20.8575 2.87449 20.8041 2.68332 20.7032 2.5165C20.6024 2.34968 20.458 2.21353 20.2855 2.12271C20.113 2.03189 19.919 1.98984 19.7244 2.00109C19.5298 2.01234 19.342 2.07646 19.1811 2.18656L15.288 4.85227V3.50056C15.288 2.76174 14.9945 2.05318 14.4721 1.53076C13.9497 1.00834 13.2411 0.714844 12.5023 0.714844H3.50056ZM15.288 9.58799V6.41056L19.572 3.47742V12.5237L15.288 9.58799ZM14.0023 3.50056V12.5006C14.0023 12.8984 13.8442 13.2799 13.5629 13.5612C13.2816 13.8425 12.9001 14.0006 12.5023 14.0006H3.50056C3.10273 14.0006 2.7212 13.8425 2.4399 13.5612C2.15859 13.2799 2.00056 12.8984 2.00056 12.5006V3.50056C2.00056 2.67256 2.67256 2.00056 3.50056 2.00056H12.5023C13.3311 2.00056 14.0023 2.67256 14.0023 3.50056Z" fill="#344054"/>
</svg>
