<svg width="24" height="24" viewBox="0 0 24 24" fill="none" xmlns="http://www.w3.org/2000/svg">
<path d="M3 5.625C3 5.32663 3.11853 5.04048 3.3295 4.8295C3.54048 4.61853 3.82663 4.5 4.125 4.5H15.375C15.6734 4.5 15.9595 4.61853 16.1705 4.8295C16.3815 5.04048 16.5 5.32663 16.5 5.625C16.5 5.92337 16.3815 6.20952 16.1705 6.4205C15.9595 6.63147 15.6734 6.75 15.375 6.75H4.125C3.82663 6.75 3.54048 6.63147 3.3295 6.4205C3.11853 6.20952 3 5.92337 3 5.625ZM3 17.625C3 17.3266 3.11853 17.0405 3.3295 16.8295C3.54048 16.6185 3.82663 16.5 4.125 16.5H13.875C14.1734 16.5 14.4595 16.6185 14.6705 16.8295C14.8815 17.0405 15 17.3266 15 17.625C15 17.9234 14.8815 18.2095 14.6705 18.4205C14.4595 18.6315 14.1734 18.75 13.875 18.75H4.125C3.82663 18.75 3.54048 18.6315 3.3295 18.4205C3.11853 18.2095 3 17.9234 3 17.625ZM4.125 10.5C3.82663 10.5 3.54048 10.6185 3.3295 10.8295C3.11853 11.0405 3 11.3266 3 11.625C3 11.9234 3.11853 12.2095 3.3295 12.4205C3.54048 12.6315 3.82663 12.75 4.125 12.75H19.875C20.1734 12.75 20.4595 12.6315 20.6705 12.4205C20.8815 12.2095 21 11.9234 21 11.625C21 11.3266 20.8815 11.0405 20.6705 10.8295C20.4595 10.6185 20.1734 10.5 19.875 10.5H4.125Z" fill="#344054"/>
</svg>
