<svg width="38" height="35" viewBox="0 0 38 35" fill="none" xmlns="http://www.w3.org/2000/svg">
<g filter="url(#filter0_d_4_2561)">
<path fill-rule="evenodd" clip-rule="evenodd" d="M3.30762 16.0007C3.30762 18.0614 3.71351 20.102 4.50212 22.0058C5.29074 23.9097 6.44662 25.6396 7.90379 27.0968C9.36095 28.554 11.0909 29.7098 12.9947 30.4985C14.8986 31.2871 16.9392 31.693 18.9999 31.693C21.0607 31.693 23.1012 31.2871 25.0051 30.4985C26.909 29.7098 28.6389 28.554 30.0961 27.0968C31.5532 25.6396 32.7091 23.9097 33.4977 22.0058C34.2863 20.102 34.6922 18.0614 34.6922 16.0007C34.6922 11.8388 33.0389 7.8474 30.0961 4.90452C27.1532 1.96164 23.1618 0.30835 18.9999 0.30835C14.8381 0.30835 10.8467 1.96164 7.90379 4.90452C4.96091 7.8474 3.30762 11.8388 3.30762 16.0007ZM32.8461 16.0007C32.8461 19.6729 31.3873 23.1947 28.7906 25.7914C26.194 28.388 22.6722 29.8468 18.9999 29.8468C15.3277 29.8468 11.8059 28.388 9.20922 25.7914C6.61256 23.1947 5.15377 19.6729 5.15377 16.0007C5.15377 12.3284 6.61256 8.80661 9.20922 6.20995C11.8059 3.61329 15.3277 2.1545 18.9999 2.1545C22.6722 2.1545 26.194 3.61329 28.7906 6.20995C31.3873 8.80661 32.8461 12.3284 32.8461 16.0007Z" fill="#ED1C24"/>
<path fill-rule="evenodd" clip-rule="evenodd" d="M12.5383 16.0007C12.5383 24.1164 15.2005 30.7699 18.9999 30.7699C22.7993 30.7699 25.4614 24.1164 25.4614 16.0007C25.4614 7.88498 22.7993 1.23145 18.9999 1.23145C15.2005 1.23145 12.5383 7.88498 12.5383 16.0007ZM23.6153 16.0007C23.6153 23.1804 21.3168 28.9238 18.9999 28.9238C16.6829 28.9238 14.3845 23.1804 14.3845 16.0007C14.3845 8.82098 16.6829 3.0776 18.9999 3.0776C21.3168 3.0776 23.6153 8.82098 23.6153 16.0007Z" fill="#ED1C24"/>
<path d="M7.43379 7.34592L8.67071 5.97607C8.86825 6.1533 9.07871 6.32684 9.30394 6.49484C11.7372 8.31884 15.5772 9.43023 19.7624 9.43023C23.331 9.43023 26.6615 8.62346 29.0947 7.2333C29.6553 6.9161 30.185 6.54711 30.6769 6.13115L31.8769 7.53423C31.3267 8.005 30.7027 8.43884 30.0123 8.83392C27.2855 10.3939 23.6393 11.2764 19.7624 11.2764C15.2024 11.2764 10.971 10.0524 8.19625 7.97177C7.93259 7.77435 7.67817 7.56675 7.43379 7.34592ZM7.43379 24.6776L8.67071 26.0438C8.86825 25.8665 9.07871 25.693 9.30394 25.5268C11.7372 23.7028 15.5772 22.5915 19.7624 22.5915C23.331 22.5915 26.6615 23.3964 29.0947 24.7884C29.6873 25.1281 30.2172 25.4973 30.6769 25.8887L31.8769 24.4856C31.2973 23.9951 30.673 23.56 30.0123 23.1859C27.2855 21.6278 23.6393 20.7453 19.7624 20.7453C15.2024 20.7453 10.971 21.9693 8.19625 24.0481C7.92671 24.2512 7.67194 24.4616 7.43379 24.6776ZM4.23071 16.9238V15.0776H33.7692V16.9238H4.23071Z" fill="#ED1C24"/>
</g>
<defs>
<filter id="filter0_d_4_2561" x="-0.692383" y="0.30835" width="39.3845" height="39.3845" filterUnits="userSpaceOnUse" color-interpolation-filters="sRGB">
<feFlood flood-opacity="0" result="BackgroundImageFix"/>
<feColorMatrix in="SourceAlpha" type="matrix" values="0 0 0 0 0 0 0 0 0 0 0 0 0 0 0 0 0 0 127 0" result="hardAlpha"/>
<feOffset dy="4"/>
<feGaussianBlur stdDeviation="2"/>
<feComposite in2="hardAlpha" operator="out"/>
<feColorMatrix type="matrix" values="0 0 0 0 0 0 0 0 0 0 0 0 0 0 0 0 0 0 0.25 0"/>
<feBlend mode="normal" in2="BackgroundImageFix" result="effect1_dropShadow_4_2561"/>
<feBlend mode="normal" in="SourceGraphic" in2="effect1_dropShadow_4_2561" result="shape"/>
</filter>
</defs>
</svg>
