<svg width="40" height="41" viewBox="0 0 40 41" fill="none" xmlns="http://www.w3.org/2000/svg">
<g filter="url(#filter0_d_4_2735)">
<path d="M23.9999 25.1667V26.5C23.9999 27.5609 23.5785 28.5783 22.8283 29.3284C22.0782 30.0786 21.0608 30.5 19.9999 30.5C18.939 30.5 17.9216 30.0786 17.1715 29.3284C16.4213 28.5783 15.9999 27.5609 15.9999 26.5V25.1667M23.9999 25.1667H15.9999M23.9999 25.1667H28.7866C29.2972 25.1667 29.5532 25.1667 29.7599 25.0973C29.9543 25.0315 30.1309 24.9217 30.2759 24.7765C30.4209 24.6312 30.5304 24.4545 30.5959 24.26C30.6666 24.052 30.6666 23.796 30.6666 23.2813C30.6666 23.056 30.6666 22.944 30.6479 22.836C30.6151 22.6341 30.5362 22.4425 30.4172 22.276C30.3532 22.1867 30.2732 22.1067 30.1146 21.948L29.5946 21.428C29.5116 21.345 29.4459 21.2464 29.401 21.138C29.3562 21.0296 29.3332 20.9133 29.3332 20.796V15.8333C29.3332 14.6077 29.0918 13.394 28.6228 12.2616C28.1537 11.1292 27.4663 10.1004 26.5996 9.23367C25.7329 8.36699 24.704 7.6795 23.5716 7.21046C22.4393 6.74141 21.2256 6.5 19.9999 6.5C18.7742 6.5 17.5606 6.74141 16.4282 7.21046C15.2958 7.6795 14.2669 8.36699 13.4003 9.23367C12.5336 10.1004 11.8461 11.1292 11.377 12.2616C10.908 13.394 10.6666 14.6077 10.6666 15.8333V20.796C10.6667 20.9133 10.6436 21.0296 10.5988 21.138C10.554 21.2464 10.4882 21.345 10.4053 21.428L9.88525 21.948C9.72525 22.108 9.64659 22.1867 9.58392 22.2747C9.46396 22.4413 9.3841 22.6334 9.35059 22.836C9.33325 22.9427 9.33325 23.056 9.33325 23.2813C9.33325 23.796 9.33325 24.052 9.40259 24.26C9.46836 24.4548 9.57829 24.6317 9.72378 24.777C9.86926 24.9222 10.0464 25.0319 10.2413 25.0973C10.4479 25.1667 10.7026 25.1667 11.2133 25.1667H15.9999" stroke="#344054" stroke-width="2" stroke-linecap="round" stroke-linejoin="round"/>
</g>
<defs>
<filter id="filter0_d_4_2735" x="0" y="0.5" width="40" height="40" filterUnits="userSpaceOnUse" color-interpolation-filters="sRGB">
<feFlood flood-opacity="0" result="BackgroundImageFix"/>
<feColorMatrix in="SourceAlpha" type="matrix" values="0 0 0 0 0 0 0 0 0 0 0 0 0 0 0 0 0 0 127 0" result="hardAlpha"/>
<feOffset dy="2"/>
<feGaussianBlur stdDeviation="2"/>
<feComposite in2="hardAlpha" operator="out"/>
<feColorMatrix type="matrix" values="0 0 0 0 0 0 0 0 0 0 0 0 0 0 0 0 0 0 0.15 0"/>
<feBlend mode="normal" in2="BackgroundImageFix" result="effect1_dropShadow_4_2735"/>
<feBlend mode="normal" in="SourceGraphic" in2="effect1_dropShadow_4_2735" result="shape"/>
</filter>
</defs>
</svg>
