<svg width="16" height="16" viewBox="0 0 16 16" fill="none" xmlns="http://www.w3.org/2000/svg">
<path d="M15.0575 7.68518L8.3075 0.935183C8.0375 0.665183 7.6625 0.500183 7.25 0.500183H2C1.175 0.500183 0.5 1.17518 0.5 2.00018V7.25018C0.5 7.66268 0.665 8.03768 0.9425 8.31518L7.6925 15.0652C7.9625 15.3352 8.3375 15.5002 8.75 15.5002C9.1625 15.5002 9.5375 15.3352 9.8075 15.0577L15.0575 9.80768C15.335 9.53768 15.5 9.16268 15.5 8.75018C15.5 8.33768 15.3275 7.95518 15.0575 7.68518ZM8.75 14.0077L2 7.25018V2.00018H7.25V1.99268L14 8.74268L8.75 14.0077Z" fill="#667085"/>
</svg>
