<svg width="224" height="224" viewBox="0 0 224 224" fill="none" xmlns="http://www.w3.org/2000/svg">
<path d="M154.56 50.7733L141.027 64.3067C149.251 69.2587 156.056 76.2519 160.782 84.6081C165.508 92.9643 167.994 102.4 168 112C168 126.852 162.1 141.096 151.598 151.598C141.096 162.1 126.852 168 112 168C97.1478 168 82.904 162.1 72.402 151.598C61.8999 141.096 56 126.852 56 112C56 91.7467 66.8266 74.1067 82.88 64.2133L69.44 50.7733C59.527 57.6127 51.4251 66.7592 45.832 77.4251C40.2389 88.091 37.3223 99.9566 37.3333 112C37.3333 131.803 45.1999 150.795 59.2027 164.797C73.2054 178.8 92.1971 186.667 112 186.667C131.803 186.667 150.795 178.8 164.797 164.797C178.8 150.795 186.667 131.803 186.667 112C186.667 86.6133 173.973 64.2133 154.56 50.7733ZM121.333 28H102.667V121.333H121.333" fill="#FCFCFD"/>
</svg>
