<svg width="36" height="36" viewBox="0 0 36 36" fill="none" xmlns="http://www.w3.org/2000/svg">
<circle cx="18" cy="18" r="18" fill="white"/>
<path d="M15.5779 19.4898L16.4867 16.4798L14.095 14.724H17.0829L17.9987 11.6825L18.9145 14.724H21.9024L19.5037 16.4787L20.4137 19.4887L17.9987 17.622L15.5779 19.4898ZM12.1654 29.039V21.3507C11.4265 20.6234 10.8529 19.7718 10.4445 18.7957C10.0362 17.8219 9.83203 16.7789 9.83203 15.6667C9.83203 13.3901 10.6242 11.4601 12.2085 9.8765C13.7921 8.29217 15.7221 7.5 17.9987 7.5C20.2753 7.5 22.2053 8.29217 23.7889 9.8765C25.3732 11.4601 26.1654 13.3901 26.1654 15.6667C26.1654 16.7781 25.9612 17.8215 25.5529 18.7968C25.1445 19.7722 24.5709 20.6227 23.832 21.3483V29.0367L17.9987 27.2867L12.1654 29.0367V29.039ZM17.9987 22.6667C19.9431 22.6667 21.5959 21.9861 22.957 20.625C24.3181 19.2639 24.9987 17.6111 24.9987 15.6667C24.9987 13.7222 24.3181 12.0694 22.957 10.7083C21.5959 9.34722 19.9431 8.66667 17.9987 8.66667C16.0543 8.66667 14.4015 9.34722 13.0404 10.7083C11.6793 12.0694 10.9987 13.7222 10.9987 15.6667C10.9987 17.6111 11.6793 19.2639 13.0404 20.625C14.4015 21.9861 16.0543 22.6667 17.9987 22.6667ZM13.332 27.3847L17.9987 26.078L22.6654 27.3847V22.333C22.0144 22.8113 21.2914 23.1808 20.4965 23.4413C19.7024 23.7027 18.8698 23.8333 17.9987 23.8333C17.1276 23.8333 16.295 23.7027 15.5009 23.4413C14.706 23.1816 13.983 22.8121 13.332 22.333V27.3847Z" fill="black"/>
</svg>
