<svg width="32" height="32" viewBox="0 0 32 32" fill="none" xmlns="http://www.w3.org/2000/svg">
<path d="M9.33341 23.6663C9.33341 24.02 9.19294 24.3591 8.94289 24.6091C8.69284 24.8592 8.3537 24.9997 8.00008 24.9997C7.64646 24.9997 7.30732 24.8592 7.05727 24.6091C6.80722 24.3591 6.66675 24.02 6.66675 23.6663C6.66675 23.3127 6.80722 22.9736 7.05727 22.7235C7.30732 22.4735 7.64646 22.333 8.00008 22.333C8.3537 22.333 8.69284 22.4735 8.94289 22.7235C9.19294 22.9736 9.33341 23.3127 9.33341 23.6663ZM13.3334 23.6663C13.3334 24.02 13.1929 24.3591 12.9429 24.6091C12.6928 24.8592 12.3537 24.9997 12.0001 24.9997C11.6465 24.9997 11.3073 24.8592 11.0573 24.6091C10.8072 24.3591 10.6667 24.02 10.6667 23.6663C10.6667 23.3127 10.8072 22.9736 11.0573 22.7235C11.3073 22.4735 11.6465 22.333 12.0001 22.333C12.3537 22.333 12.6928 22.4735 12.9429 22.7235C13.1929 22.9736 13.3334 23.3127 13.3334 23.6663ZM17.6667 23.6663C17.6667 23.4011 17.7721 23.1468 17.9596 22.9592C18.1472 22.7717 18.4015 22.6663 18.6667 22.6663H24.0001C24.2653 22.6663 24.5197 22.7717 24.7072 22.9592C24.8947 23.1468 25.0001 23.4011 25.0001 23.6663C25.0001 23.9316 24.8947 24.1859 24.7072 24.3734C24.5197 24.561 24.2653 24.6663 24.0001 24.6663H18.6667C18.4015 24.6663 18.1472 24.561 17.9596 24.3734C17.7721 24.1859 17.6667 23.9316 17.6667 23.6663Z" fill="#ED1C24"/>
<path fill-rule="evenodd" clip-rule="evenodd" d="M3.50408 8.13162C3.73431 8.00015 4.00732 7.96548 4.26309 8.03524C4.51887 8.105 4.73648 8.27347 4.86808 8.50362L9.91342 17.333H22.0868L27.1321 8.50362C27.267 8.28004 27.4839 8.11808 27.7367 8.05236C27.9894 7.98664 28.2578 8.02237 28.4845 8.15192C28.7112 8.28147 28.8782 8.49456 28.9499 8.74565C29.0216 8.99674 28.9922 9.2659 28.8681 9.49562L24.3894 17.333C25.4468 17.333 26.3388 17.3423 27.0588 17.4396C27.8961 17.5516 28.6521 17.7996 29.2588 18.4076C29.8668 19.0143 30.1148 19.7703 30.2268 20.6076C30.3334 21.3996 30.3334 22.3996 30.3334 23.597V23.7356C30.3334 24.9343 30.3334 25.933 30.2268 26.725C30.1148 27.5623 29.8668 28.3183 29.2588 28.925C28.6521 29.533 27.8961 29.781 27.0588 29.893C26.2668 29.9996 25.2681 29.9996 24.0694 29.9996H7.93075C6.73342 29.9996 5.73342 29.9996 4.94142 29.893C4.10408 29.781 3.34808 29.533 2.74141 28.925C2.13341 28.3183 1.88541 27.5623 1.77341 26.725C1.66675 25.933 1.66675 24.933 1.66675 23.7356V23.597C1.66675 22.3983 1.66675 21.3996 1.77341 20.6076C1.88541 19.7703 2.13341 19.0143 2.74008 18.4076C3.34808 17.7996 4.10408 17.5516 4.94008 17.4396C5.66142 17.3423 6.55342 17.333 7.61075 17.333L3.13075 9.49562C2.99939 9.26523 2.96492 8.9921 3.03493 8.7363C3.10495 8.48051 3.2737 8.263 3.50408 8.13162ZM22.6468 19.333H24.0001C25.2854 19.333 26.1494 19.3356 26.7934 19.421C27.4081 19.505 27.6721 19.6476 27.8454 19.821C28.0188 19.9943 28.1614 20.2583 28.2454 20.8743C28.3308 21.517 28.3334 22.381 28.3334 23.6663C28.3334 24.9516 28.3308 25.8156 28.2441 26.4596C28.1614 27.0743 28.0188 27.3383 27.8441 27.5116C27.6707 27.685 27.4081 27.8276 26.7934 27.9116C26.1494 27.997 25.2854 27.9996 24.0001 27.9996H8.00008C6.71475 27.9996 5.85075 27.997 5.20675 27.9103C4.59208 27.8276 4.32808 27.685 4.15475 27.5103C3.98141 27.337 3.83875 27.0743 3.75475 26.4596C3.66941 25.8156 3.66675 24.9516 3.66675 23.6663C3.66675 22.381 3.66941 21.517 3.75608 20.873C3.83875 20.2583 3.98142 19.9943 4.15608 19.821C4.32942 19.6476 4.59208 19.505 5.20675 19.421C5.85075 19.3356 6.71475 19.333 8.00008 19.333H22.6468Z" fill="#ED1C24"/>
<path fill-rule="evenodd" clip-rule="evenodd" d="M16 6.5C15.337 6.5 14.7011 6.76339 14.2322 7.23223C13.7634 7.70107 13.5 8.33696 13.5 9C13.5 9.66304 13.7634 10.2989 14.2322 10.7678C14.7011 11.2366 15.337 11.5 16 11.5C16.663 11.5 17.2989 11.2366 17.7678 10.7678C18.2366 10.2989 18.5 9.66304 18.5 9C18.5 8.33696 18.2366 7.70107 17.7678 7.23223C17.2989 6.76339 16.663 6.5 16 6.5ZM14.5 9C14.5 8.60218 14.658 8.22064 14.9393 7.93934C15.2206 7.65804 15.6022 7.5 16 7.5C16.3978 7.5 16.7794 7.65804 17.0607 7.93934C17.342 8.22064 17.5 8.60218 17.5 9C17.5 9.39783 17.342 9.77936 17.0607 10.0607C16.7794 10.342 16.3978 10.5 16 10.5C15.6022 10.5 15.2206 10.342 14.9393 10.0607C14.658 9.77936 14.5 9.39783 14.5 9Z" fill="#ED1C24"/>
<path fill-rule="evenodd" clip-rule="evenodd" d="M15.9833 1.83301C15.6867 1.83301 15.4393 1.83301 15.2367 1.84634C15.0295 1.85497 14.8252 1.89777 14.632 1.97301C14.4095 2.06507 14.2073 2.20006 14.037 2.37027C13.8667 2.54048 13.7316 2.74257 13.6393 2.96501C13.5427 3.19834 13.5167 3.44501 13.506 3.71301C13.5049 3.81102 13.479 3.90716 13.4306 3.9924C13.3822 4.07764 13.313 4.14919 13.2293 4.20034C13.1433 4.24734 13.0467 4.2717 12.9486 4.27111C12.8505 4.27053 12.7542 4.24503 12.6687 4.19701C12.4313 4.07167 12.2047 3.97101 11.954 3.93767C11.7153 3.90628 11.4728 3.9222 11.2402 3.98454C11.0077 4.04688 10.7897 4.15442 10.5987 4.30101C10.4372 4.43093 10.2982 4.58657 10.1873 4.76167C10.074 4.93101 9.95001 5.14501 9.80201 5.40167L9.78535 5.43101C9.63668 5.68767 9.51335 5.90167 9.42401 6.08434C9.33068 6.27501 9.25735 6.46301 9.23068 6.67101C9.16708 7.153 9.29753 7.64052 9.59335 8.02634C9.74735 8.22701 9.94801 8.37301 10.1747 8.51568C10.2592 8.56564 10.3296 8.63628 10.3793 8.72095C10.429 8.80562 10.4563 8.90153 10.4587 8.99968C10.4563 9.09782 10.429 9.19373 10.3793 9.27841C10.3296 9.36308 10.2592 9.43371 10.1747 9.48368C9.94801 9.62634 9.74801 9.77234 9.59335 9.97301C9.44676 10.164 9.33922 10.382 9.27688 10.6145C9.21454 10.8471 9.19861 11.0896 9.23001 11.3283C9.25735 11.5363 9.33001 11.7243 9.42335 11.915C9.51335 12.0977 9.63668 12.3117 9.78535 12.5683L9.80201 12.5977C9.95001 12.8543 10.074 13.0683 10.1873 13.2377C10.3053 13.413 10.432 13.571 10.5987 13.6977C10.7896 13.8444 11.0076 13.952 11.2401 14.0145C11.4727 14.0769 11.7153 14.093 11.954 14.0617C12.2047 14.0283 12.4313 13.9283 12.6687 13.8023C12.7541 13.7544 12.8503 13.7289 12.9482 13.7283C13.0462 13.7277 13.1427 13.7521 13.2287 13.799C13.3128 13.8498 13.3824 13.9212 13.4311 14.0065C13.4798 14.0918 13.5058 14.1881 13.5067 14.2863C13.5167 14.5543 13.5427 14.801 13.64 15.0343C13.7321 15.2568 13.8671 15.459 14.0373 15.6294C14.2075 15.7997 14.4096 15.9348 14.632 16.027C14.8253 16.107 15.0253 16.1383 15.2367 16.1523C15.4393 16.1663 15.6867 16.1663 15.9833 16.1663H16.0167C16.3133 16.1663 16.5607 16.1663 16.7633 16.153C16.9753 16.1383 17.1747 16.107 17.368 16.0263C17.5905 15.9343 17.7927 15.7993 17.963 15.6291C18.1333 15.4589 18.2685 15.2568 18.3607 15.0343C18.4573 14.801 18.4833 14.5543 18.494 14.2863C18.495 14.1882 18.5209 14.0919 18.5693 14.0066C18.6177 13.9212 18.687 13.8496 18.7707 13.7983C18.8568 13.7514 18.9535 13.7272 19.0515 13.7279C19.1496 13.7286 19.2459 13.7542 19.3313 13.8023C19.5687 13.9277 19.7953 14.0283 20.046 14.061C20.528 14.1246 21.0155 13.9942 21.4013 13.6983C21.568 13.5703 21.6947 13.413 21.8127 13.2377C21.926 13.0683 22.05 12.8543 22.198 12.5977L22.2147 12.5683C22.3633 12.3117 22.4867 12.0977 22.576 11.915C22.6693 11.7243 22.7427 11.5357 22.7693 11.3283C22.8329 10.8463 22.7025 10.3588 22.4067 9.97301C22.2527 9.77234 22.052 9.62634 21.8253 9.48368C21.7408 9.43371 21.6704 9.36308 21.6207 9.27841C21.5711 9.19373 21.5437 9.09782 21.5413 8.99968C21.5413 8.81434 21.6427 8.63034 21.8253 8.51568C22.052 8.37301 22.252 8.22701 22.4067 8.02634C22.5533 7.83535 22.6608 7.61736 22.7231 7.38481C22.7855 7.15226 22.8014 6.90971 22.77 6.67101C22.7383 6.46615 22.673 6.26793 22.5767 6.08434C22.4629 5.86284 22.3421 5.64496 22.2147 5.43101L22.198 5.40167C22.0762 5.1844 21.9477 4.97096 21.8127 4.76167C21.7018 4.58675 21.5628 4.43133 21.4013 4.30167C21.2104 4.15497 20.9924 4.04731 20.7599 3.98486C20.5273 3.9224 20.2848 3.90637 20.046 3.93767C19.7953 3.97101 19.5687 4.07101 19.3313 4.19701C19.2459 4.24491 19.1497 4.27035 19.0518 4.27093C18.9538 4.27151 18.8573 4.24722 18.7713 4.20034C18.6875 4.14935 18.618 4.07787 18.5693 3.99262C18.5207 3.90737 18.4946 3.81115 18.4933 3.71301C18.4833 3.44501 18.4573 3.19834 18.36 2.96501C18.268 2.74251 18.133 2.54032 17.9628 2.37C17.7925 2.19968 17.5904 2.06455 17.368 1.97234C17.1747 1.89234 16.9747 1.86101 16.7633 1.84701C16.5607 1.83301 16.3133 1.83301 16.0167 1.83301H15.9833ZM15.0147 2.89634C15.066 2.87501 15.144 2.85567 15.3047 2.84434C15.4693 2.83301 15.6827 2.83301 16 2.83301C16.3173 2.83301 16.5307 2.83301 16.6953 2.84434C16.856 2.85567 16.934 2.87501 16.9853 2.89634C17.19 2.98101 17.352 3.14301 17.4367 3.34767C17.4633 3.41167 17.4853 3.51234 17.494 3.75034C17.514 4.27834 17.7867 4.78701 18.2707 5.06634C18.7547 5.34634 19.3313 5.32768 19.7987 5.08101C20.0093 4.96968 20.1073 4.93834 20.1767 4.92967C20.3957 4.90073 20.6173 4.95996 20.7927 5.09434C20.8367 5.12834 20.8927 5.18634 20.9827 5.31967C21.0753 5.45701 21.182 5.64167 21.3407 5.91634C21.4993 6.19101 21.6053 6.37634 21.678 6.52434C21.7493 6.66901 21.7713 6.74634 21.778 6.80168C21.807 7.02072 21.7477 7.24229 21.6133 7.41768C21.5707 7.47301 21.4947 7.54234 21.2933 7.66901C20.8453 7.95034 20.5413 8.44101 20.5413 8.99968C20.5413 9.55834 20.8453 10.049 21.2933 10.3303C21.4947 10.457 21.5707 10.5263 21.6133 10.5817C21.748 10.757 21.8067 10.9783 21.778 11.1977C21.7713 11.253 21.7487 11.331 21.678 11.475C21.6053 11.6237 21.4993 11.8083 21.3407 12.083C21.182 12.3577 21.0747 12.5423 20.9827 12.6797C20.8927 12.813 20.8367 12.871 20.7927 12.905C20.6173 13.0394 20.3957 13.0986 20.1767 13.0697C20.1073 13.061 20.01 13.0297 19.7987 12.9183C19.332 12.6717 18.7547 12.653 18.2707 12.9323C17.7867 13.2123 17.514 13.721 17.494 14.249C17.4853 14.487 17.4633 14.5877 17.4367 14.6517C17.3948 14.7529 17.3334 14.8448 17.2559 14.9223C17.1785 14.9997 17.0865 15.0611 16.9853 15.103C16.934 15.1243 16.856 15.1437 16.6953 15.155C16.5307 15.1663 16.3173 15.1663 16 15.1663C15.6827 15.1663 15.4693 15.1663 15.3047 15.155C15.144 15.1437 15.066 15.1243 15.0147 15.103C14.9135 15.0611 14.8215 14.9997 14.7441 14.9223C14.6666 14.8448 14.6052 14.7529 14.5633 14.6517C14.5367 14.5877 14.5147 14.487 14.506 14.249C14.486 13.721 14.2133 13.2123 13.7293 12.933C13.2453 12.653 12.6687 12.6717 12.2013 12.9183C11.9907 13.0297 11.8927 13.061 11.8233 13.0697C11.6043 13.0986 11.3827 13.0394 11.2073 12.905C11.1633 12.871 11.1073 12.813 11.0173 12.6797C10.892 12.4845 10.7726 12.2855 10.6593 12.083C10.5007 11.8083 10.3947 11.623 10.322 11.475C10.2507 11.3303 10.2287 11.253 10.222 11.1977C10.1931 10.9786 10.2523 10.7571 10.3867 10.5817C10.4293 10.5263 10.5053 10.457 10.7067 10.3303C11.1547 10.049 11.4587 9.55834 11.4587 8.99968C11.4587 8.44101 11.1547 7.95034 10.7067 7.66901C10.5053 7.54234 10.4293 7.47301 10.3867 7.41768C10.2523 7.24229 10.1931 7.02072 10.222 6.80168C10.2287 6.74634 10.2513 6.66834 10.322 6.52434C10.3947 6.37567 10.5007 6.19101 10.6593 5.91634C10.818 5.64167 10.9253 5.45701 11.0173 5.31967C11.1073 5.18634 11.1633 5.12834 11.2073 5.09434C11.3827 4.95996 11.6043 4.90073 11.8233 4.92967C11.8927 4.93834 11.99 4.96968 12.2013 5.08101C12.668 5.32768 13.2453 5.34634 13.7293 5.06634C14.2133 4.78701 14.486 4.27834 14.506 3.75034C14.5147 3.51234 14.5367 3.41167 14.5633 3.34767C14.648 3.14301 14.81 2.98101 15.0147 2.89634Z" fill="#ED1C24"/>
</svg>
