<svg width="24" height="24" viewBox="0 0 24 24" fill="none" xmlns="http://www.w3.org/2000/svg">
<path d="M19.3374 16.0098C19.6595 15.7039 19.916 15.3356 20.0913 14.9274C20.2666 14.5193 20.357 14.0797 20.357 13.6355C20.357 13.1912 20.2666 12.7517 20.0913 12.3435C19.916 11.9353 19.6595 11.5671 19.3374 11.2612C18.678 10.6354 17.8036 10.2865 16.8946 10.2865C15.9855 10.2865 15.1111 10.6354 14.4517 11.2612L12.0003 13.7126L9.54885 11.2612C8.88947 10.6354 8.01506 10.2865 7.10599 10.2865C6.19691 10.2865 5.32251 10.6354 4.66313 11.2612C4.34101 11.5671 4.08451 11.9353 3.90923 12.3435C3.73395 12.7517 3.64355 13.1912 3.64355 13.6355C3.64355 14.0797 3.73395 14.5193 3.90923 14.9274C4.08451 15.3356 4.34101 15.7039 4.66313 16.0098L12.0003 23.1412L19.3374 16.0098ZM12.0003 7.71261C12.9096 7.71261 13.7817 7.35139 14.4246 6.70841C15.0676 6.06542 15.4288 5.19335 15.4288 4.28404C15.4288 3.37473 15.0676 2.50266 14.4246 1.85967C13.7817 1.21669 12.9096 0.855469 12.0003 0.855469C11.091 0.855469 10.2189 1.21669 9.57591 1.85967C8.93293 2.50266 8.5717 3.37473 8.5717 4.28404C8.5717 5.19335 8.93293 6.06542 9.57591 6.70841C10.2189 7.35139 11.091 7.71261 12.0003 7.71261Z" stroke="#344054" stroke-width="1.5" stroke-linecap="round" stroke-linejoin="round"/>
</svg>
