<svg width="16" height="16" viewBox="0 0 16 16" fill="none" xmlns="http://www.w3.org/2000/svg">
<path d="M3.28617 3.28601C3.4119 3.16457 3.5803 3.09738 3.7551 3.0989C3.9299 3.10041 4.09711 3.17053 4.22071 3.29413C4.34432 3.41774 4.41443 3.58495 4.41595 3.75974C4.41747 3.93454 4.35027 4.10294 4.22883 4.22868C3.73277 4.72333 3.33939 5.31117 3.07132 5.9584C2.80325 6.60563 2.66579 7.29947 2.66683 8.00001C2.66572 8.70057 2.80315 9.39443 3.07122 10.0417C3.33929 10.6889 3.73271 11.2767 4.22883 11.7713C4.29496 11.8322 4.3481 11.9058 4.38506 11.9877C4.42201 12.0697 4.44202 12.1582 4.44388 12.2481C4.44574 12.3379 4.42942 12.4272 4.39589 12.5106C4.36236 12.594 4.31231 12.6697 4.24876 12.7333C4.18521 12.7968 4.10947 12.8469 4.02609 12.8804C3.9427 12.9139 3.8534 12.9303 3.76355 12.9284C3.6737 12.9265 3.58515 12.9065 3.50322 12.8696C3.4213 12.8326 3.3477 12.7795 3.28683 12.7133C2.66691 12.095 2.17522 11.3604 1.84001 10.5515C1.5048 9.74267 1.33267 8.87557 1.3335 8.00001C1.33249 7.12439 1.50448 6.25719 1.83957 5.44822C2.17467 4.63925 2.66628 3.90445 3.28617 3.28601ZM11.7715 3.28601C11.8965 3.16103 12.0661 3.09082 12.2428 3.09082C12.4196 3.09082 12.5891 3.16103 12.7142 3.28601C13.3341 3.90445 13.8257 4.63925 14.1608 5.44822C14.4959 6.25719 14.6678 7.12439 14.6668 8.00001C14.6678 8.87564 14.4959 9.74284 14.1608 10.5518C13.8257 11.3608 13.3341 12.0956 12.7142 12.714C12.5884 12.8355 12.42 12.9026 12.2452 12.9011C12.0704 12.8996 11.9032 12.8295 11.7796 12.7059C11.656 12.5823 11.5859 12.4151 11.5844 12.2403C11.5829 12.0655 11.6501 11.8971 11.7715 11.7713C12.2676 11.2767 12.6609 10.6888 12.929 10.0416C13.1971 9.39439 13.3345 8.70056 13.3335 8.00001C13.3346 7.29946 13.1972 6.6056 12.9291 5.95836C12.661 5.31112 12.2676 4.72329 11.7715 4.22868C11.6465 4.10366 11.5763 3.93412 11.5763 3.75734C11.5763 3.58057 11.6465 3.41103 11.7715 3.28601ZM6.11483 5.17134C6.17682 5.23326 6.22599 5.30679 6.25954 5.38772C6.29309 5.46865 6.31036 5.5554 6.31036 5.64301C6.31036 5.73062 6.29309 5.81737 6.25954 5.89831C6.22599 5.97924 6.17682 6.05276 6.11483 6.11468C5.86672 6.36189 5.66995 6.65574 5.53586 6.97931C5.40176 7.30287 5.33299 7.64976 5.3335 8.00001C5.3335 8.75335 5.64483 9.43201 6.14683 9.91801C6.2125 9.97818 6.26545 10.0509 6.30255 10.1319C6.33965 10.2128 6.36015 10.3004 6.36283 10.3895C6.36552 10.4785 6.35034 10.5671 6.31819 10.6502C6.28604 10.7333 6.23757 10.809 6.17565 10.8731C6.11372 10.9371 6.0396 10.988 5.95765 11.0229C5.8757 11.0578 5.7876 11.0759 5.69853 11.0762C5.60946 11.0765 5.52125 11.0589 5.43908 11.0245C5.35692 10.9901 5.28249 10.9396 5.22017 10.876C4.83381 10.5033 4.52662 10.0566 4.31699 9.56238C4.10736 9.0682 3.9996 8.53681 4.00017 8.00001C4.00017 6.89535 4.44883 5.89468 5.1715 5.17134C5.23342 5.10936 5.30694 5.06019 5.38787 5.02664C5.46881 4.99309 5.55556 4.97582 5.64317 4.97582C5.73078 4.97582 5.81753 4.99309 5.89846 5.02664C5.97939 5.06019 6.05292 5.10936 6.11483 5.17134ZM10.8548 5.19801C11.5899 5.94527 12.0013 6.95181 12.0002 8.00001C12.0008 8.52541 11.8977 9.04576 11.6967 9.53119C11.4956 10.0166 11.2007 10.4575 10.8288 10.8287C10.7037 10.9538 10.5341 11.0241 10.3572 11.0241C10.1803 11.0241 10.0106 10.9538 9.8855 10.8287C9.76041 10.7036 9.69013 10.5339 9.69013 10.357C9.69013 10.1801 9.76041 10.0104 9.8855 9.88535C10.1336 9.63813 10.3304 9.34428 10.4645 9.02072C10.5986 8.69715 10.6673 8.35026 10.6668 8.00001C10.6668 7.27268 10.3762 6.61335 9.9035 6.13201C9.78268 6.00526 9.71658 5.83607 9.71948 5.66098C9.72238 5.4859 9.79405 5.31899 9.919 5.19631C10.044 5.07363 10.2122 5.00504 10.3873 5.00536C10.5624 5.00568 10.7303 5.07488 10.8548 5.19801ZM8.00017 7.00001C8.26538 7.00001 8.51974 7.10537 8.70727 7.29291C8.89481 7.48044 9.00017 7.7348 9.00017 8.00001C9.00017 8.26523 8.89481 8.51958 8.70727 8.70712C8.51974 8.89466 8.26538 9.00001 8.00017 9.00001C7.73495 9.00001 7.4806 8.89466 7.29306 8.70712C7.10552 8.51958 7.00017 8.26523 7.00017 8.00001C7.00017 7.7348 7.10552 7.48044 7.29306 7.29291C7.4806 7.10537 7.73495 7.00001 8.00017 7.00001Z" fill="#ED1C24"/>
</svg>
