<svg width="390" height="451" viewBox="0 0 390 451" fill="none" xmlns="http://www.w3.org/2000/svg">
<path d="M421 344.925H-30V345.15H421V344.925Z" fill="#EBEBEB"/>
<path d="M375.81 359.438H345.936V359.663H375.81V359.438Z" fill="#EBEBEB"/>
<path d="M268.761 361.892H260.922V362.117H268.761V361.892Z" fill="#EBEBEB"/>
<path d="M345.034 351.068H327.724V351.293H345.034V351.068Z" fill="#EBEBEB"/>
<path d="M56.2764 352.583H17.319V352.809H56.2764V352.583Z" fill="#EBEBEB"/>
<path d="M70.0228 352.583H64.3131V352.809H70.0228V352.583Z" fill="#EBEBEB"/>
<path d="M173.085 356.389H88.5859V356.615H173.085V356.389Z" fill="#EBEBEB"/>
<path d="M183.774 304.696H9.60685C8.24244 304.693 6.93473 304.15 5.97079 303.184C5.00685 302.218 4.46545 300.91 4.46545 299.545V54.7154C4.47733 53.3588 5.02397 52.0617 5.98663 51.1058C6.94929 50.1499 8.25022 49.6124 9.60685 49.6101H183.774C185.14 49.6101 186.45 50.1527 187.416 51.1186C188.382 52.0845 188.924 53.3946 188.924 54.7605V299.545C188.924 300.911 188.382 302.221 187.416 303.187C186.45 304.153 185.14 304.696 183.774 304.696ZM9.60685 49.7905C8.30225 49.7929 7.05189 50.3128 6.13024 51.2362C5.20859 52.1595 4.69095 53.4108 4.69095 54.7154V299.545C4.69095 300.85 5.20859 302.101 6.13024 303.025C7.05189 303.948 8.30225 304.468 9.60685 304.47H183.774C185.079 304.468 186.331 303.948 187.254 303.025C188.177 302.102 188.697 300.851 188.699 299.545V54.7154C188.697 53.41 188.177 52.1587 187.254 51.2356C186.331 50.3125 185.079 49.7929 183.774 49.7905H9.60685Z" fill="#EBEBEB"/>
<path d="M378.886 304.696H204.709C203.344 304.693 202.036 304.15 201.07 303.185C200.105 302.219 199.561 300.911 199.559 299.545V54.7154C199.573 53.358 200.122 52.0609 201.086 51.1053C202.05 50.1496 203.352 49.6124 204.709 49.6101H378.886C380.241 49.6148 381.539 50.1533 382.5 51.109C383.461 52.0646 384.006 53.3604 384.018 54.7154V299.545C384.018 300.908 383.478 302.215 382.516 303.181C381.554 304.146 380.248 304.691 378.886 304.696ZM204.709 49.7905C203.404 49.7929 202.153 50.3125 201.23 51.2356C200.306 52.1587 199.787 53.41 199.784 54.7154V299.545C199.787 300.851 200.306 302.102 201.23 303.025C202.153 303.948 203.404 304.468 204.709 304.47H378.886C380.191 304.468 381.442 303.948 382.365 303.025C383.288 302.102 383.808 300.851 383.811 299.545V54.7154C383.808 53.41 383.288 52.1587 382.365 51.2356C381.442 50.3125 380.191 49.7929 378.886 49.7905H204.709Z" fill="#EBEBEB"/>
<path d="M311.199 288.324V301.133L316.611 305.066H291.355L299.419 302.071V289.217L311.199 288.324Z" fill="#E0E0E0"/>
<path d="M243.072 304.696V345.042H355.822V304.696H243.072ZM245.101 307.312H333.353V320.499H245.11L245.101 307.312Z" fill="#E0E0E0"/>
<path d="M243.072 304.696V345.042H336.068V304.696H243.072ZM245.101 307.312H333.353V320.499H245.11L245.101 307.312Z" fill="#EBEBEB"/>
<path d="M245.101 320.499H263.285V307.312H245.101V320.499Z" fill="#E0E0E0"/>
<path d="M310.848 320.499H333.353V313.905H310.848V320.499Z" fill="#E0E0E0"/>
<path d="M292.249 320.499H309.188V316.584H292.249V320.499Z" fill="#E0E0E0"/>
<path d="M272.197 320.499H288.334V312.489H272.197V320.499Z" fill="#E0E0E0"/>
<path d="M317.36 323.367L317.838 324.946H324.315L324.802 323.367H333.353V340.875H304.967V323.367H317.36Z" fill="#E0E0E0"/>
<path d="M283.625 323.367L284.112 324.946H290.589L291.076 323.367H303.46V340.875H275.074V323.367H283.625Z" fill="#E0E0E0"/>
<path d="M257.576 323.367L258.054 324.946H264.53L265.017 323.367H273.568V340.875H245.182V323.367H257.576Z" fill="#E0E0E0"/>
<path d="M259.56 295.982H343.437C345.196 295.982 346.621 294.557 346.621 292.798V244.641C346.621 242.882 345.196 241.457 343.437 241.457H259.56C257.802 241.457 256.376 242.882 256.376 244.641V292.798C256.376 294.557 257.802 295.982 259.56 295.982Z" fill="#E0E0E0"/>
<path d="M257.44 295.982H341.317C343.076 295.982 344.501 294.557 344.501 292.798V244.641C344.501 242.882 343.076 241.457 341.317 241.457H257.44C255.682 241.457 254.256 242.882 254.256 244.641V292.798C254.256 294.557 255.682 295.982 257.44 295.982Z" fill="#E6E6E6"/>
<path d="M341.849 293.331V244.099H256.908V293.331H341.849Z" fill="#F0F0F0"/>
<path d="M142.408 97.0913H35.4041V207.658H142.408V97.0913Z" fill="#EBEBEB"/>
<path d="M146.152 97.0913H39.1473V207.658H146.152V97.0913Z" fill="#F0F0F0"/>
<path d="M143.319 99.7163H41.8444V205.097H143.319V99.7163Z" fill="#E0E0E0"/>
<path d="M140.785 99.7163H41.8444V205.097H140.785V99.7163Z" fill="#F5F5F5"/>
<path d="M92.3383 99.7163H90.3268V205.097H92.3383V99.7163Z" fill="#EBEBEB"/>
<path d="M103.866 99.7163L132.062 205.088H134.768L106.572 99.7163H103.866Z" fill="white"/>
<path d="M93.1951 98.0925H91.4723V207.117H93.1951V98.0925Z" fill="#F0F0F0"/>
<path d="M114.094 99.7163L140.785 199.441V144.627L128.77 99.7163H114.094Z" fill="white"/>
<path d="M41.8444 109.277V119.389L64.7822 205.088H67.4882L41.8444 109.277Z" fill="white"/>
<path d="M41.8444 129.699V184.513L47.3466 205.088H62.0131L41.8444 129.699Z" fill="white"/>
<path d="M330.394 103.396H265.604V182.231H330.394V103.396Z" fill="#E6E6E6"/>
<path d="M315.565 162.703L281.524 129.239L318.352 123.159L315.565 162.703Z" fill="#E0E0E0"/>
<path d="M282.345 154.774L280.658 129.112L306.293 135.408L308.151 155.036L282.345 154.774Z" fill="#F0F0F0"/>
<path d="M323.194 125.976C327.234 121.936 327.234 115.385 323.194 111.345C319.154 107.305 312.603 107.305 308.563 111.345C304.522 115.385 304.522 121.936 308.563 125.976C312.603 130.017 319.154 130.017 323.194 125.976Z" fill="#FAFAFA"/>
<path d="M285.7 163.921C285.702 162.926 285.408 161.954 284.857 161.126C284.306 160.298 283.521 159.653 282.603 159.272C281.684 158.89 280.673 158.79 279.698 158.984C278.722 159.177 277.826 159.656 277.123 160.359C276.42 161.062 275.941 161.958 275.748 162.934C275.554 163.909 275.655 164.92 276.036 165.838C276.417 166.757 277.063 167.541 277.89 168.093C278.718 168.644 279.69 168.938 280.685 168.936C282.014 168.933 283.288 168.404 284.228 167.464C285.168 166.524 285.698 165.25 285.7 163.921Z" fill="#E0E0E0"/>
<path d="M281.866 172.742L296.353 163.921L284.176 153.881L281.866 172.742Z" fill="#F5F5F5"/>
<path d="M298.986 176.377H301.837V113.427H298.986V176.377Z" fill="#E0E0E0"/>
<path d="M271.683 173.59H275.372V113.427H271.683V173.59Z" fill="#EBEBEB"/>
<path d="M305.048 173.879H323.882V155.045H305.048V173.879Z" fill="#EBEBEB"/>
<path d="M89.8758 305.39L77.9513 271.024C77.9513 271.024 94.476 283.282 94.3858 269.698C94.2956 256.114 86.8451 266.667 84.2744 261.643C81.7037 256.619 91.6076 256.673 88.1259 249.06C84.6442 241.447 74.7673 253.146 73.0174 246.399C71.2675 239.653 68.5074 236.225 61.2914 236.829C61.2914 236.829 57.4038 245.705 62.1934 252.118C66.983 258.531 50.3682 253.381 52.082 259.83C53.7958 266.28 59.298 271.908 61.7424 267.371C64.1868 262.834 67.2626 271.529 63.1044 273.775C58.9462 276.021 68.5164 285.727 70.6542 280.63C72.123 277.245 73.9366 274.02 76.0662 271.006L87.0615 307.781L89.8758 305.39Z" fill="#EBEBEB"/>
<path d="M102.17 305.697L115.61 283.715C115.61 283.715 102.314 289.705 104.443 280.315C106.572 270.925 110.117 279.35 112.66 276.265C115.204 273.18 108.331 271.755 111.894 266.974C115.457 262.194 120.526 271.818 122.718 267.416C124.909 263.014 127.381 261.057 132.279 262.563C132.279 262.563 133.632 269.292 129.356 273.009C125.081 276.725 137.33 275.715 135.192 279.882C133.055 284.049 128.373 287.152 127.372 283.643C126.371 280.134 122.916 285.691 125.46 287.864C128.003 290.038 119.885 295.315 119.2 291.472C118.694 288.908 117.926 286.402 116.909 283.995L103.749 307.781L102.17 305.697Z" fill="#E6E6E6"/>
<path d="M93.114 305.904L99.2657 270.501C99.2657 270.501 85.0952 285.086 83.0297 271.818C80.9641 258.549 89.8939 267.659 91.6077 262.347C93.3215 257.034 83.661 258.676 85.8439 250.693C88.0267 242.71 99.5272 252.551 100.159 245.696C100.79 238.841 102.955 235.052 110.081 234.502C110.081 234.502 115.285 242.53 111.65 249.547C108.015 256.565 123.376 248.907 122.745 255.464C122.113 262.022 117.63 268.39 114.537 264.349C111.443 260.308 109.81 269.292 114.221 270.807C118.632 272.323 110.82 283.327 107.952 278.7C105.982 275.634 103.7 272.78 101.142 270.185L96.28 307.78L93.114 305.904Z" fill="#F5F5F5"/>
<path d="M85.456 345.71H106.581C107.294 345.711 107.98 345.44 108.5 344.952C109.02 344.464 109.333 343.796 109.377 343.085L111.614 306.68C111.637 306.299 111.583 305.918 111.453 305.559C111.324 305.201 111.122 304.872 110.861 304.594C110.6 304.316 110.285 304.095 109.935 303.943C109.585 303.791 109.208 303.713 108.827 303.712H83.21C82.8287 303.713 82.4515 303.791 82.1017 303.943C81.7518 304.095 81.4367 304.316 81.1756 304.594C80.9146 304.872 80.7131 305.201 80.5837 305.559C80.4542 305.918 80.3995 306.299 80.4229 306.68L82.6598 343.13C82.7144 343.833 83.033 344.49 83.5516 344.968C84.0702 345.447 84.7504 345.712 85.456 345.71Z" fill="#EBEBEB"/>
<path d="M80.7205 307.781H111.614C112.301 307.781 112.964 307.528 113.476 307.07C113.989 306.613 114.315 305.983 114.392 305.3C114.439 304.907 114.403 304.509 114.285 304.132C114.167 303.754 113.97 303.406 113.707 303.11C113.445 302.814 113.122 302.578 112.761 302.416C112.401 302.254 112.01 302.17 111.614 302.17H80.7205C80.3267 302.17 79.9373 302.253 79.5778 302.414C79.2184 302.575 78.897 302.81 78.6347 303.104C78.3725 303.398 78.1752 303.744 78.0559 304.119C77.9366 304.494 77.8979 304.891 77.9423 305.282C78.0157 305.968 78.34 306.602 78.8528 307.063C79.3656 307.525 80.0308 307.78 80.7205 307.781Z" fill="#F5F5F5"/>
<path d="M195.5 385.659C292.088 385.659 370.389 381.088 370.389 375.448C370.389 369.809 292.088 365.238 195.5 365.238C98.9116 365.238 20.6112 369.809 20.6112 375.448C20.6112 381.088 98.9116 385.659 195.5 385.659Z" fill="#F5F5F5"/>
<path d="M291.41 107.906V361.792C291.41 362.318 291.305 362.838 291.102 363.322C290.899 363.807 290.602 364.246 290.228 364.615C289.853 364.983 289.409 365.274 288.921 365.469C288.434 365.664 287.912 365.76 287.387 365.752H150.968C150.492 365.759 150.02 365.671 149.579 365.492C149.138 365.313 148.737 365.048 148.401 364.711C148.064 364.375 147.799 363.974 147.62 363.533C147.441 363.092 147.353 362.62 147.36 362.144V107.581C147.343 107.16 147.41 106.74 147.556 106.344C147.702 105.949 147.925 105.586 148.211 105.276C148.498 104.967 148.843 104.718 149.226 104.542C149.609 104.366 150.024 104.268 150.445 104.253H182.872C183.372 104.263 183.859 104.422 184.268 104.709C184.678 104.997 184.993 105.4 185.172 105.868L186.66 109.476C186.843 109.941 187.16 110.342 187.572 110.626C187.983 110.91 188.47 111.066 188.969 111.072H249.954C250.45 111.068 250.933 110.917 251.343 110.638C251.752 110.358 252.069 109.963 252.254 109.503L253.742 105.832C253.921 105.363 254.235 104.959 254.645 104.67C255.055 104.38 255.541 104.22 256.042 104.208H287.919C288.871 104.239 289.773 104.645 290.427 105.338C291.081 106.03 291.434 106.954 291.41 107.906Z" fill="#263238"/>
<path d="M291.419 121.193H147.378V347.748H291.419V121.193Z" fill="#FF9494"/>
<path opacity="0.7" d="M291.419 121.193H147.378V347.748H291.419V121.193Z" fill="white"/>
<path opacity="0.6" d="M164.39 115.176H166.257V112.696H164.39V115.176Z" fill="white"/>
<path opacity="0.6" d="M161.35 115.176H163.217V111.866H161.35V115.176Z" fill="white"/>
<path opacity="0.6" d="M158.31 115.176H160.178V111.036H158.31V115.176Z" fill="white"/>
<path opacity="0.6" d="M155.271 115.176H157.138V110.206H155.271V115.176Z" fill="white"/>
<path opacity="0.6" d="M274.723 111.785H273.622V114.265H274.723V111.785Z" fill="white"/>
<path opacity="0.6" d="M275.48 115.176H284.284V110.874H275.48V115.176Z" fill="white"/>
<path d="M212.268 143.689H259.668C259.81 143.702 259.952 143.686 260.087 143.641C260.221 143.596 260.345 143.523 260.45 143.428C260.555 143.332 260.639 143.216 260.696 143.086C260.754 142.956 260.783 142.816 260.783 142.674C260.783 142.532 260.754 142.392 260.696 142.262C260.639 142.132 260.555 142.015 260.45 141.92C260.345 141.824 260.221 141.752 260.087 141.707C259.952 141.662 259.81 141.646 259.668 141.659H212.268C212.016 141.683 211.781 141.8 211.61 141.988C211.439 142.175 211.345 142.42 211.345 142.674C211.345 142.928 211.439 143.172 211.61 143.36C211.781 143.547 212.016 143.665 212.268 143.689Z" fill="#263238"/>
<path d="M270.456 147.45H212.007C211.902 147.438 211.796 147.449 211.696 147.481C211.596 147.513 211.503 147.566 211.425 147.636C211.347 147.707 211.284 147.793 211.241 147.889C211.198 147.985 211.176 148.089 211.176 148.194C211.176 148.299 211.198 148.403 211.241 148.499C211.284 148.595 211.347 148.681 211.425 148.752C211.503 148.822 211.596 148.875 211.696 148.907C211.796 148.939 211.902 148.95 212.007 148.938H270.456C270.639 148.918 270.809 148.831 270.932 148.693C271.055 148.556 271.123 148.378 271.123 148.194C271.123 148.01 271.055 147.832 270.932 147.694C270.809 147.557 270.639 147.47 270.456 147.45Z" fill="#263238"/>
<path d="M253.309 151.716H212.007C211.902 151.705 211.796 151.716 211.696 151.748C211.596 151.78 211.503 151.833 211.425 151.903C211.347 151.973 211.284 152.059 211.241 152.155C211.198 152.251 211.176 152.355 211.176 152.461C211.176 152.566 211.198 152.67 211.241 152.766C211.284 152.862 211.347 152.948 211.425 153.018C211.503 153.088 211.596 153.141 211.696 153.173C211.796 153.206 211.902 153.216 212.007 153.205H253.309C253.492 153.185 253.662 153.097 253.785 152.96C253.908 152.823 253.976 152.645 253.976 152.461C253.976 152.276 253.908 152.098 253.785 151.961C253.662 151.824 253.492 151.737 253.309 151.716Z" fill="#263238"/>
<path d="M289.696 179.318H149.092V319.921H289.696V179.318Z" fill="#FF9494"/>
<path d="M285.168 335.129L281.208 331.71L277.239 335.129V325.73H285.168V335.129Z" fill="#FF9494"/>
<path d="M270.862 325.73H264.891C264.499 325.73 264.122 325.886 263.845 326.164C263.567 326.441 263.412 326.817 263.412 327.21V331.287C263.412 331.679 263.567 332.055 263.845 332.333C264.122 332.61 264.499 332.766 264.891 332.766H266.92V335.129L268.463 332.766H270.862C271.057 332.767 271.25 332.73 271.43 332.656C271.61 332.582 271.773 332.473 271.911 332.335C272.048 332.198 272.157 332.034 272.231 331.854C272.305 331.674 272.343 331.481 272.341 331.287V327.21C272.343 327.015 272.305 326.822 272.231 326.642C272.157 326.462 272.048 326.298 271.911 326.161C271.773 326.023 271.61 325.914 271.43 325.84C271.25 325.766 271.057 325.729 270.862 325.73Z" fill="#FF9494"/>
<path d="M258.893 326.849C257.792 325.045 255.663 325.721 254.563 327.119C253.472 325.712 251.352 325 250.224 326.804C248.339 329.834 252.182 332.676 254.004 333.794L254.518 334.11L255.041 333.794C256.836 332.703 260.751 329.906 258.893 326.849Z" fill="#FF9494"/>
<g opacity="0.3">
<path opacity="0.7" d="M260.985 191.152H266.307L263.646 198.052L260.985 191.152Z" fill="white"/>
<path opacity="0.7" d="M278.132 225.5L279.747 230.569L272.368 230.118L278.132 225.5Z" fill="white"/>
<path d="M276.058 203.257L273.532 209.453L281.208 212.132V207.117L276.058 203.257Z" fill="white"/>
<path d="M176.531 189.492H180.437L176.531 194.607V189.492Z" fill="white"/>
<path d="M161.846 214.703L166.266 213.693L167.502 217.49L162.406 219.267L161.846 214.703Z" fill="white"/>
<path d="M206.568 194.607C207.519 194.607 208.29 193.835 208.29 192.884C208.29 191.932 207.519 191.161 206.568 191.161C205.616 191.161 204.845 191.932 204.845 192.884C204.845 193.835 205.616 194.607 206.568 194.607Z" fill="white"/>
<path d="M181.465 308.403C181.465 309.079 181.264 309.741 180.888 310.303C180.512 310.865 179.978 311.303 179.352 311.562C178.727 311.82 178.039 311.888 177.376 311.755C176.713 311.622 176.104 311.296 175.626 310.817C175.148 310.338 174.823 309.728 174.692 309.064C174.561 308.4 174.63 307.713 174.891 307.088C175.151 306.464 175.59 305.93 176.154 305.556C176.717 305.181 177.379 304.982 178.055 304.984C178.504 304.984 178.948 305.073 179.362 305.245C179.776 305.416 180.153 305.668 180.469 305.986C180.786 306.304 181.037 306.68 181.208 307.095C181.379 307.51 181.466 307.954 181.465 308.403Z" fill="white"/>
<path d="M165.003 278.7L166.266 280.838L160.16 283.453L158.771 282.028L165.003 278.7Z" fill="white"/>
<path d="M204.845 313.697L203.654 310.676H208.299L204.845 313.697Z" fill="white"/>
<path d="M254.193 310.676L254.554 307.311L260.922 308.989V313.905L254.193 310.676Z" fill="white"/>
<path d="M267.876 293.33H273.568L270.727 296.695L267.876 293.33Z" fill="white"/>
<path d="M277.239 258.712L276.058 265.855L277.366 267.046L278.592 258.712H277.239Z" fill="white"/>
<path d="M155.117 237.785L160.16 241.447L156.552 244.099L155.117 237.785Z" fill="white"/>
<path d="M177.487 208.795C177.801 208.795 178.055 208.541 178.055 208.227C178.055 207.913 177.801 207.658 177.487 207.658C177.173 207.658 176.919 207.913 176.919 208.227C176.919 208.541 177.173 208.795 177.487 208.795Z" fill="white"/>
<path d="M250.513 202.021C250.951 202.021 251.307 201.665 251.307 201.227C251.307 200.789 250.951 200.433 250.513 200.433C250.075 200.433 249.719 200.789 249.719 201.227C249.719 201.665 250.075 202.021 250.513 202.021Z" fill="white"/>
<path d="M229.208 310.026C229.208 310.196 229.14 310.359 229.02 310.479C228.9 310.599 228.737 310.667 228.567 310.667C228.397 310.667 228.235 310.599 228.114 310.479C227.994 310.359 227.927 310.196 227.927 310.026C227.927 309.857 227.994 309.694 228.114 309.574C228.235 309.453 228.397 309.386 228.567 309.386C228.737 309.386 228.9 309.453 229.02 309.574C229.14 309.694 229.208 309.857 229.208 310.026Z" fill="white"/>
<path d="M236.721 186.398L243.071 185.442V188.536L236.721 189.492V186.398Z" fill="white"/>
<path d="M278.592 189.492H280.676L279.629 192.045L278.592 189.492Z" fill="white"/>
<path d="M158.771 192.884H161.846L160.304 194.606L158.771 192.884Z" fill="white"/>
<path d="M275.372 313.698L275.074 307.781L279.63 309.386L275.372 313.698Z" fill="white"/>
<path d="M279.747 279.647L277.365 277.744V279.647L279.747 281.081V279.647Z" fill="white"/>
<path d="M157.634 260.615L160.304 262.879L158.969 264.899L155.433 262.067L157.634 260.615Z" fill="white"/>
<path d="M155.433 207.658H158.771L155.117 208.795L155.433 207.658Z" fill="white"/>
</g>
<path d="M213.603 202.255L219.637 196.582L225.609 202.309L232.861 198.314L237.226 205.349L245.245 203.293L247.717 211.185H255.997L256.439 219.447L264.458 221.504L262.816 229.622L270.077 233.609L266.478 241.059L272.513 246.724L267.173 253.047L271.611 260.037L264.864 264.836L267.425 272.702L259.704 275.669L260.227 283.931L252.001 284.888L250.459 293.024L242.251 291.896L238.733 299.392L231.066 296.262L225.789 302.648L219.141 297.714L212.449 302.585L207.235 296.154L199.541 299.202L196.095 291.68L187.887 292.717L186.417 284.572L178.2 283.535L178.804 275.281L171.11 272.242L173.744 264.394L167.042 259.532L171.552 252.587L166.266 246.21L172.364 240.608L168.837 233.113L176.134 229.198L174.574 221.071L182.61 219.096L183.124 210.833L191.405 210.915L193.958 203.04L201.958 205.178L206.387 198.187L213.603 202.255Z" fill="#FF9494"/>
<path opacity="0.4" d="M268.075 254.851L273.415 248.537L267.38 242.872L270.988 235.422L263.727 231.435L265.369 223.317L257.35 221.26L256.908 212.998H248.628L246.156 205.106L238.138 207.162L233.772 200.127L226.556 204.122L220.585 198.395L214.55 204.068L207.334 200L202.905 207L194.905 204.853L192.352 212.728L184.072 212.646L183.558 220.909L175.521 222.884L177.081 231.002L169.784 234.917L173.311 242.412L167.168 248.05L172.454 254.427L167.944 261.372L174.646 266.234L172.012 274.082L179.706 277.121L179.102 285.375L187.319 286.412L188.78 294.53L196.997 293.493L200.443 301.015L208.137 297.967L213.351 304.398L220.043 299.527L226.691 304.461L231.968 298.075L239.635 301.205L243.153 293.709L251.352 294.837L252.903 286.719L261.13 285.762L260.597 277.5L268.327 274.533L265.766 266.658L272.513 261.869L268.075 254.851ZM266.415 260.678L260.453 264.917L262.717 271.872L255.889 274.487L256.358 281.785L249.088 282.633L247.726 289.849L240.51 288.856L237.398 295.477L230.633 292.717L225.97 298.345L220.098 293.989L214.189 298.291L209.589 292.609L202.788 295.315L199.748 288.667L192.487 289.569L191.197 282.353L183.981 281.451L184.523 274.163L177.722 271.457L180.049 264.529L174.132 260.236L178.118 254.102L173.446 248.474L178.858 243.522L175.656 236.865L182.105 233.41L180.725 226.194L187.833 224.454L188.284 217.156L195.59 217.229L197.845 210.274L204.908 212.168L208.823 205.99L215.2 209.598L220.522 204.582L225.798 209.643L232.202 206.116L236.063 212.331L243.144 210.527L245.326 217.508H252.642L253.03 224.814L260.11 226.618L258.667 233.78L265.071 237.298L261.896 243.883L267.227 248.889L262.51 254.472L266.415 260.678Z" fill="black"/>
<path opacity="0.4" d="M213.603 202.255L219.637 196.582L225.609 202.309L232.861 198.314L237.226 205.349L245.245 203.293L247.717 211.185H255.997L256.439 219.447L264.458 221.504L262.816 229.622L270.077 233.609L266.478 241.059L272.513 246.724L267.173 253.047L271.611 260.037L264.864 264.836L267.425 272.702L259.704 275.669L260.227 283.931L252.001 284.888L250.459 293.024L242.251 291.896L238.733 299.392L231.066 296.262L225.789 302.648L219.141 297.714L212.449 302.585L207.235 296.154L199.541 299.202L196.095 291.68L187.887 292.717L186.417 284.572L178.2 283.535L178.804 275.281L171.11 272.242L173.744 264.394L167.042 259.532L171.552 252.587L166.266 246.21L172.364 240.608L168.837 233.113L176.134 229.198L174.574 221.071L182.61 219.096L183.124 210.833L191.405 210.915L193.958 203.04L201.958 205.178L206.387 198.187L213.603 202.255Z" fill="black"/>
<path d="M267.173 253.047L272.513 246.733L266.478 241.068L270.086 233.618L262.825 229.631L264.467 221.513L256.448 219.457L256.006 211.194H247.726L245.254 203.302L237.235 205.358L232.87 198.323L225.654 202.319L219.683 196.591L213.648 202.264L206.432 198.196L202.003 205.196L194.003 203.049L191.45 210.924L183.17 210.842L182.655 219.105L174.619 221.08L176.179 229.198L168.882 233.113L172.409 240.608L166.266 246.246L171.552 252.623L167.042 259.568L173.744 264.43L171.11 272.278L178.804 275.317L178.2 283.571L186.417 284.608L187.878 292.726L196.095 291.689L199.541 299.211L207.235 296.163L212.449 302.594L219.141 297.723L225.789 302.657L231.066 296.271L238.733 299.401L242.251 291.905L250.45 293.033L252.001 284.915L260.227 283.959L259.695 275.696L267.425 272.729L264.864 264.854L271.611 260.065L267.173 253.047ZM265.513 258.874L259.551 263.113L261.815 270.068L254.987 272.684L255.456 279.981L248.186 280.829L246.824 288.045L239.608 287.052L236.496 293.673L229.731 290.913L225.067 296.541L219.195 292.185L213.287 296.487L208.687 290.805L201.886 293.511L198.846 286.863L191.585 287.765L190.295 280.549L183.079 279.647L183.621 272.359L176.82 269.653L179.147 262.725L173.23 258.432L177.216 252.298L172.544 246.67L177.956 241.718L174.754 235.061L181.203 231.606L179.823 224.39L186.931 222.65L187.382 215.352L194.688 215.425L196.943 208.47L204.006 210.364L207.92 204.186L214.298 207.794L219.619 202.779L224.896 207.839L231.3 204.312L235.161 210.527L242.242 208.723L244.424 215.704H251.74L252.127 223.01L259.208 224.814L257.765 231.976L264.169 235.494L260.994 242.079L266.325 247.085L261.608 252.668L265.513 258.874Z" fill="#FF9494"/>
<path opacity="0.6" d="M267.173 253.047L272.513 246.733L266.478 241.068L270.086 233.618L262.825 229.631L264.467 221.513L256.448 219.457L256.006 211.194H247.726L245.254 203.302L237.235 205.358L232.87 198.323L225.654 202.319L219.683 196.591L213.648 202.264L206.432 198.196L202.003 205.196L194.003 203.049L191.45 210.924L183.17 210.842L182.655 219.105L174.619 221.08L176.179 229.198L168.882 233.113L172.409 240.608L166.266 246.246L171.552 252.623L167.042 259.568L173.744 264.43L171.11 272.278L178.804 275.317L178.2 283.571L186.417 284.608L187.878 292.726L196.095 291.689L199.541 299.211L207.235 296.163L212.449 302.594L219.141 297.723L225.789 302.657L231.066 296.271L238.733 299.401L242.251 291.905L250.45 293.033L252.001 284.915L260.227 283.959L259.695 275.696L267.425 272.729L264.864 264.854L271.611 260.065L267.173 253.047ZM265.513 258.874L259.551 263.113L261.815 270.068L254.987 272.684L255.456 279.981L248.186 280.829L246.824 288.045L239.608 287.052L236.496 293.673L229.731 290.913L225.067 296.541L219.195 292.185L213.287 296.487L208.687 290.805L201.886 293.511L198.846 286.863L191.585 287.765L190.295 280.549L183.079 279.647L183.621 272.359L176.82 269.653L179.147 262.725L173.23 258.432L177.216 252.298L172.544 246.67L177.956 241.718L174.754 235.061L181.203 231.606L179.823 224.39L186.931 222.65L187.382 215.352L194.688 215.425L196.943 208.47L204.006 210.364L207.92 204.186L214.298 207.794L219.619 202.779L224.896 207.839L231.3 204.312L235.161 210.527L242.242 208.723L244.424 215.704H251.74L252.127 223.01L259.208 224.814L257.765 231.976L264.169 235.494L260.994 242.079L266.325 247.085L261.608 252.668L265.513 258.874Z" fill="white"/>
<path opacity="0.4" d="M192.884 246.976C192.884 246.976 197.484 246.183 199.748 246.976C202.012 247.77 211.592 264.114 211.592 264.114C211.592 264.114 230.173 238.552 245.029 227.376C245.029 227.376 225.753 244.64 214.577 273.622C214.577 273.622 210.816 275.281 208.155 272.314C207.388 271.412 198.756 256.7 197.087 256.15C195.78 255.708 191.558 255.924 191.558 255.924L192.884 246.976Z" fill="black"/>
<path d="M191.982 246.075C191.982 246.075 196.582 245.281 198.846 246.075C201.11 246.868 210.69 263.213 210.69 263.213C210.69 263.213 229.271 237.65 244.127 226.474C244.127 226.474 224.851 243.738 213.675 272.72C213.675 272.72 209.914 274.379 207.253 271.412C206.486 270.51 197.854 255.798 196.186 255.248C194.878 254.806 190.656 255.022 190.656 255.022L191.982 246.075Z" fill="white"/>
<path d="M198.919 151.671C198.937 155.369 198.005 159.009 196.213 162.243L195.816 162.919C194.527 165.058 192.875 166.957 190.936 168.53L190.828 168.62C188.991 170.1 186.926 171.27 184.712 172.084C182.32 172.96 179.791 173.406 177.243 173.4C176.433 173.405 175.622 173.36 174.817 173.265C173.465 173.121 172.129 172.846 170.83 172.444C167.666 171.472 164.771 169.78 162.37 167.501C159.744 165.031 157.773 161.947 156.635 158.527C155.497 155.106 155.228 151.457 155.85 147.906C156.473 144.355 157.968 141.015 160.202 138.186C162.436 135.356 165.338 133.127 168.647 131.697C171.956 130.268 175.569 129.683 179.16 129.997C182.752 130.31 186.209 131.511 189.22 133.492C192.232 135.473 194.704 138.171 196.415 141.344C198.125 144.518 199.019 148.066 199.018 151.671H198.919Z" fill="#FF9494"/>
<path d="M196.176 162.243L195.78 162.919C190.807 162.841 185.844 163.402 181.014 164.588L179.399 164.985L178.299 165.273C176.919 165.643 175.593 166.031 174.465 166.401L173.951 166.572L173.581 166.69C172.237 167.141 171.092 167.546 170.217 167.88C168.909 168.376 168.16 168.701 168.16 168.701C167.733 168.15 167.341 167.571 166.988 166.969L166.934 166.87C164.976 163.587 161.522 156.046 163.145 145.222C164.949 133.18 174.934 133.947 178.479 134.614C178.903 134.685 179.321 134.781 179.733 134.903C179.733 134.903 190.909 137.537 191.324 144.5C191.382 145.432 191.497 146.36 191.666 147.278C192.717 152.392 194.227 157.4 196.176 162.243Z" fill="#263238"/>
<path d="M184.676 172.083C182.284 172.96 179.755 173.406 177.207 173.4C176.397 173.405 175.586 173.36 174.781 173.265C173.429 173.121 172.093 172.846 170.794 172.444L170.1 166.771L169.766 164.065L184.64 166.175V167.447L184.685 171.181V172.083H184.676Z" fill="#FF9494"/>
<path d="M190.791 168.62C188.955 170.1 186.89 171.27 184.676 172.084C182.284 172.96 179.755 173.406 177.207 173.4C176.397 173.405 175.586 173.36 174.781 173.265C173.429 173.121 172.093 172.846 170.794 172.444C167.63 171.472 164.734 169.78 162.333 167.501C163.019 167.393 163.713 167.312 164.408 167.222H164.579C165.4 167.132 166.221 167.05 167.042 166.987C168.016 166.906 168.981 166.843 169.955 166.807H170.127L171.317 166.762H172.733H174.393C176.197 166.762 178.025 166.828 179.877 166.96L181.744 167.113L182.728 167.213L184.153 167.429L184.468 167.474H184.685L186.363 167.763C186.624 167.808 186.886 167.871 187.147 167.907L187.643 168.006L188.176 168.106L189.078 168.286L189.709 168.412L190.791 168.62Z" fill="#263238"/>
<path d="M180.87 172.282C174.673 171.227 172.905 168.485 172.905 168.485C175.557 166.194 175.241 162.631 174.709 160.367C174.538 159.66 174.309 158.969 174.023 158.301L181.465 160.015C181.249 161.05 181.107 162.099 181.041 163.154C180.984 163.934 181.024 164.719 181.158 165.49C181.573 167.745 182.854 167.835 182.854 167.835C184.036 170.406 180.87 172.282 180.87 172.282Z" fill="#E4897B"/>
<path opacity="0.2" d="M181.014 163.208C180.957 163.988 180.997 164.773 181.131 165.544C178.173 165.021 176.008 162.549 174.682 160.421C174.511 159.714 174.282 159.023 173.996 158.355L181.438 160.069C181.222 161.104 181.08 162.153 181.014 163.208Z" fill="black"/>
<path d="M180.004 138.746C187.048 139.052 189.159 142.922 189.357 150.201C189.619 159.293 187.328 165.652 178.606 163.343C166.753 160.195 168.305 138.241 180.004 138.746Z" fill="#E4897B"/>
<path d="M184.82 149.606C185.341 150.683 185.989 151.695 186.751 152.618C186.53 152.899 186.237 153.115 185.904 153.242C185.57 153.369 185.208 153.403 184.856 153.34L184.82 149.606Z" fill="#DE5753"/>
<path d="M177.577 145.222C177.497 145.222 177.42 145.193 177.361 145.141C177.329 145.111 177.304 145.076 177.287 145.036C177.27 144.997 177.261 144.954 177.261 144.911C177.261 144.868 177.27 144.825 177.287 144.785C177.304 144.746 177.329 144.71 177.361 144.681C177.807 144.254 178.347 143.937 178.937 143.757C179.528 143.577 180.153 143.538 180.761 143.643C180.803 143.651 180.844 143.667 180.879 143.69C180.915 143.713 180.946 143.743 180.971 143.779C180.995 143.814 181.012 143.853 181.021 143.895C181.03 143.937 181.031 143.98 181.023 144.022C181.015 144.064 180.999 144.105 180.976 144.141C180.953 144.177 180.923 144.208 180.888 144.232C180.853 144.256 180.813 144.273 180.771 144.282C180.729 144.291 180.686 144.292 180.644 144.284C180.145 144.205 179.636 144.238 179.152 144.382C178.668 144.526 178.222 144.776 177.848 145.114C177.814 145.152 177.772 145.181 177.725 145.2C177.678 145.219 177.628 145.226 177.577 145.222Z" fill="#263238"/>
<path d="M188.591 144.933C188.523 144.931 188.457 144.909 188.401 144.87C188.061 144.582 187.662 144.373 187.231 144.26C186.8 144.146 186.35 144.129 185.912 144.212C185.871 144.226 185.828 144.231 185.785 144.229C185.741 144.226 185.699 144.214 185.661 144.195C185.622 144.176 185.588 144.149 185.56 144.116C185.531 144.083 185.51 144.045 185.497 144.004C185.471 143.922 185.478 143.832 185.517 143.755C185.555 143.677 185.623 143.618 185.704 143.589C186.24 143.472 186.796 143.478 187.329 143.608C187.862 143.738 188.358 143.987 188.78 144.338C188.85 144.39 188.896 144.467 188.91 144.553C188.923 144.639 188.903 144.727 188.852 144.798C188.821 144.838 188.782 144.872 188.737 144.895C188.692 144.918 188.642 144.932 188.591 144.933Z" fill="#263238"/>
<path d="M171.795 150.291C171.795 150.291 175.34 144.645 175.034 140.153C175.034 140.153 189.24 135.047 189.321 149.245C189.321 149.245 191.224 136.725 179.129 135.922C167.033 135.12 166.32 152.844 172.346 158.391C172.346 158.391 169.603 153.818 171.795 150.291Z" fill="#263238"/>
<path d="M172.887 151.824C172.852 151.008 172.496 150.238 171.896 149.682C171.296 149.127 170.502 148.83 169.685 148.857C167.484 149.001 166.257 153.439 171.642 154.747C172.409 154.936 172.878 154.242 172.887 151.824Z" fill="#E4897B"/>
<path d="M184.992 155.414C184.512 156.129 184.084 156.876 183.711 157.651L183.269 157.525C181.303 156.912 180.563 155.983 180.392 155.135C180.305 154.716 180.32 154.283 180.437 153.872C180.494 153.638 180.585 153.413 180.707 153.205C181.754 154.119 182.984 154.799 184.315 155.198C184.73 155.342 184.992 155.414 184.992 155.414Z" fill="#263238"/>
<path d="M184.324 155.198L183.927 155.847C182.123 155.27 180.842 154.621 180.437 153.872C180.494 153.638 180.585 153.413 180.707 153.205C181.756 154.12 182.99 154.8 184.324 155.198Z" fill="white"/>
<path d="M183.269 157.525C181.303 156.912 180.563 155.983 180.391 155.135C181.138 155.379 181.834 155.755 182.448 156.244C182.853 156.571 183.141 157.021 183.269 157.525Z" fill="#DE5753"/>
<path d="M179.841 139.269C179.841 139.269 176.504 150.742 169.216 150.282C161.928 149.822 173.816 135.625 173.816 135.625C173.816 135.625 185.912 131.647 191.522 138.222C197.133 144.798 189.321 149.245 189.321 149.245C189.321 149.245 190.151 140.288 179.841 139.269Z" fill="#263238"/>
<path d="M174.429 149.155C174.384 149.154 174.34 149.14 174.303 149.114C174.266 149.089 174.238 149.052 174.222 149.01C174.2 148.956 174.201 148.896 174.223 148.843C174.244 148.789 174.286 148.745 174.339 148.722C180.022 146.286 179.58 138.538 179.58 138.457C179.577 138.399 179.597 138.342 179.636 138.298C179.675 138.254 179.729 138.227 179.787 138.222C179.846 138.22 179.905 138.24 179.95 138.278C179.995 138.317 180.024 138.371 180.031 138.43C180.031 138.511 180.491 146.548 174.519 149.137L174.429 149.155Z" fill="#263238"/>
<path d="M180.671 149.209C180.734 149.75 180.491 150.228 180.13 150.273C179.769 150.318 179.417 149.903 179.354 149.371C179.291 148.839 179.535 148.352 179.895 148.307C180.256 148.262 180.608 148.658 180.671 149.209Z" fill="#263238"/>
<path d="M179.742 148.343L180.879 147.739C180.879 147.739 180.401 148.83 179.742 148.343Z" fill="#263238"/>
<path d="M187.427 148.289C187.49 148.83 187.247 149.308 186.886 149.353C186.525 149.398 186.173 148.992 186.11 148.451C186.047 147.91 186.291 147.432 186.651 147.387C187.012 147.342 187.382 147.748 187.427 148.289Z" fill="#263238"/>
<path d="M186.48 147.423L187.607 146.819C187.607 146.819 187.166 147.928 186.48 147.423Z" fill="#263238"/>
<path d="M190.9 168.53L190.792 168.62C188.955 170.1 186.89 171.27 184.676 172.084V171.443V171.164L183.494 168.773L184.099 167.348L184.613 166.157L185.136 167.294L190.9 168.53Z" fill="#FF9494"/>
<path opacity="0.6" d="M190.9 168.53L190.792 168.62C188.955 170.1 186.89 171.27 184.676 172.084V171.443V171.164L183.494 168.773L184.099 167.348L184.613 166.157L185.136 167.294L190.9 168.53Z" fill="white"/>
<path d="M177.343 168.593L174.88 171.687L174.754 173.274C173.402 173.13 172.066 172.855 170.767 172.453C167.603 171.481 164.707 169.789 162.306 167.51L164.354 167.222H164.525L168.864 166.608L169.766 164.074L174.186 166.708L177.37 168.611L177.343 168.593Z" fill="#FF9494"/>
<path opacity="0.6" d="M177.334 168.593L174.88 171.687L174.754 173.274C173.402 173.13 172.066 172.855 170.767 172.453C167.603 171.481 164.707 169.789 162.306 167.51L164.525 167.204L168.864 166.599L169.766 164.065L174.186 166.699L177.334 168.593Z" fill="white"/>
<path d="M200.407 170.054C200.407 171.223 200.06 172.365 199.411 173.336C198.762 174.308 197.839 175.065 196.76 175.512C195.68 175.96 194.492 176.077 193.346 175.849C192.2 175.621 191.147 175.058 190.321 174.232C189.495 173.405 188.932 172.353 188.704 171.207C188.476 170.061 188.593 168.873 189.04 167.793C189.487 166.714 190.245 165.791 191.216 165.142C192.188 164.493 193.33 164.146 194.499 164.146C196.066 164.146 197.568 164.768 198.676 165.876C199.784 166.984 200.407 168.487 200.407 170.054Z" fill="white"/>
<path d="M199.541 170.054C199.541 171.051 199.245 172.026 198.691 172.855C198.137 173.684 197.35 174.331 196.428 174.712C195.507 175.094 194.493 175.194 193.515 174.999C192.537 174.805 191.639 174.324 190.933 173.619C190.228 172.914 189.748 172.016 189.553 171.038C189.359 170.059 189.459 169.046 189.84 168.124C190.222 167.203 190.868 166.416 191.697 165.861C192.527 165.307 193.501 165.012 194.499 165.012C195.836 165.012 197.118 165.543 198.064 166.489C199.01 167.434 199.541 168.717 199.541 170.054Z" fill="#263238"/>
<path d="M194.3 172.679L191.612 170.307L192.208 169.63L194.156 171.344L196.718 167.826L197.448 168.358L194.3 172.679Z" fill="white"/>
<path d="M320.048 350.472C320.048 350.472 314.789 339.008 320.797 327.706C326.804 316.403 328.536 313.743 324.711 311.424C320.887 309.106 319.128 320.444 319.128 320.444C319.128 320.444 315.899 312.624 318.569 304.452C321.239 296.28 322.898 282.957 319.263 281.523C315.628 280.089 318.569 298.138 315.412 304.29C313.803 299.972 312.766 295.463 312.327 290.877C311.885 284.31 312.571 273.82 309.693 271.132C306.816 268.444 304.985 270.302 307.808 284.797C309.505 293.457 310.441 302.249 310.604 311.073C310.604 311.073 304.371 292.058 300.186 291.508C296.001 290.958 296.01 297.11 299.591 302.45C303.172 307.789 310.081 317.36 311.218 322.294C311.218 322.294 304.371 307.988 298.211 312.372C292.05 316.755 303.569 325.396 308.701 328.526C313.833 331.656 317.405 351.221 317.405 351.221L320.048 350.472Z" fill="#FF9494"/>
<path opacity="0.2" d="M320.048 350.472C320.048 350.472 314.789 339.008 320.797 327.706C326.804 316.403 328.536 313.743 324.711 311.424C320.887 309.106 319.128 320.444 319.128 320.444C319.128 320.444 315.899 312.624 318.569 304.452C321.239 296.28 322.898 282.957 319.263 281.523C315.628 280.089 318.569 298.138 315.412 304.29C313.803 299.972 312.766 295.463 312.327 290.877C311.885 284.31 312.571 273.82 309.693 271.132C306.816 268.444 304.985 270.302 307.808 284.797C309.505 293.457 310.441 302.249 310.604 311.073C310.604 311.073 304.371 292.058 300.186 291.508C296.001 290.958 296.01 297.11 299.591 302.45C303.172 307.789 310.081 317.36 311.218 322.294C311.218 322.294 304.371 307.988 298.211 312.372C292.05 316.755 303.569 325.396 308.701 328.526C313.833 331.656 317.405 351.221 317.405 351.221L320.048 350.472Z" fill="black"/>
<path d="M315.899 355.181C315.899 355.181 321.013 343.635 314.871 332.423C308.728 321.211 306.96 318.577 310.766 316.187C314.573 313.797 316.458 325.144 316.458 325.144C316.458 325.144 319.588 317.279 316.828 309.142C314.068 301.006 312.237 287.711 315.854 286.232C319.471 284.752 316.756 302.837 319.976 308.935C321.533 304.595 322.519 300.071 322.907 295.477C323.259 288.902 322.456 278.429 325.298 275.696C328.139 272.963 329.997 274.794 327.345 289.335C325.753 298.034 324.923 306.856 324.865 315.7C324.865 315.7 330.872 296.596 335.048 295.982C339.225 295.369 339.297 301.521 335.779 306.915C332.261 312.308 325.46 321.978 324.387 326.912C324.387 326.912 331.061 312.48 337.267 316.8C343.473 321.121 332.072 329.907 326.975 333.1C321.879 336.293 318.551 355.929 318.551 355.929L315.899 355.181Z" fill="#FF9494"/>
<path d="M339.495 346.945H297.228L300.646 377.198H336.077L339.495 346.945Z" fill="#263238"/>
<path d="M59.4333 356.687L85.456 354.134V322.113H95.7568V354.116L121.852 356.687C123.102 356.808 124.263 357.391 125.106 358.321C125.95 359.252 126.417 360.464 126.416 361.72V365.626H54.8691V361.702C54.8723 360.449 55.3411 359.242 56.1846 358.315C57.028 357.388 58.1859 356.808 59.4333 356.687Z" fill="#263238"/>
<path opacity="0.1" d="M59.4333 356.687L85.456 354.134V322.113H95.7568V354.116L121.852 356.687C123.102 356.808 124.263 357.391 125.106 358.321C125.95 359.252 126.417 360.464 126.416 361.72V365.626H54.8691V361.702C54.8723 360.449 55.3411 359.242 56.1846 358.315C57.028 357.388 58.1859 356.808 59.4333 356.687Z" fill="white"/>
<path d="M124.731 377.105C128.405 376.508 130.899 373.047 130.303 369.374C129.706 365.701 126.245 363.206 122.572 363.803C118.899 364.399 116.405 367.86 117.001 371.533C117.597 375.206 121.058 377.701 124.731 377.105Z" fill="#263238"/>
<path d="M64.2694 371.559C64.8657 367.886 62.3713 364.425 58.6981 363.829C55.025 363.233 51.5639 365.727 50.9677 369.4C50.3714 373.073 52.8658 376.534 56.539 377.131C60.2121 377.727 63.6732 375.233 64.2694 371.559Z" fill="#263238"/>
<path d="M93.7724 329.97H87.3772C86.3892 329.97 85.4417 329.577 84.7431 328.879C84.0445 328.18 83.652 327.232 83.652 326.244V297.444H97.4977V326.244C97.4977 327.232 97.1052 328.18 96.4066 328.879C95.708 329.577 94.7604 329.97 93.7724 329.97Z" fill="#263238"/>
<path opacity="0.2" d="M93.7724 329.97H87.3772C86.3892 329.97 85.4417 329.577 84.7431 328.879C84.0445 328.18 83.652 327.232 83.652 326.244V297.444H97.4977V326.244C97.4977 327.232 97.1052 328.18 96.4066 328.879C95.708 329.577 94.7604 329.97 93.7724 329.97Z" fill="white"/>
<path d="M54.6075 240.96C54.6075 240.96 62.3196 289.136 77.5454 297.434H62.0671C62.0671 297.434 46.7782 281.018 42.1599 240.96H54.6075Z" fill="#263238"/>
<path opacity="0.1" d="M54.6075 240.96C54.6075 240.96 62.3196 289.136 77.5454 297.434H62.0671C62.0671 297.434 46.7782 281.018 42.1599 240.96H54.6075Z" fill="white"/>
<path d="M61.3094 290.624H121.671C122.867 290.624 124.015 291.099 124.86 291.945C125.706 292.791 126.181 293.938 126.181 295.134V301.169H56.7994V295.134C56.7994 293.938 57.2746 292.791 58.1204 291.945C58.9662 291.099 60.1133 290.624 61.3094 290.624Z" fill="#FF9494"/>
<path d="M127.255 295.892H55.7171C54.7158 295.892 53.9041 296.704 53.9041 297.705V299.347C53.9041 300.348 54.7158 301.16 55.7171 301.16H127.255C128.256 301.16 129.068 300.348 129.068 299.347V297.705C129.068 296.704 128.256 295.892 127.255 295.892Z" fill="#263238"/>
<path opacity="0.6" d="M127.255 295.892H55.7171C54.7158 295.892 53.9041 296.704 53.9041 297.705V299.347C53.9041 300.348 54.7158 301.16 55.7171 301.16H127.255C128.256 301.16 129.068 300.348 129.068 299.347V297.705C129.068 296.704 128.256 295.892 127.255 295.892Z" fill="white"/>
<path d="M40.2838 250.756H65.0888C72.3048 250.756 77.0764 244.929 75.6242 237.74L73.73 228.143C72.2868 220.927 65.2241 215.136 57.963 215.136H33.14C25.924 215.136 21.1524 220.963 22.6046 228.143L24.5259 237.74C25.924 244.929 33.0227 250.756 40.2838 250.756Z" fill="#FF9494"/>
<path d="M63.6366 203.257H79.4396L80.8919 212.682L66.8387 215.136L63.6366 203.257Z" fill="#FF9494"/>
<path d="M168.575 334.2L162.902 336.419L158.825 328.725L155.117 321.734L161.404 317.964L165.202 326.551L168.575 334.2Z" fill="#E4897B"/>
<path opacity="0.2" d="M165.202 326.551L158.825 328.725L155.117 321.734L161.404 317.964L165.202 326.551Z" fill="black"/>
<path d="M164.029 322.357L156.308 326.524C156.308 326.524 127.146 275.254 122.663 275.678C118.18 276.102 75.6421 303.189 62.6714 293.15C49.7006 283.111 62.3196 253.002 62.3196 253.002C62.3196 253.002 87.6658 243.369 90.5793 249.259C91.8572 251.644 92.9956 254.102 93.9888 256.619C94.5571 258.423 94.9901 260.02 94.9901 260.02C95.8109 259.686 122.312 248.817 134.146 254.608C146.179 260.588 164.029 322.357 164.029 322.357Z" fill="#FF9494"/>
<path opacity="0.3" d="M164.029 322.357L156.308 326.524C156.308 326.524 127.146 275.254 122.663 275.678C118.18 276.102 75.6421 303.189 62.6714 293.15C49.7006 283.111 62.3196 253.002 62.3196 253.002C62.3196 253.002 87.6658 243.369 90.5793 249.259C91.8572 251.644 92.9956 254.102 93.9888 256.619C94.5571 258.423 94.9901 260.02 94.9901 260.02C95.8109 259.686 122.312 248.817 134.146 254.608C146.179 260.588 164.029 322.357 164.029 322.357Z" fill="white"/>
<path d="M122.104 364.164L116.052 363.47L116.025 354.937L116.016 347.099L123.331 346.756L122.682 355.974L122.104 364.164Z" fill="#E4897B"/>
<path opacity="0.2" d="M122.663 356.164L116.007 355.099V347.189L123.322 346.801L122.663 356.164Z" fill="black"/>
<path d="M152.538 323.953L163.831 318.298L165.003 323.078L156.452 327.489L152.538 323.953Z" fill="#263238"/>
<path d="M82.75 293.258C82.75 293.258 84.6081 293.051 113.129 287.765C113.129 287.765 113.779 324.251 115.132 351.437L123.917 351.726C123.917 351.726 136.545 291.364 135.039 282.272C133.533 273.18 122.709 271.926 122.709 271.926C122.709 271.926 103.848 286.538 82.75 293.258Z" fill="#FF9494"/>
<path opacity="0.4" d="M82.75 293.258C82.75 293.258 84.6081 293.051 113.129 287.765C113.129 287.765 113.779 324.251 115.132 351.437L123.917 351.726C123.917 351.726 136.545 291.364 135.039 282.272C133.533 273.18 122.709 271.926 122.709 271.926C122.709 271.926 103.848 286.538 82.75 293.258Z" fill="white"/>
<path opacity="0.3" d="M82.75 293.258C82.75 293.258 84.6081 293.051 113.129 287.765C113.129 287.765 113.779 324.251 115.132 351.437L123.917 351.726C123.917 351.726 136.545 291.364 135.039 282.272C133.533 273.18 122.709 271.926 122.709 271.926C122.709 271.926 103.848 286.538 82.75 293.258Z" fill="black"/>
<path d="M113.481 349.011L125.46 348.731L123.827 353.665L114.103 353.755L113.481 349.011Z" fill="#263238"/>
<path opacity="0.3" d="M94.9901 260.047L79.4396 265.585C79.4396 265.585 87.6207 259.478 93.9888 256.646C94.5571 258.486 94.9901 260.047 94.9901 260.047Z" fill="black"/>
<path d="M61.3184 250.864L61.0929 255.483L90.2365 249.304L89.56 244.208L61.3184 250.864Z" fill="#263238"/>
<path opacity="0.2" d="M61.3184 250.864L61.0929 255.483L90.2365 249.304L89.56 244.208L61.3184 250.864Z" fill="black"/>
<path d="M70.1749 248.039L68.7205 248.309L70.091 255.697L71.5455 255.427L70.1749 248.039Z" fill="#FF9494"/>
<path d="M82.8921 246.163L76.5302 247.597L77.6168 252.419L83.9787 250.985L82.8921 246.163Z" fill="white"/>
<path d="M87.8752 243.68L86.4207 243.949L87.7899 251.337L89.2444 251.067L87.8752 243.68Z" fill="#FF9494"/>
<path opacity="0.3" d="M70.1749 248.039L68.7205 248.309L70.091 255.697L71.5455 255.427L70.1749 248.039Z" fill="white"/>
<path opacity="0.3" d="M87.8752 243.68L86.4207 243.949L87.7899 251.337L89.2444 251.067L87.8752 243.68Z" fill="white"/>
<path d="M179.85 344.257C178.902 343.966 177.908 343.853 176.919 343.924C176.919 343.924 173.266 342.399 168.801 335.111L165.021 335.607C164.385 335.704 163.794 335.993 163.327 336.437C162.861 336.881 162.542 337.457 162.415 338.088C162.383 338.264 162.383 338.444 162.415 338.62C162.573 339.536 162.793 340.44 163.073 341.326C164.042 344.254 165.187 347.122 166.501 349.913L167.123 349.66L165.184 344.185C164.534 342.327 166.798 343.897 167.998 345.701C169.198 347.505 170.893 349.245 174.934 347.721C179.634 345.89 181.492 344.916 179.85 344.257Z" fill="#FF9494"/>
<path d="M167.881 333.181C167.881 333.181 173.951 342.39 176.901 343.923C176.901 343.923 173.563 346.629 169.107 342.282C163.353 336.717 162.397 338.62 162.397 338.62C162.345 337.529 162.397 336.436 162.55 335.354C163.028 333.244 167.881 333.181 167.881 333.181Z" fill="#E4897B"/>
<path d="M131.16 374.898C130.306 374.395 129.368 374.05 128.391 373.879C128.391 373.879 125.198 371.525 122.627 363.407L118.839 362.992C118.195 362.932 117.548 363.074 116.988 363.397C116.427 363.72 115.98 364.209 115.709 364.796C115.628 364.958 115.573 365.131 115.547 365.31C115.488 366.229 115.488 367.151 115.547 368.07C115.796 371.142 116.23 374.196 116.846 377.216L117.504 377.117L116.918 371.344C116.728 369.378 118.559 371.444 119.299 373.482C120.039 375.521 121.265 377.613 125.55 377.09C130.556 376.432 132.595 375.927 131.16 374.898Z" fill="#FF9494"/>
<path d="M122.149 361.296C122.149 361.296 125.866 371.687 128.391 373.879C128.391 373.879 124.513 375.683 121.175 370.442C116.9 363.659 115.511 365.292 115.511 365.292C115.714 364.22 116.016 363.169 116.413 362.153C117.423 360.205 122.149 361.296 122.149 361.296Z" fill="#E4897B"/>
<path d="M77.5815 171.38C77.5815 171.38 63.339 164.462 58.6396 179.363C53.9401 194.264 59.9655 204.547 59.9655 204.547C59.9655 204.547 76.445 200.325 90.3178 203.275C90.3178 203.275 87.3231 190.575 88.0447 183.286C88.7663 175.998 77.5815 171.38 77.5815 171.38Z" fill="#263238"/>
<path d="M88.6941 205.106C91.824 205.241 104.93 222.857 104.93 222.857L109.801 216.543C109.801 216.543 117.306 231.128 113.589 238.074C109.873 245.019 90.2997 226.041 90.2997 226.041L88.6941 205.106Z" fill="#FF9494"/>
<path opacity="0.6" d="M88.6851 205.106L89.9659 219.186L90.2906 226.05C90.2906 226.05 93.5108 229.171 97.5788 232.418C103.559 237.19 111.37 242.223 113.58 238.092C117.296 231.155 109.783 216.561 109.783 216.561L104.921 222.875V222.821C104.163 221.739 91.7158 205.241 88.6851 205.106Z" fill="white"/>
<path opacity="0.2" d="M89.9659 219.186L90.2907 226.05C90.2907 226.05 93.5108 229.171 97.5788 232.418C97.9667 224.174 90.2907 212.168 90.2907 212.168L89.9659 219.186Z" fill="black"/>
<path opacity="0.2" d="M104.939 222.857L104.236 224.201L106.274 232.139C106.274 232.139 100.646 227.015 104.236 222L104.939 222.857Z" fill="black"/>
<path d="M90.3357 220.819C90.3357 221.035 90.3357 221.261 90.3357 221.486C90.3357 222.46 90.3357 223.489 90.2726 224.58C90.2726 224.67 90.2726 224.76 90.2726 224.86C90.2726 225.446 90.2726 226.05 90.2726 226.664C90.2726 226.772 90.2726 226.871 90.2726 226.979C90.2726 227.881 90.2094 228.783 90.1734 229.685C90.1734 229.812 90.1734 229.938 90.1734 230.064C90.1734 231.291 90.0741 232.581 90.011 233.943C89.8667 237 89.6953 240.392 89.4788 244.153L89.0729 244.253L61.5168 250.783H61.4086C61.4086 250.783 62.518 236.044 60.6148 227.701C60.601 227.628 60.583 227.555 60.5607 227.484C60.5607 227.358 60.5066 227.232 60.4705 227.106C60.4344 226.979 60.3442 226.637 60.2901 226.393C60.236 226.149 60.1638 225.906 60.0917 225.653C59.8481 224.751 59.5865 223.849 59.3069 222.857C59.1265 222.208 58.9281 221.54 58.7206 220.855L58.6124 220.512C58.3688 219.7 58.1073 218.861 57.8367 217.995C57.7555 217.743 57.6833 217.499 57.6021 217.238C57.2053 216.002 56.7813 214.694 56.3213 213.323C55.8162 211.778 55.263 210.139 54.6616 208.407C57.8217 207.399 61.0423 206.592 64.304 205.99L65.7021 205.737L67.1814 205.494C69.6529 205.097 72.1514 204.817 74.6499 204.637C75.6542 204.565 76.6554 204.51 77.6536 204.474C78.2579 204.474 78.8803 204.474 79.4576 204.474H79.7102L81.5142 204.528H82.353H82.8852H83.4625L84.3645 204.583H85.05L86.2857 204.664L86.7728 204.709H87.2058H87.6027H87.9274L88.7121 204.781C88.7121 204.781 88.7121 204.781 88.7843 204.781L88.8474 204.844C88.9077 204.916 88.9592 204.995 89.0008 205.079C89.2779 205.666 89.4751 206.288 89.5871 206.928C89.5871 207.108 89.6592 207.307 89.7043 207.523C89.7494 207.74 89.8126 208.2 89.8757 208.596C89.9388 208.993 89.9569 209.174 89.993 209.498C90.029 209.823 90.0561 210.085 90.0832 210.4C90.3501 213.866 90.4344 217.344 90.3357 220.819Z" fill="#263238"/>
<path d="M75.3715 210.446C68.805 209.607 66.8386 206.792 66.8386 206.792C69.5446 204.267 69.0305 200.542 68.345 198.214C68.1386 197.476 67.867 196.758 67.5332 196.068L75.4347 197.547C75.2509 198.644 75.1484 199.754 75.128 200.866C75.0983 201.687 75.1741 202.509 75.3535 203.311C75.8857 205.674 77.2297 205.71 77.2297 205.71C78.6187 208.299 75.3715 210.446 75.3715 210.446Z" fill="#E4897B"/>
<path opacity="0.2" d="M75.128 200.866C75.0984 201.687 75.1742 202.509 75.3535 203.311C72.2146 202.905 69.8423 200.388 68.345 198.214C68.1387 197.476 67.867 196.758 67.5332 196.068L75.4347 197.547C75.251 198.644 75.1485 199.754 75.128 200.866Z" fill="black"/>
<path d="M77.2297 175.385C84.4998 176.864 86.0422 181.239 85.05 188.834C83.8052 198.332 80.3776 204.556 71.6914 200.704C59.9113 195.473 65.1609 172.923 77.2297 175.385Z" fill="#E4897B"/>
<path d="M80.4318 187.472C80.7939 188.676 81.2996 189.833 81.9381 190.917C81.6629 191.172 81.3231 191.346 80.9556 191.421C80.5882 191.496 80.2073 191.468 79.8545 191.341L80.4318 187.472Z" fill="#DE5753"/>
<path d="M73.7299 181.717C73.6819 181.717 73.6344 181.706 73.5908 181.686C73.5473 181.666 73.5086 181.636 73.4774 181.6C73.446 181.57 73.421 181.534 73.4039 181.495C73.3868 181.455 73.3779 181.413 73.3779 181.37C73.3779 181.326 73.3868 181.284 73.4039 181.244C73.421 181.205 73.446 181.169 73.4774 181.14C74.0088 180.77 74.6197 180.531 75.2606 180.442C75.9015 180.353 76.5544 180.416 77.1666 180.625C77.2068 180.64 77.2439 180.662 77.2757 180.69C77.3075 180.719 77.3333 180.753 77.3517 180.792C77.3701 180.83 77.3808 180.872 77.3831 180.915C77.3854 180.957 77.3792 181 77.365 181.04C77.3508 181.081 77.3288 181.118 77.3002 181.149C77.2717 181.181 77.2372 181.207 77.1986 181.226C77.1601 181.244 77.1183 181.255 77.0757 181.257C77.033 181.259 76.9904 181.253 76.9501 181.239C76.4421 181.076 75.9044 181.028 75.3756 181.098C74.8469 181.169 74.3403 181.355 73.8923 181.645C73.845 181.682 73.7892 181.707 73.7299 181.717Z" fill="#263238"/>
<path d="M85.1764 183.223C85.0911 183.221 85.0101 183.185 84.9509 183.124C84.6409 182.768 84.2562 182.485 83.8244 182.295C83.3925 182.105 82.9241 182.012 82.4523 182.024C82.4102 182.031 82.3668 182.03 82.3251 182.021C82.2833 182.011 82.2439 181.993 82.2093 181.968C82.1746 181.942 82.1456 181.91 82.1238 181.873C82.102 181.837 82.088 181.796 82.0825 181.753C82.0748 181.711 82.0758 181.667 82.0854 181.626C82.095 181.584 82.113 181.545 82.1383 181.51C82.1636 181.475 82.1957 181.446 82.2327 181.424C82.2696 181.403 82.3106 181.389 82.3531 181.383C82.9268 181.349 83.5007 181.447 84.0307 181.669C84.5608 181.891 85.0329 182.231 85.4109 182.664C85.4412 182.694 85.4652 182.73 85.4816 182.769C85.498 182.809 85.5064 182.851 85.5064 182.894C85.5064 182.937 85.498 182.979 85.4816 183.019C85.4652 183.058 85.4412 183.094 85.4109 183.124C85.3484 183.186 85.2644 183.222 85.1764 183.223Z" fill="#263238"/>
<path d="M66.7936 186.01C66.7936 186.01 71.4118 180.734 71.8358 176.016C71.8358 176.016 87.4313 173.076 85.1673 187.841C85.1673 187.841 89.2173 175.141 76.7877 172.309C64.3582 169.477 60.678 187.76 66.0178 194.516C66.0178 194.516 63.9252 189.321 66.7936 186.01Z" fill="#263238"/>
<path d="M67.6685 187.787C67.7189 187.364 67.6853 186.935 67.5698 186.524C67.4543 186.114 67.259 185.73 66.9952 185.395C66.7313 185.06 66.4041 184.78 66.0321 184.571C65.6601 184.363 65.2507 184.23 64.8272 184.179C62.5271 183.963 60.5066 188.365 65.8826 190.62C66.6583 190.944 67.2716 190.25 67.6685 187.787Z" fill="#E4897B"/>
<path d="M79.6471 193.524C79.029 194.189 78.4593 194.898 77.9423 195.644L77.5093 195.427C75.561 194.471 74.9747 193.389 74.9116 192.478C74.8958 192.027 74.9854 191.58 75.1731 191.17C75.2723 190.937 75.4028 190.718 75.561 190.521C76.495 191.659 77.6643 192.582 78.9886 193.227C79.3945 193.407 79.6471 193.524 79.6471 193.524Z" fill="#263238"/>
<path d="M78.9886 193.19L78.4744 193.804C76.6704 192.902 75.4708 192 75.1731 191.17C75.2723 190.937 75.4028 190.718 75.561 190.521C76.4987 191.646 77.6677 192.557 78.9886 193.19Z" fill="white"/>
<path d="M77.5094 195.427C75.5611 194.471 74.9748 193.389 74.9116 192.478C75.6506 192.848 76.3143 193.353 76.869 193.966C77.232 194.373 77.4563 194.885 77.5094 195.427Z" fill="#DE5753"/>
<path d="M76.9681 175.89C76.9681 175.89 71.5561 187.255 64.1056 185.568C56.6551 183.882 71.3216 171.136 71.3216 171.136C71.3216 171.136 84.5539 168.981 89.2804 176.792C94.0069 184.603 85.1673 187.887 85.1673 187.887C85.1673 187.887 87.5125 178.668 76.9681 175.89Z" fill="#263238"/>
<path d="M69.7521 185.262C69.7026 185.26 69.6549 185.242 69.616 185.211C69.5771 185.18 69.549 185.138 69.5357 185.09C69.5276 185.062 69.5255 185.032 69.5294 185.003C69.5332 184.973 69.5431 184.945 69.5583 184.92C69.5735 184.895 69.5938 184.873 69.6178 184.855C69.6418 184.838 69.6691 184.826 69.698 184.82C76.012 183.223 76.8419 175.096 76.8509 175.015C76.8577 174.957 76.887 174.903 76.9324 174.866C76.9779 174.829 77.036 174.811 77.0944 174.817C77.1242 174.817 77.1535 174.825 77.1802 174.838C77.207 174.851 77.2306 174.87 77.2494 174.893C77.2682 174.916 77.2819 174.943 77.2894 174.972C77.2969 175.001 77.2981 175.031 77.2929 175.06C77.2929 175.141 76.3909 183.584 69.8063 185.253L69.7521 185.262Z" fill="#263238"/>
<path d="M76.1833 186.362C76.1833 186.94 75.8316 187.391 75.4527 187.381C75.0739 187.372 74.7672 186.885 74.7943 186.308C74.8213 185.731 75.146 185.271 75.5339 185.289C75.9218 185.307 76.2104 185.812 76.1833 186.362Z" fill="#263238"/>
<path d="M75.3716 185.307L76.6434 184.865C76.6434 184.865 75.9759 185.902 75.3716 185.307Z" fill="#263238"/>
<path d="M83.3634 186.525C83.3634 187.102 83.0026 187.562 82.6237 187.544C82.2449 187.526 81.9472 187.048 81.9653 186.47C81.9833 185.893 82.317 185.442 82.7049 185.46C83.0928 185.478 83.3814 185.947 83.3634 186.525Z" fill="#263238"/>
<path d="M82.5425 185.478L83.8143 185.036C83.8143 185.036 83.1468 186.064 82.5425 185.478Z" fill="#263238"/>
<path d="M93.4658 216.733C93.4526 216.829 93.4606 216.927 93.4893 217.02C93.5181 217.113 93.5668 217.199 93.6321 217.271C93.6974 217.343 93.7777 217.4 93.8674 217.438C93.9571 217.476 94.054 217.494 94.1513 217.49H101.692C101.9 217.482 102.1 217.403 102.256 217.265C102.412 217.126 102.516 216.938 102.549 216.733L104.227 201.85C104.249 201.745 104.248 201.637 104.225 201.533C104.202 201.428 104.157 201.33 104.093 201.245C104.029 201.159 103.948 201.089 103.854 201.037C103.76 200.986 103.657 200.955 103.55 200.948H96.0094C95.7838 200.974 95.5747 201.079 95.4182 201.244C95.2617 201.409 95.1678 201.623 95.1525 201.85L93.4658 216.733Z" fill="#263238"/>
<path opacity="0.5" d="M95.9914 201.75L94.2776 216.778C94.2562 216.865 94.2558 216.957 94.2763 217.045C94.2968 217.133 94.3376 217.215 94.3955 217.284C94.4534 217.353 94.5267 217.408 94.6097 217.444C94.6926 217.48 94.7827 217.496 94.8729 217.49H101.268C101.701 217.49 102.486 217.256 102.531 216.832L104.245 201.75C104.245 201.326 103.559 200.984 103.126 200.984H96.731C96.5331 200.993 96.3463 201.077 96.2088 201.22C96.0712 201.363 95.9934 201.552 95.9914 201.75Z" fill="white"/>
<path d="M109.269 217.977L105.336 211.302C105.367 209.852 105.255 208.402 105.002 206.973C104.66 206.143 100.808 204.267 100.05 204.556C99.2926 204.844 99.022 211.717 99.7076 212.674C100.393 213.63 102.801 214.631 102.801 214.631L102.639 215.939L104.939 222.884L109.269 217.977Z" fill="#E4897B"/>
<path d="M110.847 217.22L109.548 215.912L103.352 222.857L104.236 225.608L110.847 217.22Z" fill="#FF9494"/>
<path d="M79.4396 203.257L78.6549 206.143L80.2515 208.488L83.7873 241.465L93.4658 240.04C92.7983 214.342 92.5638 214.207 88.8295 204.961L80.1612 204.357L79.4396 203.257Z" fill="#FF9494"/>
<path opacity="0.6" d="M79.4396 203.257L78.6549 206.143L80.2515 208.488L83.7873 241.465L93.4658 240.04C92.7983 214.342 92.5638 214.207 88.8295 204.961L80.1612 204.357L79.4396 203.257Z" fill="white"/>
<path d="M63.6366 203.257L72.2327 206.865L70.122 210.473L72.2056 244.234L59.1807 248.05C59.1807 248.05 49.7278 223.245 54.5715 208.524L63.1044 206.062L63.6366 203.257Z" fill="#FF9494"/>
<path opacity="0.6" d="M71.8719 238.859L72.2056 244.207L66.3968 245.903L59.1808 248.014C56.5147 240.678 54.6517 233.075 53.6244 225.338C52.9299 219.466 52.9479 213.413 54.5715 208.488L63.1045 206.026L63.6366 203.257L72.2327 206.865L70.122 210.473L70.9519 223.876L71.8719 238.859Z" fill="white"/>
<path opacity="0.2" d="M79.4937 228.314C79.4937 228.314 76.2556 233.032 71.8719 238.859C70.1761 241.114 68.2639 243.531 66.3967 245.903L59.1807 248.014C56.5146 240.678 54.6516 233.075 53.6244 225.338C57.1602 221.793 61.4898 217.499 61.4898 217.499C61.4898 217.499 63.4742 223.633 62.5993 228.964L70.9518 223.849L73.5496 222.262L79.4937 228.314Z" fill="black"/>
<path d="M72.4401 224.508L81.3789 217.49C81.8966 215.972 82.533 214.497 83.2821 213.079C83.8233 212.421 91.6617 209.535 92.3021 209.471C92.9425 209.408 92.3021 215.894 91.3189 216.994C90.3357 218.095 84.0308 220.277 84.0308 220.277L74.686 229.108L72.4401 224.508Z" fill="#E4897B"/>
<path d="M54.5715 208.488C49.3218 211.122 46.9857 240.762 56.1049 245.876C65.2241 250.991 78.8353 227.836 78.8353 227.836L73.5405 222.217C73.5405 222.217 62.4459 231.507 61.111 230.65C59.776 229.794 61.2914 220.728 61.2914 220.728C61.2914 220.728 62.8518 218.022 59.5686 213.666C56.2853 209.309 54.5715 208.488 54.5715 208.488Z" fill="#FF9494"/>
<path opacity="0.6" d="M54.5715 208.488C49.3218 211.122 46.9857 240.762 56.1049 245.876C65.2241 250.991 78.8353 227.836 78.8353 227.836L73.5405 222.217C73.5405 222.217 62.4459 231.507 61.111 230.65C59.776 229.794 61.2914 220.728 61.2914 220.728C61.2914 220.728 62.8518 218.022 59.5686 213.666C56.2853 209.309 54.5715 208.488 54.5715 208.488Z" fill="white"/>
<path d="M78.9345 229.929L80.522 228.973L74.5779 220.259L72.395 221.477L78.9345 229.929Z" fill="#FF9494"/>
</svg>
