<svg width="390" height="435" viewBox="0 0 390 435" fill="none" xmlns="http://www.w3.org/2000/svg">
<path d="M352.553 102.477C354.621 101.564 356.376 100.064 357.601 98.1639C358.825 96.2635 359.466 94.0458 359.443 91.7851C359.443 85.3993 354.632 80.2054 348.647 80.1793C342.661 80.1532 337.789 85.3036 337.763 91.6894C337.721 93.9687 338.354 96.2095 339.583 98.1294C340.813 100.049 342.583 101.562 344.671 102.477C327.993 104.992 328.75 123.123 328.75 123.123L368.187 123.305C368.187 123.305 369.092 104.974 352.553 102.477Z" fill="#F5F5F5"/>
<path d="M119.523 34.7304L93.7453 25.6128L68.2195 34.6086C64.9657 36.1224 62.1295 37.0272 62.1295 40.02V54.9057C62.0975 65.3605 65.0133 75.6125 70.5424 84.4857C76.1074 93.5298 84.3034 100.657 94.0324 104.913C104.472 101.572 112.25 92.6811 117.018 85.0686C122.54 76.193 125.453 65.942 125.422 55.4886V42.0993C125.387 37.8363 123.09 35.757 119.523 34.7304Z" fill="#F5F5F5"/>
<path d="M102.28 58.7597C102.286 57.4313 101.921 56.1275 101.226 54.9953C100.532 53.863 99.5345 52.9473 98.3474 52.3512C97.1602 51.755 95.8302 51.5022 94.5071 51.6212C93.184 51.7402 91.9204 52.2262 90.8586 53.0246C89.7969 53.8229 88.9791 54.9019 88.4975 56.1399C88.0158 57.378 87.8894 58.7259 88.1325 60.0319C88.3755 61.3379 88.9784 62.5501 89.8733 63.5319C90.7681 64.5138 91.9193 65.2263 93.1972 65.5892V76.2641H97.0947V65.5892C98.5847 65.1705 99.8973 64.277 100.833 63.0444C101.769 61.8117 102.277 60.3073 102.28 58.7597Z" fill="#EBEBEB"/>
<path d="M338.694 172.686L343.087 175.07L341.112 178.376L336.675 175.766L336.762 180.647H332.969V175.723L328.576 178.35L326.636 175.044L331.029 172.66L326.636 170.242L328.576 166.936L333.004 169.65V164.726H336.797L336.71 169.65L341.147 166.988L343.122 170.294L338.694 172.686Z" fill="#E0E0E0"/>
<path d="M356.999 172.686L361.392 175.07L359.417 178.376L354.98 175.766L355.067 180.647H351.274L351.318 175.723L346.881 178.385L344.94 175.079L349.334 172.695L344.94 170.276L346.881 166.97L351.318 169.633L351.274 164.708H355.067L354.98 169.633L359.417 166.97L361.392 170.276L356.999 172.686Z" fill="#E0E0E0"/>
<path d="M375.303 172.686L379.706 175.07L377.731 178.376L373.294 175.766L373.372 180.647H369.579L369.622 175.723L365.185 178.385L363.245 175.079L367.647 172.695L363.28 170.268L365.22 166.962L369.657 169.624L369.614 164.7H373.407L373.328 169.624L377.765 166.962L379.74 170.268L375.303 172.686Z" fill="#E0E0E0"/>
<path d="M189.054 380.938V407.96H228.569H272.156V380.938H189.054Z" fill="#F5F5F5"/>
<path d="M185.565 373.378V380.938H275.062V373.378H228.569H185.565Z" fill="#EBEBEB"/>
<path d="M230.309 407.96H272.156V380.938H275.062V373.378H228.569V380.234L230.309 407.96Z" fill="#EBEBEB"/>
<path d="M217.529 385.288H200.677V389.36H217.529V385.288Z" fill="#E0E0E0"/>
<path d="M220.148 394.449H198.502V403.036H220.148V394.449Z" fill="white"/>
<path d="M201.834 346.391V373.413H241.358H284.945V346.391H201.834Z" fill="#F5F5F5"/>
<path d="M198.345 338.83V346.39H287.851V338.83H241.358H198.345Z" fill="#EBEBEB"/>
<path d="M243.098 373.413H284.945V346.39H287.851V338.83H241.358V345.694L243.098 373.413Z" fill="#EBEBEB"/>
<path d="M230.309 350.749H213.457V354.821H230.309V350.749Z" fill="#E0E0E0"/>
<path d="M232.937 359.902H211.291V368.489H232.937V359.902Z" fill="white"/>
<path d="M380.741 408.169C380.741 408.291 297.351 408.396 194.509 408.396C91.666 408.396 8.25909 408.291 8.25909 408.169C8.25909 408.048 91.6312 407.943 194.509 407.943C297.386 407.943 380.741 408.03 380.741 408.169Z" fill="#263238"/>
<path d="M323.947 213.777H194.3C191.234 213.777 188.749 216.262 188.749 219.327V286.439C188.749 289.505 191.234 291.99 194.3 291.99H323.947C327.013 291.99 329.498 289.505 329.498 286.439V219.327C329.498 216.262 327.013 213.777 323.947 213.777Z" fill="white"/>
<path d="M323.956 291.989C323.956 291.989 324.33 291.989 325.043 291.859C326.101 291.63 327.071 291.102 327.836 290.336C328.394 289.774 328.825 289.097 329.098 288.353C329.254 287.923 329.359 287.476 329.411 287.022C329.411 286.552 329.411 286.047 329.411 285.525C329.411 283.437 329.411 281.027 329.411 278.322C329.411 267.473 329.367 251.795 329.341 232.421C329.341 229.993 329.341 227.514 329.341 224.982V221.137C329.341 219.84 329.472 218.527 328.941 217.326C328.575 216.417 327.967 215.625 327.184 215.036C326.4 214.447 325.471 214.084 324.495 213.985C323.852 213.942 323.138 213.985 322.46 213.985H314.064H277.681H194.317C193.429 213.984 192.555 214.204 191.774 214.626C190.993 215.049 190.33 215.66 189.845 216.404C189.352 217.141 189.053 217.991 188.975 218.875C188.932 219.745 188.975 220.702 188.975 221.606V253.779C188.975 260.739 188.975 267.583 188.975 274.311V284.264C188.975 285.082 188.975 285.908 188.975 286.709C189.015 287.492 189.223 288.257 189.584 288.953C189.955 289.636 190.469 290.232 191.09 290.699C191.712 291.166 192.427 291.493 193.186 291.659C193.96 291.783 194.744 291.824 195.527 291.781H229.517H261.22L307.122 291.85L319.597 291.894L307.122 291.937L261.22 292.007H229.517H195.527C194.715 292.049 193.902 292.005 193.099 291.876C192.279 291.7 191.508 291.347 190.837 290.842C190.167 290.337 189.615 289.693 189.219 288.953C188.819 288.207 188.591 287.38 188.549 286.535C188.549 285.665 188.549 284.899 188.549 284.072C188.549 280.793 188.549 277.469 188.549 274.12V253.779C188.549 246.819 188.549 239.729 188.549 232.508V221.633C188.549 220.71 188.549 219.823 188.549 218.866C188.614 217.915 188.913 216.994 189.419 216.186C189.948 215.383 190.665 214.72 191.507 214.255C192.36 213.802 193.308 213.56 194.274 213.55H277.637H314.021H322.416C323.112 213.55 323.773 213.55 324.487 213.55C325.184 213.623 325.863 213.824 326.488 214.142C327.729 214.772 328.702 215.828 329.228 217.117C329.483 217.748 329.618 218.421 329.628 219.101C329.628 219.753 329.628 220.406 329.628 221.058V224.904C329.628 227.433 329.628 229.912 329.628 232.342C329.628 251.717 329.568 267.395 329.55 278.243C329.55 280.949 329.55 283.359 329.55 285.447C329.55 285.969 329.55 286.465 329.55 286.952C329.495 287.416 329.384 287.872 329.219 288.309C328.939 289.066 328.496 289.752 327.923 290.319C327.14 291.089 326.148 291.613 325.07 291.824C324.8 291.875 324.526 291.904 324.252 291.911L323.956 291.989Z" fill="#263238"/>
<path d="M237.791 241.417V242.391H233.72V237.171H237.687V238.145H234.929V239.25H237.365V240.199H234.929V241.417H237.791Z" fill="#263238"/>
<path d="M243.585 237.136V242.356H242.585L239.975 239.163V242.356H238.774V237.136H239.74L242.35 240.329V237.136H243.585Z" fill="#263238"/>
<path d="M245.926 238.128H244.238V237.136H248.823V238.128H247.135V242.391H245.926V238.128Z" fill="#263238"/>
<path d="M253.547 241.417V242.391H249.475V237.171H253.451V238.145H250.685V239.25H253.129V240.199H250.685V241.417H253.547Z" fill="#263238"/>
<path d="M257.871 242.391L256.853 240.929H255.739V242.391H254.53V237.171H256.809C258.21 237.171 259.089 237.893 259.089 239.076C259.099 239.43 259.002 239.779 258.809 240.076C258.616 240.372 258.337 240.604 258.01 240.738L259.184 242.426L257.871 242.391ZM256.731 238.128H255.739V239.955H256.731C257.471 239.955 257.845 239.616 257.845 239.041C257.845 238.467 257.471 238.128 256.731 238.128Z" fill="#263238"/>
<path d="M261.838 239.763C261.872 239.197 262.072 238.652 262.413 238.198C262.754 237.744 263.221 237.4 263.756 237.209C264.291 237.018 264.87 236.988 265.421 237.124C265.973 237.259 266.472 237.554 266.858 237.971L266.075 238.693C265.912 238.501 265.71 238.346 265.482 238.239C265.253 238.132 265.004 238.077 264.752 238.076C264.327 238.106 263.929 238.297 263.638 238.609C263.347 238.922 263.186 239.332 263.186 239.759C263.186 240.186 263.347 240.597 263.638 240.909C263.929 241.221 264.327 241.412 264.752 241.443C265.005 241.446 265.256 241.393 265.485 241.286C265.714 241.179 265.916 241.021 266.075 240.825L266.858 241.547C266.475 241.968 265.976 242.266 265.424 242.404C264.872 242.543 264.291 242.515 263.755 242.324C263.219 242.134 262.751 241.789 262.41 241.333C262.068 240.878 261.87 240.332 261.838 239.763Z" fill="#263238"/>
<path d="M267.241 239.763C267.209 239.188 267.351 238.616 267.649 238.122C267.946 237.628 268.384 237.235 268.907 236.993C269.431 236.751 270.014 236.672 270.583 236.765C271.152 236.859 271.68 237.121 272.098 237.517C272.516 237.914 272.806 238.427 272.929 238.99C273.052 239.553 273.004 240.14 272.79 240.676C272.576 241.211 272.207 241.67 271.729 241.992C271.251 242.315 270.688 242.487 270.112 242.486C269.742 242.508 269.371 242.453 269.023 242.326C268.674 242.198 268.356 242.001 268.087 241.746C267.818 241.491 267.604 241.183 267.459 240.842C267.313 240.501 267.239 240.134 267.241 239.763ZM271.756 239.763C271.749 239.44 271.647 239.125 271.462 238.86C271.277 238.594 271.018 238.388 270.717 238.269C270.416 238.15 270.087 238.122 269.77 238.19C269.453 238.257 269.164 238.416 268.937 238.648C268.711 238.879 268.558 239.172 268.497 239.49C268.436 239.808 268.471 240.137 268.596 240.435C268.722 240.734 268.932 240.988 269.202 241.168C269.471 241.347 269.788 241.442 270.112 241.442C270.332 241.447 270.551 241.407 270.755 241.324C270.959 241.241 271.144 241.117 271.298 240.959C271.452 240.802 271.572 240.615 271.651 240.409C271.73 240.203 271.766 239.983 271.756 239.763Z" fill="#263238"/>
<path d="M273.914 237.136H276.28C276.972 237.136 277.636 237.411 278.126 237.9C278.615 238.39 278.89 239.054 278.89 239.746C278.89 240.438 278.615 241.102 278.126 241.592C277.636 242.081 276.972 242.356 276.28 242.356H273.896L273.914 237.136ZM276.236 241.39C276.668 241.39 277.082 241.219 277.387 240.914C277.692 240.609 277.863 240.195 277.863 239.763C277.863 239.332 277.692 238.918 277.387 238.613C277.082 238.308 276.668 238.136 276.236 238.136H275.132V241.39H276.236Z" fill="#263238"/>
<path d="M284.188 241.417V242.391H280.117V237.171H284.11V238.145H281.326V239.25H283.771V240.199H281.326V241.417H284.188Z" fill="#263238"/>
<path d="M217.833 250.786H205.053C203.155 250.786 201.617 252.325 201.617 254.223V274.12C201.617 276.018 203.155 277.556 205.053 277.556H217.833C219.731 277.556 221.27 276.018 221.27 274.12V254.223C221.27 252.325 219.731 250.786 217.833 250.786Z" fill="#EBEBEB"/>
<path d="M242.376 250.786H229.596C227.698 250.786 226.159 252.325 226.159 254.223V274.12C226.159 276.018 227.698 277.556 229.596 277.556H242.376C244.274 277.556 245.813 276.018 245.813 274.12V254.223C245.813 252.325 244.274 250.786 242.376 250.786Z" fill="#EBEBEB"/>
<path d="M266.919 250.786H254.138C252.241 250.786 250.702 252.325 250.702 254.223V274.12C250.702 276.018 252.241 277.556 254.138 277.556H266.919C268.817 277.556 270.355 276.018 270.355 274.12V254.223C270.355 252.325 268.817 250.786 266.919 250.786Z" fill="#EBEBEB"/>
<path d="M291.453 250.786H278.672C276.775 250.786 275.236 252.325 275.236 254.223V274.12C275.236 276.018 276.775 277.556 278.672 277.556H291.453C293.351 277.556 294.889 276.018 294.889 274.12V254.223C294.889 252.325 293.351 250.786 291.453 250.786Z" fill="#EBEBEB"/>
<path d="M315.995 250.786H303.215C301.317 250.786 299.779 252.325 299.779 254.223V274.12C299.779 276.018 301.317 277.556 303.215 277.556H315.995C317.893 277.556 319.432 276.018 319.432 274.12V254.223C319.432 252.325 317.893 250.786 315.995 250.786Z" fill="#EBEBEB"/>
<path d="M215.728 266.22C215.728 268.125 214.249 269.369 212.248 269.369C209.499 269.369 208.046 267.395 208.046 264.149C208.046 260.617 209.934 258.79 212.692 258.79C213.518 258.753 214.338 258.939 215.067 259.33L214.754 259.939C214.123 259.593 213.41 259.427 212.692 259.46C210.351 259.46 208.812 261 208.812 264.036C208.811 264.456 208.84 264.874 208.898 265.289C209.143 264.616 209.601 264.042 210.203 263.654C210.805 263.266 211.517 263.086 212.231 263.14C214.319 263.14 215.728 264.358 215.728 266.22ZM214.962 266.22C214.962 264.732 213.892 263.758 212.126 263.758C211.769 263.718 211.408 263.753 211.065 263.859C210.723 263.965 210.405 264.141 210.133 264.375C209.861 264.609 209.641 264.897 209.485 265.221C209.33 265.544 209.242 265.896 209.229 266.255C209.229 267.482 210.256 268.7 212.213 268.7C212.561 268.738 212.912 268.702 213.245 268.594C213.578 268.487 213.884 268.31 214.144 268.076C214.403 267.842 214.61 267.556 214.751 267.236C214.893 266.916 214.964 266.57 214.962 266.22Z" fill="#FF9687"/>
<path d="M240.001 266.42H237.809V269.317H237.06V266.42H231.101V265.872L236.773 258.869H237.643L232.075 265.75H237.095V263.201H237.826V265.75H240.018L240.001 266.42Z" fill="#FF9687"/>
<path d="M265.309 270.805C262.28 271.107 259.229 271.107 256.2 270.805C259.229 270.503 262.28 270.503 265.309 270.805Z" fill="#FF9687"/>
<path d="M197.684 223.721C198.861 223.721 199.816 222.766 199.816 221.589C199.816 220.412 198.861 219.458 197.684 219.458C196.507 219.458 195.553 220.412 195.553 221.589C195.553 222.766 196.507 223.721 197.684 223.721Z" fill="#263238"/>
<path d="M205.958 221.589C205.958 222.011 205.833 222.423 205.599 222.773C205.364 223.124 205.032 223.397 204.642 223.558C204.253 223.72 203.824 223.762 203.411 223.68C202.997 223.597 202.617 223.394 202.319 223.096C202.021 222.798 201.818 222.418 201.736 222.005C201.654 221.591 201.696 221.163 201.857 220.773C202.018 220.384 202.292 220.051 202.642 219.817C202.993 219.583 203.405 219.458 203.826 219.458C204.392 219.458 204.934 219.682 205.334 220.082C205.733 220.482 205.958 221.024 205.958 221.589Z" fill="#263238"/>
<path d="M209.855 223.721C211.033 223.721 211.987 222.766 211.987 221.589C211.987 220.412 211.033 219.458 209.855 219.458C208.678 219.458 207.724 220.412 207.724 221.589C207.724 222.766 208.678 223.721 209.855 223.721Z" fill="#263238"/>
<path d="M329.715 227.592C329.715 227.714 298.195 227.818 259.332 227.818C220.469 227.818 188.949 227.714 188.949 227.592C188.949 227.47 220.452 227.366 259.332 227.366C298.213 227.366 329.715 227.462 329.715 227.592Z" fill="#263238"/>
<path d="M303.868 42.0122H148.451C145.299 42.0122 142.744 44.5674 142.744 47.7194V190.704C142.744 193.856 145.299 196.411 148.451 196.411H303.868C307.02 196.411 309.575 193.856 309.575 190.704V47.7194C309.575 44.5674 307.02 42.0122 303.868 42.0122Z" fill="white"/>
<path d="M303.868 196.411H304.277C304.681 196.378 305.08 196.302 305.468 196.185C306.227 195.953 306.929 195.564 307.528 195.044C308.128 194.524 308.611 193.884 308.948 193.166C309.417 192.088 309.603 190.908 309.488 189.738C309.488 188.442 309.488 187.015 309.488 185.475C309.488 182.395 309.488 178.837 309.488 174.835C309.488 158.827 309.444 135.685 309.41 107.045C309.41 92.7332 309.41 77.0645 309.41 60.23C309.41 56.0308 309.41 51.7591 309.41 47.4149C309.344 46.3528 308.973 45.3324 308.34 44.477C307.707 43.6217 306.839 42.968 305.843 42.5951C304.806 42.2674 303.715 42.1491 302.632 42.2471H271.582H148.468C147.162 42.2547 145.901 42.7265 144.91 43.5782C143.887 44.4425 143.218 45.6535 143.031 46.9799C142.971 47.6451 142.951 48.3133 142.97 48.9809V102.547C142.97 123.14 142.97 143.002 142.97 161.924C142.97 171.39 142.97 180.609 142.97 189.582C142.97 190.138 142.97 190.713 142.97 191.243C143.02 191.778 143.146 192.302 143.344 192.801C143.747 193.8 144.433 194.659 145.319 195.271C146.196 195.883 147.234 196.223 148.303 196.246H164.407H211.221L279.012 196.324H297.438L279.012 196.368L211.221 196.437H164.407H148.294C147.145 196.408 146.029 196.044 145.085 195.388C144.14 194.733 143.408 193.815 142.979 192.748C142.765 192.213 142.627 191.651 142.57 191.078C142.526 190.486 142.57 189.947 142.57 189.382C142.57 180.409 142.57 171.19 142.57 161.724C142.57 142.802 142.57 122.94 142.57 102.347C142.57 92.0459 142.57 81.574 142.57 70.931V48.9374C142.546 48.2494 142.569 47.5604 142.639 46.8755C142.831 45.4606 143.537 44.1658 144.623 43.2389C145.689 42.3064 147.052 41.7824 148.468 41.7599H271.582H302.58C303.711 41.6624 304.85 41.7925 305.93 42.1427C306.996 42.5421 307.925 43.2418 308.602 44.1573C309.28 45.0728 309.678 46.1649 309.749 47.3018C309.749 51.6518 309.749 55.9322 309.749 60.143C309.749 76.9775 309.749 92.6462 309.749 106.958C309.749 135.581 309.697 158.74 309.679 174.748C309.679 178.75 309.679 182.308 309.679 185.388C309.679 186.928 309.679 188.355 309.679 189.651C309.79 190.841 309.592 192.04 309.105 193.131C308.669 194.046 307.996 194.827 307.156 195.395C306.316 195.962 305.34 196.295 304.329 196.359L303.868 196.411Z" fill="#263238"/>
<path d="M155.35 52.7131C155.35 53.2848 155.18 53.8435 154.863 54.3187C154.545 54.7939 154.093 55.1641 153.565 55.3825C153.037 55.6008 152.455 55.6575 151.895 55.5454C151.334 55.4332 150.82 55.1573 150.416 54.7524C150.013 54.3476 149.738 53.8321 149.628 53.2713C149.517 52.7104 149.576 52.1294 149.796 51.6017C150.016 51.0741 150.387 50.6236 150.863 50.3073C151.339 49.9909 151.899 49.823 152.47 49.8247C152.849 49.8247 153.224 49.8995 153.574 50.0448C153.924 50.19 154.242 50.4029 154.51 50.6712C154.777 50.9396 154.989 51.258 155.133 51.6084C155.277 51.9588 155.351 52.3342 155.35 52.7131Z" fill="#263238"/>
<path d="M160.874 55.5929C162.465 55.5929 163.754 54.3036 163.754 52.7132C163.754 51.1228 162.465 49.8335 160.874 49.8335C159.284 49.8335 157.995 51.1228 157.995 52.7132C157.995 54.3036 159.284 55.5929 160.874 55.5929Z" fill="#263238"/>
<path d="M169.296 55.5929C170.886 55.5929 172.176 54.3036 172.176 52.7132C172.176 51.1228 170.886 49.8335 169.296 49.8335C167.706 49.8335 166.416 51.1228 166.416 52.7132C166.416 54.3036 167.706 55.5929 169.296 55.5929Z" fill="#263238"/>
<path d="M309.575 60.9C309.575 61.0305 272.226 61.1262 226.159 61.1262C180.093 61.1262 142.744 61.0305 142.744 60.9C142.744 60.7695 180.084 60.6738 226.159 60.6738C272.234 60.6738 309.575 60.7695 309.575 60.9Z" fill="#263238"/>
<path d="M249.728 119.059C249.728 119.059 249.788 118.964 249.928 118.79L250.041 118.642L250.154 118.442C250.25 118.28 250.334 118.111 250.406 117.937C250.406 117.841 250.493 117.737 250.528 117.624L250.632 117.258C250.671 117.124 250.7 116.988 250.719 116.85C250.719 116.702 250.772 116.554 250.78 116.397C250.837 115.674 250.802 114.946 250.676 114.231C250.31 112.274 249.64 110.387 248.692 108.637C247.47 106.301 246.04 104.079 244.421 101.999C242.471 99.4683 240.346 97.0786 238.061 94.8472C235.445 92.279 232.651 89.898 229.7 87.722C228.143 86.5736 226.499 85.4599 224.767 84.4159C223.002 83.3376 221.168 82.3757 219.278 81.5363C217.334 80.6492 215.289 80.0063 213.188 79.6222C212.113 79.4309 211.016 79.4045 209.934 79.5439C209.39 79.6211 208.86 79.7733 208.359 79.9963C207.867 80.2378 207.423 80.5648 207.045 80.962C206.686 81.3787 206.408 81.86 206.228 82.3802C206.064 82.9047 205.973 83.4492 205.958 83.9984C205.944 85.0904 206.093 86.1784 206.402 87.2261C207.026 89.2756 207.902 91.2396 209.012 93.0725C210.057 94.8555 211.22 96.5673 212.492 98.1968C213.727 99.7976 215.023 101.311 216.337 102.729C218.836 105.414 221.522 107.917 224.376 110.22C226.852 112.239 229.469 114.079 232.206 115.727C234.458 117.097 236.828 118.261 239.288 119.207C241.137 119.945 243.088 120.397 245.073 120.547C245.796 120.583 246.52 120.533 247.231 120.399C247.387 120.399 247.526 120.321 247.666 120.286C247.801 120.25 247.935 120.207 248.066 120.156L248.414 120.008L248.718 119.851C248.884 119.761 249.041 119.656 249.188 119.538L249.371 119.407L249.51 119.277C249.667 119.12 249.754 119.051 249.754 119.051L249.519 119.286L249.38 119.416L249.206 119.555C249.057 119.675 248.897 119.78 248.727 119.868L248.44 120.06L248.083 120.208C247.956 120.262 247.826 120.305 247.692 120.338C247.547 120.388 247.398 120.429 247.248 120.46C246.533 120.606 245.802 120.659 245.073 120.617C243.083 120.481 241.125 120.038 239.27 119.303C236.802 118.358 234.423 117.193 232.162 115.823C229.425 114.175 226.809 112.334 224.332 110.316C221.471 108.015 218.778 105.512 216.276 102.825C214.962 101.407 213.666 99.8933 212.422 98.2925C211.153 96.6547 209.991 94.9373 208.942 93.1507C207.831 91.3094 206.954 89.3367 206.332 87.2782C206.015 86.2173 205.863 85.1141 205.88 84.007C205.898 83.4489 205.992 82.8958 206.158 82.3627C206.356 81.8235 206.65 81.3251 207.028 80.8925C207.414 80.479 207.874 80.1425 208.385 79.9006C208.898 79.6719 209.439 79.5139 209.995 79.4309C211.091 79.2913 212.203 79.3177 213.292 79.5091C215.409 79.8964 217.469 80.5452 219.425 81.4405C221.32 82.281 223.157 83.2459 224.924 84.3289C226.664 85.3729 228.308 86.4865 229.865 87.6436C232.821 89.8236 235.615 92.2135 238.226 94.795C240.517 97.0302 242.645 99.4259 244.595 101.964C246.21 104.05 247.633 106.278 248.849 108.619C249.795 110.379 250.461 112.275 250.824 114.24C250.945 114.961 250.974 115.695 250.911 116.423C250.897 116.573 250.874 116.721 250.841 116.867C250.827 117.006 250.798 117.143 250.754 117.276L250.65 117.65C250.613 117.757 250.57 117.862 250.519 117.963C250.454 118.142 250.366 118.311 250.258 118.468C250.228 118.538 250.19 118.605 250.145 118.668L250.032 118.816L249.728 119.059Z" fill="#FF9687"/>
<path d="M257.618 99.9889V99.6583V99.4756C257.618 99.406 257.618 99.3364 257.575 99.2494C257.545 99.0621 257.495 98.8784 257.427 98.7013C257.427 98.6056 257.357 98.4925 257.314 98.3881L257.14 98.0401C257.084 97.914 257.014 97.7944 256.931 97.6834C256.856 97.5528 256.772 97.4278 256.679 97.3093C256.246 96.7278 255.737 96.2069 255.165 95.7607C253.583 94.5458 251.822 93.5832 249.945 92.9071C247.479 91.9749 244.934 91.2673 242.341 90.793C239.184 90.2004 235.989 89.8341 232.78 89.6968C229.116 89.5183 225.445 89.5968 221.792 89.9317C219.869 90.1144 217.903 90.3841 215.911 90.7582C213.875 91.1253 211.867 91.6281 209.899 92.2633C207.853 92.8829 205.895 93.7599 204.07 94.8733C203.14 95.4437 202.304 96.1538 201.59 96.9787C201.237 97.3971 200.945 97.8627 200.72 98.362C200.506 98.8692 200.387 99.4122 200.372 99.9628C200.39 100.512 200.504 101.054 200.712 101.564C200.939 102.061 201.232 102.526 201.582 102.947C202.3 103.772 203.139 104.485 204.07 105.061C205.897 106.169 207.855 107.046 209.899 107.671C211.869 108.298 213.877 108.801 215.911 109.176C217.903 109.55 219.869 109.811 221.792 109.994C225.444 110.336 229.116 110.417 232.78 110.238C235.99 110.109 239.188 109.76 242.35 109.194C244.943 108.719 247.488 108.012 249.954 107.079C251.827 106.396 253.587 105.434 255.174 104.226C255.743 103.777 256.252 103.257 256.688 102.677C256.781 102.556 256.865 102.428 256.94 102.294C257.022 102.183 257.092 102.064 257.149 101.938L257.323 101.598C257.366 101.485 257.401 101.381 257.436 101.277C257.505 101.1 257.554 100.916 257.584 100.728C257.584 100.65 257.584 100.581 257.627 100.511V100.328V99.9889C257.627 99.9889 257.627 100.102 257.627 100.328V100.511C257.627 100.581 257.627 100.65 257.627 100.737C257.6 100.924 257.554 101.108 257.488 101.285C257.488 101.39 257.418 101.494 257.375 101.607L257.21 101.955C257.148 102.081 257.078 102.203 257.001 102.321C256.924 102.45 256.839 102.575 256.748 102.695C256.316 103.282 255.807 103.809 255.235 104.261C253.655 105.486 251.894 106.457 250.015 107.14C247.547 108.083 244.999 108.799 242.402 109.281C239.242 109.875 236.044 110.247 232.832 110.394C229.166 110.58 225.491 110.504 221.835 110.168C219.904 109.985 217.929 109.724 215.937 109.35C213.898 108.974 211.884 108.471 209.908 107.845C207.854 107.224 205.887 106.347 204.053 105.235C203.111 104.657 202.263 103.938 201.538 103.104C201.185 102.672 200.893 102.195 200.668 101.685C200.433 101.166 200.312 100.603 200.312 100.032C200.312 99.4624 200.433 98.8988 200.668 98.3794C200.896 97.8713 201.188 97.3946 201.538 96.9613C202.271 96.1281 203.124 95.4096 204.07 94.8298C205.908 93.7195 207.878 92.8427 209.934 92.2198C211.905 91.5856 213.916 91.0828 215.954 90.7147C217.955 90.3406 219.921 90.0796 221.853 89.8969C225.484 89.5437 229.135 89.4478 232.78 89.6098C235.993 89.7551 239.191 90.1302 242.35 90.7321C244.947 91.2089 247.495 91.9224 249.962 92.8636C251.841 93.5467 253.603 94.5182 255.182 95.7433C255.753 96.1975 256.262 96.7239 256.696 97.3093C256.789 97.4308 256.874 97.5587 256.949 97.6921C257.028 97.8081 257.098 97.9303 257.157 98.0575L257.323 98.3968C257.366 98.5099 257.401 98.623 257.436 98.7187C257.502 98.8989 257.548 99.0856 257.575 99.2755C257.575 99.3538 257.575 99.4321 257.575 99.493V99.6844C257.618 99.8758 257.618 99.9889 257.618 99.9889Z" fill="#FF9687"/>
<path d="M247.161 76.2642L246.874 76.0815L246.717 75.9771C246.653 75.9402 246.586 75.9082 246.517 75.8814C246.351 75.7908 246.176 75.7179 245.995 75.6639C245.891 75.6639 245.786 75.5856 245.673 75.5595L245.299 75.4812C245.165 75.4518 245.028 75.4314 244.89 75.4203C244.74 75.4114 244.589 75.4114 244.438 75.4203C243.711 75.4111 242.987 75.4929 242.28 75.6639C240.355 76.175 238.519 76.9759 236.834 78.039C234.586 79.4143 232.469 80.9927 230.509 82.7544C228.118 84.8733 225.88 87.1584 223.81 89.5926C221.426 92.3773 219.242 95.3283 217.277 98.4231C216.25 100.05 215.241 101.79 214.319 103.53C213.362 105.364 212.528 107.259 211.822 109.202C211.073 111.207 210.574 113.296 210.334 115.423C210.218 116.509 210.268 117.606 210.482 118.677C210.601 119.213 210.791 119.731 211.047 120.217C211.317 120.696 211.674 121.121 212.1 121.469C212.543 121.792 213.042 122.031 213.57 122.174C214.103 122.303 214.65 122.359 215.197 122.339C216.289 122.279 217.366 122.053 218.39 121.67C220.392 120.91 222.292 119.905 224.045 118.677C225.751 117.508 227.378 116.229 228.917 114.849C230.431 113.5 231.849 112.108 233.171 110.699C235.674 108.02 237.986 105.168 240.088 102.164C241.932 99.5553 243.589 96.8196 245.047 93.9774C246.263 91.6396 247.265 89.1965 248.04 86.6781C248.648 84.7797 248.962 82.7992 248.971 80.8056C248.968 80.0822 248.869 79.3624 248.675 78.6654C248.675 78.5088 248.579 78.3696 248.536 78.2304C248.492 78.0912 248.44 77.9694 248.379 77.8476L248.214 77.5083C248.153 77.4039 248.083 77.3082 248.031 77.2212C247.932 77.0579 247.816 76.9062 247.683 76.7688L247.544 76.5948L247.405 76.473L247.161 76.2468L247.413 76.4643L247.553 76.5861C247.606 76.6372 247.656 76.6925 247.7 76.7514C247.832 76.89 247.948 77.0416 248.048 77.2038C248.109 77.2995 248.179 77.3865 248.24 77.4909L248.405 77.8389C248.472 77.961 248.528 78.0892 248.57 78.2217C248.614 78.3609 248.675 78.5001 248.71 78.6567C248.91 79.3556 249.016 80.0785 249.023 80.8056C249.026 82.8044 248.718 84.7916 248.109 86.6955C247.337 89.2209 246.342 91.6724 245.134 94.0209C243.676 96.8689 242.019 99.6104 240.175 102.225C238.078 105.238 235.766 108.096 233.258 110.777C231.936 112.195 230.518 113.596 228.995 114.944C227.453 116.327 225.823 117.609 224.115 118.781C222.355 120.019 220.446 121.03 218.434 121.791C217.398 122.178 216.31 122.407 215.206 122.47C214.644 122.489 214.083 122.433 213.536 122.305C212.991 122.151 212.478 121.9 212.022 121.565C211.582 121.208 211.213 120.771 210.934 120.278C210.671 119.781 210.475 119.251 210.351 118.703C210.14 117.62 210.093 116.511 210.212 115.414C210.448 113.275 210.95 111.173 211.709 109.159C212.415 107.212 213.249 105.315 214.205 103.478C215.136 101.668 216.137 99.9456 217.172 98.31C219.149 95.2165 221.341 92.2657 223.732 89.4795C225.805 87.0457 228.049 84.7633 230.448 82.65C232.419 80.8903 234.545 79.3121 236.799 77.9346C238.492 76.8761 240.338 76.0839 242.272 75.5856C242.98 75.4104 243.708 75.3285 244.438 75.342C244.595 75.342 244.742 75.342 244.89 75.342C245.031 75.3525 245.17 75.3729 245.308 75.4029L245.682 75.4812L246.004 75.5943C246.186 75.651 246.36 75.7268 246.526 75.8205C246.595 75.8473 246.662 75.8793 246.726 75.9162L246.883 76.0293L247.161 76.2642Z" fill="#FF9687"/>
<path d="M200.024 111.812C200.172 111.961 200.273 112.15 200.313 112.356C200.354 112.562 200.332 112.775 200.252 112.968C200.171 113.162 200.035 113.327 199.861 113.444C199.687 113.56 199.482 113.622 199.272 113.622C199.062 113.622 198.857 113.56 198.683 113.444C198.508 113.327 198.372 113.162 198.292 112.968C198.211 112.775 198.19 112.562 198.23 112.356C198.271 112.15 198.371 111.961 198.519 111.812C198.618 111.713 198.735 111.635 198.864 111.581C198.994 111.527 199.132 111.5 199.272 111.5C199.412 111.5 199.55 111.527 199.679 111.581C199.809 111.635 199.926 111.713 200.024 111.812Z" fill="#FF9687"/>
<path d="M260.046 78.8481C260.048 79.0601 259.986 79.2678 259.87 79.4449C259.753 79.622 259.587 79.7605 259.391 79.8429C259.196 79.9252 258.98 79.9476 258.772 79.9073C258.564 79.867 258.373 79.7658 258.222 79.6165C258.072 79.4672 257.969 79.2766 257.927 79.0687C257.885 78.8609 257.906 78.6453 257.986 78.4493C258.067 78.2532 258.204 78.0856 258.38 77.9676C258.556 77.8496 258.764 77.7867 258.976 77.7867C259.116 77.7855 259.255 77.8121 259.385 77.8649C259.514 77.9178 259.632 77.9958 259.732 78.0944C259.831 78.1931 259.91 78.3105 259.964 78.4399C260.018 78.5692 260.046 78.7079 260.046 78.8481Z" fill="#FF9687"/>
<path d="M206.741 115.31C206.741 115.363 206.725 115.415 206.695 115.46C206.666 115.504 206.624 115.538 206.574 115.559C206.525 115.579 206.471 115.585 206.419 115.574C206.366 115.564 206.318 115.538 206.28 115.5C206.243 115.463 206.217 115.415 206.207 115.362C206.196 115.31 206.202 115.256 206.222 115.207C206.242 115.157 206.277 115.115 206.321 115.085C206.366 115.056 206.418 115.04 206.471 115.04C206.543 115.04 206.611 115.068 206.662 115.119C206.712 115.17 206.741 115.238 206.741 115.31Z" fill="#FF9687"/>
<path d="M212.509 85.5036C212.509 85.5569 212.493 85.6091 212.464 85.6534C212.434 85.6978 212.392 85.7323 212.343 85.7528C212.293 85.7732 212.239 85.7785 212.187 85.7681C212.134 85.7577 212.086 85.732 212.049 85.6943C212.011 85.6566 211.985 85.6085 211.975 85.5562C211.964 85.5039 211.97 85.4497 211.99 85.4004C212.011 85.3511 212.045 85.309 212.089 85.2793C212.134 85.2497 212.186 85.2339 212.239 85.2339C212.311 85.2339 212.379 85.2623 212.43 85.3129C212.481 85.3635 212.509 85.4321 212.509 85.5036Z" fill="#FF9687"/>
<path d="M254.695 99.9889C254.695 100.06 254.667 100.129 254.616 100.18C254.566 100.23 254.497 100.259 254.426 100.259C254.354 100.259 254.285 100.23 254.235 100.18C254.184 100.129 254.156 100.06 254.156 99.9889C254.156 99.9174 254.184 99.8488 254.235 99.7982C254.285 99.7477 254.354 99.7192 254.426 99.7192C254.497 99.7192 254.566 99.7477 254.616 99.7982C254.667 99.8488 254.695 99.9174 254.695 99.9889Z" fill="#FF9687"/>
<path d="M258.454 87.3915C258.454 87.4631 258.425 87.5317 258.375 87.5822C258.324 87.6328 258.256 87.6612 258.184 87.6612C258.112 87.6612 258.044 87.6328 257.993 87.5822C257.943 87.5317 257.914 87.4631 257.914 87.3915C257.914 87.32 257.943 87.2514 257.993 87.2008C258.044 87.1502 258.112 87.1218 258.184 87.1218C258.256 87.1218 258.324 87.1502 258.375 87.2008C258.425 87.2514 258.454 87.32 258.454 87.3915Z" fill="#FF9687"/>
<path d="M240.236 105.931H236.895V87.7395C236.895 85.679 236.077 83.7029 234.62 82.246C233.163 80.789 231.186 79.9704 229.126 79.9704C227.065 79.9704 225.089 80.789 223.632 82.246C222.175 83.7029 221.357 85.679 221.357 87.7395V105.931H217.99V87.7395C217.99 84.793 219.16 81.9672 221.244 79.8836C223.328 77.8001 226.153 76.6296 229.1 76.6296C232.046 76.6296 234.872 77.8001 236.956 79.8836C239.039 81.9672 240.21 84.793 240.21 87.7395L240.236 105.931Z" fill="#FF9687"/>
<g opacity="0.3">
<path d="M240.236 105.931H236.895V87.7395C236.895 85.679 236.077 83.7029 234.62 82.246C233.163 80.789 231.186 79.9704 229.126 79.9704C227.065 79.9704 225.089 80.789 223.632 82.246C222.175 83.7029 221.357 85.679 221.357 87.7395V105.931H217.99V87.7395C217.99 84.793 219.16 81.9672 221.244 79.8836C223.328 77.8001 226.153 76.6296 229.1 76.6296C232.046 76.6296 234.872 77.8001 236.956 79.8836C239.039 81.9672 240.21 84.793 240.21 87.7395L240.236 105.931Z" fill="black"/>
</g>
<path d="M242.141 97.8401H216.111C215.03 97.8401 214.153 98.7165 214.153 99.7976V115.092C214.153 116.173 215.03 117.05 216.111 117.05H242.141C243.222 117.05 244.099 116.173 244.099 115.092V99.7976C244.099 98.7165 243.222 97.8401 242.141 97.8401Z" fill="#FF9687"/>
<g opacity="0.3">
<path d="M231.632 104.948C231.635 104.481 231.508 104.022 231.265 103.623C231.021 103.225 230.671 102.902 230.254 102.691C229.837 102.481 229.37 102.392 228.904 102.433C228.439 102.474 227.994 102.645 227.621 102.926C227.247 103.206 226.96 103.586 226.791 104.021C226.621 104.456 226.577 104.931 226.663 105.39C226.749 105.849 226.962 106.275 227.277 106.62C227.592 106.964 227.998 107.214 228.447 107.341V111.082H229.805V107.341C230.329 107.196 230.791 106.884 231.121 106.452C231.451 106.02 231.63 105.492 231.632 104.948Z" fill="black"/>
</g>
<path d="M215.754 115.231C215.684 115.231 215.624 112.03 215.624 108.08C215.624 104.13 215.684 100.92 215.754 100.92C215.824 100.92 215.876 104.122 215.876 108.08C215.876 112.039 215.815 115.231 215.754 115.231Z" fill="#FAFAFA"/>
<path d="M227.168 108.15C227.168 108.15 227.047 108.15 226.873 107.984C226.626 107.801 226.409 107.581 226.229 107.332C225.912 106.922 225.691 106.446 225.581 105.939C225.471 105.433 225.477 104.908 225.596 104.403C225.715 103.899 225.945 103.427 226.27 103.023C226.595 102.619 227.006 102.293 227.473 102.068C227.745 101.922 228.039 101.819 228.343 101.764C228.455 101.743 228.57 101.743 228.682 101.764C228.298 101.894 227.923 102.051 227.56 102.234C227.135 102.468 226.764 102.788 226.471 103.174C226.177 103.56 225.967 104.004 225.855 104.475C225.743 104.947 225.731 105.437 225.819 105.914C225.907 106.391 226.094 106.844 226.368 107.245C226.61 107.567 226.878 107.87 227.168 108.15Z" fill="#FAFAFA"/>
<path d="M273.583 133.519H181.389C176.911 133.519 173.281 137.149 173.281 141.627V142.619C173.281 147.097 176.911 150.727 181.389 150.727H273.583C278.061 150.727 281.691 147.097 281.691 142.619V141.627C281.691 137.149 278.061 133.519 273.583 133.519Z" fill="#F5F5F5"/>
<path d="M274.375 157.113H182.181C177.703 157.113 174.072 160.744 174.072 165.222V166.213C174.072 170.692 177.703 174.322 182.181 174.322H274.375C278.853 174.322 282.483 170.692 282.483 166.213V165.222C282.483 160.744 278.853 157.113 274.375 157.113Z" fill="#F5F5F5"/>
<path d="M190.411 141.984V139.496H191.446V141.949C191.446 142.819 191.812 143.141 192.438 143.141C193.065 143.141 193.43 142.793 193.43 141.949V139.496H194.448V141.984C194.448 142.519 194.235 143.033 193.857 143.411C193.478 143.79 192.965 144.002 192.429 144.002C191.894 144.002 191.381 143.79 191.002 143.411C190.624 143.033 190.411 142.519 190.411 141.984Z" fill="#263238"/>
<path d="M195.065 143.628L195.387 142.915C195.748 143.129 196.16 143.244 196.579 143.245C197.04 143.245 197.206 143.124 197.206 142.932C197.206 142.375 195.144 142.932 195.144 141.584C195.144 140.931 195.727 140.47 196.727 140.47C197.183 140.463 197.634 140.567 198.041 140.775L197.71 141.479C197.411 141.309 197.072 141.222 196.727 141.227C196.283 141.227 196.092 141.366 196.092 141.54C196.092 142.123 198.154 141.54 198.154 142.906C198.154 143.541 197.571 143.994 196.545 143.994C196.028 144.005 195.517 143.879 195.065 143.628Z" fill="#263238"/>
<path d="M202.104 142.515H199.494C199.547 142.729 199.676 142.916 199.857 143.042C200.037 143.169 200.258 143.225 200.477 143.202C200.637 143.209 200.796 143.183 200.946 143.127C201.096 143.07 201.232 142.983 201.347 142.871L201.878 143.446C201.696 143.633 201.476 143.779 201.233 143.874C200.99 143.968 200.729 144.009 200.468 143.994C200.222 144.025 199.972 144.003 199.735 143.929C199.498 143.856 199.28 143.733 199.095 143.568C198.909 143.403 198.761 143.201 198.661 142.974C198.56 142.747 198.509 142.502 198.511 142.254C198.51 142.018 198.558 141.784 198.651 141.567C198.744 141.35 198.88 141.154 199.051 140.991C199.222 140.829 199.424 140.702 199.645 140.62C199.866 140.538 200.102 140.502 200.338 140.514C200.57 140.508 200.801 140.549 201.017 140.633C201.233 140.718 201.43 140.845 201.596 141.008C201.762 141.17 201.895 141.364 201.985 141.578C202.075 141.792 202.121 142.021 202.121 142.254C202.121 142.323 202.104 142.428 202.104 142.515ZM199.494 141.932H201.173C201.123 141.747 201.013 141.585 200.862 141.469C200.71 141.353 200.524 141.29 200.333 141.29C200.142 141.29 199.957 141.353 199.805 141.469C199.653 141.585 199.544 141.747 199.494 141.932Z" fill="#263238"/>
<path d="M204.94 140.47V141.392H204.714C204.592 141.392 204.471 141.417 204.359 141.466C204.248 141.515 204.148 141.587 204.066 141.677C203.984 141.767 203.921 141.874 203.883 141.99C203.845 142.105 203.832 142.228 203.844 142.349V143.959H202.852V140.54H203.8V140.94C203.94 140.778 204.116 140.651 204.314 140.569C204.512 140.488 204.726 140.454 204.94 140.47Z" fill="#263238"/>
<path d="M208.994 141.984V143.941H208.002V142.141C208.002 141.584 207.75 141.331 207.306 141.331C206.863 141.331 206.489 141.627 206.489 142.254V143.941H205.497V140.522H206.445V140.94C206.592 140.79 206.768 140.673 206.963 140.595C207.158 140.517 207.366 140.48 207.576 140.488C207.772 140.475 207.969 140.505 208.153 140.577C208.336 140.649 208.501 140.76 208.636 140.903C208.772 141.046 208.874 141.217 208.936 141.403C208.998 141.59 209.018 141.788 208.994 141.984Z" fill="#263238"/>
<path d="M212.918 141.993V143.941H211.987V143.55C211.872 143.716 211.715 143.849 211.531 143.933C211.347 144.017 211.144 144.05 210.943 144.028C210.143 144.028 209.664 143.585 209.664 142.993C209.664 142.402 210.09 141.967 211.134 141.967H211.9C211.9 141.549 211.648 141.297 211.108 141.297C210.754 141.295 210.41 141.408 210.125 141.619L209.768 140.923C210.208 140.638 210.724 140.493 211.247 140.505C212.309 140.47 212.918 140.94 212.918 141.993ZM211.926 142.863V142.515H211.247C210.778 142.515 210.638 142.689 210.638 142.915C210.638 143.141 210.847 143.332 211.195 143.332C211.347 143.337 211.496 143.294 211.623 143.21C211.749 143.126 211.846 143.004 211.9 142.863H211.926Z" fill="#263238"/>
<path d="M219.591 141.984V143.942H218.599V142.141C218.599 141.584 218.355 141.332 217.955 141.332C217.555 141.332 217.198 141.619 217.198 142.202V143.942H216.25V142.141C216.25 141.584 216.015 141.332 215.597 141.332C215.18 141.332 214.849 141.619 214.849 142.202V143.942H213.814V140.522H214.762V140.94C214.897 140.791 215.062 140.673 215.247 140.595C215.432 140.517 215.632 140.48 215.832 140.488C216.053 140.477 216.274 140.524 216.471 140.623C216.669 140.722 216.839 140.87 216.963 141.053C217.111 140.869 217.3 140.722 217.514 140.624C217.729 140.526 217.963 140.479 218.199 140.488C218.394 140.476 218.589 140.507 218.771 140.579C218.952 140.652 219.115 140.764 219.248 140.907C219.382 141.05 219.481 141.221 219.54 141.407C219.6 141.593 219.617 141.79 219.591 141.984Z" fill="#263238"/>
<path d="M223.854 142.515H221.244C221.288 142.732 221.414 142.924 221.595 143.051C221.776 143.179 221.999 143.233 222.218 143.202C222.378 143.209 222.538 143.183 222.687 143.126C222.837 143.069 222.973 142.982 223.088 142.871L223.61 143.446C223.429 143.634 223.21 143.781 222.966 143.876C222.723 143.97 222.461 144.011 222.201 143.994C221.955 144.023 221.706 144 221.471 143.926C221.235 143.852 221.017 143.729 220.833 143.564C220.649 143.4 220.501 143.198 220.401 142.972C220.301 142.746 220.25 142.501 220.252 142.254C220.252 142.018 220.299 141.784 220.392 141.567C220.485 141.35 220.621 141.154 220.792 140.991C220.963 140.829 221.165 140.702 221.386 140.62C221.608 140.538 221.843 140.502 222.079 140.514C222.54 140.514 222.983 140.697 223.309 141.023C223.636 141.35 223.819 141.792 223.819 142.254C223.871 142.323 223.862 142.428 223.854 142.515ZM221.244 141.932H222.932C222.903 141.726 222.798 141.538 222.636 141.407C222.474 141.276 222.269 141.212 222.062 141.227C221.863 141.223 221.671 141.294 221.521 141.424C221.372 141.554 221.276 141.735 221.252 141.932H221.244Z" fill="#263238"/>
<path d="M230.414 142.201C230.414 143.341 229.892 143.994 229.109 143.994C228.923 144.006 228.739 143.958 228.582 143.858C228.425 143.758 228.305 143.61 228.239 143.437C228.123 143.618 227.961 143.765 227.77 143.863C227.579 143.96 227.365 144.006 227.151 143.994C226.753 143.952 226.385 143.765 226.117 143.467C225.849 143.17 225.7 142.784 225.7 142.384C225.7 141.984 225.849 141.598 226.117 141.301C226.385 141.003 226.753 140.816 227.151 140.775C227.335 140.766 227.519 140.8 227.688 140.874C227.857 140.948 228.007 141.06 228.125 141.201V140.827H228.995V142.88C228.995 143.184 229.126 143.289 229.3 143.289C229.474 143.289 229.77 142.95 229.77 142.219C229.774 141.915 229.713 141.614 229.593 141.335C229.473 141.056 229.296 140.806 229.073 140.6C228.85 140.394 228.586 140.237 228.298 140.14C228.011 140.043 227.706 140.007 227.403 140.035C226.792 140.035 226.206 140.278 225.773 140.71C225.341 141.143 225.098 141.729 225.098 142.341C225.098 142.952 225.341 143.538 225.773 143.971C226.206 144.403 226.792 144.646 227.403 144.646C227.836 144.645 228.264 144.55 228.656 144.368L228.856 144.951C228.401 145.159 227.904 145.263 227.403 145.255C227.008 145.277 226.612 145.217 226.24 145.081C225.868 144.944 225.528 144.734 225.24 144.461C224.953 144.189 224.724 143.861 224.567 143.497C224.41 143.133 224.33 142.741 224.33 142.345C224.33 141.949 224.41 141.557 224.567 141.193C224.724 140.829 224.953 140.501 225.24 140.229C225.528 139.956 225.868 139.745 226.24 139.609C226.612 139.472 227.008 139.413 227.403 139.435C227.786 139.404 228.171 139.452 228.534 139.577C228.897 139.701 229.231 139.9 229.513 140.16C229.796 140.42 230.022 140.735 230.177 141.086C230.332 141.438 230.412 141.817 230.414 142.201ZM228.143 142.384C228.155 142.273 228.144 142.16 228.109 142.053C228.074 141.947 228.017 141.849 227.941 141.767C227.865 141.684 227.772 141.619 227.669 141.575C227.566 141.532 227.455 141.511 227.342 141.514C227.112 141.514 226.89 141.606 226.727 141.769C226.564 141.932 226.472 142.153 226.472 142.384C226.472 142.615 226.564 142.836 226.727 142.999C226.89 143.162 227.112 143.254 227.342 143.254C227.455 143.257 227.566 143.236 227.669 143.193C227.772 143.149 227.865 143.084 227.941 143.001C228.017 142.919 228.074 142.821 228.109 142.715C228.144 142.608 228.155 142.495 228.143 142.384Z" fill="#263238"/>
<path d="M236.895 141.984V143.941H235.903V142.14C235.903 141.584 235.66 141.331 235.259 141.331C234.859 141.331 234.503 141.618 234.503 142.201V143.941H233.511V142.14C233.511 141.584 233.276 141.331 232.858 141.331C232.441 141.331 232.11 141.618 232.11 142.201V143.941H231.118V140.522H232.067V140.94C232.201 140.791 232.367 140.673 232.551 140.595C232.736 140.517 232.936 140.48 233.137 140.487C233.358 140.477 233.578 140.524 233.776 140.623C233.974 140.722 234.143 140.87 234.268 141.053C234.414 140.87 234.601 140.723 234.814 140.625C235.027 140.527 235.26 140.48 235.494 140.487C235.69 140.474 235.886 140.504 236.069 140.576C236.252 140.648 236.416 140.76 236.55 140.903C236.684 141.046 236.785 141.218 236.844 141.405C236.904 141.592 236.921 141.789 236.895 141.984Z" fill="#263238"/>
<path d="M240.81 141.993V143.941H239.888V143.55C239.773 143.716 239.616 143.849 239.432 143.933C239.248 144.017 239.045 144.05 238.844 144.028C238.044 144.028 237.565 143.585 237.565 142.993C237.565 142.402 237.991 141.967 239.035 141.967H239.818C239.818 141.549 239.566 141.297 239.035 141.297C238.681 141.292 238.335 141.405 238.052 141.619L237.695 140.923C238.133 140.64 238.645 140.494 239.166 140.505C240.21 140.47 240.81 140.94 240.81 141.993ZM239.818 142.863V142.515H239.14C238.679 142.515 238.531 142.689 238.531 142.915C238.531 143.141 238.74 143.332 239.088 143.332C239.244 143.343 239.399 143.303 239.53 143.218C239.662 143.133 239.763 143.009 239.818 142.863Z" fill="#263238"/>
<path d="M241.593 139.496C241.594 139.418 241.611 139.341 241.643 139.269C241.675 139.198 241.722 139.134 241.78 139.082C241.838 139.03 241.906 138.99 241.98 138.965C242.055 138.941 242.133 138.932 242.211 138.939C242.318 138.951 242.419 138.993 242.502 139.061C242.585 139.129 242.647 139.219 242.68 139.321C242.713 139.424 242.715 139.533 242.688 139.637C242.66 139.741 242.602 139.834 242.523 139.906C242.443 139.978 242.344 140.025 242.238 140.042C242.132 140.059 242.023 140.045 241.925 140.002C241.827 139.958 241.743 139.888 241.684 139.798C241.625 139.708 241.594 139.603 241.593 139.496ZM241.715 140.522H242.698V143.941H241.715V140.522Z" fill="#263238"/>
<path d="M243.629 139.2H244.621V143.915H243.629V139.2Z" fill="#263238"/>
<path d="M245.299 143.376C245.299 143.212 245.364 143.055 245.48 142.939C245.596 142.823 245.753 142.758 245.917 142.758C246.081 142.758 246.238 142.823 246.354 142.939C246.47 143.055 246.535 143.212 246.535 143.376C246.535 143.54 246.47 143.697 246.354 143.813C246.238 143.929 246.081 143.994 245.917 143.994C245.753 143.994 245.596 143.929 245.48 143.813C245.364 143.697 245.299 143.54 245.299 143.376Z" fill="#263238"/>
<path d="M246.909 142.236C246.908 141.993 246.958 141.752 247.055 141.53C247.153 141.307 247.296 141.107 247.475 140.943C247.655 140.78 247.867 140.655 248.097 140.578C248.328 140.501 248.572 140.473 248.814 140.496C249.127 140.47 249.441 140.539 249.714 140.694C249.988 140.849 250.208 141.084 250.345 141.366L249.58 141.775C249.492 141.645 249.372 141.541 249.231 141.471C249.091 141.401 248.935 141.368 248.779 141.376C248.622 141.384 248.47 141.432 248.338 141.515C248.205 141.599 248.096 141.715 248.021 141.853C247.947 141.991 247.908 142.145 247.911 142.302C247.913 142.459 247.956 142.612 248.034 142.748C248.113 142.883 248.225 142.996 248.36 143.076C248.495 143.155 248.649 143.199 248.805 143.202C248.965 143.202 249.122 143.159 249.258 143.076C249.395 142.993 249.506 142.874 249.58 142.732L250.345 143.15C250.206 143.431 249.985 143.664 249.713 143.819C249.44 143.974 249.127 144.044 248.814 144.02C248.568 144.043 248.32 144.014 248.087 143.935C247.853 143.855 247.639 143.727 247.459 143.558C247.279 143.389 247.136 143.184 247.042 142.956C246.947 142.728 246.901 142.483 246.909 142.236Z" fill="#263238"/>
<path d="M250.624 142.236C250.596 141.86 250.682 141.484 250.871 141.157C251.059 140.83 251.342 140.568 251.682 140.404C252.022 140.24 252.403 140.183 252.777 140.239C253.15 140.295 253.498 140.462 253.774 140.718C254.051 140.974 254.245 141.308 254.329 141.676C254.414 142.044 254.386 142.429 254.248 142.78C254.111 143.132 253.871 143.434 253.56 143.647C253.249 143.86 252.88 143.975 252.503 143.976C252.263 143.995 252.022 143.965 251.794 143.886C251.567 143.807 251.358 143.682 251.182 143.518C251.005 143.355 250.864 143.157 250.768 142.936C250.672 142.715 250.623 142.477 250.624 142.236ZM253.373 142.236C253.358 142.068 253.294 141.908 253.19 141.776C253.085 141.644 252.945 141.544 252.785 141.49C252.625 141.436 252.453 141.43 252.29 141.472C252.127 141.514 251.979 141.602 251.865 141.726C251.751 141.851 251.676 142.005 251.648 142.171C251.621 142.338 251.642 142.509 251.709 142.663C251.777 142.817 251.888 142.949 252.029 143.042C252.17 143.134 252.334 143.184 252.503 143.184C252.624 143.185 252.744 143.16 252.855 143.112C252.966 143.063 253.066 142.992 253.147 142.903C253.229 142.813 253.292 142.708 253.331 142.593C253.369 142.478 253.384 142.357 253.373 142.236Z" fill="#263238"/>
<path d="M260.82 141.984V143.941H259.828V142.14C259.828 141.584 259.576 141.331 259.176 141.331C258.776 141.331 258.419 141.618 258.419 142.201V143.941H257.427V142.14C257.427 141.584 257.192 141.331 256.783 141.331C256.374 141.331 256.035 141.618 256.035 142.201V143.941H255.043V140.522H255.983V140.94C256.119 140.791 256.286 140.673 256.472 140.595C256.659 140.517 256.86 140.48 257.062 140.487C257.282 140.476 257.501 140.523 257.698 140.622C257.894 140.721 258.062 140.869 258.184 141.053C258.333 140.87 258.521 140.724 258.736 140.626C258.95 140.528 259.184 140.48 259.419 140.487C259.615 140.474 259.811 140.504 259.994 140.576C260.177 140.648 260.341 140.76 260.475 140.903C260.609 141.046 260.71 141.218 260.769 141.405C260.829 141.592 260.846 141.789 260.82 141.984Z" fill="#263238"/>
<path d="M203.696 165.813L205.305 166.683L204.583 167.892L202.956 166.936V168.728H201.564V166.918L199.99 167.91L199.276 166.701L200.895 165.831L199.276 164.961L199.99 163.751L201.617 164.726V162.925H203.009V164.726L204.635 163.751L205.358 164.961L203.696 165.813Z" fill="#263238"/>
<path d="M210.404 165.813L212.013 166.683L211.291 167.91L209.664 166.953V168.745H208.281V166.936L206.68 167.91L205.967 166.701L207.576 165.831L205.967 164.961L206.68 163.751L208.307 164.726V162.925H209.69V164.726L211.317 163.751L212.039 164.961L210.404 165.813Z" fill="#263238"/>
<path d="M217.12 165.813L218.73 166.683L217.99 167.91L216.372 166.953V168.745H214.98V166.936L213.396 167.91L212.692 166.701L214.301 165.831L212.692 164.961L213.396 163.751L215.023 164.726V162.925H216.415V164.726L218.033 163.751L218.764 164.961L217.12 165.813Z" fill="#263238"/>
<path d="M223.81 165.813L225.42 166.683L224.698 167.892L223.071 166.936V168.728H221.679V166.918L220.104 167.91L219.391 166.701L221.009 165.831L219.391 164.961L220.104 163.751L221.731 164.726V162.925H223.123V164.726L224.75 163.751L225.472 164.961L223.81 165.813Z" fill="#263238"/>
<path d="M230.518 165.813L232.127 166.683L231.405 167.893L229.778 166.936V168.728H228.43V166.918L226.812 167.91L226.098 166.701L227.708 165.831L226.098 164.961L226.812 163.751L228.43 164.691V162.89H229.813V164.691L231.44 163.717L232.162 164.926L230.518 165.813Z" fill="#263238"/>
<path d="M237.226 165.813L238.835 166.683L238.113 167.892L236.486 166.936V168.728H235.094V166.918L233.511 167.91L232.806 166.701L234.416 165.831L232.806 164.961L233.511 163.751L235.138 164.726V162.925H236.53V164.726L238.157 163.751L238.879 164.961L237.226 165.813Z" fill="#263238"/>
<path d="M243.925 165.813L245.534 166.683L244.812 167.892L243.185 166.936V168.728H241.793V166.918L240.218 167.91L239.505 166.701L241.123 165.831L239.505 164.961L240.218 163.751L241.845 164.726V162.925H243.22V164.726L244.847 163.751L245.569 164.961L243.925 165.813Z" fill="#263238"/>
<path d="M250.632 165.813L252.242 166.683L251.52 167.892L249.893 166.936V168.728H248.51V166.918L246.926 167.91L246.213 166.701L247.822 165.831L246.213 164.961L246.926 163.751L248.553 164.726V162.925H249.936V164.726L251.563 163.751L252.285 164.961L250.632 165.813Z" fill="#263238"/>
<path d="M171.619 117.755H103.846C103.383 117.755 102.924 117.846 102.496 118.024C102.068 118.201 101.679 118.462 101.351 118.79C101.024 119.118 100.765 119.507 100.588 119.936C100.412 120.364 100.321 120.823 100.322 121.287V152.154C100.317 152.619 100.404 153.08 100.579 153.51C100.754 153.94 101.013 154.331 101.341 154.659C101.67 154.987 102.061 155.247 102.491 155.422C102.921 155.597 103.382 155.684 103.846 155.678H132.278L138.315 163.43L143.353 155.678H171.619C172.082 155.678 172.54 155.587 172.967 155.41C173.395 155.233 173.783 154.973 174.11 154.646C174.438 154.319 174.697 153.93 174.874 153.503C175.051 153.075 175.142 152.617 175.142 152.154V121.287C175.142 120.352 174.772 119.454 174.111 118.792C173.45 118.13 172.554 117.757 171.619 117.755Z" fill="white"/>
<path d="M171.619 117.755H171.95C172.28 117.783 172.605 117.856 172.915 117.972C173.423 118.154 173.882 118.452 174.255 118.842C174.788 119.416 175.116 120.15 175.186 120.93C175.256 124.288 175.238 129.178 175.264 135.372C175.264 138.469 175.264 141.888 175.264 145.595C175.264 147.456 175.264 149.379 175.264 151.38C175.288 151.892 175.265 152.404 175.195 152.911C175.088 153.439 174.868 153.938 174.551 154.373C174.225 154.819 173.804 155.187 173.318 155.449C172.831 155.711 172.293 155.86 171.741 155.887H143.309L143.483 155.8C141.9 158.227 140.195 160.863 138.455 163.543L138.289 163.795L138.098 163.56L132.06 155.817L132.234 155.904H104.89C104.394 155.904 103.933 155.904 103.402 155.904C102.63 155.812 101.905 155.483 101.328 154.963C100.75 154.443 100.347 153.757 100.175 152.998C100.088 152.51 100.056 152.014 100.079 151.519V138.774C100.079 135.068 100.079 131.434 100.079 127.873V121.287C100.079 120.828 100.165 120.374 100.331 119.947C100.654 119.098 101.272 118.394 102.071 117.963C102.471 117.759 102.904 117.629 103.35 117.581C103.779 117.559 104.209 117.559 104.638 117.581H112.041H121.42H138.246L162.606 117.65L169.227 117.694L162.606 117.737L138.246 117.807H121.42H104.707C104.29 117.807 103.837 117.807 103.463 117.807C103.068 117.852 102.685 117.97 102.332 118.155C101.613 118.523 101.053 119.142 100.758 119.895C100.608 120.274 100.532 120.679 100.531 121.087V122.392C100.531 124.132 100.531 125.872 100.531 127.673V138.574C100.531 142.274 100.531 146.044 100.531 149.884V151.328C100.504 151.79 100.53 152.255 100.61 152.711C100.763 153.378 101.119 153.98 101.628 154.437C102.137 154.893 102.775 155.181 103.455 155.26C103.898 155.304 104.412 155.26 104.89 155.26H132.382L132.452 155.347L138.489 163.09H138.133L143.17 155.347L143.231 155.252H143.353H171.767C172.267 155.235 172.757 155.104 173.199 154.869C173.641 154.633 174.023 154.3 174.316 153.894C174.61 153.504 174.813 153.052 174.908 152.572C174.975 152.085 174.998 151.593 174.977 151.102C174.977 149.101 174.977 147.178 174.977 145.316C174.977 141.61 174.977 138.191 174.977 135.094C174.977 128.917 174.977 124.027 175.021 120.66C174.944 119.933 174.639 119.248 174.151 118.703C173.794 118.304 173.35 117.991 172.854 117.789C172.446 117.719 172.03 117.707 171.619 117.755Z" fill="#263238"/>
<path d="M125.039 126.472V127.612H124.3V126.463L123.047 124.41H123.839L124.709 125.837L125.579 124.41H126.309L125.039 126.472Z" fill="#263238"/>
<path d="M126.275 126.002C126.259 125.655 126.348 125.311 126.529 125.015C126.71 124.719 126.976 124.484 127.293 124.34C127.609 124.196 127.961 124.15 128.303 124.208C128.646 124.266 128.963 124.426 129.215 124.665C129.466 124.905 129.639 125.215 129.713 125.555C129.787 125.894 129.757 126.248 129.628 126.57C129.499 126.893 129.277 127.169 128.989 127.364C128.701 127.559 128.362 127.663 128.015 127.664C127.79 127.674 127.565 127.639 127.355 127.561C127.144 127.482 126.951 127.361 126.789 127.206C126.626 127.05 126.496 126.864 126.408 126.657C126.32 126.45 126.274 126.227 126.275 126.002ZM129.041 126.002C129.039 125.803 128.979 125.609 128.867 125.444C128.755 125.279 128.597 125.151 128.412 125.076C128.228 125.001 128.025 124.982 127.83 125.022C127.635 125.062 127.456 125.159 127.315 125.3C127.175 125.442 127.08 125.622 127.042 125.817C127.003 126.013 127.024 126.215 127.1 126.399C127.177 126.583 127.306 126.74 127.472 126.851C127.638 126.961 127.833 127.02 128.032 127.02C128.166 127.024 128.3 127 128.425 126.95C128.549 126.9 128.662 126.825 128.757 126.729C128.851 126.634 128.925 126.52 128.974 126.395C129.023 126.27 129.046 126.136 129.041 126.002Z" fill="#263238"/>
<path d="M130.338 126.194V124.41H131.086V126.15C131.086 126.759 131.355 127.02 131.799 127.02C132.243 127.02 132.521 126.768 132.521 126.15V124.41H133.261V126.211C133.261 126.599 133.107 126.97 132.833 127.245C132.559 127.519 132.187 127.673 131.799 127.673C131.411 127.673 131.04 127.519 130.766 127.245C130.492 126.97 130.338 126.599 130.338 126.211V126.194Z" fill="#263238"/>
<path d="M136.053 127.612L135.436 126.742H134.748V127.612H134V124.41H135.392C136.262 124.41 136.793 124.854 136.793 125.576C136.803 125.793 136.744 126.008 136.625 126.191C136.507 126.373 136.334 126.514 136.132 126.594L136.854 127.629L136.053 127.612ZM135.357 125.002H134.748V126.15H135.357C135.81 126.15 136.036 125.933 136.036 125.585C136.036 125.237 135.81 124.993 135.34 124.993L135.357 125.002Z" fill="#263238"/>
<path d="M138.489 126.002C138.492 125.645 138.605 125.298 138.812 125.007C139.018 124.717 139.31 124.497 139.646 124.377C139.982 124.257 140.347 124.244 140.691 124.338C141.035 124.433 141.342 124.631 141.569 124.906L141.091 125.35C140.992 125.228 140.867 125.131 140.726 125.064C140.584 124.998 140.429 124.965 140.273 124.967C140.016 124.991 139.777 125.109 139.603 125.3C139.429 125.491 139.332 125.74 139.332 125.998C139.332 126.256 139.429 126.505 139.603 126.696C139.777 126.886 140.016 127.005 140.273 127.029C140.429 127.033 140.583 127.001 140.725 126.936C140.867 126.871 140.992 126.775 141.091 126.655L141.569 127.09C141.342 127.364 141.036 127.562 140.693 127.657C140.35 127.752 139.986 127.739 139.65 127.62C139.314 127.502 139.023 127.283 138.815 126.994C138.608 126.704 138.494 126.358 138.489 126.002Z" fill="#263238"/>
<path d="M141.804 126.002C141.788 125.655 141.877 125.311 142.059 125.015C142.24 124.719 142.506 124.484 142.822 124.34C143.138 124.196 143.491 124.15 143.833 124.208C144.176 124.266 144.493 124.426 144.744 124.665C144.995 124.905 145.169 125.215 145.243 125.555C145.316 125.894 145.287 126.248 145.158 126.57C145.029 126.893 144.806 127.169 144.518 127.364C144.231 127.559 143.892 127.663 143.544 127.664C143.319 127.674 143.095 127.639 142.884 127.561C142.673 127.482 142.481 127.361 142.318 127.206C142.155 127.05 142.026 126.864 141.938 126.657C141.849 126.45 141.804 126.227 141.804 126.002ZM144.571 126.002C144.567 125.803 144.505 125.61 144.392 125.446C144.279 125.283 144.121 125.156 143.936 125.082C143.751 125.009 143.549 124.991 143.354 125.032C143.16 125.073 142.981 125.17 142.842 125.312C142.703 125.454 142.608 125.634 142.571 125.829C142.533 126.024 142.554 126.226 142.631 126.41C142.708 126.593 142.837 126.75 143.003 126.86C143.168 126.97 143.363 127.029 143.562 127.029C143.697 127.032 143.831 127.008 143.956 126.958C144.081 126.907 144.195 126.832 144.29 126.735C144.384 126.639 144.458 126.524 144.507 126.398C144.555 126.272 144.577 126.137 144.571 126.002Z" fill="#263238"/>
<path d="M145.893 124.41H147.363C147.589 124.387 147.817 124.411 148.032 124.481C148.248 124.551 148.446 124.666 148.614 124.818C148.783 124.969 148.917 125.155 149.009 125.362C149.102 125.569 149.149 125.793 149.149 126.02C149.149 126.246 149.102 126.47 149.009 126.677C148.917 126.884 148.783 127.07 148.614 127.222C148.446 127.373 148.248 127.488 148.032 127.558C147.817 127.628 147.589 127.653 147.363 127.629H145.893V124.41ZM147.32 127.02C147.585 127.02 147.84 126.915 148.027 126.727C148.215 126.539 148.32 126.285 148.32 126.02C148.32 125.754 148.215 125.5 148.027 125.312C147.84 125.124 147.585 125.019 147.32 125.019H146.65V127.02H147.32Z" fill="#263238"/>
<path d="M152.201 127.02V127.62H149.704V124.41H152.14V125.002H150.443V125.706H151.94V126.289H150.443V127.02H152.201Z" fill="#263238"/>
<path d="M165.007 130.996H110.467C108.761 130.996 107.378 132.379 107.378 134.084V145.603C107.378 147.309 108.761 148.692 110.467 148.692H165.007C166.713 148.692 168.096 147.309 168.096 145.603V134.084C168.096 132.379 166.713 130.996 165.007 130.996Z" fill="#F5F5F5"/>
<path d="M119.68 140.94C119.682 141.304 119.607 141.665 119.461 141.999C119.315 142.332 119.1 142.632 118.832 142.877C118.563 143.123 118.245 143.31 117.9 143.426C117.555 143.542 117.189 143.584 116.826 143.55C114.582 143.55 113.39 141.932 113.39 139.252C113.39 136.347 114.93 134.859 117.2 134.859C117.874 134.83 118.544 134.98 119.141 135.294L118.888 135.798C118.372 135.516 117.788 135.38 117.2 135.407C115.278 135.407 114.016 136.668 114.016 139.157C114.014 139.5 114.037 139.843 114.086 140.183C114.29 139.636 114.667 139.17 115.16 138.856C115.653 138.542 116.235 138.397 116.818 138.443C118.566 138.382 119.68 139.383 119.68 140.94ZM119.054 140.94C119.054 139.713 118.184 138.922 116.731 138.922C116.439 138.892 116.144 138.922 115.864 139.01C115.584 139.098 115.325 139.242 115.103 139.433C114.881 139.624 114.7 139.859 114.571 140.123C114.443 140.386 114.369 140.673 114.356 140.966C114.356 141.967 115.226 142.976 116.809 142.976C117.096 143.012 117.388 142.986 117.665 142.9C117.941 142.814 118.196 142.669 118.412 142.476C118.628 142.284 118.8 142.047 118.917 141.782C119.033 141.517 119.092 141.23 119.088 140.94H119.054Z" fill="#FF9687"/>
<path d="M131.086 141.079H129.294V143.454H128.676V141.079H123.795V140.627L128.45 134.885H129.146L124.578 140.522H128.693V138.434H129.294V140.522H131.086V141.079Z" fill="#FF9687"/>
<path d="M140.604 141.036C140.604 142.463 139.577 143.515 137.602 143.515C137.047 143.537 136.493 143.445 135.974 143.246C135.455 143.047 134.982 142.745 134.583 142.358L134.896 141.88C135.252 142.23 135.675 142.505 136.14 142.686C136.606 142.867 137.103 142.951 137.602 142.932C139.142 142.932 139.968 142.202 139.968 141.036C139.968 139.87 139.185 139.139 137.472 139.139H136.932V138.687L139.464 135.442H134.896V134.85H140.273V135.285L137.663 138.582C139.69 138.661 140.604 139.644 140.604 141.036Z" fill="#FF9687"/>
<path d="M151 134.85V135.285L147.32 143.42H146.633L150.278 135.407H145.467V137.051H144.858V134.85H151Z" fill="#FF9687"/>
<path d="M155.35 139.2C155.35 136.52 156.733 134.85 158.699 134.85C160.666 134.85 162.058 136.512 162.058 139.2C162.058 141.888 160.674 143.55 158.699 143.55C156.725 143.55 155.35 141.81 155.35 139.2ZM161.44 139.2C161.44 136.816 160.326 135.433 158.708 135.433C157.09 135.433 155.976 136.816 155.976 139.2C155.976 141.584 157.09 142.967 158.708 142.967C160.326 142.967 161.44 141.549 161.44 139.2Z" fill="#FF9687"/>
<path d="M341.878 363.242C353.266 358.405 366.455 348.896 372.328 337.229C359.69 342.475 349.033 351.579 341.878 363.242Z" fill="#263238"/>
<path d="M344.305 345.138C355.694 340.309 368.883 330.8 374.755 319.133C362.115 324.371 351.457 333.473 344.305 345.138Z" fill="#263238"/>
<path d="M347.62 327.538C359.017 322.7 372.197 313.191 378.07 301.533C365.431 306.772 354.773 315.874 347.62 327.538Z" fill="#263238"/>
<path d="M351.726 309.111C362.471 302.76 374.451 291.45 378.94 279.113C367.001 286.069 357.504 296.547 351.752 309.111" fill="#263238"/>
<path d="M356.146 295.008C363.976 284.768 371.275 269.526 371.18 256.319C362.476 267.459 357.248 280.915 356.146 295.008Z" fill="#263238"/>
<path d="M353.954 301.716C352.37 287.866 346.994 270.457 337.841 260.069C339.386 275.144 344.951 289.527 353.954 301.716Z" fill="#263238"/>
<path d="M350.273 316.863C347.489 302.586 340.442 284.925 330.055 274.911C332.899 290.459 339.884 304.952 350.273 316.863Z" fill="#263238"/>
<path d="M346.045 335.333C343.27 321.03 336.206 303.395 325.87 293.381C328.714 308.929 335.699 323.422 346.089 335.333" fill="#263238"/>
<path d="M342.652 358.014C339.86 343.737 332.813 326.076 322.433 316.062C325.277 331.61 332.262 346.103 342.652 358.014Z" fill="#263238"/>
<path d="M356.677 292.32C356.634 292.386 356.605 292.46 356.59 292.537C356.529 292.703 356.459 292.911 356.372 293.172C356.181 293.773 355.911 294.599 355.58 295.643C354.893 297.792 353.971 300.915 352.883 304.796C351.796 308.676 350.595 313.313 349.36 318.489C348.125 323.666 346.907 329.399 345.758 335.437C344.61 341.475 343.714 347.269 342.957 352.541C342.2 357.813 341.66 362.581 341.269 366.583C340.877 370.585 340.599 373.839 340.46 376.092C340.39 377.188 340.338 378.05 340.295 378.702C340.295 378.981 340.295 379.198 340.295 379.381C340.283 379.456 340.283 379.532 340.295 379.607C340.321 379.534 340.336 379.458 340.338 379.381C340.338 379.207 340.338 378.981 340.408 378.711C340.469 378.084 340.556 377.223 340.66 376.101C340.851 373.865 341.173 370.62 341.608 366.618C342.043 362.616 342.644 357.866 343.392 352.602C344.14 347.339 345.132 341.562 346.228 335.524C347.324 329.486 348.594 323.77 349.786 318.585C350.978 313.4 352.161 308.763 353.214 304.874C354.267 300.985 355.137 297.853 355.772 295.695L356.485 293.199C356.555 292.938 356.607 292.72 356.659 292.546C356.675 292.472 356.681 292.396 356.677 292.32Z" fill="#263238"/>
<path d="M336.31 370.777C341.138 360.667 344.653 346.417 342.287 335.342C336.888 346.32 334.81 358.635 336.31 370.777Z" fill="#455A64"/>
<path d="M328.297 357.683C333.126 347.565 336.641 333.323 334.265 322.248C328.864 333.225 326.79 345.542 328.297 357.683Z" fill="#455A64"/>
<path d="M321.094 344.363C325.922 334.245 329.437 320.003 327.062 308.928C321.661 319.906 319.586 332.222 321.094 344.363Z" fill="#455A64"/>
<path d="M313.994 330C317.588 319.299 319.388 304.7 315.734 294.025C311.681 305.595 311.076 318.093 313.994 330Z" fill="#455A64"/>
<path d="M309.34 318.237C308.983 306.849 305.634 292.581 298.561 284.168C298.719 296.338 302.469 308.191 309.34 318.237Z" fill="#455A64"/>
<path d="M311.506 323.884C303.128 315.984 290.391 308.128 278.942 307.101C287.897 315.794 299.23 321.635 311.506 323.884Z" fill="#455A64"/>
<path d="M317.17 335.872C307.783 328.425 293.828 321.447 281.77 321.421C291.878 329.639 304.199 334.668 317.17 335.872Z" fill="#455A64"/>
<path d="M324.217 350.323C314.83 342.884 300.884 335.898 288.825 335.872C298.931 344.088 311.249 349.117 324.217 350.323Z" fill="#455A64"/>
<path d="M334.057 366.957C324.669 359.51 310.715 352.533 298.656 352.498C308.762 360.721 321.084 365.754 334.057 366.957Z" fill="#455A64"/>
<path d="M308.279 316.175C308.279 316.175 308.279 316.236 308.331 316.358L308.522 316.897L309.305 318.942C309.992 320.682 311.045 323.292 312.376 326.406C315.056 332.662 319.032 341.196 323.965 350.366C326.435 354.934 328.915 359.232 331.229 363.086C333.543 366.94 335.744 370.368 337.632 373.204C339.52 376.04 341.112 378.311 342.191 379.859L343.479 381.599L343.818 382.052C343.896 382.156 343.94 382.208 343.949 382.2C343.92 382.14 343.889 382.081 343.853 382.026L343.548 381.547C343.244 381.103 342.844 380.494 342.33 379.729C341.252 378.154 339.72 375.857 337.885 373.004C336.049 370.15 333.883 366.705 331.568 362.851C329.254 358.997 326.81 354.69 324.339 350.123C319.406 341.04 315.43 332.514 312.655 326.25C311.28 323.135 310.193 320.604 309.462 318.846L308.592 316.828L308.357 316.306C308.335 316.26 308.309 316.216 308.279 316.175Z" fill="#263238"/>
<path d="M313.325 372.003H361.314V381.251H356.381L352.231 407.63H322.564L318.292 381.251H313.325V372.003Z" fill="#FF9687"/>
<path d="M313.325 381.06C313.325 380.938 323.991 380.834 337.145 380.834C350.3 380.834 360.966 380.938 360.966 381.06C360.966 381.182 350.308 381.277 337.145 381.277C323.982 381.277 313.325 381.182 313.325 381.06Z" fill="#263238"/>
<path d="M38.4307 407.647H30.6442L27.7558 372.577H36.9256L38.4307 407.647Z" fill="#263238"/>
<path d="M105.943 407.647H113.729L116.618 372.577H107.448L105.943 407.647Z" fill="#263238"/>
<path d="M121.968 377.023L21.7093 379.372L18.6643 314.618C18.5925 313.116 18.8264 311.615 19.3519 310.205C19.8774 308.796 20.6836 307.508 21.7216 306.42C22.7595 305.332 24.0077 304.465 25.3904 303.874C26.7731 303.282 28.2615 302.977 29.7655 302.978H115.191C116.715 302.978 118.224 303.291 119.622 303.899C121.02 304.506 122.279 305.395 123.319 306.509C124.36 307.624 125.159 308.941 125.669 310.378C126.179 311.814 126.388 313.341 126.283 314.862L121.968 377.023Z" fill="#FF9687"/>
<path d="M127.11 314.401H126.831H126.005L122.847 314.453H111.224C101.41 314.453 87.8554 314.366 72.8914 314.714C57.9187 315.21 44.3467 315.123 34.5418 314.975C29.635 314.897 25.6591 314.801 22.9186 314.714L19.7605 314.609H18.9427C18.8503 314.621 18.7567 314.621 18.6643 314.609H18.9427H19.7605H22.9186L34.5418 314.723C44.3554 314.792 57.91 314.827 72.8827 314.322C87.8554 313.983 101.41 314.14 111.224 314.209L122.847 314.305L126.005 314.348H126.831L127.11 314.401Z" fill="#263238"/>
<path d="M55.2304 303.987C52.9769 304.316 50.7841 304.976 48.7228 305.944C46.7267 307.042 44.9057 308.432 43.3201 310.068C43.6394 309.461 44.0601 308.914 44.5642 308.45C46.8768 306.071 49.911 304.523 53.1946 304.047C53.8643 303.908 54.5535 303.887 55.2304 303.987Z" fill="#263238"/>
<path d="M96.4684 186.25L108.718 208.635L126.64 198.595L135.34 201.475C135.34 201.475 113.381 225.33 109.805 226.574C106.23 227.818 99.4612 228.018 95.5984 223.172C92.1184 218.761 81.8176 195.619 81.8176 195.619L96.4684 186.25Z" fill="#FFBE9D"/>
<path d="M146.92 171.634C146.762 171.441 146.558 171.291 146.327 171.2C146.095 171.108 145.844 171.078 145.597 171.112L137.08 172.26C136.71 172.315 136.356 172.45 136.042 172.654C135.728 172.858 135.462 173.127 135.262 173.443L117.505 200.718L118.862 201.475L128.31 201.179L147.189 171.973L146.92 171.634Z" fill="#263238"/>
<path d="M140.873 175.175C140.941 175.282 141.042 175.366 141.16 175.414C141.278 175.462 141.409 175.471 141.533 175.441C141.657 175.411 141.768 175.342 141.851 175.245C141.934 175.148 141.984 175.027 141.995 174.9C142.006 174.773 141.976 174.645 141.91 174.536C141.845 174.427 141.746 174.34 141.629 174.29C141.512 174.24 141.381 174.227 141.257 174.255C141.132 174.282 141.019 174.348 140.934 174.444C140.834 174.535 140.772 174.662 140.76 174.797C140.749 174.933 140.789 175.067 140.873 175.175Z" fill="white"/>
<path d="M147.189 171.973C146.648 172.125 146.095 172.232 145.536 172.295L141.012 173L137.889 173.452C137.624 173.476 137.368 173.558 137.139 173.694C136.91 173.829 136.715 174.014 136.567 174.235L135.558 175.801C134.157 177.95 132.634 180.308 131.034 182.761C127.806 187.703 124.865 192.166 122.708 195.385L120.141 199.23C119.843 199.707 119.508 200.161 119.141 200.587C119.386 200.075 119.677 199.585 120.011 199.126L122.447 195.245C124.526 191.974 127.414 187.485 130.642 182.543C132.26 180.081 133.8 177.732 135.201 175.583C135.558 175.053 135.906 174.531 136.236 174.017C136.422 173.751 136.664 173.529 136.945 173.366C137.226 173.204 137.539 173.105 137.863 173.078L141.004 172.678L145.554 172.138C146.094 172.04 146.641 171.985 147.189 171.973Z" fill="#455A64"/>
<path d="M137.715 181.708C137.715 181.708 136.958 181.578 136.541 183.657C136.123 185.736 134.801 191.704 134.801 191.704L130.816 189.59L125.822 190.243C125.822 190.243 124.735 191.243 125.535 191.791C126.335 192.339 129.485 192.896 129.485 192.896L131.808 196.246L125.135 193.027C125.135 193.027 122.908 193.61 123.56 194.967C124.213 196.324 128.711 200.578 128.711 200.578L125.37 200.326L121.42 197.907C121.42 197.907 120.202 197.968 120.654 199.004C121.107 200.039 125.248 203.797 125.248 203.797L130.259 206.233C130.259 206.233 133 206.016 133.261 205.207C133.438 204.57 133.549 203.917 133.591 203.258C133.591 203.258 135.044 202.866 135.331 202.162C135.491 201.569 135.524 200.95 135.427 200.343C135.427 200.343 137.706 200.744 137.993 199.473C138.193 197.89 138.128 196.285 137.802 194.723C137.576 193.74 138.776 184.649 138.672 184.379C138.568 184.109 139.151 181.108 137.715 181.708Z" fill="#FFBE9D"/>
<path d="M133.391 205.224C132.995 205.462 132.547 205.599 132.086 205.624C129.863 205.947 127.601 205.409 125.761 204.119C125.074 203.623 124.735 203.249 124.778 203.171C124.822 203.093 126.457 204.415 128.893 204.981C131.329 205.546 133.365 205.068 133.391 205.224Z" fill="#EB996E"/>
<path d="M132.208 203.423C132.13 203.536 131.234 203.075 130.285 202.292C129.337 201.509 128.711 200.735 128.806 200.639C128.902 200.544 129.676 201.135 130.616 201.901C131.555 202.666 132.286 203.302 132.208 203.423Z" fill="#EB996E"/>
<path d="M134.844 199.099C134.766 199.212 133.878 198.76 132.991 197.934C132.104 197.107 131.582 196.272 131.686 196.194C131.79 196.115 132.486 196.776 133.339 197.568C134.192 198.36 134.922 198.978 134.844 199.099Z" fill="#EB996E"/>
<path d="M137.619 195.611C137.48 195.672 136.976 194.741 136.184 193.705C135.392 192.67 134.618 191.965 134.705 191.826C134.792 191.687 135.749 192.296 136.584 193.392C137.156 194.003 137.519 194.78 137.619 195.611Z" fill="#EB996E"/>
<path d="M141.004 356.961C141.07 356.69 141.07 356.406 141.004 356.135C140.863 355.383 140.566 354.669 140.134 354.038C139.992 353.819 139.826 353.618 139.638 353.438C139.515 353.321 139.362 353.24 139.197 353.204C139.031 353.167 138.859 353.176 138.698 353.229C138.603 353.261 138.517 353.315 138.447 353.386C138.376 353.457 138.322 353.543 138.289 353.638C138.228 353.818 138.228 354.014 138.289 354.194C138.408 354.497 138.554 354.788 138.724 355.064C139.046 355.613 139.316 356.152 139.733 356.804C139.855 356.98 140.022 357.118 140.217 357.206C140.412 357.293 140.627 357.326 140.838 357.3C141.227 357.231 141.594 357.07 141.908 356.831C142.485 356.408 143.01 355.921 143.474 355.378C143.698 355.12 143.907 354.85 144.101 354.569C144.312 354.294 144.469 353.981 144.562 353.646C144.614 353.45 144.595 353.241 144.51 353.057C144.424 352.872 144.276 352.724 144.092 352.637C143.92 352.586 143.738 352.581 143.563 352.62C143.387 352.66 143.225 352.743 143.092 352.863C142.694 353.211 142.343 353.609 142.048 354.047C141.61 354.661 141.261 355.335 141.012 356.048C140.898 356.299 140.838 356.572 140.838 356.848C141.251 355.933 141.749 355.059 142.326 354.238C142.621 353.847 142.959 353.491 143.335 353.177C143.535 353.037 143.779 352.942 143.927 353.02C144.013 353.071 144.079 353.149 144.114 353.243C144.148 353.336 144.15 353.439 144.118 353.533C144.028 353.805 143.89 354.059 143.709 354.281C143.527 354.542 143.327 354.795 143.118 355.047C142.667 355.553 142.166 356.011 141.621 356.413C141.367 356.609 141.068 356.741 140.751 356.796C140.622 356.812 140.49 356.791 140.371 356.735C140.253 356.68 140.152 356.592 140.081 356.483C139.742 355.987 139.412 355.369 139.09 354.856C138.942 354.586 138.759 354.325 138.672 354.107C138.585 353.89 138.672 353.716 138.803 353.646C139.177 353.498 139.551 353.925 139.803 354.281C140.369 355.091 140.776 356 141.004 356.961Z" fill="#263238"/>
<path d="M119.628 357.692L109.014 380.703L91.8835 372.786L102.863 344.311L119.628 357.692Z" fill="#FFBE9D"/>
<path d="M110.98 379.163L104.777 390.995C104.777 390.995 120.654 407.412 119.167 411.084L81.8437 393.188L92.0923 369.463L110.98 379.163Z" fill="#455A64"/>
<path d="M94.0498 383.844C93.6396 383.792 93.2244 383.888 92.8785 384.114C92.5325 384.341 92.2785 384.683 92.1619 385.079C92.0831 385.488 92.1648 385.911 92.39 386.261C92.6153 386.611 92.9666 386.861 93.3712 386.959C93.8069 387.024 94.2515 386.927 94.6194 386.684C94.9873 386.442 95.2523 386.071 95.3635 385.645C95.4004 385.209 95.2669 384.776 94.9911 384.437C94.7152 384.098 94.3185 383.879 93.8845 383.827" fill="#E0E0E0"/>
<g opacity="0.6">
<path d="M81.8785 393.188L83.4271 390.212L118.636 408.482C118.636 408.482 119.95 409.996 119.201 411.092L81.8785 393.188Z" fill="white"/>
</g>
<path d="M105.508 391.091C105.421 391.274 104.464 390.917 103.289 391.091C102.115 391.265 101.262 391.787 101.132 391.63C101.001 391.474 101.775 390.56 103.202 390.395C104.629 390.23 105.629 390.943 105.508 391.091Z" fill="#263238"/>
<path d="M108.648 394.588C108.648 394.789 107.665 394.719 106.682 395.189C105.699 395.659 105.125 396.398 104.942 396.302C104.76 396.207 105.142 395.119 106.386 394.562C107.631 394.006 108.727 394.414 108.648 394.588Z" fill="#263238"/>
<path d="M108.622 400.339C108.44 400.339 108.622 399.269 109.571 398.495C110.519 397.72 111.563 397.729 111.563 397.921C111.563 398.112 110.789 398.39 110.014 399.034C109.24 399.678 108.814 400.409 108.622 400.339Z" fill="#263238"/>
<path d="M107.291 386.541C107.135 386.671 106.421 386.019 105.36 385.593C104.298 385.166 103.333 385.105 103.315 384.905C103.298 384.705 104.377 384.427 105.621 384.905C106.865 385.384 107.448 386.436 107.291 386.541Z" fill="#263238"/>
<path d="M114.512 376.092L142.5 306.066C142.5 306.066 141.865 294.112 139.664 290.345C137.463 286.578 70.8034 264.558 70.8034 264.558C70.8034 264.558 53.8297 260.469 42.5023 264.558C31.1749 268.647 22.6924 282.828 24.2323 290.658C25.7722 298.488 32.4364 304.291 32.4364 304.291L81.4609 305.753L108.179 315.497L90.187 367.062L114.512 376.092Z" fill="#263238"/>
<path d="M139.403 328.242L140.038 353.568L121.168 354.038L118.453 323.64L139.403 328.242Z" fill="#FFBE9D"/>
<path d="M141.16 351.306L140.812 364.66C140.812 364.66 162.301 372.377 162.562 376.336L121.176 376.753L119.897 350.94L141.16 351.306Z" fill="#455A64"/>
<path d="M127.997 362.999C127.6 363.124 127.264 363.391 127.052 363.749C126.84 364.107 126.767 364.531 126.849 364.939C126.959 365.34 127.219 365.683 127.575 365.898C127.931 366.114 128.356 366.184 128.763 366.096C129.182 365.961 129.537 365.676 129.759 365.295C129.98 364.915 130.053 364.465 129.963 364.034C129.807 363.626 129.498 363.296 129.101 363.112C128.705 362.928 128.253 362.907 127.841 363.051" fill="#E0E0E0"/>
<g opacity="0.6">
<path d="M121.203 376.753L121.281 373.395L160.935 374.265C160.935 374.265 162.78 375.048 162.588 376.353L121.203 376.753Z" fill="white"/>
</g>
<path d="M141.482 364.443C141.482 364.643 140.464 364.747 139.481 365.409C138.498 366.07 137.967 366.922 137.785 366.844C137.602 366.766 137.889 365.591 139.098 364.817C140.308 364.043 141.526 364.26 141.482 364.443Z" fill="#263238"/>
<path d="M145.841 366.192C145.893 366.392 145.014 366.74 144.336 367.601C143.657 368.462 143.466 369.341 143.274 369.341C143.083 369.341 142.926 368.193 143.796 367.131C144.666 366.07 145.832 366 145.841 366.192Z" fill="#263238"/>
<path d="M148.39 371.368C148.207 371.412 147.92 370.402 148.39 369.289C148.86 368.175 149.843 367.731 149.93 367.897C150.017 368.062 149.434 368.662 149.06 369.576C148.686 370.489 148.555 371.342 148.39 371.368Z" fill="#263238"/>
<path d="M141.065 359.571C140.986 359.754 140.055 359.484 138.916 359.571C137.776 359.658 136.889 360.032 136.775 359.858C136.662 359.684 137.515 358.988 138.863 358.875C140.212 358.762 141.169 359.406 141.065 359.571Z" fill="#263238"/>
<path d="M128.38 257.911C128.38 257.911 139.69 257.041 140.943 269.274C142.196 281.506 143.431 338.769 143.431 338.769L117.07 340.97L112.981 282.48L70.8469 264.558C70.8469 264.558 120.837 256.345 128.38 257.911Z" fill="#263238"/>
<path d="M81.8002 241.364C81.8002 241.364 88.6558 260.6 87.3508 262.74C86.0458 264.88 68.4109 273.702 68.4109 273.702L24.2671 290.658C24.2671 290.658 19.7344 283.446 19.7344 272.388C19.7344 261.331 35.0899 241.381 35.0899 241.381L81.8002 241.364Z" fill="#263238"/>
<path d="M68.7154 263.61C68.7809 263.655 68.8508 263.693 68.9242 263.723L69.5506 264.01L71.9953 265.098L81.1738 269.1L112.85 282.732L112.703 282.532C113.103 288.309 113.573 294.547 113.981 301.002C115.06 316.097 116.052 330.008 116.835 341.022V341.223H117.035L136.28 339.535L141.578 339.039L142.961 338.9L143.431 338.83C143.272 338.817 143.112 338.817 142.952 338.83L141.569 338.917L136.262 339.309L117 340.822L117.218 341.005C116.461 330 115.478 316.08 114.469 300.985C114.016 294.53 113.599 288.292 113.164 282.515V282.376L113.033 282.315L81.2869 268.83L72.0562 264.967L69.5854 263.949L68.9416 263.697C68.8686 263.662 68.7929 263.633 68.7154 263.61Z" fill="#455A64"/>
<path d="M33.6109 265.498C34.0361 265.432 34.4531 265.321 34.855 265.167L38.1784 264.088C41.8056 262.863 45.5231 261.923 49.297 261.278C53.0726 260.662 56.927 260.712 60.6853 261.426C63.5563 262.027 65.2093 262.844 65.2441 262.749C64.8874 262.507 64.5015 262.311 64.0957 262.166C63.0177 261.712 61.9029 261.351 60.7636 261.087C56.9657 260.259 53.0453 260.159 49.21 260.791C45.4058 261.434 41.6692 262.427 38.0479 263.758C36.6559 264.254 35.5423 264.68 34.768 264.985C34.3688 265.124 33.9818 265.295 33.6109 265.498Z" fill="#455A64"/>
<path d="M39.8488 255.362C41.1352 255.284 42.4252 255.284 43.7116 255.362C44.9035 255.441 46.3216 255.623 47.8876 255.806C49.4536 255.989 51.1849 256.206 52.9771 256.546C56.0435 257.034 58.9828 258.125 61.6249 259.756C62.6791 260.49 63.682 261.295 64.6264 262.166C64.4532 261.86 64.2363 261.582 63.9826 261.339C63.3302 260.637 62.6039 260.007 61.8163 259.46C59.1751 257.714 56.1908 256.555 53.0641 256.058C51.2545 255.719 49.5145 255.519 47.9398 255.354C46.3651 255.188 44.9383 255.049 43.729 255.014C42.776 254.972 41.8212 255.013 40.8754 255.136C40.5241 255.162 40.1784 255.238 39.8488 255.362Z" fill="#455A64"/>
<path d="M59.3455 100.816C54.2734 99.9456 49.7755 101.903 45.5212 104.765C41.167 107.826 37.8488 112.141 36.0086 117.134C34.1683 122.128 33.8934 127.564 35.2204 132.718C35.9551 135.338 37.2126 137.781 38.9172 139.901C40.6217 142.022 42.738 143.775 45.1384 145.055C51.7417 148.405 60.1894 147.239 66.1054 142.767C72.0214 138.295 75.3883 130.909 75.6754 123.505C75.9494 118.37 74.6043 113.279 71.83 108.95C70.4234 106.811 68.5913 104.985 66.4478 103.586C64.3043 102.186 61.8955 101.243 59.3716 100.816" fill="#263238"/>
<path d="M44.9035 118.085C45.6517 116.136 45.3559 113.97 45.6517 111.908C46.3042 107.375 50.0017 103.739 54.1777 101.973C58.1101 100.328 62.8777 100.685 67.6453 102.216C70.9338 103.213 73.8702 105.126 76.1104 107.732C77.5359 109.5 78.5169 111.584 78.971 113.809C79.4251 116.034 79.3392 118.336 78.7204 120.521L55.5262 117.145C53.3512 118.938 51.124 120.773 48.4879 121.774C47.728 122.107 46.895 122.239 46.0693 122.157C45.658 122.108 45.2694 121.941 44.9501 121.678C44.6307 121.414 44.3941 121.064 44.2684 120.669C44.0596 119.79 44.5816 118.929 44.9035 118.085Z" fill="#263238"/>
<path d="M68.1412 108.619L47.8876 112.917C46.9489 112.98 46.0671 113.389 45.4141 114.066C44.761 114.744 44.3836 115.64 44.3554 116.58L44.599 160.419C44.6195 163.412 45.6221 166.316 47.4526 168.684L49.384 171.172C53.7949 176.854 62.7124 176.279 66.0793 169.928C66.2853 169.568 66.4432 169.182 66.5491 168.78C66.61 168.388 66.7144 168.127 66.7318 167.797L67.1233 163.516C67.3147 159.619 67.3495 155.686 67.3495 155.686C67.3495 155.686 75.6406 154.642 77.7895 143.959C78.8422 138.652 78.9118 129.874 78.7378 122.696C78.5551 116.267 74.5966 108.193 68.1412 108.619Z" fill="#FFBE9D"/>
<path d="M75.6319 130.961C75.6205 131.32 75.4695 131.659 75.2111 131.908C74.9526 132.157 74.6072 132.295 74.2486 132.292C74.0724 132.3 73.8965 132.273 73.7312 132.212C73.5658 132.151 73.4145 132.057 73.2863 131.936C73.158 131.815 73.0554 131.669 72.9846 131.508C72.9137 131.346 72.8761 131.172 72.874 130.996C72.8874 130.637 73.0388 130.298 73.2965 130.048C73.5543 129.799 73.8985 129.658 74.2573 129.656C74.4338 129.649 74.61 129.678 74.7753 129.74C74.9407 129.802 75.0919 129.897 75.2201 130.018C75.3482 130.14 75.4506 130.286 75.5214 130.448C75.5921 130.61 75.6297 130.784 75.6319 130.961Z" fill="#263238"/>
<path d="M76.6411 127.211C76.4584 127.385 75.4492 126.576 73.9615 126.524C72.4738 126.472 71.3515 127.168 71.2123 126.977C71.0731 126.785 71.3167 126.576 71.8039 126.254C72.4636 125.831 73.2393 125.624 74.0224 125.663C74.7916 125.689 75.5323 125.96 76.1365 126.437C76.5802 126.811 76.7281 127.142 76.6411 127.211Z" fill="#263238"/>
<path d="M62.3383 130.622C62.3292 130.982 62.1792 131.324 61.9205 131.574C61.6618 131.825 61.3151 131.964 60.955 131.962C60.7796 131.969 60.6046 131.94 60.4403 131.879C60.276 131.817 60.1257 131.723 59.9984 131.602C59.871 131.481 59.7692 131.336 59.6989 131.175C59.6286 131.014 59.5913 130.841 59.5891 130.665C59.5982 130.307 59.747 129.966 60.0038 129.716C60.2606 129.465 60.6051 129.325 60.9637 129.326C61.1395 129.319 61.315 129.347 61.4798 129.408C61.6446 129.47 61.7954 129.564 61.9234 129.685C62.0514 129.806 62.1541 129.951 62.2253 130.111C62.2966 130.272 62.335 130.446 62.3383 130.622Z" fill="#263238"/>
<path d="M62.5558 126.855C62.3731 127.029 61.3639 126.211 59.8762 126.159C58.3885 126.107 57.2662 126.803 57.127 126.62C56.9878 126.437 57.2314 126.22 57.7273 125.889C58.3866 125.472 59.1575 125.265 59.9371 125.297C60.7095 125.328 61.4524 125.602 62.0599 126.08C62.4949 126.446 62.6428 126.776 62.5558 126.855Z" fill="#263238"/>
<path d="M67.0015 138.13C67.7951 137.925 68.6095 137.811 69.4288 137.79C69.8116 137.79 70.1683 137.703 70.2466 137.451C70.2913 137.062 70.2186 136.668 70.0378 136.32C69.7159 135.389 69.3766 134.415 69.0286 133.388C67.6279 129.221 66.6361 125.802 66.8014 125.75C66.9667 125.697 68.2456 129.03 69.6376 133.197C69.9682 134.223 70.2901 135.198 70.5946 136.137C70.8181 136.604 70.8674 137.134 70.7338 137.634C70.6725 137.764 70.5829 137.88 70.4716 137.972C70.3602 138.063 70.2299 138.129 70.09 138.165C69.8782 138.208 69.6624 138.229 69.4462 138.225C68.6306 138.302 67.8085 138.27 67.0015 138.13Z" fill="#263238"/>
<path d="M67.3495 155.73C62.2867 155.614 57.3557 154.093 53.1076 151.336C53.1076 151.336 56.431 158.914 67.2277 158.296L67.3495 155.73Z" fill="#EB996E"/>
<path d="M66.2359 141.679C65.9674 141.314 65.6099 141.022 65.1972 140.834C64.7846 140.645 64.3305 140.565 63.8782 140.601C63.5439 140.618 63.2169 140.705 62.9175 140.854C62.6182 141.004 62.3529 141.214 62.1382 141.471C61.9345 141.708 61.8072 142.001 61.773 142.311C61.7389 142.622 61.7994 142.935 61.9468 143.211C62.1752 143.485 62.4799 143.685 62.8222 143.786C63.1645 143.886 63.529 143.883 63.8695 143.776C64.5813 143.557 65.2413 143.196 65.8096 142.715C65.9834 142.606 66.1341 142.464 66.2533 142.297C66.3079 142.215 66.337 142.118 66.337 142.019C66.337 141.92 66.3079 141.823 66.2533 141.74" fill="#EB996E"/>
<path d="M62.5993 138.991C62.8429 138.991 62.782 140.592 64.1131 141.792C65.4442 142.993 67.1668 142.88 67.1755 143.106C67.1755 143.202 66.7753 143.402 66.0532 143.393C65.1083 143.369 64.2024 143.011 63.4954 142.384C62.8234 141.791 62.4058 140.963 62.3296 140.07C62.26 139.365 62.4862 138.974 62.5993 138.991Z" fill="#263238"/>
<path d="M62.4688 122.452C62.3122 122.853 60.8332 122.6 59.0845 122.74C57.3358 122.879 55.9177 123.305 55.7002 122.931C55.6045 122.757 55.8568 122.383 56.4397 122.017C57.2125 121.56 58.0836 121.295 58.9801 121.243C59.8703 121.167 60.7657 121.308 61.5901 121.652C62.26 121.93 62.5384 122.261 62.4688 122.452Z" fill="#263238"/>
<path d="M76.4584 120.713C76.1887 121.043 75.1795 120.652 73.9528 120.582C72.7261 120.512 71.6734 120.721 71.4472 120.365C71.3428 120.191 71.5255 119.86 71.9866 119.555C72.611 119.187 73.3349 119.023 74.0572 119.086C74.7771 119.124 75.4672 119.386 76.0321 119.834C76.4497 120.199 76.5802 120.556 76.4584 120.713Z" fill="#263238"/>
<path d="M41.1886 114.953C43.294 108.785 52.4986 100.381 58.954 100.964L69.22 107.393C68.8464 109.158 68.0023 110.79 66.777 112.115C65.5517 113.439 63.991 114.408 62.26 114.918C60.4069 115.44 58.1971 115.553 57.04 117.111C55.8829 118.668 56.5006 121.061 55.4305 122.696C53.9428 124.976 50.0191 124.784 48.8881 127.255C48.4009 128.334 48.6184 129.639 48.1051 130.735C47.4265 132.162 43.7551 133.91 42.25 133.406C40.7449 132.901 40.7971 130.335 40.336 128.978C39.7425 127.451 39.6995 125.765 40.2142 124.21C40.9624 121.156 40.1881 117.894 41.1886 114.953Z" fill="#263238"/>
<path d="M46.7044 134.737C46.7044 133.936 45.8344 132.014 45.0949 131.857C42.9982 131.448 39.1876 131.474 38.944 136.834C38.6134 144.159 46.0345 142.976 46.0606 142.767C46.0867 142.558 46.6 137.503 46.7044 134.737Z" fill="#FFBE9D"/>
<path d="M43.99 139.896C43.99 139.896 43.8595 139.974 43.6333 140.061C43.329 140.184 42.9892 140.184 42.685 140.061C41.9194 139.739 41.3278 138.478 41.3452 137.164C41.3594 136.533 41.5108 135.913 41.7889 135.346C41.8693 135.121 42.0031 134.918 42.1789 134.756C42.3547 134.594 42.5671 134.477 42.7981 134.415C42.9455 134.381 43.1001 134.401 43.2341 134.471C43.3681 134.542 43.4726 134.657 43.5289 134.798C43.6159 135.006 43.5289 135.154 43.6072 135.163C43.6855 135.172 43.7638 135.05 43.7203 134.745C43.6929 134.562 43.6002 134.396 43.4593 134.276C43.3627 134.193 43.2507 134.131 43.1297 134.092C43.0087 134.053 42.8812 134.039 42.7546 134.049C42.4515 134.097 42.1654 134.221 41.9235 134.41C41.6815 134.599 41.4915 134.846 41.3713 135.128C41.0332 135.748 40.8511 136.441 40.8406 137.147C40.8406 138.626 41.5105 140.044 42.5806 140.4C42.7745 140.466 42.9804 140.487 43.1835 140.463C43.3865 140.439 43.5818 140.37 43.7551 140.261C43.9204 140.07 43.99 139.905 43.99 139.896Z" fill="#EB996E"/>
<path d="M39.64 113.1C39.64 110.803 36.8038 109.307 34.5679 108.75C32.2866 108.358 29.9407 108.806 27.9646 110.011C26.7901 110.655 25.6069 111.577 25.3546 112.891C25.1023 114.205 26.3551 115.771 27.6079 115.301C26.9956 115.501 26.4355 115.835 25.9679 116.278C25.5004 116.722 25.1371 117.263 24.9043 117.864C24.6715 118.464 24.5751 119.109 24.6219 119.752C24.6688 120.394 24.8577 121.018 25.1751 121.579C25.4925 122.139 25.9305 122.623 26.4574 122.993C26.9842 123.364 27.5869 123.613 28.2217 123.722C28.8565 123.832 29.5078 123.799 30.1283 123.626C30.7489 123.453 31.3232 123.144 31.81 122.722C31.1744 124.847 29.8294 126.689 27.9994 127.942C29.8924 128.214 31.8236 127.982 33.5985 127.27C35.3733 126.558 36.9292 125.39 38.1094 123.886C39.2896 122.381 40.0525 120.591 40.3212 118.698C40.5899 116.805 40.3549 114.874 39.64 113.1Z" fill="#263238"/>
<path d="M34.5418 124.706C34.324 123.993 34.2299 123.249 34.2634 122.505C34.2342 118.885 35.4231 115.361 37.639 112.5C38.0573 111.884 38.5817 111.348 39.1876 110.916C37.6575 112.87 36.4369 115.047 35.5684 117.372C34.2199 121.287 34.7071 124.714 34.5418 124.706Z" fill="#FF9687"/>
<path d="M67.0798 105.183C67.7497 108.167 72.2998 111.986 74.2747 114.309C78.0679 118.738 78.8161 120.208 78.7813 130.117C80.5735 126.698 81.9481 123.34 81.8089 119.486C81.7244 115.582 80.2142 111.844 77.5633 108.976C76.2367 107.577 74.6028 106.506 72.7908 105.848C70.9788 105.19 69.0384 104.962 67.1233 105.183" fill="#263238"/>
<path d="M98.1475 186.685C98.1475 186.685 90.2479 173.522 88.0555 170.859C86.2951 168.802 84.0828 167.179 81.5914 166.118C80.6074 165.693 79.5765 165.386 78.5203 165.204L67.1581 162.69C67.1581 162.69 67.1581 170.442 59.0236 170.92C50.8891 171.399 44.0683 160.08 44.0683 160.08C44.0683 160.08 30.94 162.116 27.808 163.734C24.676 165.352 19.7344 167.397 17.02 180.96L15.1147 194.254L37.7347 196.342L39.901 229.958L51.1153 237.788C51.1153 237.788 82.2178 245.871 84.1753 246.401C86.1328 246.932 86.7853 196.359 86.7853 196.359C86.7853 196.359 94.8415 191.217 98.1475 186.685Z" fill="#263238"/>
<path d="M83.2531 181.03C83.4364 181.337 83.5852 181.664 83.6968 182.004C83.9491 182.639 84.2797 183.57 84.6451 184.736C86.5469 190.844 87.3309 197.245 86.9593 203.632C86.8897 204.85 86.794 205.833 86.6896 206.512C86.6665 206.865 86.6053 207.215 86.5069 207.556C86.4653 207.203 86.4653 206.847 86.5069 206.494C86.5504 205.816 86.6026 204.833 86.6287 203.615C86.7134 200.447 86.5681 197.278 86.1937 194.132C85.8013 190.99 85.1791 187.882 84.3319 184.831C84.01 183.657 83.7229 182.709 83.5141 182.065C83.3909 181.73 83.3034 181.383 83.2531 181.03Z" fill="#455A64"/>
<path d="M82.27 236.092L39.64 226.818L37.6738 196.368L18.7339 194.628C18.7339 194.628 19.4386 215.438 20.1607 221.598C21.2134 230.498 26.4682 242.643 29.548 245.088C32.6278 247.532 84.1405 246.419 84.1405 246.419L82.27 236.092Z" fill="#FFBE9D"/>
<path d="M106.465 241.608C106.323 241.902 106.096 242.147 105.814 242.311C105.532 242.476 105.207 242.552 104.881 242.53C104.742 242.52 104.605 242.494 104.472 242.452C103.524 242.147 103.602 240.224 103.602 240.224L99.0958 239.494C99.0958 239.494 93.2233 243.278 91.1353 245.784C89.0473 248.289 83.7229 246.262 83.7229 246.262L81.8785 236.64L90.187 229.132C90.187 229.132 89.6824 229.576 90.2566 228.175C90.8308 226.774 93.4321 227.305 93.4321 227.305C93.841 226.609 95.5462 226.365 95.5462 226.365L102.837 227.235C103.577 227.321 104.289 227.572 104.92 227.969C105.551 228.367 106.085 228.901 106.482 229.532L109.571 234.413C109.571 234.413 111.197 237.893 110.936 238.763C110.82 239.112 110.577 239.405 110.254 239.582C109.931 239.76 109.554 239.809 109.196 239.72C109.196 239.72 108.84 242.034 108.231 242.112C107.609 242.08 106.998 241.932 106.43 241.677L106.465 241.608Z" fill="#FFBE9D"/>
<path d="M90.97 234.7C90.97 234.778 91.9444 234.7 93.5017 234.752C95.524 234.85 97.5233 235.225 99.4438 235.866C100.501 236.221 101.528 236.66 102.515 237.179C103.385 237.675 104.307 238.049 104.594 238.719C104.659 238.858 104.686 239.012 104.672 239.165C104.658 239.318 104.604 239.464 104.516 239.589C104.384 239.795 104.193 239.956 103.968 240.05C103.761 240.123 103.543 240.155 103.324 240.146C103.324 240.146 103.55 240.346 104.02 240.224C104.304 240.147 104.552 239.975 104.725 239.737C104.85 239.579 104.932 239.39 104.962 239.19C104.993 238.991 104.971 238.786 104.899 238.597C104.713 238.179 104.411 237.822 104.029 237.571C103.628 237.319 103.211 237.049 102.75 236.797C101.751 236.248 100.706 235.789 99.6265 235.422C97.6646 234.759 95.6074 234.421 93.5365 234.421C92.6716 234.379 91.8055 234.472 90.97 234.7Z" fill="#EB996E"/>
<path d="M90.448 239.346C90.448 239.485 93.4234 239.346 97.0687 239.572C100.714 239.798 103.637 240.233 103.663 240.094C103.055 239.855 102.417 239.699 101.767 239.633C100.221 239.37 98.6607 239.196 97.0948 239.111C95.5271 239.023 93.9558 239.023 92.3881 239.111C91.7337 239.099 91.0808 239.178 90.448 239.346Z" fill="#EB996E"/>
<path d="M106.421 241.425C106.485 241.172 106.518 240.912 106.517 240.651C106.561 239.938 106.561 239.223 106.517 238.51C106.492 238.013 106.425 237.518 106.317 237.031C106.186 236.462 105.943 235.924 105.603 235.448C104.885 234.347 103.957 233.398 102.872 232.655C101.8 231.913 100.628 231.327 99.3916 230.915C98.3657 230.626 97.3078 230.465 96.2422 230.437C95.3722 230.437 94.624 230.437 94.1194 230.437C93.8559 230.419 93.5913 230.446 93.3364 230.515C94.2937 230.652 95.2581 230.733 96.2248 230.759C97.2577 230.828 98.2793 231.015 99.2698 231.316C100.457 231.749 101.582 232.334 102.619 233.056C103.646 233.775 104.53 234.677 105.229 235.718C105.802 236.564 106.13 237.551 106.178 238.571C106.369 240.303 106.326 241.425 106.421 241.425Z" fill="#EB996E"/>
<path d="M95.9029 228.201C95.9029 228.27 96.9904 228.305 98.7304 228.505C100.47 228.705 103.08 228.879 104.62 231.194C106.102 232.92 107.338 234.844 108.292 236.91C108.608 237.797 108.841 238.711 108.988 239.641C109.039 239.386 109.039 239.123 108.988 238.867C108.943 238.16 108.8 237.463 108.561 236.796C107.679 234.649 106.454 232.66 104.933 230.907C104.527 230.369 104.054 229.887 103.524 229.471C103.002 229.093 102.411 228.821 101.784 228.671C100.774 228.4 99.7394 228.234 98.6956 228.175C97.7669 228.073 96.8295 228.082 95.9029 228.201Z" fill="#EB996E"/>
<path d="M92.71 244.235C92.8642 244.137 93.0097 244.027 93.145 243.904L94.363 242.921C95.8956 241.73 97.4962 240.629 99.1567 239.624H99.0523L103.559 240.39L103.402 240.198C103.388 240.569 103.417 240.939 103.489 241.303C103.549 241.708 103.727 242.087 104.003 242.391C104.168 242.54 104.374 242.637 104.594 242.669C104.804 242.708 105.019 242.708 105.229 242.669C105.667 242.605 106.067 242.382 106.352 242.043C106.428 241.963 106.495 241.876 106.552 241.782L106.595 241.703L106.334 241.799L106.473 241.851C106.665 241.929 106.856 241.999 107.056 242.06C107.256 242.121 107.456 242.173 107.674 242.217C107.787 242.226 107.9 242.226 108.013 242.217C108.157 242.225 108.3 242.198 108.431 242.138C108.629 241.982 108.779 241.775 108.866 241.538C108.958 241.339 109.034 241.132 109.092 240.92C109.214 240.5 109.31 240.073 109.379 239.641L109.118 239.824C109.424 239.888 109.741 239.868 110.036 239.767C110.332 239.666 110.595 239.487 110.797 239.25C110.998 239.004 111.109 238.697 111.11 238.38C111.086 238.086 111.034 237.794 110.954 237.51C110.612 236.402 110.197 235.317 109.71 234.265L108.065 231.655L107.021 230.01C106.704 229.435 106.322 228.898 105.882 228.41C105.416 227.94 104.859 227.571 104.246 227.322C103.649 227.1 103.021 226.971 102.384 226.939L95.5201 226.165H95.4679C95.0549 226.231 94.6498 226.339 94.2586 226.487C93.8411 226.612 93.475 226.868 93.2146 227.218L93.4669 227.139C93.0959 226.968 92.6885 226.89 92.2805 226.913C91.8724 226.936 91.4762 227.058 91.1266 227.27C90.5178 227.713 90.1033 228.373 89.9695 229.114L90.0217 229.019L84.2971 234.169L82.7572 235.587C82.5674 235.742 82.3953 235.917 82.2439 236.109C82.448 235.975 82.6401 235.824 82.8181 235.657L84.4276 234.308L90.2479 229.28H90.2914V229.219C90.4159 228.573 90.7794 227.998 91.3093 227.609C91.6084 227.44 91.9437 227.344 92.2872 227.331C92.6308 227.317 92.9726 227.386 93.2842 227.531L93.4408 227.592L93.5365 227.453C93.7634 227.183 94.0668 226.989 94.4065 226.896C94.7703 226.764 95.1462 226.667 95.5288 226.609H95.4679L102.332 227.418C102.927 227.453 103.513 227.576 104.072 227.783C104.628 228.006 105.131 228.34 105.551 228.766C105.967 229.232 106.328 229.743 106.63 230.289L107.674 231.942C108.239 232.812 108.796 233.682 109.318 234.552C109.802 235.577 110.212 236.635 110.545 237.719C110.622 237.971 110.672 238.23 110.693 238.493C110.698 238.718 110.62 238.938 110.475 239.111C110.327 239.284 110.135 239.414 109.919 239.486C109.703 239.558 109.471 239.569 109.249 239.52H109.014V239.737C108.947 240.151 108.857 240.56 108.744 240.964C108.67 241.322 108.509 241.657 108.274 241.938C108.214 241.948 108.152 241.948 108.092 241.938H107.813C107.63 241.938 107.439 241.851 107.248 241.799L106.691 241.608L106.56 241.555L106.291 241.651V241.703C106.249 241.778 106.199 241.848 106.143 241.912C105.922 242.176 105.613 242.352 105.273 242.408C105.109 242.443 104.94 242.443 104.777 242.408C104.623 242.393 104.478 242.333 104.359 242.234C103.977 241.683 103.805 241.013 103.872 240.346V240.181H103.715L99.1915 239.476H99.1393H99.0958C97.4407 240.512 95.8567 241.657 94.3543 242.904C93.8323 243.348 93.4408 243.704 93.1798 243.948C93.0133 244.026 92.8558 244.123 92.71 244.235Z" fill="#EB996E"/>
<path d="M161.718 213.62L105.629 214.081C103.802 214.081 102.071 214.951 101.793 216.752L95.7028 257.642H66.7666C66.341 257.672 65.9428 257.863 65.6522 258.175C65.3615 258.488 65.1999 258.898 65.1999 259.325C65.1999 259.752 65.3615 260.163 65.6522 260.475C65.9428 260.787 66.341 260.978 66.7666 261.009H159.056L165.364 217.857C165.443 217.332 165.407 216.796 165.26 216.287C165.113 215.777 164.858 215.305 164.512 214.903C164.166 214.5 163.737 214.178 163.255 213.956C162.773 213.735 162.249 213.62 161.718 213.62Z" fill="#E0E0E0"/>
<path d="M161.718 213.62C162.011 213.608 162.304 213.637 162.588 213.707C163.335 213.884 164.008 214.287 164.516 214.862C165.024 215.437 165.341 216.155 165.425 216.917C165.446 217.691 165.376 218.465 165.216 219.223L164.407 224.921C163.171 233.491 161.396 245.845 159.187 261.035V261.183H159.039L69.5071 261.235H67.0972C66.6592 261.276 66.2184 261.192 65.827 260.991C65.5276 260.827 65.2778 260.585 65.1039 260.291C64.9299 259.998 64.8381 259.662 64.8381 259.321C64.8381 258.979 64.9299 258.644 65.1039 258.35C65.2778 258.056 65.5276 257.815 65.827 257.65C66.2198 257.454 66.6601 257.373 67.0972 257.416H95.6679L95.4505 257.607C97.6516 242.965 99.7135 229.306 101.54 217.048C101.601 216.229 101.975 215.465 102.584 214.916C103.193 214.403 103.936 214.074 104.725 213.968C105.476 213.895 106.232 213.868 106.987 213.889H109.188L117.635 213.837L132.643 213.742L154.01 213.628H161.701C161.701 213.628 161.536 213.628 161.205 213.628H159.726L154.01 213.707L132.643 213.942L117.635 214.098L109.188 214.177H106.987C106.252 214.163 105.517 214.189 104.786 214.255C104.063 214.35 103.383 214.652 102.828 215.125C102.557 215.368 102.337 215.662 102.181 215.991C102.024 216.319 101.933 216.675 101.915 217.039C100.088 229.297 98.0518 242.956 95.8246 257.598V257.79H67.1146C66.757 257.744 66.3941 257.805 66.0706 257.964C65.7761 258.133 65.5489 258.398 65.4269 258.715C65.3049 259.032 65.2956 259.381 65.4007 259.704C65.525 260.03 65.7587 260.304 66.0619 260.478C66.3887 260.636 66.7535 260.699 67.1146 260.661H69.5245L159.056 260.713L158.882 260.861C161.135 245.679 162.962 233.334 164.233 224.764C164.555 222.633 164.842 220.728 165.103 219.083C165.264 218.337 165.343 217.576 165.338 216.813C165.265 216.068 164.964 215.364 164.477 214.795C163.99 214.227 163.339 213.823 162.614 213.637C162.316 213.616 162.017 213.61 161.718 213.62Z" fill="#263238"/>
<path d="M131.294 240.311C133.236 240.311 134.809 238.738 134.809 236.797C134.809 234.855 133.236 233.282 131.294 233.282C129.353 233.282 127.78 234.855 127.78 236.797C127.78 238.738 129.353 240.311 131.294 240.311Z" fill="white"/>
<path d="M97.93 260.626C98.0083 260.626 99.7918 250.229 101.915 237.379C104.037 224.53 105.699 214.09 105.621 214.081C105.542 214.072 103.75 224.477 101.627 237.327C99.5047 250.177 97.8604 260.617 97.93 260.626Z" fill="#263238"/>
</svg>
