<svg width="390" height="531" viewBox="0 0 390 531" fill="none" xmlns="http://www.w3.org/2000/svg">
<path d="M408.794 423.196H373.62V423.462H408.794V423.196Z" fill="#EBEBEB"/>
<path d="M282.756 426.085H273.527V426.35H282.756V426.085Z" fill="#EBEBEB"/>
<path d="M372.558 413.341H352.178V413.606H372.558V413.341Z" fill="#EBEBEB"/>
<path d="M32.5802 415.125H-13.2876V415.39H32.5802V415.125Z" fill="#EBEBEB"/>
<path d="M48.7652 415.125H42.0427V415.39H48.7652V415.125Z" fill="#EBEBEB"/>
<path d="M170.109 419.607H70.6211V419.872H170.109V419.607Z" fill="#EBEBEB"/>
<path d="M184.181 358.743H-20.8913C-22.4996 358.743 -24.042 358.105 -25.1792 356.967C-26.3164 355.83 -26.9553 354.288 -26.9553 352.68V64.4208C-26.9413 62.8218 -26.2963 61.293 -25.1605 60.1672C-24.0248 59.0414 -22.4904 58.4099 -20.8913 58.4099H184.181C184.977 58.4099 185.766 58.5668 186.502 58.8715C187.237 59.1763 187.906 59.6229 188.469 60.186C189.032 60.7491 189.479 61.4176 189.783 62.1533C190.088 62.8891 190.245 63.6776 190.245 64.4739V352.68C190.245 353.476 190.088 354.264 189.783 355C189.479 355.736 189.032 356.404 188.469 356.967C187.906 357.531 187.237 357.977 186.502 358.282C185.766 358.587 184.977 358.743 184.181 358.743ZM-20.8913 58.6223C-22.4283 58.6251 -23.9015 59.2369 -24.9884 60.3238C-26.0752 61.4106 -26.687 62.8838 -26.6898 64.4208V352.68C-26.687 354.216 -26.0752 355.69 -24.9884 356.777C-23.9015 357.863 -22.4283 358.475 -20.8913 358.478H184.181C185.718 358.475 187.191 357.863 188.278 356.777C189.365 355.69 189.977 354.216 189.979 352.68V64.4208C189.977 62.8838 189.365 61.4106 188.278 60.3238C187.191 59.2369 185.718 58.6251 184.181 58.6223H-20.8913Z" fill="#EBEBEB"/>
<path d="M413.891 358.743H208.819C207.211 358.743 205.668 358.105 204.531 356.967C203.394 355.83 202.755 354.288 202.755 352.68V64.4208C202.769 62.8218 203.414 61.293 204.55 60.1672C205.686 59.0414 207.22 58.4099 208.819 58.4099H413.891C415.5 58.4099 417.042 59.0488 418.179 60.186C419.316 61.3232 419.955 62.8657 419.955 64.4739V352.68C419.955 354.288 419.316 355.83 418.179 356.967C417.042 358.105 415.5 358.743 413.891 358.743ZM208.819 58.6223C207.282 58.6251 205.809 59.2369 204.722 60.3238C203.635 61.4106 203.023 62.8838 203.021 64.4208V352.68C203.023 354.216 203.635 355.69 204.722 356.777C205.809 357.863 207.282 358.475 208.819 358.478H413.891C415.428 358.475 416.902 357.863 417.988 356.777C419.075 355.69 419.687 354.216 419.69 352.68V64.4208C419.687 62.8838 419.075 61.4106 417.988 60.3238C416.902 59.2369 415.428 58.6251 413.891 58.6223H208.819Z" fill="#EBEBEB"/>
<path d="M462 406.109H-69V406.374H462V406.109Z" fill="#EBEBEB"/>
<path d="M69.7821 125.783L77.5241 120.813L81.7509 128.99L90.9478 128.566L90.523 137.763L98.7004 141.989L93.7302 149.731L98.7004 157.484L90.523 161.711L90.9478 170.908L81.7509 170.483L77.5241 178.66L69.7821 173.69L62.0295 178.66L57.8028 170.483L48.6059 170.908L49.0307 161.711L40.8533 157.484L45.8234 149.731L40.8533 141.989L49.0307 137.763L48.6059 128.566L57.8028 128.99L62.0295 120.813L69.7821 125.783Z" fill="#E6E6E6"/>
<path d="M66.8405 161.562L57.633 152.355C57.1278 151.849 56.844 151.163 56.844 150.448C56.844 149.733 57.1278 149.048 57.633 148.542C58.1387 148.037 58.8244 147.753 59.5392 147.753C60.2541 147.753 60.9398 148.037 61.4455 148.542L66.8405 153.937L78.1083 142.669C78.6141 142.164 79.2997 141.88 80.0146 141.88C80.7295 141.88 81.4151 142.164 81.9209 142.669C82.4261 143.175 82.7099 143.86 82.7099 144.575C82.7099 145.29 82.4261 145.976 81.9209 146.482L66.8405 161.562Z" fill="#FAFAFA"/>
<path d="M357.775 207.069L363.85 203.171L367.163 209.586L374.385 209.246L374.045 216.457L380.46 219.77L376.562 225.855L380.46 231.93L374.045 235.244L374.385 242.455L367.163 242.125L363.85 248.54L357.775 244.642L351.701 248.54L348.387 242.125L341.176 242.455L341.506 235.244L335.091 231.93L338.989 225.855L335.091 219.77L341.506 216.457L341.176 209.246L348.387 209.586L351.701 203.171L357.775 207.069Z" fill="#E6E6E6"/>
<path d="M355.471 235.127L348.249 227.905C347.857 227.508 347.637 226.971 347.637 226.413C347.637 225.854 347.857 225.318 348.249 224.921C348.647 224.525 349.185 224.303 349.747 224.303C350.308 224.303 350.846 224.525 351.244 224.921L355.492 229.169L364.328 220.333C364.726 219.937 365.264 219.715 365.825 219.715C366.386 219.715 366.925 219.937 367.323 220.333C367.718 220.731 367.94 221.269 367.94 221.83C367.94 222.392 367.718 222.93 367.323 223.328L355.471 235.127Z" fill="#FAFAFA"/>
<path d="M70.5574 309.042L82.3987 315.085C83.3742 315.578 84.4838 315.742 85.5602 315.55C86.6367 315.359 87.6218 314.823 88.3671 314.023L97.426 304.295C97.9508 303.732 98.3387 303.057 98.5597 302.32C98.7808 301.583 98.8289 300.805 98.7004 300.047L93.9957 273.327C93.6228 271.231 92.434 269.369 90.69 268.149C88.946 266.928 86.7892 266.449 84.6926 266.817L69.6972 269.461C68.6589 269.645 67.6668 270.031 66.7777 270.597C65.8886 271.164 65.1199 271.901 64.5153 272.764C63.9108 273.628 63.4824 274.603 63.2545 275.632C63.0266 276.662 63.0037 277.726 63.1871 278.764L67.8918 305.474C68.0333 306.233 68.3473 306.949 68.8094 307.568C69.2716 308.187 69.8696 308.691 70.5574 309.042ZM84.0448 306.918C84.5374 306.829 85.0455 306.888 85.5046 307.087C85.9636 307.287 86.353 307.619 86.6233 308.04C86.8937 308.462 87.0327 308.954 87.0229 309.454C87.0131 309.955 86.8549 310.441 86.5683 310.852C86.2817 311.262 85.8796 311.579 85.4131 311.76C84.9465 311.942 84.4366 311.981 83.9478 311.872C83.4591 311.764 83.0136 311.513 82.6678 311.15C82.3221 310.788 82.0916 310.332 82.0058 309.838C81.8913 309.181 82.0415 308.505 82.4234 307.958C82.8054 307.411 83.3883 307.037 84.0448 306.918Z" fill="#E6E6E6"/>
<path d="M71.1359 300.761L94.0508 296.721L93.6137 294.242L70.6988 298.283L71.1359 300.761Z" fill="#FAFAFA"/>
<path d="M67.255 278.735L90.1699 274.694L89.7329 272.215L66.8179 276.256L67.255 278.735Z" fill="#FAFAFA"/>
<path d="M111.03 136.085L119.186 144.836C119.857 145.554 120.742 146.035 121.71 146.205C122.677 146.376 123.674 146.227 124.55 145.781L135.17 140.343C135.794 140.028 136.337 139.57 136.753 139.008C137.17 138.446 137.45 137.794 137.57 137.104L141.818 113.082C142.148 111.198 141.717 109.26 140.62 107.693C139.523 106.126 137.849 105.058 135.966 104.724L122.489 102.345C120.602 102.015 118.662 102.446 117.093 103.545C115.524 104.644 114.455 106.321 114.121 108.207L109.873 132.219C109.751 132.909 109.792 133.618 109.993 134.289C110.194 134.96 110.549 135.575 111.03 136.085ZM123.063 138.485C123.506 138.561 123.917 138.767 124.243 139.077C124.569 139.386 124.796 139.786 124.895 140.225C124.994 140.663 124.961 141.122 124.799 141.542C124.637 141.961 124.355 142.324 123.987 142.583C123.619 142.842 123.183 142.986 122.733 142.997C122.284 143.008 121.841 142.885 121.461 142.644C121.081 142.403 120.781 142.055 120.599 141.643C120.418 141.232 120.362 140.776 120.44 140.333C120.543 139.74 120.878 139.213 121.369 138.867C121.861 138.52 122.47 138.383 123.063 138.485Z" fill="#F0F0F0"/>
<path d="M114.075 129.281L134.679 132.914L135.072 130.686L114.468 127.053L114.075 129.281Z" fill="#FAFAFA"/>
<path d="M118.162 110.751L138.665 114.308L139.049 112.091L118.546 108.535L118.162 110.751Z" fill="#FAFAFA"/>
<path d="M308.413 110.182C306.906 108.029 304.605 106.562 302.016 106.104C299.427 105.646 296.763 106.234 294.607 107.74L290.359 110.682L287.407 106.434C285.896 104.285 283.595 102.821 281.008 102.364C278.421 101.906 275.758 102.491 273.601 103.991C271.452 105.502 269.989 107.803 269.531 110.39C269.074 112.977 269.659 115.64 271.158 117.797L285.506 138.283L306.003 123.935C308.134 122.422 309.582 120.129 310.034 117.554C310.485 114.98 309.903 112.331 308.413 110.182Z" fill="#EBEBEB"/>
<path d="M337.874 112.094C337.509 111.569 337.043 111.121 336.505 110.777C335.966 110.432 335.365 110.197 334.735 110.086C334.106 109.974 333.46 109.988 332.836 110.127C332.212 110.266 331.621 110.526 331.098 110.894L329.038 112.338L327.593 110.278C326.852 109.222 325.723 108.503 324.454 108.278C323.184 108.053 321.876 108.341 320.818 109.078C319.763 109.822 319.046 110.954 318.823 112.226C318.6 113.497 318.89 114.805 319.628 115.864L326.648 125.889L336.684 118.87C337.208 118.504 337.655 118.038 337.999 117.499C338.342 116.96 338.576 116.358 338.687 115.729C338.797 115.099 338.782 114.454 338.643 113.83C338.503 113.207 338.242 112.617 337.874 112.094Z" fill="#EBEBEB"/>
<path d="M23.7763 209.596C16.9221 211.564 11.1299 216.174 7.67283 222.411C4.21572 228.648 3.37663 236.003 5.33998 242.858C8.0056 252.129 24.2648 267.666 35.3309 277.426C36.4658 278.429 37.8352 279.13 39.3126 279.465C40.79 279.799 42.3278 279.755 43.784 279.338C45.2403 278.922 46.568 278.144 47.6446 277.079C48.7212 276.013 49.512 274.694 49.944 273.242C54.192 259.107 59.7038 237.304 57.0488 228.033C56.0755 224.637 54.4427 221.466 52.2436 218.701C50.0445 215.937 47.3222 213.633 44.2324 211.921C41.1425 210.209 37.7455 209.122 34.2356 208.723C30.7257 208.324 27.1715 208.621 23.7763 209.596ZM34.6087 247.372C32.2508 248.049 29.7448 248.012 27.4078 247.266C25.0707 246.519 23.0076 245.096 21.4793 243.177C19.9509 241.258 19.026 238.929 18.8216 236.484C18.6171 234.039 19.1422 231.588 20.3305 229.442C21.5189 227.296 23.317 225.55 25.4975 224.425C27.6781 223.301 30.1431 222.848 32.5809 223.125C35.0186 223.401 37.3196 224.395 39.1928 225.979C41.0661 227.563 42.4274 229.668 43.1047 232.026C44.0128 235.187 43.6279 238.58 42.0346 241.458C40.4413 244.336 37.7702 246.463 34.6087 247.372Z" fill="#E0E0E0"/>
<path d="M27.9819 208.396C21.1363 210.371 15.3544 214.982 11.9056 221.216C8.45692 227.451 7.62337 234.799 9.58804 241.648C12.2537 250.919 28.5129 266.466 39.5789 276.226C40.7182 277.226 42.0912 277.923 43.5711 278.252C45.0509 278.581 46.5897 278.531 48.0453 278.107C49.5009 277.684 50.8262 276.9 51.8987 275.829C52.9712 274.758 53.7563 273.433 54.1814 271.978C58.4294 257.843 63.9412 236.051 61.2862 226.769C60.3076 223.375 58.6696 220.206 56.4658 217.446C54.2619 214.685 51.5355 212.386 48.4424 210.679C45.3493 208.973 41.9501 207.893 38.4393 207.501C34.9286 207.11 31.375 207.414 27.9819 208.396ZM38.8143 246.172C36.4544 246.851 33.9459 246.816 31.6062 246.07C29.2664 245.324 27.2005 243.901 25.6697 241.98C24.139 240.06 23.2122 237.728 23.0066 235.281C22.801 232.834 23.3259 230.381 24.5147 228.232C25.7036 226.083 27.5031 224.335 29.6856 223.209C31.8681 222.083 34.3355 221.63 36.7757 221.906C39.2159 222.183 41.5193 223.177 43.3945 224.763C45.2697 226.348 46.6324 228.455 47.3103 230.815C47.7615 232.381 47.8997 234.021 47.7168 235.641C47.534 237.26 47.0338 238.828 46.2447 240.254C45.4557 241.68 44.3934 242.937 43.1184 243.952C41.8434 244.968 40.3809 245.722 38.8143 246.172Z" fill="#F5F5F5"/>
<path d="M337.65 141.246C334.695 140.391 331.6 140.129 328.543 140.473C325.486 140.818 322.528 141.763 319.837 143.254C317.146 144.745 314.776 146.752 312.863 149.162C310.95 151.571 309.532 154.334 308.69 157.293C306.374 165.374 311.207 184.352 314.881 196.661C315.255 197.929 315.944 199.082 316.883 200.013C317.821 200.944 318.98 201.623 320.252 201.986C321.523 202.349 322.865 202.386 324.154 202.092C325.443 201.798 326.637 201.182 327.625 200.304C337.268 191.808 351.424 178.278 353.74 170.207C354.593 167.249 354.854 164.151 354.507 161.092C354.159 158.033 353.211 155.073 351.716 152.381C350.221 149.69 348.208 147.321 345.794 145.41C343.381 143.499 340.613 142.084 337.65 141.246ZM328.188 174.168C326.136 173.579 324.305 172.395 322.925 170.766C321.546 169.137 320.68 167.135 320.437 165.015C320.195 162.894 320.586 160.749 321.562 158.85C322.537 156.951 324.054 155.384 325.92 154.347C327.785 153.31 329.916 152.848 332.044 153.022C334.172 153.195 336.2 153.995 337.874 155.32C339.547 156.645 340.79 158.437 341.446 160.468C342.102 162.5 342.141 164.68 341.558 166.734C341.171 168.101 340.517 169.378 339.634 170.492C338.752 171.607 337.658 172.535 336.416 173.226C335.174 173.917 333.808 174.355 332.396 174.517C330.984 174.679 329.554 174.56 328.188 174.168Z" fill="#E0E0E0"/>
<path d="M341.314 142.308C338.359 141.453 335.264 141.191 332.207 141.535C329.151 141.88 326.192 142.825 323.501 144.316C320.81 145.807 318.44 147.814 316.527 150.224C314.614 152.633 313.196 155.396 312.354 158.355C310.039 166.426 314.871 185.414 318.545 197.723C318.919 198.991 319.608 200.144 320.547 201.075C321.486 202.006 322.644 202.685 323.916 203.048C325.187 203.411 326.529 203.448 327.818 203.154C329.107 202.86 330.301 202.245 331.289 201.366C340.921 192.87 355.078 179.34 357.393 171.269C358.247 168.311 358.508 165.214 358.161 162.156C357.815 159.097 356.867 156.138 355.373 153.446C353.879 150.755 351.868 148.386 349.455 146.474C347.043 144.563 344.276 143.147 341.314 142.308ZM331.884 175.23C329.831 174.643 327.998 173.46 326.617 171.832C325.236 170.203 324.368 168.202 324.124 166.081C323.88 163.959 324.27 161.813 325.245 159.914C326.22 158.014 327.737 156.446 329.602 155.408C331.468 154.37 333.6 153.908 335.728 154.081C337.856 154.253 339.886 155.053 341.56 156.379C343.234 157.705 344.477 159.497 345.133 161.529C345.788 163.561 345.827 165.742 345.244 167.796C344.458 170.553 342.609 172.886 340.103 174.28C337.598 175.674 334.641 176.016 331.884 175.23Z" fill="#F5F5F5"/>
<path d="M196.5 453.485C310.222 453.485 402.411 448.102 402.411 441.463C402.411 434.823 310.222 429.441 196.5 429.441C82.7785 429.441 -9.41113 434.823 -9.41113 441.463C-9.41113 448.102 82.7785 453.485 196.5 453.485Z" fill="#F5F5F5"/>
<path d="M131.187 199.518H142.55C143.113 199.508 143.672 199.617 144.19 199.838C144.708 200.06 145.173 200.389 145.555 200.803C145.936 201.218 146.225 201.709 146.403 202.243C146.581 202.778 146.643 203.344 146.586 203.904L144.462 227.873C144.34 229.066 143.786 230.174 142.903 230.986C142.021 231.798 140.871 232.258 139.672 232.281H128.319C127.755 232.29 127.195 232.179 126.677 231.956C126.159 231.732 125.694 231.401 125.314 230.984C124.933 230.568 124.645 230.075 124.47 229.538C124.294 229.002 124.234 228.435 124.295 227.873L126.408 203.904C126.534 202.717 127.089 201.616 127.969 200.809C128.849 200.001 129.993 199.542 131.187 199.518Z" fill="#F09999"/>
<path opacity="0.2" d="M258.308 194.399H276.065C276.946 194.383 277.821 194.556 278.631 194.904C279.441 195.253 280.167 195.77 280.762 196.421C281.357 197.071 281.806 197.842 282.08 198.68C282.354 199.518 282.447 200.404 282.352 201.281L280.164 226.312C279.974 228.167 279.114 229.889 277.745 231.156C276.377 232.422 274.594 233.147 272.73 233.194H254.91C254.029 233.208 253.156 233.035 252.347 232.686C251.538 232.337 250.813 231.819 250.22 231.169C249.626 230.518 249.178 229.748 248.904 228.911C248.631 228.074 248.538 227.188 248.633 226.312L250.821 201.281C251.013 199.417 251.88 197.688 253.26 196.42C254.639 195.152 256.435 194.433 258.308 194.399Z" fill="black"/>
<path opacity="0.2" d="M254.666 235.987H272.433C273.314 235.973 274.187 236.146 274.996 236.495C275.804 236.845 276.53 237.362 277.123 238.013C277.717 238.663 278.165 239.433 278.439 240.27C278.712 241.107 278.804 241.993 278.709 242.869L276.522 267.9C276.332 269.765 275.465 271.495 274.085 272.763C272.706 274.032 270.908 274.75 269.034 274.782H251.278C250.396 274.798 249.521 274.626 248.712 274.277C247.902 273.929 247.175 273.412 246.581 272.761C245.986 272.11 245.536 271.34 245.262 270.502C244.988 269.664 244.896 268.777 244.991 267.9L247.189 242.869C247.378 241.006 248.244 239.277 249.621 238.009C250.999 236.741 252.794 236.022 254.666 235.987Z" fill="black"/>
<path d="M163.058 147.469H261.993C265.182 147.413 268.347 148.036 271.276 149.297C274.205 150.559 276.831 152.43 278.981 154.787C281.13 157.143 282.753 159.93 283.74 162.963C284.728 165.995 285.059 169.203 284.71 172.373L263.597 413.628C262.91 420.37 259.776 426.626 254.787 431.213C249.799 435.8 243.302 438.4 236.527 438.521H137.591C134.403 438.578 131.24 437.955 128.311 436.694C125.383 435.433 122.757 433.562 120.608 431.207C118.459 428.852 116.836 426.066 115.847 423.035C114.859 420.004 114.527 416.797 114.875 413.628L135.966 172.373C136.651 165.626 139.787 159.364 144.78 154.774C149.773 150.185 156.276 147.585 163.058 147.469Z" fill="#F09999"/>
<path opacity="0.2" d="M163.058 147.469H261.993C265.182 147.413 268.347 148.036 271.276 149.297C274.205 150.559 276.831 152.43 278.981 154.787C281.13 157.143 282.753 159.93 283.74 162.963C284.728 165.995 285.059 169.203 284.71 172.373L263.597 413.628C262.91 420.37 259.776 426.626 254.787 431.213C249.799 435.8 243.302 438.4 236.527 438.521H137.591C134.403 438.578 131.24 437.955 128.311 436.694C125.383 435.433 122.757 433.562 120.608 431.207C118.459 428.852 116.836 426.066 115.847 423.035C114.859 420.004 114.527 416.797 114.875 413.628L135.966 172.373C136.651 165.626 139.787 159.364 144.78 154.774C149.773 150.185 156.276 147.585 163.058 147.469Z" fill="black"/>
<path d="M159.861 147.469H258.807C261.996 147.414 265.159 148.039 268.088 149.301C271.016 150.563 273.642 152.435 275.791 154.79C277.94 157.146 279.562 159.933 280.551 162.964C281.539 165.996 281.871 169.204 281.524 172.373L260.411 413.628C259.722 420.369 256.587 426.624 251.599 431.21C246.611 435.797 240.116 438.398 233.341 438.521H134.405C131.217 438.58 128.052 437.958 125.123 436.697C122.194 435.437 119.567 433.566 117.418 431.211C115.269 428.855 113.646 426.069 112.658 423.037C111.67 420.005 111.339 416.797 111.689 413.628L132.78 172.373C133.991 158.62 146.119 147.469 159.861 147.469Z" fill="#F09999"/>
<path d="M278.55 172.373L257.448 413.617C256.837 419.554 254.073 425.062 249.678 429.1C245.284 433.139 239.563 435.428 233.595 435.537H134.66C131.852 435.589 129.066 435.041 126.486 433.931C123.906 432.821 121.593 431.175 119.7 429.101C117.807 427.027 116.377 424.573 115.507 421.903C114.636 419.233 114.345 416.409 114.652 413.617L135.764 172.373C136.373 166.436 139.134 160.928 143.527 156.887C147.919 152.847 153.639 150.555 159.606 150.443H258.542C261.35 150.393 264.137 150.942 266.716 152.053C269.296 153.164 271.609 154.812 273.502 156.887C275.395 158.961 276.824 161.416 277.695 164.086C278.565 166.756 278.857 169.582 278.55 172.373Z" fill="white"/>
<g opacity="0.1">
<path d="M134.66 435.537H172.17L232.767 150.443H184.977L124.889 433.126C127.897 434.724 131.254 435.552 134.66 435.537Z" fill="black"/>
<path d="M255.707 150.443H246.616L186.008 435.537H195.109L255.707 150.443Z" fill="black"/>
</g>
<path d="M180.071 149.742C179.978 150.632 180.074 151.532 180.353 152.383C180.631 153.234 181.086 154.016 181.687 154.68C182.288 155.343 183.023 155.872 183.842 156.233C184.661 156.593 185.548 156.777 186.443 156.772H230.516C232.426 156.731 234.256 155.994 235.662 154.7C237.068 153.405 237.953 151.643 238.152 149.742H180.071Z" fill="#F09999"/>
<path d="M256.747 158.238H266.751C266.945 158.237 267.136 158.277 267.314 158.355C267.491 158.433 267.65 158.547 267.78 158.69C267.91 158.833 268.009 159.002 268.069 159.186C268.13 159.37 268.151 159.564 268.132 159.757L267.75 164.111C267.708 164.521 267.518 164.903 267.214 165.182C266.911 165.462 266.516 165.621 266.103 165.63H256.099C255.905 165.632 255.713 165.594 255.535 165.516C255.357 165.439 255.198 165.325 255.067 165.181C254.936 165.038 254.838 164.868 254.778 164.683C254.718 164.499 254.698 164.304 254.719 164.111L255.101 159.757C255.143 159.346 255.333 158.965 255.636 158.685C255.939 158.405 256.335 158.246 256.747 158.238Z" fill="#F09999"/>
<path d="M149.931 158.238H163.323C163.542 158.235 163.758 158.279 163.959 158.366C164.159 158.453 164.339 158.582 164.487 158.743C164.634 158.905 164.746 159.095 164.814 159.303C164.883 159.511 164.907 159.73 164.884 159.948L164.534 163.92C164.487 164.383 164.272 164.813 163.929 165.128C163.587 165.443 163.141 165.622 162.675 165.63H149.283C149.065 165.633 148.849 165.589 148.649 165.502C148.449 165.415 148.269 165.286 148.123 165.124C147.976 164.963 147.865 164.772 147.798 164.564C147.731 164.356 147.709 164.137 147.733 163.92L148.073 159.948C148.119 159.485 148.334 159.055 148.677 158.74C149.019 158.425 149.466 158.246 149.931 158.238Z" fill="#F09999"/>
<path opacity="0.4" d="M149.931 158.238H163.323C163.542 158.235 163.758 158.279 163.959 158.366C164.159 158.453 164.339 158.582 164.487 158.743C164.634 158.905 164.746 159.095 164.814 159.303C164.883 159.511 164.907 159.73 164.884 159.948L164.534 163.92C164.487 164.383 164.272 164.813 163.929 165.128C163.587 165.443 163.141 165.622 162.675 165.63H149.283C149.065 165.633 148.849 165.589 148.649 165.502C148.449 165.415 148.269 165.286 148.123 165.124C147.976 164.963 147.865 164.772 147.798 164.564C147.731 164.356 147.709 164.137 147.733 163.92L148.073 159.948C148.119 159.485 148.334 159.055 148.677 158.74C149.019 158.425 149.466 158.246 149.931 158.238Z" fill="white"/>
<path d="M254.082 159.47H255.653C255.725 159.468 255.795 159.481 255.861 159.509C255.927 159.537 255.985 159.578 256.034 159.63C256.082 159.683 256.119 159.745 256.141 159.812C256.163 159.88 256.171 159.951 256.163 160.022L255.834 163.782C255.818 163.932 255.748 164.071 255.636 164.173C255.525 164.275 255.38 164.332 255.229 164.334H253.657C253.586 164.336 253.515 164.322 253.449 164.295C253.384 164.267 253.325 164.226 253.277 164.173C253.228 164.121 253.192 164.059 253.17 163.992C253.147 163.924 253.14 163.852 253.147 163.782L253.476 160.022C253.492 159.872 253.562 159.733 253.674 159.631C253.786 159.529 253.931 159.472 254.082 159.47Z" fill="#F09999"/>
<path d="M264.765 159.47H266.348C266.418 159.47 266.488 159.484 266.552 159.512C266.616 159.541 266.674 159.582 266.721 159.634C266.768 159.687 266.804 159.748 266.825 159.815C266.847 159.882 266.854 159.952 266.847 160.022L266.518 163.782C266.505 163.931 266.436 164.07 266.327 164.172C266.217 164.274 266.073 164.332 265.923 164.334H264.341C264.27 164.334 264.201 164.32 264.136 164.292C264.072 164.263 264.015 164.222 263.967 164.169C263.92 164.117 263.885 164.056 263.863 163.989C263.841 163.922 263.834 163.852 263.841 163.782L264.171 160.022C264.184 159.873 264.252 159.734 264.362 159.632C264.472 159.53 264.615 159.472 264.765 159.47Z" fill="white"/>
<path d="M261.377 159.47H262.96C263.03 159.47 263.1 159.484 263.164 159.512C263.228 159.541 263.286 159.582 263.333 159.634C263.38 159.687 263.416 159.748 263.437 159.815C263.459 159.882 263.466 159.952 263.459 160.022L263.13 163.782C263.117 163.931 263.049 164.07 262.939 164.172C262.829 164.274 262.685 164.332 262.535 164.334H260.953C260.882 164.334 260.813 164.32 260.749 164.292C260.684 164.263 260.627 164.222 260.58 164.169C260.532 164.117 260.497 164.056 260.475 163.989C260.453 163.922 260.446 163.852 260.454 163.782L260.783 160.022C260.796 159.873 260.864 159.734 260.974 159.632C261.084 159.53 261.228 159.472 261.377 159.47Z" fill="white"/>
<path d="M279.155 226.142L277.031 250.813C278.071 250.613 279.019 250.084 279.734 249.303C280.45 248.523 280.895 247.533 281.003 246.48L282.363 230.454C282.471 229.463 282.2 228.468 281.605 227.669C281.01 226.869 280.135 226.324 279.155 226.142Z" fill="#F09999"/>
<path opacity="0.2" d="M279.155 226.142L277.031 250.813C278.071 250.613 279.019 250.084 279.734 249.303C280.45 248.523 280.895 247.533 281.003 246.48L282.363 230.454C282.471 229.463 282.2 228.468 281.605 227.669C281.01 226.869 280.135 226.324 279.155 226.142Z" fill="black"/>
<path d="M281.46 199.518L279.336 224.188C280.374 223.99 281.319 223.463 282.033 222.684C282.747 221.905 283.19 220.917 283.297 219.866L284.646 203.904C284.769 202.905 284.509 201.897 283.918 201.083C283.326 200.269 282.448 199.71 281.46 199.518Z" fill="#F09999"/>
<path opacity="0.2" d="M281.46 199.518L279.336 224.188C280.374 223.99 281.319 223.463 282.033 222.684C282.747 221.905 283.19 220.917 283.297 219.866L284.646 203.904C284.769 202.905 284.509 201.897 283.918 201.083C283.326 200.269 282.448 199.71 281.46 199.518Z" fill="black"/>
<path d="M361.418 255.814H340.571C338.881 255.814 337.26 256.486 336.065 257.681C334.87 258.876 334.199 260.496 334.199 262.186V274.527C334.213 276.208 334.89 277.815 336.084 278.998C337.277 280.182 338.89 280.846 340.571 280.846H346.529V285.657C346.532 285.921 346.613 286.178 346.761 286.397C346.91 286.616 347.119 286.786 347.364 286.887C347.608 286.987 347.877 287.014 348.136 286.964C348.395 286.913 348.634 286.787 348.823 286.602L354.568 280.846H361.418C363.09 280.832 364.689 280.162 365.871 278.98C367.053 277.798 367.723 276.198 367.737 274.527V262.133C367.723 260.462 367.053 258.863 365.871 257.681C364.689 256.499 363.09 255.828 361.418 255.814Z" fill="#F09999"/>
<path d="M356.373 261.719H346.359C346.263 260.88 346.21 260.466 346.115 259.595H340.603C340.72 260.073 340.783 260.307 340.9 260.785H344.872C344.925 261.135 344.957 261.316 345.01 261.677C345.276 263.429 345.414 264.3 345.679 266.052C345.743 266.53 345.785 266.764 345.86 267.242C346.125 268.994 346.253 269.865 346.518 271.617C346.667 272.562 346.741 273.03 346.879 273.964H357.924C358.03 273.486 358.083 273.253 358.2 272.775H347.739C347.686 272.318 347.654 272.084 347.601 271.617H358.975L360.037 267.242C360.154 266.764 360.207 266.53 360.335 266.052C360.76 264.3 360.983 263.429 361.397 261.677L356.373 261.719ZM346.508 262.898H350.055C350.055 264.183 350.108 264.82 350.15 266.084H346.879L346.508 262.898ZM347.41 270.481C347.251 269.196 347.177 268.558 347.028 267.295H350.214C350.214 268.569 350.267 269.206 350.309 270.481H347.41ZM354.218 270.481H351.34C351.34 269.196 351.34 268.558 351.34 267.295H354.526C354.388 268.558 354.334 269.196 354.218 270.481ZM354.621 266.095H351.35C351.35 264.82 351.35 264.183 351.35 262.909H354.897C354.791 264.183 354.738 264.82 354.621 266.095ZM358.147 270.481H355.28C355.439 269.196 355.513 268.558 355.683 267.295H358.869L358.147 270.481ZM359.092 266.095H355.8C355.97 264.82 356.044 264.183 356.204 262.909H359.751C359.496 264.183 359.358 264.82 359.092 266.095Z" fill="white"/>
<path d="M347.559 275.111C347.28 275.111 347.007 275.194 346.774 275.349C346.542 275.504 346.361 275.725 346.254 275.983C346.147 276.241 346.119 276.525 346.174 276.799C346.228 277.073 346.363 277.325 346.56 277.522C346.758 277.72 347.009 277.854 347.283 277.909C347.557 277.963 347.841 277.935 348.099 277.829C348.358 277.722 348.578 277.541 348.733 277.308C348.889 277.076 348.971 276.803 348.971 276.524C348.971 276.149 348.823 275.79 348.558 275.525C348.293 275.26 347.934 275.111 347.559 275.111Z" fill="white"/>
<path d="M357.563 277.925C358.337 277.925 358.965 277.298 358.965 276.523C358.965 275.749 358.337 275.122 357.563 275.122C356.789 275.122 356.161 275.749 356.161 276.523C356.161 277.298 356.789 277.925 357.563 277.925Z" fill="white"/>
<path d="M221.468 167.392H188.376C185.646 167.441 183.029 168.487 181.019 170.335C179.01 172.182 177.746 174.702 177.469 177.418L175.759 197.012C175.619 198.288 175.752 199.579 176.149 200.8C176.547 202.02 177.2 203.142 178.065 204.091C178.93 205.039 179.988 205.793 181.167 206.301C182.346 206.809 183.619 207.06 184.903 207.037H194.376L193.707 214.662C193.674 215.08 193.774 215.498 193.991 215.857C194.208 216.216 194.532 216.497 194.917 216.663C195.303 216.828 195.73 216.868 196.14 216.778C196.55 216.688 196.921 216.471 197.201 216.159L207.12 207.09H217.995C220.724 207.039 223.339 205.992 225.349 204.145C227.358 202.298 228.622 199.78 228.902 197.065L230.611 177.471C230.76 176.191 230.633 174.893 230.239 173.666C229.845 172.439 229.193 171.31 228.327 170.356C227.461 169.401 226.401 168.643 225.218 168.132C224.035 167.621 222.756 167.369 221.468 167.392Z" fill="#F09999"/>
<path d="M211.57 176.759H195.693L195.587 173.467H186.846C186.963 174.221 187.027 174.593 187.144 175.347H193.452C193.452 175.91 193.505 176.196 193.537 176.759C193.718 179.542 193.813 180.933 193.994 183.715C193.994 184.459 194.068 184.841 194.111 185.595C194.291 188.367 194.387 189.758 194.557 192.541C194.663 194.027 194.705 194.771 194.801 196.258H212.239L212.844 194.378H196.245V192.541H214.299C215.234 189.758 215.701 188.367 216.625 185.595L217.251 183.715C218.186 180.933 218.653 179.542 219.577 176.759H211.57ZM195.746 178.639H201.375C201.258 180.667 201.205 181.676 201.088 183.715H195.905L195.746 178.639ZM196.128 190.661L195.969 185.595H200.982C200.865 187.623 200.801 188.632 200.684 190.661H196.128ZM206.929 190.661H202.373C202.553 188.632 202.649 187.623 202.83 185.595H207.842C207.481 187.623 207.301 188.632 206.929 190.661ZM208.182 183.726H202.999C203.191 181.687 203.276 180.678 203.456 178.65H209.095C208.724 180.667 208.543 181.676 208.182 183.726ZM213.173 190.671H208.617L209.679 185.606H214.681C214.097 187.624 213.789 188.632 213.173 190.661V190.671ZM215.297 183.726H210.094C210.529 181.687 210.741 180.678 211.156 178.65H216.784C216.189 180.667 215.882 181.676 215.276 183.726H215.297Z" fill="white"/>
<path d="M195.735 198.021C195.127 198.03 194.544 198.263 194.096 198.674C193.648 199.085 193.366 199.646 193.303 200.251C193.273 200.535 193.304 200.822 193.393 201.093C193.482 201.365 193.628 201.614 193.821 201.825C194.014 202.036 194.249 202.203 194.511 202.316C194.774 202.429 195.057 202.486 195.343 202.481C195.951 202.471 196.534 202.239 196.982 201.828C197.43 201.417 197.712 200.856 197.774 200.251C197.805 199.967 197.774 199.679 197.685 199.408C197.596 199.137 197.45 198.887 197.257 198.677C197.064 198.466 196.829 198.298 196.567 198.185C196.304 198.072 196.021 198.016 195.735 198.021Z" fill="white"/>
<path d="M211.591 198.021C210.984 198.031 210.402 198.263 209.956 198.675C209.509 199.086 209.23 199.647 209.17 200.251C209.14 200.535 209.17 200.822 209.259 201.093C209.349 201.365 209.494 201.614 209.687 201.825C209.88 202.036 210.115 202.203 210.377 202.316C210.64 202.429 210.923 202.486 211.209 202.481C211.816 202.471 212.398 202.238 212.844 201.827C213.291 201.416 213.57 200.855 213.63 200.251C213.66 199.967 213.63 199.679 213.54 199.408C213.451 199.137 213.305 198.887 213.113 198.677C212.92 198.466 212.685 198.298 212.422 198.185C212.16 198.072 211.877 198.016 211.591 198.021Z" fill="white"/>
<path d="M245.246 306.047H207.407V343.886H245.246V306.047Z" fill="#F09999"/>
<path d="M268.472 306.047H245.235V343.886H268.472V306.047Z" fill="#F09999"/>
<path d="M238.014 296.553H200.175L207.407 306.047H245.235L238.014 296.553Z" fill="#F09999"/>
<path opacity="0.3" d="M268.472 306.047H245.235V343.886H268.472V306.047Z" fill="white"/>
<path opacity="0.4" d="M238.014 296.553H200.175L207.407 306.047H245.235L238.014 296.553Z" fill="white"/>
<path d="M252.085 296.553H275.322L268.483 306.047H245.235L252.085 296.553Z" fill="#F09999"/>
<path opacity="0.6" d="M245.246 306.047H207.407V343.886H245.246V306.047Z" fill="white"/>
<path opacity="0.2" d="M252.085 296.553H275.322L268.483 306.047H245.235L252.085 296.553Z" fill="white"/>
<path d="M351.711 342.952H256.344V438.319H351.711V342.952Z" fill="#F09999"/>
<path opacity="0.4" d="M351.711 342.952H256.344V438.319H351.711V342.952Z" fill="white"/>
<path d="M256.323 342.952H197.743V438.319H256.323V342.952Z" fill="#F09999"/>
<path opacity="0.6" d="M256.323 342.952H197.743V438.319H256.323V342.952Z" fill="white"/>
<path opacity="0.5" d="M215.839 342.952V368.567L218.165 369.788L220.172 368.121L223.347 369.788L226.364 368.121L228.7 369.788L231.376 368.121L232.895 369.491V342.952H215.839Z" fill="white"/>
<path opacity="0.5" d="M232.895 438.319V412.704L230.569 411.472L228.562 413.15L225.387 411.472L222.37 413.15L220.034 411.472L217.358 413.15L215.839 411.78V438.319H232.895Z" fill="white"/>
<path d="M295.266 381.842C295.808 384.019 296.073 385.113 296.615 387.29C296.753 387.874 296.827 388.172 296.976 388.766C297.518 390.943 297.783 392.037 298.325 394.214H312.471C312.396 394.788 312.364 395.075 312.301 395.648H299.27C299.408 396.243 299.472 396.54 299.61 397.124H313.32L313.766 394.214C314.095 392.037 314.265 390.943 314.595 388.766C314.69 388.172 314.733 387.874 314.818 387.29C315.147 385.113 315.317 384.019 315.646 381.842C315.72 381.396 315.752 381.173 315.816 380.727H320.754C320.892 380.143 320.967 379.846 321.115 379.261H314.265C314.138 380.323 314.074 380.801 313.957 381.842H295.266ZM313.32 387.29H309.263C309.263 385.697 309.327 384.901 309.38 383.308H313.787C313.554 384.901 313.469 385.697 313.32 387.29ZM309.072 392.738C309.072 391.145 309.146 390.349 309.189 388.766H313.118L312.64 392.738H309.072ZM303.762 388.766H307.681C307.681 390.349 307.681 391.145 307.681 392.738H304.102C304.006 391.145 303.932 390.349 303.762 388.766ZM303.263 383.308H307.67C307.67 384.901 307.67 385.697 307.67 387.29H303.656C303.507 385.697 303.433 384.901 303.295 383.308H303.263ZM298.378 388.766H302.307C302.498 390.349 302.605 391.145 302.806 392.738H299.227L298.378 388.766ZM297.21 383.308H301.638C301.829 384.901 301.935 385.697 302.127 387.29H298.07L297.21 383.308Z" fill="white"/>
<path d="M312.428 402.01C313.396 402.01 314.18 401.225 314.18 400.257C314.18 399.289 313.396 398.505 312.428 398.505C311.46 398.505 310.676 399.289 310.676 400.257C310.676 401.225 311.46 402.01 312.428 402.01Z" fill="white"/>
<path d="M299.992 402.01C300.96 402.01 301.744 401.225 301.744 400.257C301.744 399.289 300.96 398.505 299.992 398.505C299.024 398.505 298.24 399.289 298.24 400.257C298.24 401.225 299.024 402.01 299.992 402.01Z" fill="white"/>
<g opacity="0.5">
<path d="M214.119 381.842C214.66 384.019 214.926 385.113 215.467 387.29C215.605 387.874 215.68 388.172 215.828 388.766C216.37 390.943 216.636 392.037 217.177 394.214H231.323C231.249 394.788 231.217 395.075 231.153 395.648H218.144C218.282 396.243 218.345 396.54 218.483 397.124H232.151L232.597 394.214C232.927 392.037 233.097 390.943 233.426 388.766C233.511 388.172 233.564 387.874 233.649 387.29C233.978 385.113 234.148 384.019 234.477 381.842L234.647 380.727H239.596C239.734 380.143 239.808 379.846 239.957 379.261H233.107C232.98 380.323 232.916 380.801 232.799 381.842H214.119ZM232.173 387.29H228.116L228.233 383.308H232.608C232.428 384.901 232.332 385.697 232.151 387.29H232.173ZM227.925 392.738C227.978 391.145 227.999 390.349 228.041 388.766H231.971L231.493 392.738H227.925ZM222.668 388.766H226.587C226.587 390.349 226.587 391.145 226.587 392.738H223.05C222.88 391.145 222.806 390.349 222.668 388.766ZM222.158 383.308H226.576C226.576 384.901 226.576 385.697 226.576 387.29H222.519L222.158 383.308ZM217.283 388.766H221.213L221.701 392.738H218.133L217.283 388.766ZM216.115 383.308H220.533C220.724 384.901 220.83 385.697 221.022 387.29H216.965L216.115 383.308Z" fill="white"/>
<path d="M231.302 402.01C232.27 402.01 233.054 401.225 233.054 400.257C233.054 399.289 232.27 398.505 231.302 398.505C230.334 398.505 229.55 399.289 229.55 400.257C229.55 401.225 230.334 402.01 231.302 402.01Z" fill="white"/>
<path d="M218.866 402.01C219.834 402.01 220.618 401.225 220.618 400.257C220.618 399.289 219.834 398.505 218.866 398.505C217.898 398.505 217.114 399.289 217.114 400.257C217.114 401.225 217.898 402.01 218.866 402.01Z" fill="white"/>
</g>
<path d="M316.888 267.061C316.888 267.061 320.202 290.839 323.175 294.939C326.149 299.038 339.509 310.38 339.509 310.38L347.952 309.148L353.612 314.458L349.513 317.294L345 315.276C342.454 315.558 339.888 315.619 337.332 315.456C333.02 315.191 316.177 303.774 313.076 297.817C309.975 291.859 306.47 269.801 306.47 269.801L316.888 267.061Z" fill="#CE7A63"/>
<path d="M319.692 273.932L318.843 274.081C318.259 268.495 315.922 251.524 309.518 255.878C303.369 260.073 305.1 271.978 305.992 276.428L304.93 276.609L305.865 279.54L320.021 276.832L319.692 273.932Z" fill="#F09999"/>
<path opacity="0.2" d="M314.382 262.707L312.821 259.351L307.925 264.279L305.111 268.527C305.189 271.185 305.495 273.832 306.024 276.439L304.962 276.619L305.897 279.55L313.883 278.021C314.773 272.966 314.941 267.81 314.382 262.707Z" fill="black"/>
<path d="M314.871 220.036C314.871 220.036 331.756 223.689 322.783 231.718L315.349 225.229L314.871 220.036Z" fill="#263238"/>
<path d="M338.309 398.335L327.561 424.662L320.106 421.763L326.117 395.595L338.309 398.335Z" fill="#CE7A63"/>
<path opacity="0.2" d="M326.648 393.737L322.411 412.184L331.597 414.233L338.84 396.466L326.648 393.737Z" fill="black"/>
<path d="M329.25 424.046C330.62 427.158 331.544 429.717 337.151 433.041C338.373 433.742 336.302 436.971 333.254 435.601C328.22 433.328 329.537 433.285 325.225 431.416C321.604 429.813 318.906 428.846 315.954 427.614C315.877 427.582 315.806 427.539 315.741 427.487C315.491 427.299 315.324 427.019 315.278 426.709C315.233 426.399 315.311 426.083 315.497 425.83L319.851 419.872C319.947 419.739 320.086 419.643 320.245 419.6C320.404 419.557 320.572 419.571 320.722 419.639L327.774 422.676C328.416 422.938 328.941 423.425 329.25 424.046Z" fill="#263238"/>
<path d="M362.363 336.463C360.993 353.455 336.589 409.624 336.589 409.624L322.103 405.588C322.103 405.588 333.169 351.628 340.39 342.697C340.39 342.697 338.033 342.697 334.242 342.771C321.041 342.888 290.445 342.867 281.619 340.52C275.322 338.842 262.164 335.475 265.689 314.405L282.002 313.842L301.001 313.184C301.001 313.184 364.296 313.29 362.363 336.463Z" fill="#263238"/>
<path opacity="0.2" d="M334.242 342.771C321.041 342.888 290.445 342.867 281.619 340.52C275.322 338.842 262.164 335.475 265.689 314.405L282.002 313.842C294.841 315.361 311.621 317.899 323.059 322.816C328.624 325.206 332.489 329.517 333.626 334.594C334.017 337.302 334.222 340.035 334.242 342.771Z" fill="black"/>
<path d="M313.118 397.401L307.745 424.237L299.663 423.866L300.619 397.029L313.118 397.401Z" fill="#CE7A63"/>
<path opacity="0.2" d="M313.118 397.401L300.619 397.029L300.066 413.076L309.911 413.426L313.118 397.401Z" fill="black"/>
<path d="M308.977 424.874C310.294 428.06 311.101 430.737 316.761 434.284C317.972 435.07 315.763 438.309 312.715 436.801C307.66 434.326 309.008 434.337 304.665 432.287C301.001 430.556 298.293 429.483 295.33 428.135L295.107 428.029C294.981 427.931 294.876 427.809 294.797 427.671C294.719 427.532 294.669 427.379 294.65 427.221C294.631 427.063 294.644 426.903 294.688 426.75C294.732 426.596 294.806 426.454 294.905 426.329L299.525 420.371C299.624 420.239 299.766 420.145 299.927 420.107C300.088 420.068 300.258 420.086 300.406 420.159L307.479 423.462C308.137 423.73 308.67 424.234 308.977 424.874Z" fill="#263238"/>
<path d="M256.153 314.352C256.153 314.352 251.533 330.951 259.169 337.504C269.842 346.669 308.403 343.876 308.403 343.876C301.744 365.19 298.771 407.532 298.771 407.532H313.225C313.225 407.532 332.914 349.61 330.004 334.636C327.094 319.662 275.439 314.363 275.439 314.363L256.153 314.352Z" fill="#263238"/>
<path d="M320.818 407.266L337.215 411.398L340.56 404.378L322.549 399.27L320.818 407.266Z" fill="#F09999"/>
<path d="M297.337 409.592L314.064 410.452L315.795 403.093L297.337 402.232V409.592Z" fill="#F09999"/>
<path d="M305.005 291.402C309.253 278.881 314.563 269.355 315.179 258.682C300.64 237.697 272.21 250.101 272.21 250.101C255.006 282.386 256.153 314.352 256.153 314.352C295.245 314.352 297.486 313.683 297.486 313.683C297.486 313.683 297.624 308.192 305.005 291.402Z" fill="#F09999"/>
<path opacity="0.2" d="M291.878 249.485C292.505 253.181 293.811 259.85 295.362 260.817C297.486 262.112 300.672 260.296 300.672 260.296C300.672 260.296 303.252 263.79 305.982 261.464C307.514 259.997 308.71 258.214 309.486 256.239C308.683 257.608 307.669 258.841 306.481 259.893C303.72 262.208 301.171 258.725 301.171 258.725C301.171 258.725 297.985 260.53 295.861 259.245C294.459 258.406 292.824 253.128 291.878 249.485Z" fill="black"/>
<path d="M295.383 244.387L299.259 245.715L296.222 248.381L295.383 244.387Z" fill="#F09999"/>
<path opacity="0.2" d="M295.383 244.387L299.259 245.715L296.222 248.381L295.383 244.387Z" fill="black"/>
<path d="M307.702 248.381L308.764 251.567C308.764 251.567 303.221 257.365 301.628 257.429C300.035 257.493 295.362 246.522 295.362 246.522C301.532 243.729 300.959 240.66 300.959 240.66L307.702 248.381Z" fill="#CE7A63"/>
<path opacity="0.2" d="M305.684 254.53C307.32 253.032 308.785 251.513 308.785 251.513L307.723 248.327L301.723 241.393C300.937 244.462 300.173 250.77 305.684 254.53Z" fill="black"/>
<path d="M310.867 253.818C309.869 256.154 308.393 258.256 306.534 259.988C303.762 262.303 301.224 258.831 301.224 258.831C301.224 258.831 298.038 260.625 295.914 259.34C293.79 258.055 291.018 246.267 291.018 246.267L295.383 244.387L301.394 257.131L309.497 250.43L310.867 253.818Z" fill="#F09999"/>
<path d="M300.746 229.891C300.737 228.005 301.225 226.151 302.159 224.513C303.094 222.875 304.443 221.513 306.071 220.561C307.7 219.61 309.549 219.104 311.435 219.094C313.321 219.083 315.176 219.569 316.814 220.503C324.524 224.655 324.737 236.783 322.443 243.867C321.888 245.728 320.835 247.401 319.396 248.704C317.957 250.008 316.189 250.893 314.283 251.261C312.377 251.63 310.406 251.47 308.585 250.797C306.764 250.124 305.162 248.965 303.953 247.446C300.172 242.794 300.661 238.026 300.767 229.838L300.746 229.891Z" fill="#CE7A63"/>
<path d="M315.104 234.967C315.55 234.967 315.827 235.615 315.71 236.263C315.593 236.911 315.2 237.325 314.765 237.325C314.329 237.325 314.053 236.677 314.159 236.029C314.265 235.382 314.658 234.936 315.104 234.967Z" fill="#263238"/>
<path d="M322.464 236.348C322.921 236.348 323.197 236.975 323.091 237.633C322.984 238.291 322.57 238.695 322.124 238.695C321.678 238.695 321.423 238.058 321.519 237.399C321.614 236.741 322.018 236.295 322.464 236.348Z" fill="#263238"/>
<path d="M313.129 233.417C313.509 233.123 313.955 232.924 314.428 232.837C314.901 232.751 315.388 232.778 315.848 232.918C315.942 232.948 316.045 232.941 316.134 232.898C316.223 232.854 316.292 232.777 316.326 232.684C316.355 232.587 316.347 232.482 316.304 232.39C316.261 232.298 316.185 232.225 316.092 232.185C315.5 232.007 314.873 231.976 314.266 232.095C313.659 232.213 313.091 232.477 312.609 232.865C312.553 232.902 312.509 232.954 312.483 233.016C312.457 233.078 312.45 233.146 312.462 233.211C312.474 233.277 312.506 233.338 312.553 233.386C312.6 233.434 312.66 233.467 312.725 233.481C312.79 233.515 312.865 233.528 312.938 233.516C313.011 233.505 313.078 233.47 313.129 233.417Z" fill="#263238"/>
<path d="M324.322 235.488C324.408 235.433 324.47 235.347 324.493 235.248C324.517 235.149 324.502 235.045 324.45 234.957C324.148 234.413 323.723 233.948 323.208 233.6C322.693 233.251 322.104 233.028 321.487 232.95C321.405 232.952 321.326 232.982 321.263 233.034C321.199 233.085 321.155 233.157 321.136 233.236C321.124 233.286 321.121 233.338 321.129 233.388C321.137 233.439 321.154 233.487 321.181 233.531C321.208 233.574 321.243 233.612 321.284 233.642C321.326 233.671 321.373 233.693 321.423 233.704C321.921 233.78 322.395 233.97 322.808 234.259C323.22 234.548 323.561 234.929 323.802 235.371C323.83 235.427 323.873 235.475 323.925 235.51C323.977 235.546 324.037 235.567 324.099 235.573C324.18 235.566 324.258 235.537 324.322 235.488Z" fill="#263238"/>
<path d="M318.099 243.591C318.599 243.819 319.143 243.937 319.692 243.937C320.242 243.937 320.785 243.819 321.285 243.591C320.31 241.61 319.596 239.511 319.161 237.346L318.099 243.591Z" fill="#BA4D3C"/>
<path d="M300.236 235.191C297.05 223.615 302.201 220.599 307.766 218.517C313.331 216.436 316.421 218.432 318.195 220.386C318.747 221.002 319.851 222.85 316.283 223.094C314.122 223.178 311.959 223.01 309.837 222.595C309.413 222.521 308.976 222.565 308.575 222.722C308.174 222.88 307.825 223.144 307.564 223.487C306.332 225.102 304.378 228.118 304.378 230.751C304.452 231.753 304.306 232.759 303.95 233.698C303.595 234.638 303.037 235.488 302.318 236.189L300.236 235.191Z" fill="#263238"/>
<path d="M296.222 293.367C296.499 293.369 296.769 293.453 296.999 293.609C297.228 293.765 297.406 293.985 297.51 294.242C297.614 294.499 297.64 294.781 297.584 295.053C297.528 295.324 297.392 295.573 297.195 295.767C296.997 295.962 296.747 296.094 296.474 296.146C296.202 296.198 295.92 296.168 295.665 296.06C295.41 295.952 295.192 295.77 295.04 295.539C294.887 295.307 294.807 295.035 294.809 294.758C294.809 294.573 294.846 294.389 294.918 294.218C294.99 294.047 295.095 293.892 295.228 293.763C295.361 293.633 295.518 293.531 295.69 293.463C295.863 293.395 296.047 293.363 296.232 293.367H296.222Z" fill="#F09999"/>
<path d="M293.142 308.192C293.326 308.192 293.508 308.229 293.679 308.299C293.849 308.37 294.003 308.473 294.133 308.603C294.264 308.733 294.367 308.888 294.437 309.058C294.508 309.228 294.544 309.41 294.544 309.594C294.544 309.778 294.508 309.961 294.437 310.131C294.367 310.301 294.264 310.455 294.133 310.585C294.003 310.716 293.849 310.819 293.679 310.889C293.508 310.96 293.326 310.996 293.142 310.996C292.769 310.993 292.413 310.843 292.15 310.579C291.888 310.314 291.74 309.956 291.74 309.584C291.74 309.4 291.777 309.218 291.847 309.049C291.918 308.879 292.021 308.725 292.151 308.596C292.282 308.467 292.436 308.365 292.606 308.295C292.776 308.226 292.958 308.191 293.142 308.192Z" fill="#F09999"/>
<path d="M300.321 232.578C302.573 232.981 303.656 236.157 303.677 238.238C303.698 240.32 302.084 242.157 300.098 240.83C298.591 239.789 297.53 238.219 297.125 236.433C296.689 234.192 298.08 232.132 300.321 232.578Z" fill="#CE7A63"/>
<path d="M310.601 243.474C313.041 244.163 315.41 245.084 317.674 246.225C316.976 246.973 316.041 247.457 315.028 247.596C314.014 247.735 312.984 247.521 312.109 246.989C311.771 246.87 311.46 246.681 311.198 246.435C310.936 246.19 310.727 245.892 310.585 245.562C310.444 245.232 310.372 244.876 310.375 244.516C310.378 244.157 310.455 243.802 310.601 243.474Z" fill="#263238"/>
<path d="M313.862 246.384C312.886 245.863 311.771 245.666 310.676 245.821C311.012 246.36 311.505 246.782 312.088 247.032C313.063 247.555 314.179 247.752 315.274 247.595C314.947 247.049 314.451 246.624 313.862 246.384Z" fill="#A02724"/>
<path d="M310.856 243.538C310.819 243.747 310.841 243.962 310.92 244.159C310.999 244.356 311.131 244.527 311.302 244.653C312.805 245.348 314.365 245.913 315.964 246.342C316.21 246.434 316.475 246.463 316.735 246.426C316.995 246.389 317.241 246.287 317.451 246.129C315.324 245.095 313.118 244.229 310.856 243.538Z" fill="white"/>
<path d="M318.989 321.446L338.211 321.55L338.228 318.46L319.006 318.356L318.989 321.446Z" fill="#263238"/>
<path d="M320.57 321.459L296.144 321.326C295.955 321.325 295.767 321.287 295.592 321.214C295.418 321.14 295.259 321.033 295.125 320.898C294.992 320.763 294.887 320.603 294.815 320.428C294.743 320.252 294.707 320.064 294.708 319.874L294.717 318.239L320.587 318.379L320.57 321.469L320.57 321.459Z" fill="#263238"/>
<path opacity="0.3" d="M320.57 321.459L296.144 321.326C295.955 321.325 295.767 321.287 295.592 321.214C295.418 321.14 295.259 321.033 295.125 320.898C294.992 320.763 294.887 320.603 294.815 320.428C294.743 320.252 294.707 320.064 294.708 319.874L294.717 318.239L320.587 318.379L320.57 321.469L320.57 321.459Z" fill="white"/>
<path d="M313.609 320.426L316.7 320.443L316.706 319.349L313.615 319.332L313.609 320.426Z" fill="#263238"/>
<path d="M308.788 320.42L311.878 320.437L311.884 319.343L308.793 319.326L308.788 320.42Z" fill="#263238"/>
<path d="M324.237 318.409L322.188 318.398L330.365 290.552L332.415 290.563L324.237 318.409Z" fill="#263238"/>
<path opacity="0.3" d="M324.237 318.409L322.188 318.398L330.365 290.552L332.415 290.563L324.237 318.409Z" fill="white"/>
<path d="M323.483 318.409L359.56 318.6L367.737 290.744L331.661 290.552L323.483 318.409Z" fill="#263238"/>
<path opacity="0.6" d="M323.483 318.409L359.56 318.6L367.737 290.744L331.661 290.552L323.483 318.409Z" fill="white"/>
<path d="M321.721 318.398L359.273 318.6C359.899 318.6 360.409 319.301 360.409 320.15C360.409 321 359.889 321.69 359.252 321.69L321.699 321.489C321.073 321.489 320.563 320.788 320.563 319.938C320.563 319.089 321.083 318.398 321.721 318.398Z" fill="#263238"/>
<path opacity="0.5" d="M321.721 318.398L359.273 318.6C359.899 318.6 360.409 319.301 360.409 320.15C360.409 321 359.889 321.69 359.252 321.69L321.699 321.489C321.073 321.489 320.563 320.788 320.563 319.938C320.563 319.089 321.083 318.398 321.721 318.398Z" fill="white"/>
<path d="M320.563 319.938C320.563 320.788 321.073 321.478 321.699 321.489C322.326 321.499 322.846 320.798 322.857 319.949C322.868 319.099 322.347 318.398 321.721 318.398C321.094 318.398 320.574 319.089 320.563 319.938Z" fill="#263238"/>
<path opacity="0.3" d="M320.563 319.938C320.563 320.788 321.073 321.478 321.699 321.489C322.326 321.499 322.846 320.798 322.857 319.949C322.868 319.099 322.347 318.398 321.721 318.398C321.094 318.398 320.574 319.089 320.563 319.938Z" fill="white"/>
<path opacity="0.2" d="M285.103 292.613C283.372 290.234 281.534 281.419 280.249 274.134L281.917 273.815L281.524 270.799L280.653 270.959C280.048 265.266 277.69 248.147 271.307 251.843C269.449 255.453 267.813 259.085 266.39 262.675C266.264 266.264 266.571 269.854 267.304 273.369L266.242 273.56L267.219 276.608L269.481 276.184C270.83 283.214 272.794 292.114 274.621 295.639C277.021 300.27 287.365 308.001 294.289 311.761C302.074 310.38 303.847 309.403 303.847 309.403C303.624 309.11 303.442 308.789 303.305 308.447L302.052 308.628C302.052 308.628 288.193 296.871 285.103 292.613Z" fill="black"/>
<path d="M283.202 263.78C283.202 263.78 285.475 288.598 288.363 292.995C291.252 297.392 304.559 309.817 304.559 309.817L313.373 308.946L318.981 314.777L314.595 317.538L310.007 315.212C307.352 315.387 304.686 315.327 302.042 315.032C297.592 314.543 280.674 301.927 277.743 295.555C274.812 289.183 272.253 266.169 272.253 266.169L283.202 263.78Z" fill="#CE7A63"/>
<path d="M285.177 269.132L284.296 269.291C283.69 263.493 281.258 245.864 274.621 250.388C268.249 254.742 270.022 267.104 270.957 271.723L269.895 271.914L270.872 274.962L285.57 272.148L285.177 269.132Z" fill="#F09999"/>
<path d="M70.3556 354.241L67.8174 354.103L68.4121 342.591C68.6555 338.775 70.3313 335.192 73.104 332.559C75.8768 329.926 79.5417 328.438 83.3651 328.392C85.219 328.373 87.0568 328.738 88.7637 329.461C90.4705 330.185 92.0098 331.253 93.2855 332.599C94.5611 333.944 95.5457 335.538 96.1777 337.281C96.8097 339.024 97.0755 340.878 96.9587 342.729L96.3533 354.241L93.8151 354.103L94.4205 342.591C94.5217 341.083 94.3099 339.571 93.7984 338.15C93.2869 336.729 92.4869 335.428 91.4485 334.331C90.4101 333.234 89.1559 332.363 87.7647 331.774C86.3736 331.185 84.8756 330.891 83.3651 330.909C80.1905 330.948 77.148 332.186 74.8477 334.374C72.5473 336.562 71.1589 339.539 70.9609 342.708L70.3556 354.241Z" fill="#263238"/>
<path d="M124.804 349.122H49.7527L47.2039 438.171L58.3336 435.622L69.4634 438.171H127.353L124.804 349.122Z" fill="#F09999"/>
<path opacity="0.6" d="M124.804 349.122H49.7527L47.2039 438.171L58.3336 435.622L69.4634 438.171H127.353L124.804 349.122Z" fill="white"/>
<path d="M69.4634 438.171L58.3336 435.622L47.2039 438.171L49.7527 349.122H66.9252L69.4634 438.171Z" fill="#F09999"/>
<path opacity="0.3" d="M69.4634 438.171L58.3336 435.622L47.2039 438.171L49.7527 349.122H66.9252L69.4634 438.171Z" fill="white"/>
<path d="M108.917 354.241L108.354 342.729C108.156 339.558 106.766 336.58 104.463 334.392C102.161 332.203 99.1156 330.967 95.9391 330.93C94.4294 330.913 92.9326 331.209 91.5428 331.799C90.1529 332.388 88.9 333.259 87.8627 334.356C86.8255 335.453 86.0264 336.753 85.5155 338.174C85.0047 339.595 84.7932 341.106 84.8943 342.612L85.4997 354.124L82.9615 354.262L82.3561 342.75C82.2377 340.9 82.5022 339.046 83.133 337.303C83.7637 335.56 84.7473 333.966 86.0221 332.62C87.2969 331.275 88.8356 330.207 90.5419 329.483C92.2483 328.759 94.0856 328.395 95.9391 328.413C99.7632 328.456 103.43 329.944 106.203 332.577C108.976 335.211 110.651 338.795 110.892 342.612L111.497 354.124L108.917 354.241Z" fill="#263238"/>
<g opacity="0.2">
<path d="M108.917 354.241L108.354 342.729C108.156 339.558 106.766 336.58 104.463 334.392C102.161 332.203 99.1156 330.967 95.9391 330.93C94.4294 330.913 92.9326 331.209 91.5428 331.799C90.1529 332.388 88.9 333.259 87.8627 334.356C86.8255 335.453 86.0264 336.753 85.5155 338.174C85.0047 339.595 84.7932 341.106 84.8943 342.612L85.4997 354.124L82.9615 354.262L82.3561 342.75C82.2377 340.9 82.5022 339.046 83.133 337.303C83.7637 335.56 84.7473 333.966 86.0221 332.62C87.2969 331.275 88.8356 330.207 90.5419 329.483C92.2483 328.759 94.0856 328.395 95.9391 328.413C99.7632 328.456 103.43 329.944 106.203 332.577C108.976 335.211 110.651 338.795 110.892 342.612L111.497 354.124L108.917 354.241Z" fill="white"/>
</g>
<path d="M114.662 381.64H79.7649C78.9789 381.64 78.3418 382.278 78.3418 383.063V388.703C78.3418 389.489 78.9789 390.126 79.7649 390.126H114.662C115.448 390.126 116.085 389.489 116.085 388.703V383.063C116.085 382.278 115.448 381.64 114.662 381.64Z" fill="white"/>
<path d="M35.8617 381.906L34.1519 381.81L34.5554 374.1C34.7083 371.535 35.8275 369.122 37.6877 367.349C39.5478 365.575 42.0108 364.573 44.5807 364.542C45.8189 364.53 47.0463 364.772 48.187 365.254C49.3276 365.736 50.357 366.447 51.2114 367.343C52.0658 368.239 52.7269 369.302 53.1538 370.464C53.5806 371.626 53.764 372.864 53.6927 374.1L53.2891 381.821L51.5899 381.725L51.9935 374.015C52.058 373.004 51.9128 371.991 51.5671 371.039C51.2214 370.087 50.6826 369.217 49.9845 368.483C49.2864 367.749 48.4442 367.167 47.5106 366.774C46.577 366.381 45.5723 366.185 44.5595 366.199C42.4323 366.224 40.3934 367.052 38.8512 368.518C37.3091 369.983 36.3778 371.977 36.244 374.1L35.8617 381.906Z" fill="#263238"/>
<path d="M72.3627 378.476H22.0452L20.3459 438.171L27.8012 436.461L35.2671 438.171H74.0725L72.3627 378.476Z" fill="#F09999"/>
<path d="M35.267 438.171L27.8012 436.461L20.3459 438.171L22.0452 378.476H33.5572L35.267 438.171Z" fill="#F09999"/>
<path opacity="0.2" d="M35.267 438.171L27.8012 436.461L20.3459 438.171L22.0452 378.476H33.5572L35.267 438.171Z" fill="black"/>
<path d="M61.7108 381.906L61.3073 374.185C61.1589 372.066 60.2216 370.079 58.6803 368.616C57.1391 367.153 55.1057 366.321 52.9812 366.284C51.9675 366.267 50.9613 366.461 50.0262 366.853C49.0912 367.244 48.2476 367.826 47.5489 368.561C46.8502 369.295 46.3115 370.167 45.9669 371.121C45.6224 372.074 45.4795 373.089 45.5472 374.1L45.9508 381.81L44.2516 381.906L43.8374 374.185C43.7676 372.949 43.9521 371.713 44.3795 370.551C44.8069 369.389 45.4681 368.328 46.3222 367.432C47.1763 366.536 48.2051 365.825 49.345 365.342C50.4849 364.86 51.7116 364.617 52.9494 364.627C55.5193 364.658 57.9822 365.661 59.8424 367.434C61.7025 369.207 62.8217 371.62 62.9746 374.185L63.3782 381.895L61.7108 381.906Z" fill="#263238"/>
<g opacity="0.2">
<path d="M61.7108 381.906L61.3073 374.185C61.1589 372.066 60.2216 370.079 58.6803 368.616C57.1391 367.153 55.1057 366.321 52.9812 366.284C51.9675 366.267 50.9613 366.461 50.0262 366.853C49.0912 367.244 48.2476 367.826 47.5489 368.561C46.8502 369.295 46.3115 370.167 45.9669 371.121C45.6224 372.074 45.4795 373.089 45.5472 374.1L45.9508 381.81L44.2516 381.906L43.8374 374.185C43.7676 372.949 43.9521 371.713 44.3795 370.551C44.8069 369.389 45.4681 368.328 46.3222 367.432C47.1763 366.536 48.2051 365.825 49.345 365.342C50.4849 364.86 51.7116 364.617 52.9494 364.627C55.5193 364.658 57.9822 365.661 59.8424 367.434C61.7025 369.207 62.8217 371.62 62.9746 374.185L63.3782 381.895L61.7108 381.906Z" fill="white"/>
</g>
<path d="M65.0881 400.279H42.6374C41.8515 400.279 41.2144 400.916 41.2144 401.702V404.537C41.2144 405.323 41.8515 405.96 42.6374 405.96H65.0881C65.8741 405.96 66.5112 405.323 66.5112 404.537V401.702C66.5112 400.916 65.8741 400.279 65.0881 400.279Z" fill="white"/>
<path d="M113.324 432.34L105.242 431.501L105.646 412.619L113.728 413.458L113.324 432.34Z" fill="#B55B52"/>
<path d="M181.696 405.259L174.464 408.944L163.589 393.354L170.831 389.669L181.696 405.259Z" fill="#B55B52"/>
<path d="M172.956 407.935L180.39 402.625C180.516 402.533 180.672 402.489 180.828 402.503C180.985 402.517 181.131 402.587 181.239 402.7L186.273 408.01C186.395 408.146 186.488 408.307 186.544 408.482C186.6 408.657 186.618 408.841 186.598 409.023C186.578 409.206 186.52 409.382 186.427 409.54C186.335 409.699 186.21 409.836 186.061 409.942C183.438 411.748 182.078 412.481 178.807 414.817C176.8 416.251 174.007 418.555 171.235 420.531C168.463 422.506 166.35 419.872 167.327 418.8C171.713 413.989 171.437 411.865 172.138 409.157C172.256 408.665 172.546 408.232 172.956 407.935Z" fill="#263238"/>
<path d="M104.552 430.482L113.632 431.427C113.788 431.44 113.934 431.51 114.042 431.623C114.15 431.737 114.212 431.886 114.216 432.043L114.503 439.339C114.504 439.523 114.466 439.704 114.392 439.873C114.318 440.041 114.209 440.192 114.073 440.315C113.937 440.438 113.776 440.531 113.601 440.588C113.426 440.645 113.242 440.664 113.059 440.645C109.873 440.252 108.397 439.912 104.404 439.498C101.94 439.233 94.8456 438.755 91.4684 438.436C88.0913 438.117 88.2824 434.708 89.6949 434.549C96.1624 433.848 100.835 432.425 103.15 430.864C103.558 430.576 104.055 430.44 104.552 430.482Z" fill="#263238"/>
<g opacity="0.2">
<path d="M105.646 412.619L105.434 422.357L113.526 423.196L113.728 413.468L105.646 412.619Z" fill="black"/>
<path d="M170.831 389.679L163.589 393.365L169.196 401.393L176.439 397.708L170.831 389.679Z" fill="black"/>
</g>
<path d="M109.512 249.496C109.512 249.496 101.133 311.867 100.92 336.654C100.665 362.439 103.936 420.318 103.936 420.318L114.864 421.455C114.864 421.455 119.303 364.531 121.066 339.266C122.999 311.708 133.704 250.271 133.704 250.271L109.512 249.496Z" fill="#263238"/>
<path d="M115.735 421.933L102.906 420.594L102.396 416.41L116.808 417.408L115.735 421.933Z" fill="#F09999"/>
<path opacity="0.6" d="M123.222 265.5C114.599 281.547 120.142 311.484 122.659 322.635C124.645 306.068 127.767 285.837 130.167 270.99C129.233 262.516 127.226 258.119 123.222 265.5Z" fill="black"/>
<path d="M118.22 249.772C118.22 249.772 123.647 315.053 128.628 336.112C134.543 361.122 166.594 400.608 166.594 400.608L176.471 395.584C176.471 395.584 154.753 351.702 150.048 338.47C139.991 310.253 150.664 269.005 142.497 250.536L118.22 249.772Z" fill="#263238"/>
<path d="M177.873 395.521L165.617 401.755L162.357 398.569L176.439 390.582L177.873 395.521Z" fill="#F09999"/>
<path d="M170.099 411.27H170.003C169.817 411.247 169.64 411.174 169.491 411.061C169.342 410.947 169.225 410.796 169.154 410.622C169.095 410.522 169.064 410.409 169.064 410.293C169.064 410.177 169.095 410.063 169.154 409.964C169.674 409.061 172.605 408.902 172.934 408.902C172.973 408.901 173.01 408.911 173.043 408.932C173.075 408.953 173.1 408.983 173.115 409.018C173.138 409.047 173.151 409.083 173.151 409.119C173.151 409.156 173.138 409.192 173.115 409.22C172.403 410.017 171.118 411.302 170.099 411.27ZM172.488 409.316C171.32 409.401 169.759 409.677 169.483 410.144C169.457 410.189 169.443 410.241 169.443 410.293C169.443 410.345 169.457 410.396 169.483 410.442C169.53 410.557 169.607 410.658 169.706 410.735C169.805 410.811 169.922 410.86 170.046 410.877C170.598 410.994 171.501 410.367 172.488 409.316Z" fill="#F09999"/>
<path d="M172.669 409.295C171.66 409.295 169.823 408.732 169.483 407.957C169.421 407.817 169.409 407.66 169.45 407.513C169.49 407.366 169.581 407.237 169.706 407.149C169.812 407.047 169.939 406.97 170.079 406.924C170.219 406.878 170.367 406.865 170.513 406.884C171.692 407.011 173.051 408.902 173.115 409.008C173.131 409.037 173.139 409.07 173.139 409.104C173.139 409.137 173.131 409.17 173.115 409.199C173.1 409.229 173.078 409.255 173.05 409.274C173.022 409.292 172.989 409.303 172.956 409.305C172.86 409.312 172.764 409.309 172.669 409.295ZM170.407 407.266C170.324 407.259 170.24 407.27 170.162 407.297C170.083 407.325 170.011 407.369 169.95 407.426C169.77 407.596 169.791 407.712 169.823 407.797C170.056 408.318 171.575 408.859 172.563 408.912C172.074 408.307 171.161 407.341 170.439 407.266H170.407Z" fill="#F09999"/>
<path d="M101.377 431.575C100.678 431.567 100.004 431.32 99.4652 430.874C99.3467 430.747 99.2614 430.592 99.217 430.423C99.1725 430.255 99.1703 430.078 99.2104 429.908C99.2289 429.803 99.2736 429.704 99.3404 429.62C99.4072 429.537 99.494 429.471 99.5927 429.43C100.655 428.995 103.692 430.97 104.032 431.204C104.066 431.223 104.093 431.254 104.108 431.29C104.124 431.327 104.127 431.367 104.117 431.405C104.108 431.445 104.087 431.481 104.056 431.508C104.026 431.534 103.987 431.551 103.947 431.554C103.093 431.642 102.232 431.649 101.377 431.575ZM100.102 429.749C99.9832 429.725 99.8606 429.725 99.7414 429.749C99.7013 429.767 99.6665 429.795 99.6405 429.83C99.6144 429.865 99.598 429.907 99.5927 429.951C99.5631 430.06 99.5622 430.175 99.5901 430.285C99.618 430.394 99.6738 430.495 99.752 430.577C100.198 431.076 101.515 431.289 103.342 431.182C102.349 430.529 101.254 430.044 100.102 429.749Z" fill="#F09999"/>
<path d="M103.904 431.554C103.904 431.554 103.851 431.554 103.83 431.554C102.917 431.023 101.186 429.08 101.43 428.177C101.494 427.965 101.674 427.71 102.205 427.71C102.404 427.705 102.601 427.743 102.784 427.82C102.967 427.897 103.131 428.011 103.267 428.156C104.191 429.112 104.159 431.342 104.149 431.395C104.15 431.428 104.141 431.461 104.124 431.489C104.108 431.517 104.083 431.54 104.053 431.554C104.005 431.572 103.952 431.572 103.904 431.554ZM102.322 428.071H102.205C101.855 428.071 101.823 428.198 101.802 428.251C101.664 428.793 102.81 430.29 103.734 430.991C103.747 430.065 103.477 429.158 102.959 428.39C102.79 428.213 102.565 428.101 102.322 428.071Z" fill="#F09999"/>
<path d="M106.028 216.34C103.021 220.357 99.6506 224.09 95.9605 227.491C94.0084 229.323 91.8732 230.949 89.5885 232.344C88.2424 233.17 86.7924 233.813 85.2768 234.256C84.3175 234.533 83.3229 234.669 82.3244 234.659C81.7279 234.653 81.1336 234.585 80.5509 234.458C80.2535 234.383 79.9349 234.288 79.6376 234.181C79.2884 234.059 78.9508 233.907 78.6287 233.725C77.8778 233.319 77.2224 232.758 76.7064 232.079C76.3109 231.577 75.9857 231.023 75.74 230.433C75.3763 229.578 75.1298 228.677 75.0073 227.756C74.8206 226.331 74.7673 224.891 74.8479 223.455C75.0249 220.917 75.3797 218.393 75.9099 215.904C76.8827 211.104 78.2103 206.383 79.8818 201.78L84.2785 202.916C83.6519 207.536 83.0678 212.251 82.7174 216.818C82.5249 219.032 82.4682 221.255 82.5474 223.476C82.5682 224.424 82.6856 225.367 82.8979 226.291C82.9496 226.547 83.0391 226.794 83.1634 227.024C83.2271 227.13 83.1634 226.801 82.5474 226.408C82.3244 226.301 82.3988 226.312 82.3457 226.301C82.5305 226.259 82.7116 226.202 82.8873 226.131C83.6362 225.826 84.3486 225.438 85.0113 224.974C86.7131 223.759 88.3147 222.409 89.8009 220.938C91.3833 219.398 92.9019 217.752 94.3994 216.021C95.8968 214.29 97.3942 212.527 98.7642 210.839L106.028 216.34Z" fill="#B55B52"/>
<path d="M104.255 204.647C100.931 203.734 91.0647 216.329 91.0647 216.329L100.495 226.854C100.495 226.854 111.551 216.871 111.115 212.4C110.701 207.727 109.119 206.028 104.255 204.647Z" fill="#F09999"/>
<path d="M84.3953 201.78L84.0236 195.164L77.6516 200.41C77.6516 200.41 78.618 205.539 81.8359 206.559L83.8218 203.766C84.2284 203.186 84.4302 202.487 84.3953 201.78Z" fill="#B55B52"/>
<path d="M79.8713 189.705L74.7737 194.399L77.6411 200.389L84.0237 195.143L79.8713 189.705Z" fill="#B55B52"/>
<path d="M77.2801 202.502L75.8039 201.971C75.4052 201.821 75.0718 201.536 74.8622 201.165C74.6525 200.794 74.5799 200.362 74.6569 199.943L76.8977 188.027L80.9227 189.493L79.6802 201.005C79.6535 201.277 79.5647 201.539 79.4206 201.771C79.2765 202.004 79.0809 202.2 78.8489 202.345C78.617 202.489 78.3549 202.579 78.0828 202.606C77.8108 202.633 77.5362 202.598 77.2801 202.502Z" fill="#263238"/>
<path d="M87.8895 187.368C88.1443 186.678 88.3886 185.998 88.6116 185.319C87.7048 183.857 86.4908 182.611 85.0539 181.666C84.5229 182.972 83.9919 184.342 83.4715 185.754C82.9512 187.167 82.4839 188.558 82.0591 189.907C83.7682 190.105 85.4998 189.931 87.1354 189.397C87.3903 188.728 87.6452 188.059 87.8895 187.368Z" fill="#263238"/>
<path d="M85.2237 186.402C85.8514 184.748 86.3034 183.032 86.5725 181.283L73.3718 176.472L69.7822 186.338L82.9935 191.16C83.8996 189.655 84.647 188.061 85.2237 186.402Z" fill="#F09999"/>
<path opacity="0.6" d="M85.2237 186.402C85.8514 184.748 86.3034 183.032 86.5725 181.283L73.3718 176.472L69.7822 186.338L82.9935 191.16C83.8996 189.655 84.647 188.061 85.2237 186.402Z" fill="white"/>
<path d="M76.8021 176.802C76.2074 176.579 61.9341 161.934 60.3411 161.307C58.7481 160.681 54.893 166.5 52.0469 174.317C49.2007 182.133 48.3086 188.972 50.0397 189.609C51.7707 190.247 72.0018 188.112 72.6072 188.324C73.2125 188.537 74.8268 186.2 75.9844 183.014C77.1419 179.828 77.5561 177.057 76.8021 176.802Z" fill="#F09999"/>
<path opacity="0.4" d="M76.8021 176.802C76.2074 176.579 61.9341 161.934 60.3411 161.307C58.7481 160.681 54.893 166.5 52.0469 174.317C49.2007 182.133 48.3086 188.972 50.0397 189.609C51.7707 190.247 72.0018 188.112 72.6072 188.324C73.2125 188.537 74.8268 186.2 75.9844 183.014C77.1419 179.828 77.5561 177.057 76.8021 176.802Z" fill="white"/>
<path d="M58.3339 176.6C55.4878 184.416 51.7707 190.236 50.0397 189.609C48.3086 188.983 49.2007 182.175 52.0469 174.316C54.893 166.458 58.61 160.68 60.3411 161.307C62.0722 161.934 61.1801 168.794 58.3339 176.6Z" fill="#F09999"/>
<path d="M54.192 175.071C54.0009 175.591 53.8203 176.133 53.6504 176.61C54.6305 177.839 55.8295 178.876 57.1869 179.669C57.5904 178.692 57.994 177.662 58.3869 176.6C58.7799 175.538 59.1197 174.476 59.4489 173.478C57.9 173.214 56.3158 173.239 54.7761 173.552C54.5106 174.051 54.3195 174.561 54.192 175.071Z" fill="#263238"/>
<path opacity="0.7" d="M54.192 175.071C54.0009 175.591 53.8203 176.133 53.6504 176.61C54.6305 177.839 55.8295 178.876 57.1869 179.669C57.5904 178.692 57.994 177.662 58.3869 176.6C58.7799 175.538 59.1197 174.476 59.4489 173.478C57.9 173.214 56.3158 173.239 54.7761 173.552C54.5106 174.051 54.3195 174.561 54.192 175.071Z" fill="white"/>
<path opacity="0.2" d="M101.472 212.049C101.961 219.112 100.315 223.317 99.1465 225.346L100.495 226.843C100.495 226.843 106.729 221.214 109.66 216.52C106.368 211.635 100.92 204.626 101.472 212.049Z" fill="black"/>
<path d="M138.6 171.885C143.028 171.885 146.618 168.295 146.618 163.866C146.618 159.438 143.028 155.848 138.6 155.848C134.172 155.848 130.582 159.438 130.582 163.866C130.582 168.295 134.172 171.885 138.6 171.885Z" fill="#263238"/>
<path d="M137.74 167.52C137.742 168.518 137.448 169.494 136.895 170.325C136.342 171.156 135.555 171.804 134.633 172.188C133.711 172.571 132.697 172.673 131.718 172.479C130.738 172.286 129.838 171.806 129.132 171.101C128.425 170.396 127.944 169.497 127.748 168.518C127.553 167.54 127.652 166.525 128.034 165.602C128.415 164.68 129.062 163.892 129.891 163.337C130.721 162.782 131.697 162.486 132.695 162.486C134.031 162.486 135.313 163.016 136.258 163.96C137.204 164.903 137.737 166.184 137.74 167.52Z" fill="#F09999"/>
<path d="M116.68 161.264C116.68 161.264 106.06 160.394 106.06 178.66C106.06 191.17 112.135 196.958 119.579 192.753C119.579 192.753 135.998 191.404 137.888 176.377C139.779 161.349 128.16 155.753 116.68 161.264Z" fill="#263238"/>
<path d="M102.088 205.136C102.088 205.136 98.3182 206.771 109.522 253.765L142.444 251.375C140.915 238.015 140.32 229.764 144.706 201.801C140.028 201.185 135.311 200.908 130.592 200.973C125.589 200.973 120.592 201.328 115.639 202.035C109.257 203.118 102.088 205.136 102.088 205.136Z" fill="#F09999"/>
<path d="M127.874 184.246C127.279 189.132 126.981 198.052 130.582 200.973C130.582 200.973 129.626 205.943 120.684 206.601C110.86 207.313 115.629 202.056 115.629 202.056C120.939 200.389 120.471 196.417 119.271 192.753L127.874 184.246Z" fill="#B55B52"/>
<path opacity="0.2" d="M124.369 187.719L119.271 192.753C119.565 193.603 119.786 194.477 119.93 195.365C121.958 194.919 124.603 192.466 124.666 190.31C124.726 189.436 124.626 188.557 124.369 187.719Z" fill="black"/>
<path d="M133.375 176.133C131.538 183.981 130.922 187.347 126.217 190.735C119.144 195.833 109.905 191.85 109.363 183.609C108.874 176.175 111.965 164.599 120.28 162.762C122.11 162.351 124.013 162.414 125.811 162.945C127.609 163.477 129.242 164.459 130.553 165.798C131.865 167.138 132.813 168.79 133.307 170.599C133.801 172.407 133.824 174.312 133.375 176.133Z" fill="#B55B52"/>
<path d="M119.834 176.079C119.728 176.727 119.293 177.141 118.878 177.141C118.464 177.141 118.199 176.483 118.305 175.835C118.411 175.187 118.857 174.773 119.271 174.773C119.686 174.773 119.951 175.432 119.834 176.079Z" fill="#263238"/>
<path d="M112.538 174.837C112.422 175.474 111.997 175.899 111.572 175.899C111.147 175.899 110.892 175.251 111.009 174.603C111.126 173.955 111.551 173.541 111.976 173.541C112.4 173.541 112.602 174.168 112.538 174.837Z" fill="#263238"/>
<path d="M112.156 173.605L110.68 172.883C110.68 172.883 111.264 174.232 112.156 173.605Z" fill="#263238"/>
<path d="M115.108 176.377C114.283 177.755 113.271 179.013 112.103 180.115C112.394 180.405 112.743 180.628 113.128 180.769C113.513 180.91 113.924 180.966 114.333 180.933L115.108 176.377Z" fill="#A02724"/>
<path d="M134.288 183.779C133.495 185.124 132.206 186.104 130.699 186.508C128.702 187.018 127.746 185.213 128.341 183.322C128.872 181.644 130.56 179.361 132.589 179.669C133.023 179.751 133.43 179.939 133.772 180.218C134.115 180.496 134.383 180.856 134.551 181.264C134.72 181.672 134.784 182.116 134.738 182.555C134.692 182.994 134.538 183.415 134.288 183.779Z" fill="#B55B52"/>
<path d="M123.02 175.092C122.939 175.09 122.859 175.063 122.794 175.013C122.729 174.964 122.682 174.894 122.659 174.816C122.139 173.116 119.962 172.394 119.941 172.384C119.892 172.368 119.848 172.342 119.81 172.309C119.771 172.276 119.74 172.235 119.717 172.19C119.695 172.145 119.681 172.095 119.677 172.045C119.674 171.994 119.68 171.943 119.696 171.895C119.712 171.847 119.738 171.803 119.771 171.764C119.804 171.726 119.845 171.695 119.89 171.672C119.935 171.649 119.985 171.636 120.035 171.632C120.086 171.628 120.137 171.635 120.185 171.651C120.893 171.889 121.543 172.275 122.092 172.782C122.641 173.289 123.077 173.906 123.371 174.593C123.386 174.641 123.391 174.691 123.386 174.741C123.381 174.791 123.366 174.84 123.343 174.885C123.319 174.929 123.287 174.968 123.248 175C123.209 175.032 123.164 175.056 123.116 175.071C123.086 175.084 123.053 175.091 123.02 175.092Z" fill="#263238"/>
<path d="M110.913 171.088C110.832 171.081 110.754 171.049 110.691 170.996C110.629 170.943 110.584 170.871 110.564 170.792C110.544 170.712 110.55 170.628 110.58 170.552C110.61 170.475 110.664 170.41 110.733 170.366C111.256 170.049 111.847 169.862 112.457 169.821C113.067 169.781 113.677 169.887 114.238 170.132C114.283 170.155 114.323 170.187 114.356 170.226C114.389 170.264 114.414 170.309 114.43 170.357C114.446 170.406 114.452 170.457 114.448 170.507C114.444 170.558 114.43 170.607 114.407 170.653C114.384 170.698 114.353 170.738 114.314 170.771C114.276 170.804 114.231 170.83 114.182 170.845C114.134 170.861 114.083 170.867 114.032 170.863C113.982 170.859 113.932 170.846 113.887 170.823C113.442 170.632 112.958 170.552 112.475 170.589C111.993 170.626 111.526 170.779 111.115 171.035C111.053 171.069 110.984 171.087 110.913 171.088Z" fill="#263238"/>
<path d="M119.452 174.848L117.976 174.136C117.976 174.136 118.571 175.485 119.452 174.848Z" fill="#263238"/>
<path d="M114.97 182.94C117.672 182.378 120.421 182.08 123.18 182.048C122.553 183.906 121.3 185.457 118.188 185.574C117.802 185.627 117.408 185.6 117.032 185.494C116.657 185.388 116.307 185.206 116.005 184.959C115.703 184.712 115.455 184.405 115.277 184.057C115.099 183.71 114.995 183.33 114.97 182.94Z" fill="#263238"/>
<path d="M119.558 184.076C118.362 184.067 117.194 184.439 116.224 185.138C116.815 185.492 117.502 185.651 118.188 185.595C119.384 185.604 120.553 185.232 121.523 184.533C120.935 184.172 120.245 184.012 119.558 184.076Z" fill="#A02724"/>
<path d="M115.247 182.876C115.319 183.097 115.45 183.294 115.626 183.446C115.802 183.597 116.016 183.698 116.245 183.737C118.032 183.642 119.808 183.4 121.555 183.014C121.839 182.98 122.109 182.874 122.341 182.707C122.573 182.54 122.759 182.317 122.882 182.059C120.32 182.132 117.767 182.406 115.247 182.876Z" fill="white"/>
<path d="M110.733 170.366C113.15 169.343 115.253 167.697 116.829 165.598C116.829 165.598 116.829 171.247 119.133 170.812C121.438 170.377 117.976 165.587 117.976 165.587C117.976 165.587 123.286 167.945 125.102 172.554C126.918 177.163 128.989 182.197 133.077 180.944C137.166 179.69 136.263 166.628 130.242 163.367L121.746 161.838L119.24 162.21C117.938 162.395 116.69 162.851 115.576 163.548C113.896 164.578 112.575 166.103 111.795 167.913L110.733 170.366Z" fill="#263238"/>
<path d="M130.56 171.046C130.167 170.217 128.288 170.292 126.312 171.205C124.337 172.118 124.305 172.978 124.698 173.807C125.091 174.635 125.76 175.113 127.736 174.2C129.711 173.286 130.953 171.874 130.56 171.046ZM126.004 173.17C125.728 172.575 125.781 171.97 127.162 171.311C128.543 170.653 129.891 170.61 130.167 171.205C130.444 171.8 129.562 172.809 128.182 173.456C126.801 174.104 126.291 173.796 126.004 173.202V173.17Z" fill="#F09999"/>
<path opacity="0.2" d="M141.064 212.697L138.568 210.573L136.72 211.412C136.079 217.949 137.743 224.505 141.425 229.944C141.584 226.408 141.913 222.425 142.487 217.667C141.701 214.8 141.064 212.697 141.064 212.697Z" fill="black"/>
<path d="M174.708 238.578L173.359 238.716L172.722 232.631C172.53 230.607 173.11 228.585 174.348 226.972C175.585 225.358 177.387 224.273 179.391 223.933C180.36 223.77 181.353 223.808 182.307 224.044C183.26 224.281 184.155 224.712 184.935 225.31C185.716 225.908 186.364 226.66 186.841 227.519C187.318 228.378 187.612 229.327 187.707 230.305L188.354 236.39L187.006 236.539L186.369 230.443C186.291 229.646 186.051 228.873 185.664 228.172C185.276 227.471 184.75 226.856 184.117 226.365C183.483 225.877 182.754 225.525 181.978 225.332C181.201 225.138 180.393 225.107 179.604 225.239C177.94 225.522 176.444 226.423 175.418 227.763C174.391 229.102 173.91 230.781 174.071 232.461L174.708 238.578Z" fill="#263238"/>
<path d="M149.677 211.338C149.868 212.251 150.123 213.377 150.367 214.407C150.611 215.437 150.898 216.531 151.195 217.593C151.79 219.717 152.416 221.767 153.171 223.774C154.528 227.683 156.457 231.369 158.895 234.713L159.118 234.999L159.224 235.148L159.096 235.02C158.926 234.872 158.728 234.76 158.512 234.691C158.194 234.606 158.204 234.691 158.417 234.691C159.17 234.652 159.911 234.494 160.615 234.224C162.581 233.506 164.485 232.629 166.307 231.601C170.163 229.477 174.06 227.055 177.83 224.602L180.772 228.064C177.465 231.502 173.869 234.65 170.024 237.474C167.986 238.978 165.81 240.287 163.525 241.382C162.117 242.058 160.612 242.509 159.065 242.72C157.879 242.866 156.676 242.735 155.549 242.338C154.798 242.059 154.107 241.641 153.51 241.106C153.362 240.968 153.202 240.819 153.075 240.681L152.905 240.5L152.565 240.129C150.817 238.196 149.285 236.077 147.999 233.81C146.744 231.644 145.647 229.39 144.717 227.066C143.804 224.769 143.01 222.426 142.338 220.046C142.009 218.878 141.701 217.699 141.425 216.51C141.149 215.32 140.894 214.163 140.681 212.803L149.677 211.338Z" fill="#B55B52"/>
<path d="M144.696 201.78C148.062 202.545 153.956 214.715 153.956 214.715L140.724 223.689C140.724 223.689 135.414 214.545 136.476 210.18C137.559 205.656 140.851 200.93 144.696 201.78Z" fill="#F09999"/>
<path d="M177.278 224.549L184.967 220.301L183.352 228.404C183.352 228.404 178.382 229.987 175.918 227.629L177.278 224.549Z" fill="#B55B52"/>
<path d="M191.71 221.395L189.99 228.117L183.353 228.415L184.967 220.312L191.71 221.395Z" fill="#B55B52"/>
<path d="M194.939 235.371L193.665 229.381C193.299 227.735 192.324 226.287 190.935 225.33C189.546 224.372 187.847 223.976 186.178 224.22C185.384 224.336 184.623 224.615 183.943 225.039C183.263 225.464 182.677 226.024 182.224 226.685C181.77 227.346 181.458 228.094 181.307 228.881C181.155 229.669 181.169 230.479 181.345 231.261L182.62 237.251L181.303 237.537L180.029 231.548C179.812 230.587 179.796 229.591 179.982 228.624C180.168 227.656 180.551 226.737 181.108 225.925C181.666 225.112 182.385 224.424 183.22 223.902C184.056 223.38 184.99 223.036 185.965 222.892C187.976 222.597 190.025 223.073 191.699 224.226C193.373 225.378 194.55 227.121 194.992 229.105L196.267 235.095L194.939 235.371Z" fill="#263238"/>
<g opacity="0.3">
<path d="M194.939 235.371L193.665 229.381C193.299 227.735 192.324 226.287 190.935 225.33C189.546 224.372 187.847 223.976 186.178 224.22C185.384 224.336 184.623 224.615 183.943 225.039C183.263 225.464 182.677 226.024 182.224 226.685C181.77 227.346 181.458 228.094 181.307 228.881C181.155 229.669 181.169 230.479 181.345 231.261L182.62 237.251L181.303 237.537L180.029 231.548C179.812 230.587 179.796 229.591 179.982 228.624C180.168 227.656 180.551 226.737 181.108 225.925C181.666 225.112 182.385 224.424 183.22 223.902C184.056 223.38 184.99 223.036 185.965 222.892C187.976 222.597 190.025 223.073 191.699 224.226C193.373 225.378 194.55 227.121 194.992 229.105L196.267 235.095L194.939 235.371Z" fill="white"/>
</g>
<path d="M202.862 231.367L163.472 237.601L169.536 284.542L175.165 282.279L181.218 282.694L211.591 277.883L202.862 231.367Z" fill="#F09999"/>
<path opacity="0.6" d="M202.862 231.367L163.472 237.601L169.536 284.542L175.165 282.279L181.218 282.694L211.591 277.883L202.862 231.367Z" fill="white"/>
<path d="M181.218 282.694L175.165 282.279L169.536 284.541L163.472 237.601L172.478 236.178L181.218 282.694Z" fill="#F09999"/>
<path opacity="0.3" d="M181.218 282.694L175.165 282.279L169.536 284.541L163.472 237.601L172.478 236.178L181.218 282.694Z" fill="white"/>
<path d="M198.992 251.587L182.702 254.167C181.827 254.305 181.23 255.127 181.369 256.002L181.392 256.148C181.531 257.023 182.352 257.62 183.227 257.481L199.517 254.901C200.391 254.763 200.988 253.941 200.85 253.067L200.826 252.92C200.688 252.045 199.866 251.448 198.992 251.587Z" fill="white"/>
</svg>
