<svg width="16" height="17" viewBox="0 0 16 17" fill="none" xmlns="http://www.w3.org/2000/svg">
<g clip-path="url(#clip0_4_9451)">
<path d="M8 16.5C5.87827 16.5 3.84344 15.6571 2.34315 14.1569C0.842855 12.6566 0 10.6217 0 8.5C0 6.37827 0.842855 4.34344 2.34315 2.84315C3.84344 1.34285 5.87827 0.5 8 0.5C10.1217 0.5 12.1566 1.34285 13.6569 2.84315C15.1571 4.34344 16 6.37827 16 8.5C16 10.6217 15.1571 12.6566 13.6569 14.1569C12.1566 15.6571 10.1217 16.5 8 16.5ZM8.252 3.568C8.19536 3.53232 8.13184 3.50898 8.06557 3.49952C7.9993 3.49006 7.93178 3.49468 7.86742 3.51308C7.80306 3.53148 7.7433 3.56325 7.69205 3.60632C7.6408 3.64938 7.59922 3.70277 7.57 3.763L6.37 6.195L3.686 6.585C3.59729 6.5972 3.51381 6.63413 3.44511 6.69155C3.37641 6.74898 3.32525 6.82458 3.2975 6.90971C3.26975 6.99484 3.26652 7.08607 3.28818 7.17295C3.30985 7.25983 3.35553 7.33886 3.42 7.401L5.364 9.293L4.904 11.967C4.88924 12.0549 4.89928 12.1451 4.93301 12.2276C4.96674 12.3101 5.02281 12.3816 5.09491 12.4339C5.16702 12.4863 5.25231 12.5175 5.34118 12.5241C5.43006 12.5306 5.519 12.5122 5.598 12.471L8 11.209L10.4 12.47C10.479 12.5116 10.568 12.5303 10.6571 12.524C10.7461 12.5176 10.8316 12.4864 10.9038 12.4339C10.9761 12.3815 11.0322 12.3098 11.0658 12.2271C11.0994 12.1444 11.1092 12.054 11.094 11.966L10.636 9.293L12.578 7.4C12.6414 7.33757 12.6862 7.25871 12.7073 7.17226C12.7284 7.08582 12.725 6.9952 12.6974 6.91058C12.6699 6.82596 12.6194 6.75067 12.5515 6.69317C12.4836 6.63566 12.401 6.59821 12.313 6.585L9.628 6.195L8.428 3.763C8.38892 3.68269 8.3279 3.61508 8.252 3.568Z" fill="#1D2939"/>
</g>
<defs>
<clipPath id="clip0_4_9451">
<rect width="16" height="16" fill="white" transform="translate(0 0.5)"/>
</clipPath>
</defs>
</svg>
