<svg width="28" height="28" viewBox="0 0 28 28" fill="none" xmlns="http://www.w3.org/2000/svg">
<path d="M19.8332 20.9997C20.452 20.9997 21.0455 21.2455 21.4831 21.6831C21.9207 22.1207 22.1665 22.7142 22.1665 23.333C22.1665 23.9518 21.9207 24.5453 21.4831 24.9829C21.0455 25.4205 20.452 25.6663 19.8332 25.6663C19.2143 25.6663 18.6208 25.4205 18.1833 24.9829C17.7457 24.5453 17.4998 23.9518 17.4998 23.333C17.4998 22.038 18.5382 20.9997 19.8332 20.9997ZM1.1665 2.33301H4.9815L6.07817 4.66634H23.3332C23.6426 4.66634 23.9393 4.78926 24.1581 5.00805C24.3769 5.22684 24.4998 5.52359 24.4998 5.83301C24.4998 6.03134 24.4415 6.22967 24.3598 6.41634L20.1832 13.9647C19.7865 14.6763 19.0165 15.1663 18.1415 15.1663H9.44984L8.39984 17.068L8.36484 17.208C8.36484 17.2854 8.39557 17.3596 8.45026 17.4142C8.50496 17.4689 8.57915 17.4997 8.6565 17.4997H22.1665V19.833H8.1665C7.54767 19.833 6.95417 19.5872 6.51659 19.1496C6.079 18.712 5.83317 18.1185 5.83317 17.4997C5.83317 17.0913 5.93817 16.7063 6.11317 16.3797L7.69984 13.5213L3.49984 4.66634H1.1665V2.33301ZM8.1665 20.9997C8.78534 20.9997 9.37883 21.2455 9.81642 21.6831C10.254 22.1207 10.4998 22.7142 10.4998 23.333C10.4998 23.9518 10.254 24.5453 9.81642 24.9829C9.37883 25.4205 8.78534 25.6663 8.1665 25.6663C7.54767 25.6663 6.95417 25.4205 6.51659 24.9829C6.079 24.5453 5.83317 23.9518 5.83317 23.333C5.83317 22.038 6.8715 20.9997 8.1665 20.9997ZM18.6665 12.833L21.9098 6.99967H7.16317L9.9165 12.833H18.6665Z" fill="#1D2939"/>
</svg>
