<svg width="25" height="25" viewBox="0 0 25 25" fill="none" xmlns="http://www.w3.org/2000/svg">
<path d="M16.1584 2.30766C12.7501 2.30766 10.0034 5.05432 10.0034 8.46266C10.0034 8.64346 10.0319 8.88812 10.0519 9.11201L3.4637 15.6994C3.10383 16.0569 2.81824 16.4821 2.62335 16.9505C2.42846 17.4188 2.32812 17.9211 2.32812 18.4284C2.32812 18.9357 2.42846 19.4379 2.62335 19.9063C2.81824 20.3746 3.10383 20.7998 3.4637 21.1573C3.82123 21.5172 4.24641 21.8028 4.71477 21.9977C5.18312 22.1926 5.68539 22.2929 6.19267 22.2929C6.69995 22.2929 7.20223 22.1926 7.67058 21.9977C8.13893 21.8028 8.56411 21.5172 8.92164 21.1573L15.509 14.5692C15.7322 14.5892 15.9784 14.6177 16.1584 14.6177C19.5667 14.6177 22.3134 11.871 22.3134 8.46266C22.3174 7.47093 22.0691 6.49448 21.5917 5.6252L21.1109 4.7358L20.3899 5.45748L17.0716 8.7504L15.8699 7.54864L19.1628 4.23109L19.886 3.50942L18.9958 3.02856C18.1262 2.55211 17.15 2.30407 16.1584 2.30766ZM16.1584 3.84641C16.5323 3.84641 16.8108 4.00797 17.1432 4.08722L14.2349 6.99546L13.681 7.54941L14.2349 8.07797L16.5431 10.3861L17.0724 10.94L17.6248 10.3861L20.5346 7.47786C20.6138 7.81023 20.7746 8.08874 20.7746 8.46266C20.7746 11.0554 18.7512 13.0789 16.1584 13.0789C15.8506 13.0789 15.6044 13.0789 15.4121 13.0304L15.0043 12.9104L14.692 13.2235L7.83913 20.0764C6.8928 21.0227 5.49254 21.0227 4.54621 20.0764L4.52159 20.0518C3.59834 19.1054 3.60603 17.7205 4.54467 16.7819L11.3975 9.92985L11.7106 9.61749L11.5891 9.20972C11.5429 9.01737 11.5414 8.77118 11.5414 8.46343C11.5414 5.87063 13.5648 3.84717 16.1576 3.84717L16.1584 3.84641Z" fill="#ED1C24"/>
</svg>
