<svg width="48" height="48" viewBox="0 0 48 48" fill="none" xmlns="http://www.w3.org/2000/svg">
<circle cx="24" cy="24" r="24" fill="#ED1C24"/>
<g clip-path="url(#clip0_1286_1177)">
<path d="M36.1333 29.1925V15.3132C36.1333 15.1879 36.0872 15.0795 35.9948 14.9879C35.9024 14.8964 35.7931 14.8506 35.6667 14.8506H12.3333C12.2069 14.8506 12.0976 14.8964 12.0052 14.9879C11.9128 15.0795 11.8667 15.1879 11.8667 15.3132V29.1925C11.8667 29.3178 11.9128 29.4263 12.0052 29.5178C12.0976 29.6094 12.2069 29.6552 12.3333 29.6552H35.6667C35.7931 29.6552 35.9024 29.6094 35.9948 29.5178C36.0872 29.4263 36.1333 29.3178 36.1333 29.1925ZM38 15.3132V29.1925C38 29.8287 37.7715 30.3732 37.3146 30.8262C36.8576 31.2792 36.3083 31.5057 35.6667 31.5057H24.9333V33.3563H30.0667C30.2028 33.3563 30.3146 33.3997 30.4021 33.4864C30.4896 33.5732 30.5333 33.684 30.5333 33.819V34.7443C30.5333 34.8792 30.4896 34.99 30.4021 35.0768C30.3146 35.1635 30.2028 35.2069 30.0667 35.2069H17.9333C17.7972 35.2069 17.6854 35.1635 17.5979 35.0768C17.5104 34.99 17.4667 34.8792 17.4667 34.7443V33.819C17.4667 33.684 17.5104 33.5732 17.5979 33.4864C17.6854 33.3997 17.7972 33.3563 17.9333 33.3563H23.0667V31.5057H12.3333C11.6917 31.5057 11.1424 31.2792 10.6854 30.8262C10.2285 30.3732 10 29.8287 10 29.1925V15.3132C10 14.6771 10.2285 14.1325 10.6854 13.6795C11.1424 13.2265 11.6917 13 12.3333 13H35.6667C36.3083 13 36.8576 13.2265 37.3146 13.6795C37.7715 14.1325 38 14.6771 38 15.3132Z" fill="#FCFCFD"/>
</g>
<defs>
<clipPath id="clip0_1286_1177">
<rect width="28" height="22.2069" fill="white" transform="translate(10 13)"/>
</clipPath>
</defs>
</svg>
