<svg width="246" height="38" viewBox="0 0 246 38" fill="none" xmlns="http://www.w3.org/2000/svg">
<rect x="0.5" y="0.5" width="245" height="37" rx="11.5" stroke="#ED1C24" stroke-dasharray="4 4"/>
<path d="M51.9606 13.7266V20.9531C51.9606 22.6562 53.0778 23.8906 55.0309 23.8906C56.9841 23.8906 58.1012 22.6562 58.1012 20.9531V13.7266H59.5075V21.0469C59.5075 23.4531 57.8278 25.1875 55.0309 25.1875C52.2341 25.1875 50.5544 23.4531 50.5544 21.0469V13.7266H51.9606ZM65.5894 16.7344C67.6597 16.7344 69.0659 18.3906 69.0659 20.9375C69.0659 23.4844 67.6675 25.1406 65.6206 25.1406C64.4566 25.1406 63.5191 24.5703 63.0347 23.6797H63.0034V27.7109H61.6441V16.875H62.9331V18.25H62.9644C63.4644 17.3359 64.4097 16.7344 65.5894 16.7344ZM65.3237 23.9453C66.7691 23.9453 67.6753 22.7812 67.6753 20.9375C67.6753 19.1016 66.7691 17.9297 65.3237 17.9297C63.9331 17.9297 62.9956 19.1328 62.9956 20.9375C62.9956 22.75 63.9331 23.9453 65.3237 23.9453ZM73.6791 25.1406C71.6087 25.1406 70.2025 23.4844 70.2025 20.9375C70.2025 18.3906 71.6009 16.7344 73.6478 16.7344C74.8119 16.7344 75.7494 17.3047 76.2337 18.1953H76.265V13.7266H77.6244V25H76.3275V23.625H76.3041C75.7806 24.5625 74.8509 25.1406 73.6791 25.1406ZM73.9369 17.9297C72.4994 17.9297 71.5931 19.1016 71.5931 20.9375C71.5931 22.7812 72.4994 23.9453 73.9369 23.9453C75.3353 23.9453 76.2728 22.7578 76.2728 20.9375C76.2728 19.125 75.3353 17.9297 73.9369 17.9297ZM82.3 23.9844C83.5812 23.9844 84.5656 23.0859 84.5656 21.9141V21.25L82.3937 21.3828C81.3 21.4531 80.675 21.9375 80.675 22.7031C80.675 23.4766 81.3234 23.9844 82.3 23.9844ZM81.9953 25.1406C80.3781 25.1406 79.2922 24.1641 79.2922 22.7031C79.2922 21.3125 80.3625 20.4375 82.2375 20.3281L84.5656 20.1953V19.5156C84.5656 18.5234 83.9094 17.9297 82.7844 17.9297C81.7375 17.9297 81.0812 18.4219 80.9094 19.2188H79.5969C79.6906 17.8125 80.8937 16.7344 82.8156 16.7344C84.7219 16.7344 85.925 17.7656 85.925 19.3828V25H84.6359V23.6016H84.6047C84.1203 24.5312 83.0891 25.1406 81.9953 25.1406ZM88.2491 14.9141H89.6084V16.875H91.1866V17.9922H89.6084V22.8203C89.6084 23.5625 89.9209 23.8984 90.6162 23.8984C90.7725 23.8984 91.085 23.875 91.1787 23.8594V25C91.0147 25.0391 90.6397 25.0625 90.3194 25.0625C88.8272 25.0625 88.2491 24.4531 88.2491 22.8906V17.9922H87.0381V16.875H88.2491V14.9141ZM95.8231 17.9141C94.5497 17.9141 93.6591 18.8906 93.5731 20.2422H97.9872C97.9559 18.8828 97.1044 17.9141 95.8231 17.9141ZM97.9559 22.6719H99.2919C99.0575 24.0938 97.6825 25.1406 95.9091 25.1406C93.5809 25.1406 92.1669 23.5234 92.1669 20.9688C92.1669 18.4453 93.6044 16.7344 95.8466 16.7344C98.0419 16.7344 99.3934 18.3281 99.3934 20.7891V21.3047H93.5653V21.3828C93.5653 22.9375 94.4794 23.9609 95.9403 23.9609C96.9716 23.9609 97.7294 23.4375 97.9559 22.6719ZM108.315 16.7344C110.385 16.7344 111.792 18.3906 111.792 20.9375C111.792 23.4844 110.393 25.1406 108.346 25.1406C107.182 25.1406 106.245 24.5703 105.76 23.6797H105.729V27.7109H104.37V16.875H105.659V18.25H105.69C106.19 17.3359 107.135 16.7344 108.315 16.7344ZM108.049 23.9453C109.495 23.9453 110.401 22.7812 110.401 20.9375C110.401 19.1016 109.495 17.9297 108.049 17.9297C106.659 17.9297 105.721 19.1328 105.721 20.9375C105.721 22.75 106.659 23.9453 108.049 23.9453ZM113.327 25V16.875H114.608V18.2031H114.639C114.905 17.3047 115.655 16.7344 116.608 16.7344C116.842 16.7344 117.045 16.7734 117.155 16.7891V18.1094C117.045 18.0703 116.756 18.0312 116.428 18.0312C115.373 18.0312 114.686 18.7891 114.686 19.9375V25H113.327ZM121.401 25.1406C119.151 25.1406 117.635 23.5234 117.635 20.9375C117.635 18.3438 119.151 16.7344 121.401 16.7344C123.643 16.7344 125.158 18.3438 125.158 20.9375C125.158 23.5234 123.643 25.1406 121.401 25.1406ZM121.401 23.9453C122.838 23.9453 123.776 22.8516 123.776 20.9375C123.776 19.0234 122.838 17.9297 121.401 17.9297C119.963 17.9297 119.018 19.0234 119.018 20.9375C119.018 22.8516 119.963 23.9453 121.401 23.9453ZM127.131 25V17.9922H125.998V16.875H127.131V15.9688C127.131 14.4062 127.857 13.6641 129.357 13.6641C129.662 13.6641 129.99 13.6953 130.186 13.7266V14.8281C130.022 14.8047 129.795 14.7812 129.568 14.7812C128.834 14.7812 128.482 15.1719 128.482 15.9766V16.875H130.147V17.9922H128.49V25H127.131ZM131.783 25V16.875H133.143V25H131.783ZM132.463 15.5078C132.002 15.5078 131.619 15.125 131.619 14.6641C131.619 14.1953 132.002 13.8203 132.463 13.8203C132.932 13.8203 133.314 14.1953 133.314 14.6641C133.314 15.125 132.932 15.5078 132.463 15.5078ZM135.209 25V13.7266H136.568V25H135.209ZM141.822 17.9141C140.548 17.9141 139.658 18.8906 139.572 20.2422H143.986C143.955 18.8828 143.103 17.9141 141.822 17.9141ZM143.955 22.6719H145.291C145.056 24.0938 143.681 25.1406 141.908 25.1406C139.58 25.1406 138.166 23.5234 138.166 20.9688C138.166 18.4453 139.603 16.7344 141.845 16.7344C144.041 16.7344 145.392 18.3281 145.392 20.7891V21.3047H139.564V21.3828C139.564 22.9375 140.478 23.9609 141.939 23.9609C142.97 23.9609 143.728 23.4375 143.955 22.6719ZM154.314 16.7344C156.384 16.7344 157.79 18.3906 157.79 20.9375C157.79 23.4844 156.392 25.1406 154.345 25.1406C153.181 25.1406 152.243 24.5703 151.759 23.6797H151.728V27.7109H150.368V16.875H151.658V18.25H151.689C152.189 17.3359 153.134 16.7344 154.314 16.7344ZM154.048 23.9453C155.493 23.9453 156.4 22.7812 156.4 20.9375C156.4 19.1016 155.493 17.9297 154.048 17.9297C152.658 17.9297 151.72 19.1328 151.72 20.9375C151.72 22.75 152.658 23.9453 154.048 23.9453ZM159.396 25V16.875H160.755V25H159.396ZM160.075 15.5078C159.614 15.5078 159.232 15.125 159.232 14.6641C159.232 14.1953 159.614 13.8203 160.075 13.8203C160.544 13.8203 160.927 14.1953 160.927 14.6641C160.927 15.125 160.544 15.5078 160.075 15.5078ZM169.501 19.5391H168.173C167.978 18.6562 167.29 17.9297 166.095 17.9297C164.688 17.9297 163.735 19.0938 163.735 20.9375C163.735 22.8281 164.704 23.9453 166.11 23.9453C167.22 23.9453 167.946 23.3594 168.181 22.3828H169.517C169.306 24 167.946 25.1406 166.103 25.1406C163.853 25.1406 162.353 23.5547 162.353 20.9375C162.353 18.375 163.845 16.7344 166.087 16.7344C168.118 16.7344 169.329 18.0781 169.501 19.5391ZM171.364 14.9141H172.723V16.875H174.302V17.9922H172.723V22.8203C172.723 23.5625 173.036 23.8984 173.731 23.8984C173.887 23.8984 174.2 23.875 174.294 23.8594V25C174.13 25.0391 173.755 25.0625 173.434 25.0625C171.942 25.0625 171.364 24.4531 171.364 22.8906V17.9922H170.153V16.875H171.364V14.9141ZM182.587 16.875V25H181.298V23.6797H181.266C180.782 24.6172 179.938 25.1406 178.688 25.1406C176.915 25.1406 175.876 23.9922 175.876 22.1484V16.875H177.235V21.9062C177.235 23.2266 177.852 23.9375 179.11 23.9375C180.43 23.9375 181.227 23.0312 181.227 21.6484V16.875H182.587ZM184.512 25V16.875H185.793V18.2031H185.825C186.09 17.3047 186.84 16.7344 187.793 16.7344C188.028 16.7344 188.231 16.7734 188.34 16.7891V18.1094C188.231 18.0703 187.942 18.0312 187.614 18.0312C186.559 18.0312 185.872 18.7891 185.872 19.9375V25H184.512ZM192.477 17.9141C191.203 17.9141 190.313 18.8906 190.227 20.2422H194.641C194.61 18.8828 193.758 17.9141 192.477 17.9141ZM194.61 22.6719H195.946C195.711 24.0938 194.336 25.1406 192.563 25.1406C190.235 25.1406 188.821 23.5234 188.821 20.9688C188.821 18.4453 190.258 16.7344 192.5 16.7344C194.696 16.7344 196.047 18.3281 196.047 20.7891V21.3047H190.219V21.3828C190.219 22.9375 191.133 23.9609 192.594 23.9609C193.625 23.9609 194.383 23.4375 194.61 22.6719Z" fill="#ED1C24"/>
</svg>
