<svg width="19" height="14" viewBox="0 0 19 14" fill="none" xmlns="http://www.w3.org/2000/svg">
<path d="M18.25 6.94531C18.25 6.90234 18.25 6.85352 18.248 6.79688C18.2461 6.63867 18.2422 6.46094 18.2383 6.27148C18.2227 5.72656 18.1953 5.18359 18.1523 4.67187C18.0938 3.9668 18.0078 3.37891 17.8906 2.9375C17.767 2.47685 17.5246 2.05674 17.1876 1.71913C16.8507 1.38153 16.4311 1.13827 15.9707 1.01367C15.418 0.865234 14.3359 0.773437 12.8125 0.716797C12.0879 0.689453 11.3125 0.671875 10.5371 0.662109C10.2656 0.658203 10.0137 0.65625 9.78711 0.654297H9.21289C8.98633 0.65625 8.73438 0.658203 8.46289 0.662109C7.6875 0.671875 6.91211 0.689453 6.1875 0.716797C4.66406 0.775391 3.58008 0.867187 3.0293 1.01367C2.56875 1.13797 2.14896 1.38112 1.812 1.71877C1.47504 2.05642 1.23273 2.4767 1.10938 2.9375C0.990234 3.37891 0.90625 3.9668 0.847656 4.67187C0.804688 5.18359 0.777344 5.72656 0.761719 6.27148C0.755859 6.46094 0.753906 6.63867 0.751953 6.79688C0.751953 6.85352 0.75 6.90234 0.75 6.94531V7.05469C0.75 7.09766 0.75 7.14648 0.751953 7.20313C0.753906 7.36133 0.757812 7.53906 0.761719 7.72852C0.777344 8.27344 0.804688 8.81641 0.847656 9.32812C0.90625 10.0332 0.992188 10.6211 1.10938 11.0625C1.35938 11.998 2.09375 12.7363 3.0293 12.9863C3.58008 13.1348 4.66406 13.2266 6.1875 13.2832C6.91211 13.3105 7.6875 13.3281 8.46289 13.3379C8.73438 13.3418 8.98633 13.3438 9.21289 13.3457H9.78711C10.0137 13.3438 10.2656 13.3418 10.5371 13.3379C11.3125 13.3281 12.0879 13.3105 12.8125 13.2832C14.3359 13.2246 15.4199 13.1328 15.9707 12.9863C16.9062 12.7363 17.6406 12 17.8906 11.0625C18.0098 10.6211 18.0938 10.0332 18.1523 9.32812C18.1953 8.81641 18.2227 8.27344 18.2383 7.72852C18.2441 7.53906 18.2461 7.36133 18.248 7.20313C18.248 7.14648 18.25 7.09766 18.25 7.05469V6.94531ZM16.8438 7.04688C16.8438 7.08789 16.8438 7.13281 16.8418 7.18555C16.8398 7.33789 16.8359 7.50586 16.832 7.6875C16.8184 8.20703 16.791 8.72656 16.75 9.20898C16.6973 9.83789 16.623 10.3535 16.5312 10.6992C16.4102 11.1504 16.0547 11.5078 15.6055 11.627C15.1953 11.7363 14.1621 11.8242 12.7578 11.877C12.0469 11.9043 11.2812 11.9219 10.5176 11.9316C10.25 11.9355 10.002 11.9375 9.7793 11.9375H9.2207L8.48242 11.9316C7.71875 11.9219 6.95508 11.9043 6.24219 11.877C4.83789 11.8223 3.80273 11.7363 3.39453 11.627C2.94531 11.5059 2.58984 11.1504 2.46875 10.6992C2.37695 10.3535 2.30273 9.83789 2.25 9.20898C2.20898 8.72656 2.18359 8.20703 2.16797 7.6875C2.16211 7.50586 2.16016 7.33594 2.1582 7.18555C2.1582 7.13281 2.15625 7.08594 2.15625 7.04688V6.95312C2.15625 6.91211 2.15625 6.86719 2.1582 6.81445C2.16016 6.66211 2.16406 6.49414 2.16797 6.3125C2.18164 5.79297 2.20898 5.27344 2.25 4.79102C2.30273 4.16211 2.37695 3.64648 2.46875 3.30078C2.58984 2.84961 2.94531 2.49219 3.39453 2.37305C3.80469 2.26367 4.83789 2.17578 6.24219 2.12305C6.95313 2.0957 7.71875 2.07812 8.48242 2.06836C8.75 2.06445 8.99805 2.0625 9.2207 2.0625H9.7793L10.5176 2.06836C11.2812 2.07812 12.0449 2.0957 12.7578 2.12305C14.1621 2.17773 15.1973 2.26367 15.6055 2.37305C16.0547 2.49414 16.4102 2.84961 16.5312 3.30078C16.623 3.64648 16.6973 4.16211 16.75 4.79102C16.791 5.27344 16.8164 5.79297 16.832 6.3125C16.8379 6.49414 16.8398 6.66406 16.8418 6.81445C16.8418 6.86719 16.8438 6.91406 16.8438 6.95312V7.04688ZM7.76172 9.61719L12.293 6.98047L7.76172 4.38281V9.61719Z" fill="#ED1C24"/>
</svg>
