<svg width="24" height="25" viewBox="0 0 24 25" fill="none" xmlns="http://www.w3.org/2000/svg">
<path d="M23.2047 12.245C22.3226 9.96324 20.7912 7.98996 18.7998 6.56906C16.8084 5.14817 14.4443 4.34193 11.9997 4.25C9.55507 4.34193 7.19097 5.14817 5.19958 6.56906C3.20819 7.98996 1.6768 9.96324 0.794681 12.245C0.735106 12.4098 0.735106 12.5902 0.794681 12.755C1.6768 15.0368 3.20819 17.01 5.19958 18.4309C7.19097 19.8518 9.55507 20.6581 11.9997 20.75C14.4443 20.6581 16.8084 19.8518 18.7998 18.4309C20.7912 17.01 22.3226 15.0368 23.2047 12.755C23.2643 12.5902 23.2643 12.4098 23.2047 12.245ZM11.9997 19.25C8.02468 19.25 3.82468 16.3025 2.30218 12.5C3.82468 8.6975 8.02468 5.75 11.9997 5.75C15.9747 5.75 20.1747 8.6975 21.6972 12.5C20.1747 16.3025 15.9747 19.25 11.9997 19.25Z" fill="#344054"/>
<path d="M12 8C11.11 8 10.24 8.26392 9.49994 8.75839C8.75991 9.25285 8.18314 9.95566 7.84254 10.7779C7.50195 11.6002 7.41283 12.505 7.58647 13.3779C7.7601 14.2508 8.18869 15.0526 8.81802 15.682C9.44736 16.3113 10.2492 16.7399 11.1221 16.9135C11.995 17.0872 12.8998 16.9981 13.7221 16.6575C14.5443 16.3169 15.2471 15.7401 15.7416 15.0001C16.2361 14.26 16.5 13.39 16.5 12.5C16.5 11.3065 16.0259 10.1619 15.182 9.31802C14.3381 8.47411 13.1935 8 12 8ZM12 15.5C11.4067 15.5 10.8266 15.3241 10.3333 14.9944C9.83994 14.6648 9.45543 14.1962 9.22836 13.648C9.0013 13.0999 8.94189 12.4967 9.05765 11.9147C9.1734 11.3328 9.45912 10.7982 9.87868 10.3787C10.2982 9.95912 10.8328 9.6734 11.4147 9.55764C11.9967 9.44189 12.5999 9.5013 13.1481 9.72836C13.6962 9.95542 14.1648 10.3399 14.4944 10.8333C14.8241 11.3266 15 11.9067 15 12.5C15 13.2956 14.6839 14.0587 14.1213 14.6213C13.5587 15.1839 12.7957 15.5 12 15.5Z" fill="#344054"/>
</svg>
