<svg width="24" height="21" viewBox="0 0 24 21" fill="none" xmlns="http://www.w3.org/2000/svg">
<g clip-path="url(#clip0_89_744)">
<path d="M22.4 15.0833V2.58333C22.4 2.47049 22.3604 2.37283 22.2812 2.29036C22.2021 2.2079 22.1083 2.16667 22 2.16667H2C1.89167 2.16667 1.79792 2.2079 1.71875 2.29036C1.63958 2.37283 1.6 2.47049 1.6 2.58333V15.0833C1.6 15.1962 1.63958 15.2938 1.71875 15.3763C1.79792 15.4588 1.89167 15.5 2 15.5H22C22.1083 15.5 22.2021 15.4588 22.2812 15.3763C22.3604 15.2938 22.4 15.1962 22.4 15.0833ZM24 2.58333V15.0833C24 15.6562 23.8042 16.1467 23.4125 16.5547C23.0208 16.9627 22.55 17.1667 22 17.1667H12.8V18.8333H17.2C17.3167 18.8333 17.4125 18.8724 17.4875 18.9505C17.5625 19.0286 17.6 19.1285 17.6 19.25V20.0833C17.6 20.2049 17.5625 20.3047 17.4875 20.3828C17.4125 20.4609 17.3167 20.5 17.2 20.5H6.8C6.68333 20.5 6.5875 20.4609 6.5125 20.3828C6.4375 20.3047 6.4 20.2049 6.4 20.0833V19.25C6.4 19.1285 6.4375 19.0286 6.5125 18.9505C6.5875 18.8724 6.68333 18.8333 6.8 18.8333H11.2V17.1667H2C1.45 17.1667 0.979167 16.9627 0.5875 16.5547C0.195833 16.1467 0 15.6562 0 15.0833V2.58333C0 2.01042 0.195833 1.51997 0.5875 1.11198C0.979167 0.703993 1.45 0.5 2 0.5H22C22.55 0.5 23.0208 0.703993 23.4125 1.11198C23.8042 1.51997 24 2.01042 24 2.58333Z" fill="#344054"/>
</g>
<defs>
<clipPath id="clip0_89_744">
<rect width="24" height="20" fill="white" transform="translate(0 0.5)"/>
</clipPath>
</defs>
</svg>
