<svg width="53" height="52" viewBox="0 0 53 52" fill="none" xmlns="http://www.w3.org/2000/svg">
<circle cx="26.5" cy="26" r="26" fill="#E4E7EC"/>
<g clip-path="url(#clip0_4_2487)">
<path d="M38.6333 31.5V16.5C38.6333 16.3646 38.5872 16.2474 38.4948 16.1484C38.4024 16.0495 38.2931 16 38.1667 16H14.8333C14.7069 16 14.5976 16.0495 14.5052 16.1484C14.4128 16.2474 14.3667 16.3646 14.3667 16.5V31.5C14.3667 31.6354 14.4128 31.7526 14.5052 31.8516C14.5976 31.9505 14.7069 32 14.8333 32H38.1667C38.2931 32 38.4024 31.9505 38.4948 31.8516C38.5872 31.7526 38.6333 31.6354 38.6333 31.5ZM40.5 16.5V31.5C40.5 32.1875 40.2715 32.776 39.8146 33.2656C39.3576 33.7552 38.8083 34 38.1667 34H27.4333V36H32.5667C32.7028 36 32.8146 36.0469 32.9021 36.1406C32.9896 36.2344 33.0333 36.3542 33.0333 36.5V37.5C33.0333 37.6458 32.9896 37.7656 32.9021 37.8594C32.8146 37.9531 32.7028 38 32.5667 38H20.4333C20.2972 38 20.1854 37.9531 20.0979 37.8594C20.0104 37.7656 19.9667 37.6458 19.9667 37.5V36.5C19.9667 36.3542 20.0104 36.2344 20.0979 36.1406C20.1854 36.0469 20.2972 36 20.4333 36H25.5667V34H14.8333C14.1917 34 13.6424 33.7552 13.1854 33.2656C12.7285 32.776 12.5 32.1875 12.5 31.5V16.5C12.5 15.8125 12.7285 15.224 13.1854 14.7344C13.6424 14.2448 14.1917 14 14.8333 14H38.1667C38.8083 14 39.3576 14.2448 39.8146 14.7344C40.2715 15.224 40.5 15.8125 40.5 16.5Z" fill="#ED1C24"/>
</g>
<defs>
<clipPath id="clip0_4_2487">
<rect width="28" height="24" fill="white" transform="translate(12.5 14)"/>
</clipPath>
</defs>
</svg>
