<svg width="24" height="25" viewBox="0 0 24 25" fill="none" xmlns="http://www.w3.org/2000/svg">
<path fill-rule="evenodd" clip-rule="evenodd" d="M15.488 1.93094C15.5628 1.99506 15.6243 2.07331 15.6688 2.1612C15.7134 2.24909 15.7402 2.3449 15.7477 2.44315C15.7553 2.54141 15.7434 2.64018 15.7127 2.73383C15.682 2.82748 15.6332 2.91417 15.569 2.98894L13.202 5.75094H16.055C17.422 5.75094 18.525 5.75094 19.392 5.86794C20.292 5.98794 21.05 6.24794 21.652 6.84894C22.254 7.45094 22.512 8.20894 22.634 9.10894C22.75 9.97594 22.75 11.0789 22.75 12.4459V16.5559C22.75 17.9229 22.75 19.0259 22.634 19.8929C22.512 20.7929 22.254 21.5509 21.652 22.1529C21.05 22.7549 20.292 23.0129 19.392 23.1349C18.525 23.2509 17.422 23.2509 16.055 23.2509H7.945C6.578 23.2509 5.475 23.2509 4.608 23.1349C3.708 23.0129 2.95 22.7549 2.348 22.1529C1.746 21.5509 1.488 20.7929 1.367 19.8929C1.25 19.0259 1.25 17.9229 1.25 16.5559V12.4459C1.25 11.0789 1.25 9.97594 1.367 9.10894C1.487 8.20894 1.747 7.45094 2.348 6.84894C2.95 6.24694 3.708 5.98894 4.608 5.86794C5.475 5.75094 6.578 5.75094 7.945 5.75094H10.798L8.43 2.98894C8.3621 2.91479 8.3098 2.82774 8.27621 2.73297C8.24262 2.6382 8.22843 2.53765 8.23448 2.43729C8.24053 2.33692 8.2667 2.2388 8.31143 2.14876C8.35616 2.05871 8.41854 1.97858 8.49486 1.91312C8.57118 1.84767 8.65988 1.79822 8.7557 1.76773C8.85151 1.73725 8.95247 1.72633 9.05258 1.73565C9.15269 1.74496 9.24991 1.7743 9.33846 1.82194C9.427 1.86958 9.50506 1.93453 9.568 2.01294L12 4.84894L14.43 2.01294C14.4941 1.93811 14.5724 1.87666 14.6603 1.83209C14.7481 1.78753 14.844 1.76071 14.9422 1.75319C15.0405 1.74567 15.1392 1.75758 15.2329 1.78825C15.3265 1.81892 15.4132 1.86775 15.488 1.93194V1.93094ZM16.75 7.25094V21.7509C17.796 21.7469 18.576 21.7309 19.192 21.6479C19.926 21.5489 20.314 21.3679 20.591 21.0919C20.868 20.8149 21.048 20.4269 21.147 19.6919C21.248 18.9369 21.25 17.9359 21.25 16.5009V12.5009C21.25 11.0659 21.248 10.0639 21.147 9.30894C21.048 8.57494 20.867 8.18694 20.591 7.90994C20.314 7.63294 19.926 7.45294 19.191 7.35394C18.576 7.27094 17.796 7.25394 16.75 7.25094ZM15.25 21.7509V7.25094H8C6.565 7.25094 5.563 7.25294 4.808 7.35394C4.074 7.45294 3.686 7.63394 3.409 7.90994C3.132 8.18694 2.952 8.57494 2.853 9.30994C2.752 10.0639 2.75 11.0659 2.75 12.5009V16.5009C2.75 17.9359 2.752 18.9369 2.853 19.6929C2.952 20.4269 3.133 20.8149 3.409 21.0919C3.686 21.3689 4.074 21.5489 4.809 21.6479C5.563 21.7489 6.565 21.7509 8 21.7509H15.25Z" fill="#344054"/>
<path d="M20 16.5C20 16.2348 19.8946 15.9804 19.7071 15.7929C19.5196 15.6054 19.2652 15.5 19 15.5C18.7348 15.5 18.4804 15.6054 18.2929 15.7929C18.1054 15.9804 18 16.2348 18 16.5C18 16.7652 18.1054 17.0196 18.2929 17.2071C18.4804 17.3946 18.7348 17.5 19 17.5C19.2652 17.5 19.5196 17.3946 19.7071 17.2071C19.8946 17.0196 20 16.7652 20 16.5ZM20 12.5C20 12.2348 19.8946 11.9804 19.7071 11.7929C19.5196 11.6054 19.2652 11.5 19 11.5C18.7348 11.5 18.4804 11.6054 18.2929 11.7929C18.1054 11.9804 18 12.2348 18 12.5C18 12.7652 18.1054 13.0196 18.2929 13.2071C18.4804 13.3946 18.7348 13.5 19 13.5C19.2652 13.5 19.5196 13.3946 19.7071 13.2071C19.8946 13.0196 20 12.7652 20 12.5Z" fill="#344054"/>
</svg>
