<svg width="33" height="32" viewBox="0 0 33 32" fill="none" xmlns="http://www.w3.org/2000/svg">
<path d="M16.5 27C17.6046 27 18.5 26.1046 18.5 25C18.5 23.8954 17.6046 23 16.5 23C15.3954 23 14.5 23.8954 14.5 25C14.5 26.1046 15.3954 27 16.5 27Z" fill="#ED1C24"/>
<path d="M10.9702 19.2326L12.3842 20.6456C13.4924 19.5903 14.9636 19.0009 16.4939 18.9993C18.0242 18.9976 19.4967 19.5837 20.6072 20.6366L22.0202 19.2236C20.535 17.7952 18.5538 16.9981 16.4932 17C14.4326 17.0019 12.4529 17.8015 10.9702 19.2326Z" fill="#ED1C24"/>
<path d="M6.729 14.993L8.143 16.406C10.3749 14.2241 13.3717 13.0016 16.493 12.9998C19.6142 12.9979 22.6125 14.2168 24.847 16.396L26.26 14.983C23.6509 12.4283 20.1441 10.9984 16.4925 11.0002C12.8408 11.0021 9.33552 12.4356 6.729 14.993Z" fill="#ED1C24"/>
<path d="M30.5 10.7413C26.7689 7.06243 21.7397 5 16.5 5C11.2603 5 6.23107 7.06243 2.5 10.7413V10.7643L3.904 12.1683C7.25831 8.85884 11.7804 7.00251 16.4924 7.00064C21.2045 6.99877 25.7281 8.85151 29.085 12.1583L30.5 10.7433V10.7413Z" fill="#ED1C24"/>
</svg>
