<svg width="28" height="31" viewBox="0 0 28 31" fill="none" xmlns="http://www.w3.org/2000/svg">
<g filter="url(#filter0_d_4_2516)">
<path d="M12.9268 4.90723C12.9268 6.03288 12.7171 6.97396 12.2979 7.73047C11.8786 8.48242 11.2702 9.0498 10.4727 9.43262C9.67513 9.81087 8.71354 10 7.58789 10H4.8125V0.00585938H7.88867C8.92318 0.00585938 9.81641 0.192708 10.5684 0.566406C11.3203 0.935547 11.9014 1.4847 12.3115 2.21387C12.7217 2.93848 12.9268 3.83626 12.9268 4.90723ZM11.2178 4.95508C11.2178 4.13477 11.0879 3.46029 10.8281 2.93164C10.5729 2.40299 10.1947 2.01107 9.69336 1.75586C9.19661 1.49609 8.58366 1.36621 7.85449 1.36621H6.45312V8.62598H7.61523C8.82292 8.62598 9.72526 8.31836 10.3223 7.70312C10.9193 7.08789 11.2178 6.17188 11.2178 4.95508ZM22.9619 10H21.3281V5.48828H16.7207V10H15.0801V0.00585938H16.7207V4.09375H21.3281V0.00585938H22.9619V10ZM8.8457 16.5723H12.5781V21.5898C12.054 21.763 11.5117 21.8975 10.9512 21.9932C10.3906 22.0889 9.76172 22.1367 9.06445 22.1367C8.04818 22.1367 7.18685 21.9362 6.48047 21.5352C5.77865 21.1296 5.24544 20.5439 4.88086 19.7783C4.51628 19.0081 4.33398 18.0807 4.33398 16.9961C4.33398 15.9525 4.53678 15.0479 4.94238 14.2822C5.34798 13.512 5.93815 12.9173 6.71289 12.498C7.48763 12.0742 8.42643 11.8623 9.5293 11.8623C10.0716 11.8623 10.5957 11.917 11.1016 12.0264C11.612 12.1312 12.0791 12.277 12.5029 12.4639L11.9287 13.8174C11.5915 13.6579 11.2132 13.5234 10.7939 13.4141C10.3747 13.3047 9.93945 13.25 9.48828 13.25C8.77279 13.25 8.15527 13.4049 7.63574 13.7148C7.12077 14.0247 6.72428 14.4622 6.44629 15.0273C6.16829 15.5879 6.0293 16.251 6.0293 17.0166C6.0293 17.7594 6.14095 18.4111 6.36426 18.9717C6.58757 19.5322 6.9362 19.9697 7.41016 20.2842C7.88867 20.5941 8.50618 20.749 9.2627 20.749C9.64095 20.749 9.96224 20.7285 10.2266 20.6875C10.4909 20.6465 10.7347 20.6009 10.958 20.5508V17.9736H8.8457V16.5723ZM23.8438 16.9893C23.8438 17.7594 23.7458 18.4613 23.5498 19.0947C23.3584 19.7236 23.069 20.266 22.6816 20.7217C22.2943 21.1729 21.8089 21.5215 21.2256 21.7676C20.6423 22.0137 19.9587 22.1367 19.1748 22.1367C18.3773 22.1367 17.6846 22.0137 17.0967 21.7676C16.5133 21.5215 16.028 21.1706 15.6406 20.7148C15.2578 20.2591 14.9707 19.7145 14.7793 19.0811C14.5879 18.4476 14.4922 17.7458 14.4922 16.9756C14.4922 15.9456 14.6608 15.0479 14.998 14.2822C15.3398 13.512 15.8571 12.915 16.5498 12.4912C17.2471 12.0628 18.1266 11.8486 19.1885 11.8486C20.2275 11.8486 21.0911 12.0605 21.7793 12.4844C22.4674 12.9082 22.9824 13.5052 23.3242 14.2754C23.6706 15.041 23.8438 15.9456 23.8438 16.9893ZM16.2148 16.9893C16.2148 17.7594 16.3197 18.4271 16.5293 18.9922C16.7389 19.5527 17.0602 19.9857 17.4932 20.291C17.9307 20.5918 18.4912 20.7422 19.1748 20.7422C19.863 20.7422 20.4235 20.5918 20.8564 20.291C21.2894 19.9857 21.6084 19.5527 21.8135 18.9922C22.0186 18.4271 22.1211 17.7594 22.1211 16.9893C22.1211 15.818 21.8864 14.902 21.417 14.2412C20.9521 13.5758 20.2093 13.2432 19.1885 13.2432C18.5049 13.2432 17.9421 13.3936 17.5 13.6943C17.0625 13.9951 16.7389 14.4258 16.5293 14.9863C16.3197 15.5423 16.2148 16.21 16.2148 16.9893Z" fill="#ED1C24"/>
</g>
<defs>
<filter id="filter0_d_4_2516" x="0.333984" y="0.00585938" width="27.5098" height="30.1309" filterUnits="userSpaceOnUse" color-interpolation-filters="sRGB">
<feFlood flood-opacity="0" result="BackgroundImageFix"/>
<feColorMatrix in="SourceAlpha" type="matrix" values="0 0 0 0 0 0 0 0 0 0 0 0 0 0 0 0 0 0 127 0" result="hardAlpha"/>
<feOffset dy="4"/>
<feGaussianBlur stdDeviation="2"/>
<feComposite in2="hardAlpha" operator="out"/>
<feColorMatrix type="matrix" values="0 0 0 0 0 0 0 0 0 0 0 0 0 0 0 0 0 0 0.25 0"/>
<feBlend mode="normal" in2="BackgroundImageFix" result="effect1_dropShadow_4_2516"/>
<feBlend mode="normal" in="SourceGraphic" in2="effect1_dropShadow_4_2516" result="shape"/>
</filter>
</defs>
</svg>
