<svg width="29" height="24" viewBox="0 0 29 24" fill="none" xmlns="http://www.w3.org/2000/svg">
<g clip-path="url(#clip0_4_2489)">
<path d="M26.6333 17.5V2.5C26.6333 2.36458 26.5872 2.2474 26.4948 2.14844C26.4024 2.04948 26.2931 2 26.1667 2H2.83333C2.70694 2 2.59757 2.04948 2.50521 2.14844C2.41285 2.2474 2.36667 2.36458 2.36667 2.5V17.5C2.36667 17.6354 2.41285 17.7526 2.50521 17.8516C2.59757 17.9505 2.70694 18 2.83333 18H26.1667C26.2931 18 26.4024 17.9505 26.4948 17.8516C26.5872 17.7526 26.6333 17.6354 26.6333 17.5ZM28.5 2.5V17.5C28.5 18.1875 28.2715 18.776 27.8146 19.2656C27.3576 19.7552 26.8083 20 26.1667 20H15.4333V22H20.5667C20.7028 22 20.8146 22.0469 20.9021 22.1406C20.9896 22.2344 21.0333 22.3542 21.0333 22.5V23.5C21.0333 23.6458 20.9896 23.7656 20.9021 23.8594C20.8146 23.9531 20.7028 24 20.5667 24H8.43333C8.29722 24 8.18542 23.9531 8.09792 23.8594C8.01042 23.7656 7.96667 23.6458 7.96667 23.5V22.5C7.96667 22.3542 8.01042 22.2344 8.09792 22.1406C8.18542 22.0469 8.29722 22 8.43333 22H13.5667V20H2.83333C2.19167 20 1.64236 19.7552 1.18542 19.2656C0.728472 18.776 0.5 18.1875 0.5 17.5V2.5C0.5 1.8125 0.728472 1.22396 1.18542 0.734375C1.64236 0.244792 2.19167 0 2.83333 0H26.1667C26.8083 0 27.3576 0.244792 27.8146 0.734375C28.2715 1.22396 28.5 1.8125 28.5 2.5Z" fill="#ED1C24"/>
</g>
<defs>
<clipPath id="clip0_4_2489">
<rect width="28" height="24" fill="white" transform="translate(0.5)"/>
</clipPath>
</defs>
</svg>
