<svg width="33" height="32" viewBox="0 0 33 32" fill="none" xmlns="http://www.w3.org/2000/svg">
<path d="M6.49993 6.28613C5.51484 6.28613 4.5701 6.67746 3.87353 7.37402C3.17697 8.07059 2.78564 9.01533 2.78564 10.0004V22.0004C2.78564 22.9855 3.17697 23.9303 3.87353 24.6268C4.5701 25.3234 5.51484 25.7147 6.49993 25.7147H18.5022C19.4873 25.7147 20.4321 25.3234 21.1286 24.6268C21.8252 23.9303 22.2165 22.9855 22.2165 22.0004V20.1947L27.4062 23.7513C27.6207 23.8984 27.8713 23.9841 28.1309 23.9993C28.3906 24.0145 28.6494 23.9585 28.8796 23.8373C29.1097 23.7162 29.3025 23.5345 29.437 23.3119C29.5715 23.0893 29.6426 22.8342 29.6428 22.5741V9.42556C29.6425 9.16566 29.5713 8.91077 29.4368 8.68835C29.3024 8.46592 29.1098 8.28438 28.8799 8.16329C28.6499 8.04219 28.3912 7.98612 28.1318 8.00113C27.8723 8.01613 27.6219 8.10163 27.4074 8.24842L22.2165 11.8027V10.0004C22.2165 9.01533 21.8252 8.07059 21.1286 7.37402C20.4321 6.67746 19.4873 6.28613 18.5022 6.28613H6.49993ZM22.2165 18.117V13.8804L27.9285 9.96956V22.0313L22.2165 18.117ZM20.5022 10.0004V22.0004C20.5022 22.5309 20.2915 23.0396 19.9164 23.4146C19.5414 23.7897 19.0327 24.0004 18.5022 24.0004H6.49993C5.9695 24.0004 5.46079 23.7897 5.08572 23.4146C4.71065 23.0396 4.49993 22.5309 4.49993 22.0004V10.0004C4.49993 8.89642 5.39593 8.00042 6.49993 8.00042H18.5022C19.6074 8.00042 20.5022 8.89642 20.5022 10.0004Z" fill="#ED1C24"/>
</svg>
