<svg width="30" height="29" viewBox="0 0 30 29" fill="none" xmlns="http://www.w3.org/2000/svg">
<path d="M27.6924 8.21133H21.7415C22.0469 8.0196 22.3363 7.80351 22.6068 7.56517C23.0149 7.2016 23.3436 6.75779 23.5724 6.26147C23.8012 5.76514 23.9252 5.22697 23.9367 4.68056C23.9544 4.07948 23.8492 3.48112 23.6275 2.92212C23.4058 2.36312 23.0724 1.85526 22.6476 1.42965C22.2228 1.00403 21.7156 0.669624 21.157 0.446906C20.5984 0.224187 20.0003 0.117849 19.3992 0.134405C18.8527 0.14585 18.3146 0.269849 17.8182 0.498655C17.3219 0.727461 16.8781 1.05616 16.5145 1.46421C15.8464 2.25264 15.3327 3.15978 15.0001 4.13825C14.6683 3.16051 14.1555 2.25389 13.4886 1.46565C13.1248 1.05699 12.6806 0.727812 12.1837 0.498742C11.6869 0.269672 11.1481 0.145638 10.6011 0.134405C9.99961 0.117058 9.40094 0.222763 8.84179 0.445035C8.28264 0.667307 7.77478 1.00146 7.34937 1.427C6.92397 1.85255 6.58997 2.36051 6.36788 2.91973C6.14578 3.47896 6.04027 4.07766 6.05781 4.67912C6.06925 5.22552 6.19325 5.7637 6.42206 6.26003C6.65086 6.75635 6.97956 7.20016 7.38761 7.56373C7.65793 7.80241 7.94736 8.01851 8.253 8.20988H2.30781C2.04251 8.20988 1.77982 8.26216 1.53475 8.36373C1.28967 8.46529 1.06701 8.61416 0.879484 8.80181C0.691962 8.98947 0.543256 9.21224 0.441865 9.45739C0.340474 9.70254 0.288385 9.96527 0.288575 10.2306V14.8459C0.288575 15.3815 0.501315 15.8951 0.879994 16.2738C1.25867 16.6524 1.77227 16.8652 2.30781 16.8652H2.59627V26.3844C2.59627 26.9199 2.80901 27.4335 3.18769 27.8122C3.56637 28.1909 4.07996 28.4036 4.6155 28.4036H25.3847C25.9203 28.4036 26.4339 28.1909 26.8125 27.8122C27.1912 27.4335 27.404 26.9199 27.404 26.3844V16.8652H27.6924C28.228 16.8652 28.7416 16.6524 29.1202 16.2738C29.4989 15.8951 29.7117 15.3815 29.7117 14.8459V10.2306C29.7117 9.69503 29.4989 9.18143 29.1202 8.80275C28.7416 8.42407 28.228 8.21133 27.6924 8.21133ZM16.1208 6.62479C16.4453 4.87671 17.028 3.48777 17.8068 2.60796C18.0153 2.37794 18.2688 2.19329 18.5517 2.0655C18.8346 1.93771 19.1407 1.86952 19.4511 1.86517H19.5304C19.8892 1.86522 20.2444 1.93724 20.5749 2.07699C20.9054 2.21674 21.2045 2.42137 21.4545 2.67877C21.7045 2.93617 21.9003 3.2411 22.0304 3.57553C22.1604 3.90996 22.2221 4.26708 22.2117 4.62575C22.2068 4.93644 22.1379 5.24279 22.0093 5.52568C21.8808 5.80857 21.6953 6.06194 21.4645 6.26998C19.9184 7.6344 17.2963 8.04258 15.9145 8.16085C15.9506 7.74402 16.0097 7.21325 16.1208 6.62479ZM8.57463 2.65123C9.07805 2.14964 9.75918 1.86714 10.4698 1.86517H10.5492C10.8598 1.87007 11.1662 1.93894 11.4491 2.06748C11.732 2.19602 11.9853 2.38148 12.1934 2.61229C13.5578 4.15844 13.966 6.78056 14.0842 8.16229C13.6674 8.12623 13.1367 8.06421 12.554 7.95604C10.8059 7.6344 9.41694 7.04883 8.53713 6.26854C8.30597 6.06101 8.12016 5.80798 7.99135 5.52529C7.86254 5.24261 7.79351 4.93636 7.78857 4.62575C7.77862 4.2605 7.84319 3.89705 7.97833 3.55757C8.11348 3.21809 8.31637 2.90971 8.57463 2.65123ZM2.01934 14.8459V10.2306C2.01934 10.1541 2.04974 10.0807 2.10383 10.0266C2.15793 9.97249 2.2313 9.9421 2.30781 9.9421H14.1347V15.1344H2.30781C2.2313 15.1344 2.15793 15.104 2.10383 15.0499C2.04974 14.9958 2.01934 14.9224 2.01934 14.8459ZM4.32704 26.3844V16.8652H14.1347V26.6729H4.6155C4.53899 26.6729 4.46562 26.6425 4.41152 26.5884C4.35743 26.5343 4.32704 26.4609 4.32704 26.3844ZM25.6732 26.3844C25.6732 26.4609 25.6428 26.5343 25.5887 26.5884C25.5346 26.6425 25.4612 26.6729 25.3847 26.6729H15.8655V16.8652H25.6732V26.3844ZM27.9809 14.8459C27.9809 14.9224 27.9505 14.9958 27.8964 15.0499C27.8423 15.104 27.7689 15.1344 27.6924 15.1344H15.8655V9.9421H27.6924C27.7689 9.9421 27.8423 9.97249 27.8964 10.0266C27.9505 10.0807 27.9809 10.1541 27.9809 10.2306V14.8459Z" fill="#ED1C24"/>
</svg>
