<svg width="38" height="38" viewBox="0 0 38 38" fill="none" xmlns="http://www.w3.org/2000/svg">
<path d="M29.7691 18.9992C29.7691 19.4072 29.607 19.7985 29.3185 20.087C29.0299 20.3755 28.6386 20.5376 28.2306 20.5376C27.8226 20.5376 27.4313 20.3755 27.1427 20.087C26.8542 19.7985 26.6921 19.4072 26.6921 18.9992C26.6921 18.5911 26.8542 18.1998 27.1427 17.9113C27.4313 17.6228 27.8226 17.4607 28.2306 17.4607C28.6386 17.4607 29.0299 17.6228 29.3185 17.9113C29.607 18.1998 29.7691 18.5911 29.7691 18.9992Z" fill="#ED1C24"/>
<path fill-rule="evenodd" clip-rule="evenodd" d="M15.8368 5.53809H20.6245C23.4522 5.53809 25.6922 5.53809 27.4445 5.77347C29.2476 6.01655 30.7076 6.52732 31.8599 7.67809C33.2814 9.10116 33.7353 11.0058 33.8999 13.4781C34.7876 13.8673 35.4584 14.6935 35.5307 15.7396C35.5383 15.8335 35.5383 15.9335 35.5383 16.0258V21.9735C35.5383 22.0658 35.5383 22.1658 35.5322 22.2581C35.4584 23.3042 34.7876 24.1319 33.8999 24.5227C33.7353 26.9935 33.2814 28.8981 31.8599 30.3212C30.7076 31.4719 29.2476 31.9827 27.4445 32.2258C25.6907 32.4612 23.4522 32.4612 20.6245 32.4612H15.8368C13.0091 32.4612 10.7691 32.4612 9.01681 32.2258C7.21373 31.9827 5.75373 31.4719 4.60143 30.3212C3.45066 29.1689 2.93989 27.7089 2.69681 25.9058C2.46143 24.1519 2.46143 21.9135 2.46143 19.0858V18.9135C2.46143 16.0858 2.46143 13.8458 2.69681 12.0935C2.93989 10.2904 3.45066 8.83039 4.60143 7.67809C5.75373 6.52732 7.21373 6.01655 9.01681 5.77347C10.7707 5.53809 13.0091 5.53809 15.8368 5.53809ZM31.566 24.7689H28.5845C25.2845 24.7689 22.4599 22.2642 22.4599 18.9996C22.4599 15.735 25.2845 13.2304 28.583 13.2304H31.5645C31.3891 11.1673 30.9937 10.0765 30.226 9.31039C29.5753 8.65962 28.683 8.26886 27.1353 8.06116C25.5553 7.84886 23.4707 7.84578 20.5368 7.84578H15.9214C12.9876 7.84578 10.9045 7.84886 9.32143 8.06116C7.77527 8.26886 6.88296 8.65962 6.2322 9.31039C5.58143 9.96116 5.19066 10.8535 4.98296 12.4012C4.77066 13.9827 4.76758 16.0658 4.76758 18.9996C4.76758 21.9335 4.77066 24.0166 4.98296 25.5996C5.19066 27.1458 5.58143 28.0381 6.2322 28.6889C6.88296 29.3396 7.77527 29.7304 9.32296 29.9381C10.9045 30.1504 12.9876 30.1535 15.9214 30.1535H20.5368C23.4707 30.1535 25.5553 30.1504 27.1368 29.9381C28.683 29.7304 29.5753 29.3396 30.226 28.6889C30.9937 27.9227 31.3907 26.8335 31.566 24.7689ZM8.61527 12.8458C8.61527 12.5398 8.73684 12.2463 8.95323 12.0299C9.16961 11.8135 9.4631 11.6919 9.76912 11.6919H15.923C16.229 11.6919 16.5225 11.8135 16.7389 12.0299C16.9552 12.2463 17.0768 12.5398 17.0768 12.8458C17.0768 13.1518 16.9552 13.4453 16.7389 13.6617C16.5225 13.8781 16.229 13.9996 15.923 13.9996H9.76912C9.4631 13.9996 9.16961 13.8781 8.95323 13.6617C8.73684 13.4453 8.61527 13.1518 8.61527 12.8458ZM32.7291 15.5381H28.5845C26.3937 15.5381 24.7676 17.1673 24.7676 18.9996C24.7676 20.8319 26.3937 22.4612 28.583 22.4612H32.7645C33.0814 22.4412 33.2183 22.2273 33.2291 22.0981V15.9012C33.2183 15.7719 33.0814 15.5581 32.7645 15.5396H32.7276L32.7291 15.5381Z" fill="#ED1C24"/>
</svg>
