<svg width="34" height="34" viewBox="0 0 34 34" fill="none" xmlns="http://www.w3.org/2000/svg">
<path d="M17 0.846191C8.09281 0.846191 0.846191 8.09281 0.846191 17V23.6926C0.846191 25.3467 2.29519 26.6923 4.07696 26.6923H5.69235C6.12077 26.6923 6.53165 26.5222 6.83459 26.2192C7.13754 25.9163 7.30773 25.5054 7.30773 25.077V16.769C7.30773 16.3406 7.13754 15.9297 6.83459 15.6268C6.53165 15.3238 6.12077 15.1537 5.69235 15.1537H4.22558C5.12373 8.90211 10.503 4.07696 17 4.07696C23.4971 4.07696 28.8763 8.90211 29.7745 15.1537H28.3077C27.8793 15.1537 27.4684 15.3238 27.1655 15.6268C26.8625 15.9297 26.6923 16.3406 26.6923 16.769V26.6923C26.6923 28.4741 25.2433 29.9231 23.4616 29.9231H20.2308V28.3077H13.7693V33.1539H23.4616C27.0251 33.1539 29.9231 30.2559 29.9231 26.6923C31.7049 26.6923 33.1539 25.3467 33.1539 23.6926V17C33.1539 8.09281 25.9073 0.846191 17 0.846191Z" fill="#ED1C24"/>
</svg>
