<svg width="38" height="38" viewBox="0 0 38 38" fill="none" xmlns="http://www.w3.org/2000/svg">
<path d="M26.6925 28.2313C27.5086 28.2313 28.2912 28.5555 28.8682 29.1326C29.4453 29.7096 29.7695 30.4922 29.7695 31.3083C29.7695 32.1243 29.4453 32.9069 28.8682 33.484C28.2912 34.061 27.5086 34.3852 26.6925 34.3852C25.8765 34.3852 25.0939 34.061 24.5168 33.484C23.9398 32.9069 23.6156 32.1243 23.6156 31.3083C23.6156 29.6006 24.9848 28.2313 26.6925 28.2313ZM2.07715 3.61597H7.10792L8.55407 6.69289H31.3079C31.7159 6.69289 32.1073 6.85498 32.3958 7.14349C32.6843 7.43201 32.8464 7.82333 32.8464 8.23135C32.8464 8.49289 32.7695 8.75443 32.6618 9.00058L27.1541 18.9544C26.631 19.8929 25.6156 20.539 24.4618 20.539H13.0002L11.6156 23.0467L11.5695 23.2313C11.5695 23.3334 11.61 23.4312 11.6821 23.5033C11.7542 23.5754 11.8521 23.616 11.9541 23.616H29.7695V26.6929H11.3079C10.4919 26.6929 9.70924 26.3687 9.1322 25.7917C8.55517 25.2146 8.23099 24.432 8.23099 23.616C8.23099 23.0775 8.36946 22.5698 8.60022 22.139L10.6925 18.3698L5.15407 6.69289H2.07715V3.61597ZM11.3079 28.2313C12.124 28.2313 12.9066 28.5555 13.4836 29.1326C14.0607 29.7096 14.3848 30.4922 14.3848 31.3083C14.3848 32.1243 14.0607 32.9069 13.4836 33.484C12.9066 34.061 12.124 34.3852 11.3079 34.3852C10.4919 34.3852 9.70924 34.061 9.1322 33.484C8.55517 32.9069 8.23099 32.1243 8.23099 31.3083C8.23099 29.6006 9.60022 28.2313 11.3079 28.2313ZM25.1541 17.4621L29.431 9.76981H9.98484L13.6156 17.4621H25.1541Z" fill="#ED1C24"/>
</svg>
