<svg width="38" height="38" viewBox="0 0 38 38" fill="none" xmlns="http://www.w3.org/2000/svg">
<g clip-path="url(#clip0_4_2560)">
<g filter="url(#filter0_d_4_2560)">
<path fill-rule="evenodd" clip-rule="evenodd" d="M3.30762 19.0007C3.30762 21.0614 3.71351 23.102 4.50212 25.0058C5.29074 26.9097 6.44662 28.6396 7.90379 30.0968C9.36095 31.554 11.0909 32.7098 12.9947 33.4985C14.8986 34.2871 16.9392 34.693 18.9999 34.693C21.0607 34.693 23.1012 34.2871 25.0051 33.4985C26.909 32.7098 28.6389 31.554 30.0961 30.0968C31.5532 28.6396 32.7091 26.9097 33.4977 25.0058C34.2863 23.102 34.6922 21.0614 34.6922 19.0007C34.6922 14.8388 33.0389 10.8474 30.0961 7.90452C27.1532 4.96164 23.1618 3.30835 18.9999 3.30835C14.8381 3.30835 10.8467 4.96164 7.90379 7.90452C4.96091 10.8474 3.30762 14.8388 3.30762 19.0007ZM32.8461 19.0007C32.8461 22.6729 31.3873 26.1947 28.7906 28.7914C26.194 31.388 22.6722 32.8468 18.9999 32.8468C15.3277 32.8468 11.8059 31.388 9.20922 28.7914C6.61256 26.1947 5.15377 22.6729 5.15377 19.0007C5.15377 15.3284 6.61256 11.8066 9.20922 9.20995C11.8059 6.61329 15.3277 5.1545 18.9999 5.1545C22.6722 5.1545 26.194 6.61329 28.7906 9.20995C31.3873 11.8066 32.8461 15.3284 32.8461 19.0007Z" fill="#ED1C24"/>
<path fill-rule="evenodd" clip-rule="evenodd" d="M12.5383 19.0007C12.5383 27.1164 15.2005 33.7699 18.9999 33.7699C22.7993 33.7699 25.4614 27.1164 25.4614 19.0007C25.4614 10.885 22.7993 4.23145 18.9999 4.23145C15.2005 4.23145 12.5383 10.885 12.5383 19.0007ZM23.6153 19.0007C23.6153 26.1804 21.3168 31.9238 18.9999 31.9238C16.6829 31.9238 14.3845 26.1804 14.3845 19.0007C14.3845 11.821 16.6829 6.0776 18.9999 6.0776C21.3168 6.0776 23.6153 11.821 23.6153 19.0007Z" fill="#ED1C24"/>
<path d="M7.43379 10.3459L8.67071 8.97607C8.86825 9.1533 9.07871 9.32684 9.30394 9.49484C11.7372 11.3188 15.5772 12.4302 19.7624 12.4302C23.331 12.4302 26.6615 11.6235 29.0947 10.2333C29.6553 9.9161 30.185 9.54711 30.6769 9.13115L31.8769 10.5342C31.3267 11.005 30.7027 11.4388 30.0123 11.8339C27.2855 13.3939 23.6393 14.2764 19.7624 14.2764C15.2024 14.2764 10.971 13.0524 8.19625 10.9718C7.93259 10.7744 7.67817 10.5667 7.43379 10.3459ZM7.43379 27.6776L8.67071 29.0438C8.86825 28.8665 9.07871 28.693 9.30394 28.5268C11.7372 26.7028 15.5772 25.5915 19.7624 25.5915C23.331 25.5915 26.6615 26.3964 29.0947 27.7884C29.6873 28.1281 30.2172 28.4973 30.6769 28.8887L31.8769 27.4856C31.2973 26.9951 30.673 26.56 30.0123 26.1859C27.2855 24.6278 23.6393 23.7453 19.7624 23.7453C15.2024 23.7453 10.971 24.9693 8.19625 27.0481C7.92671 27.2512 7.67194 27.4616 7.43379 27.6776ZM4.23071 19.9238V18.0776H33.7692V19.9238H4.23071Z" fill="#ED1C24"/>
</g>
</g>
<defs>
<filter id="filter0_d_4_2560" x="-0.692383" y="3.30835" width="39.3845" height="39.3845" filterUnits="userSpaceOnUse" color-interpolation-filters="sRGB">
<feFlood flood-opacity="0" result="BackgroundImageFix"/>
<feColorMatrix in="SourceAlpha" type="matrix" values="0 0 0 0 0 0 0 0 0 0 0 0 0 0 0 0 0 0 127 0" result="hardAlpha"/>
<feOffset dy="4"/>
<feGaussianBlur stdDeviation="2"/>
<feComposite in2="hardAlpha" operator="out"/>
<feColorMatrix type="matrix" values="0 0 0 0 0 0 0 0 0 0 0 0 0 0 0 0 0 0 0.25 0"/>
<feBlend mode="normal" in2="BackgroundImageFix" result="effect1_dropShadow_4_2560"/>
<feBlend mode="normal" in="SourceGraphic" in2="effect1_dropShadow_4_2560" result="shape"/>
</filter>
<clipPath id="clip0_4_2560">
<rect width="36.9231" height="36.9231" fill="white" transform="translate(0.538574 0.538574)"/>
</clipPath>
</defs>
</svg>
