<svg width="20" height="20" viewBox="0 0 20 20" fill="none" xmlns="http://www.w3.org/2000/svg">
<path d="M18.4375 4.375C17.5744 4.375 16.875 5.07469 16.875 5.9375C16.875 6.11469 16.911 6.28188 16.965 6.44063L13.1562 9.72031C12.8891 9.5075 12.5556 9.375 12.1875 9.375C11.7628 9.375 11.3788 9.54563 11.0975 9.82063L8.11406 8.32687C8.05596 7.51656 7.38752 6.875 6.5625 6.875C5.69971 6.875 5 7.57469 5 8.4375C5 8.67375 5.05625 8.89531 5.15 9.09594L2.10812 12.6034C1.9375 12.5397 1.75531 12.5 1.5625 12.5C0.699688 12.5 0 13.1997 0 14.0625C0 14.9253 0.699688 15.625 1.5625 15.625C2.42531 15.625 3.125 14.9253 3.125 14.0625C3.125 13.8547 3.0825 13.6569 3.00875 13.4756L6.1 9.9225C6.24719 9.96813 6.40031 10 6.5625 10C7.01719 10 7.42279 9.8025 7.70842 9.49219L10.6265 10.9553C10.6369 11.8097 11.3306 12.5 12.1875 12.5C13.0506 12.5 13.75 11.8003 13.75 10.9375C13.75 10.9097 13.7434 10.8838 13.7419 10.8563L17.8062 7.36469C17.9997 7.45031 18.2122 7.5 18.4375 7.5C19.3006 7.5 20 6.80063 20 5.9375C20 5.07469 19.3006 4.375 18.4375 4.375Z" fill="#344054"/>
</svg>
