<svg width="26" height="27" viewBox="0 0 26 27" fill="none" xmlns="http://www.w3.org/2000/svg">
<path d="M11.0855 1.16197C11.6285 0.727002 12.3034 0.48999 12.9991 0.48999C13.6948 0.48999 14.3698 0.727002 14.9128 1.16197L24.1003 8.51197C24.8265 9.09297 25.25 9.97322 25.25 10.9042V23.1875C25.25 23.9997 24.9273 24.7787 24.353 25.353C23.7787 25.9273 22.9997 26.25 22.1875 26.25H16.0625C15.7144 26.25 15.3806 26.1117 15.1344 25.8655C14.8883 25.6194 14.75 25.2856 14.75 24.9375V15.75H11.25V24.9375C11.25 25.2856 11.1117 25.6194 10.8656 25.8655C10.6194 26.1117 10.2856 26.25 9.9375 26.25H3.8125C3.00027 26.25 2.22132 25.9273 1.64699 25.353C1.07266 24.7787 0.75 23.9997 0.75 23.1875V10.9025C0.75 9.97322 1.1735 9.09297 1.89975 8.51197L11.0855 1.16197ZM13.273 3.21122C13.1955 3.14931 13.0992 3.11559 13 3.11559C12.9008 3.11559 12.8045 3.14931 12.727 3.21122L3.5395 10.5612C3.48803 10.6023 3.4465 10.6545 3.41802 10.7139C3.38954 10.7733 3.37483 10.8384 3.375 10.9042V23.1875C3.375 23.429 3.571 23.625 3.8125 23.625H8.625V14.4375C8.625 14.0894 8.76328 13.7555 9.00942 13.5094C9.25556 13.2633 9.5894 13.125 9.9375 13.125H16.0625C16.4106 13.125 16.7444 13.2633 16.9906 13.5094C17.2367 13.7555 17.375 14.0894 17.375 14.4375V23.625H22.1875C22.3035 23.625 22.4148 23.5789 22.4969 23.4968C22.5789 23.4148 22.625 23.3035 22.625 23.1875V10.9025C22.6249 10.8369 22.6101 10.7722 22.5816 10.7131C22.5531 10.654 22.5117 10.6021 22.4605 10.5612L13.273 3.21122Z" fill="black"/>
</svg>
