<svg width="22" height="22" viewBox="0 0 22 22" fill="none" xmlns="http://www.w3.org/2000/svg">
<path fill-rule="evenodd" clip-rule="evenodd" d="M0.800049 11.0008C0.800049 12.3403 1.06388 13.6666 1.57648 14.9042C2.08908 16.1417 2.8404 17.2661 3.78756 18.2133C4.73472 19.1604 5.85916 19.9118 7.09668 20.4244C8.3342 20.9369 9.66057 21.2008 11 21.2008C12.3395 21.2008 13.6659 20.9369 14.9034 20.4244C16.1409 19.9118 17.2654 19.1604 18.2125 18.2133C19.1597 17.2661 19.911 16.1417 20.4236 14.9042C20.9362 13.6666 21.2 12.3403 21.2 11.0008C21.2 8.29557 20.1254 5.70116 18.2125 3.78829C16.2997 1.87542 13.7053 0.800781 11 0.800781C8.29484 0.800781 5.70043 1.87542 3.78756 3.78829C1.87469 5.70116 0.800049 8.29557 0.800049 11.0008ZM20 11.0008C20 13.3877 19.0518 15.6769 17.364 17.3647C15.6762 19.0526 13.387 20.0008 11 20.0008C8.6131 20.0008 6.32392 19.0526 4.63609 17.3647C2.94826 15.6769 2.00005 13.3877 2.00005 11.0008C2.00005 8.61383 2.94826 6.32465 4.63609 4.63682C6.32392 2.94899 8.6131 2.00078 11 2.00078C13.387 2.00078 15.6762 2.94899 17.364 4.63682C19.0518 6.32465 20 8.61383 20 11.0008Z" fill="#344054"/>
<path fill-rule="evenodd" clip-rule="evenodd" d="M6.80005 11.0004C6.80005 16.2756 8.53045 20.6004 11 20.6004C13.4696 20.6004 15.2 16.2756 15.2 11.0004C15.2 5.72519 13.4696 1.40039 11 1.40039C8.53045 1.40039 6.80005 5.72519 6.80005 11.0004ZM14 11.0004C14 15.6672 12.506 19.4004 11 19.4004C9.49405 19.4004 8.00005 15.6672 8.00005 11.0004C8.00005 6.33359 9.49405 2.60039 11 2.60039C12.506 2.60039 14 6.33359 14 11.0004Z" fill="#344054"/>
<path d="M3.48215 5.37477L4.28615 4.48438C4.41455 4.59958 4.55135 4.71237 4.69775 4.82157C6.27935 6.00717 8.77535 6.72957 11.4957 6.72957C13.8153 6.72957 15.9801 6.20517 17.5617 5.30157C17.9262 5.09539 18.2705 4.85555 18.5901 4.58517L19.3701 5.49717C19.0125 5.80317 18.6069 6.08517 18.1581 6.34197C16.3857 7.35597 14.0157 7.92957 11.4957 7.92957C8.53175 7.92957 5.78135 7.13397 3.97775 5.78157C3.80637 5.65326 3.64099 5.51831 3.48215 5.37477ZM3.48215 16.6404L4.28615 17.5284C4.41455 17.4132 4.55135 17.3004 4.69775 17.1924C6.27935 16.0068 8.77535 15.2844 11.4957 15.2844C13.8153 15.2844 15.9801 15.8076 17.5617 16.7124C17.9469 16.9332 18.2913 17.1732 18.5901 17.4276L19.3701 16.5156C18.9934 16.1967 18.5877 15.9139 18.1581 15.6708C16.3857 14.658 14.0157 14.0844 11.4957 14.0844C8.53175 14.0844 5.78135 14.88 3.97775 16.2312C3.80255 16.3632 3.63695 16.5 3.48215 16.6404ZM1.40015 11.6004V10.4004H20.6001V11.6004H1.40015Z" fill="#344054"/>
</svg>
