<svg width="32" height="33" viewBox="0 0 32 33" fill="none" xmlns="http://www.w3.org/2000/svg">
<g clip-path="url(#clip0_4_2739)">
<path d="M28.4445 26.2778H3.55564C3.31989 26.2778 3.0938 26.1841 2.9271 26.0174C2.7604 25.8507 2.66675 25.6246 2.66675 25.3889C2.66675 25.1531 2.7604 24.927 2.9271 24.7603C3.0938 24.5936 3.31989 24.5 3.55564 24.5H28.4445C28.6803 24.5 28.9064 24.5936 29.0731 24.7603C29.2398 24.927 29.3334 25.1531 29.3334 25.3889C29.3334 25.6246 29.2398 25.8507 29.0731 26.0174C28.9064 26.1841 28.6803 26.2778 28.4445 26.2778Z" fill="#344054"/>
<path d="M28.4445 17.3889H3.55564C3.31989 17.3889 3.0938 17.2952 2.9271 17.1285C2.7604 16.9618 2.66675 16.7357 2.66675 16.5C2.66675 16.2642 2.7604 16.0381 2.9271 15.8714C3.0938 15.7047 3.31989 15.6111 3.55564 15.6111H28.4445C28.6803 15.6111 28.9064 15.7047 29.0731 15.8714C29.2398 16.0381 29.3334 16.2642 29.3334 16.5C29.3334 16.7357 29.2398 16.9618 29.0731 17.1285C28.9064 17.2952 28.6803 17.3889 28.4445 17.3889Z" fill="#344054"/>
<path d="M28.4445 8.49995H3.55564C3.31989 8.49995 3.0938 8.4063 2.9271 8.2396C2.7604 8.0729 2.66675 7.8468 2.66675 7.61106C2.66675 7.37531 2.7604 7.14922 2.9271 6.98252C3.0938 6.81582 3.31989 6.72217 3.55564 6.72217H28.4445C28.6803 6.72217 28.9064 6.81582 29.0731 6.98252C29.2398 7.14922 29.3334 7.37531 29.3334 7.61106C29.3334 7.8468 29.2398 8.0729 29.0731 8.2396C28.9064 8.4063 28.6803 8.49995 28.4445 8.49995Z" fill="#344054"/>
</g>
<defs>
<clipPath id="clip0_4_2739">
<rect width="32" height="32" fill="white" transform="translate(0 0.5)"/>
</clipPath>
</defs>
</svg>
