<svg width="24" height="24" viewBox="0 0 24 24" fill="none" xmlns="http://www.w3.org/2000/svg">
<path d="M14.7696 12.4C14.9196 12.47 15.0896 12.5 15.2496 12.5C15.5796 12.5 15.8896 12.37 16.1296 12.14L18.3096 10H19.2496C20.7696 10 21.9996 8.77 21.9996 7.25V4.75C21.9996 3.23 20.7696 2 19.2496 2H14.7496C13.2296 2 11.9996 3.23 11.9996 4.75V7.25C11.9996 8.51 12.8496 9.57 13.9996 9.9V11.25C13.9996 11.75 14.3096 12.2 14.7696 12.4ZM13.4996 4.75C13.4996 4.06 14.0596 3.5 14.7496 3.5H19.2496C19.9396 3.5 20.4996 4.06 20.4996 4.75V7.25C20.4996 7.94 19.9396 8.5 19.2496 8.5H17.6896L15.4996 10.65V8.5H14.7496C14.0596 8.5 13.4996 7.94 13.4996 7.25V4.75ZM7.99962 13.5C6.06962 13.5 4.49962 11.93 4.49962 10C4.49962 8.07 6.06962 6.5 7.99962 6.5C9.92962 6.5 11.4996 8.07 11.4996 10C11.4996 11.93 9.92962 13.5 7.99962 13.5ZM7.99962 8C6.89962 8 5.99962 8.9 5.99962 10C5.99962 11.1 6.89962 12 7.99962 12C9.09962 12 9.99962 11.1 9.99962 10C9.99962 8.9 9.09962 8 7.99962 8ZM7.99962 22C5.93962 22 4.35962 21.44 3.29962 20.33C1.96362 18.926 1.99662 17.156 1.99962 16.973V16.96C1.99962 15.89 2.89962 15 3.99962 15H11.9996C13.0996 15 13.9996 15.9 13.9996 17L14.0006 17.006C14.0036 17.133 14.0456 18.916 12.7006 20.33C11.6396 21.44 10.0596 22 7.99962 22ZM3.99962 16.5C3.71962 16.5 3.49962 16.72 3.49962 17V17.005C3.49962 17.1 3.48262 18.353 4.39962 19.31C5.15962 20.1 6.36962 20.5 7.99962 20.5C9.62962 20.5 10.8496 20.09 11.6096 19.29C12.5226 18.338 12.5016 17.098 12.4996 17.032V17.03C12.4996 16.72 12.2696 16.49 11.9996 16.49H3.99962V16.5Z" fill="#344054"/>
</svg>
