<svg width="40" height="40" viewBox="0 0 40 40" fill="none" xmlns="http://www.w3.org/2000/svg">
<g filter="url(#filter0_d_4_2735)">
<path d="M23.9999 24.6667V26C23.9999 27.0609 23.5785 28.0783 22.8283 28.8284C22.0782 29.5786 21.0608 30 19.9999 30C18.939 30 17.9216 29.5786 17.1715 28.8284C16.4213 28.0783 15.9999 27.0609 15.9999 26V24.6667M23.9999 24.6667H15.9999M23.9999 24.6667H28.7866C29.2972 24.6667 29.5532 24.6667 29.7599 24.5973C29.9543 24.5315 30.1309 24.4217 30.2759 24.2765C30.4209 24.1312 30.5304 23.9545 30.5959 23.76C30.6666 23.552 30.6666 23.296 30.6666 22.7813C30.6666 22.556 30.6666 22.444 30.6479 22.336C30.6151 22.1341 30.5362 21.9425 30.4172 21.776C30.3532 21.6867 30.2732 21.6067 30.1146 21.448L29.5946 20.928C29.5116 20.845 29.4459 20.7464 29.401 20.638C29.3562 20.5296 29.3332 20.4133 29.3332 20.296V15.3333C29.3332 14.1077 29.0918 12.894 28.6228 11.7616C28.1537 10.6292 27.4663 9.60035 26.5996 8.73367C25.7329 7.86699 24.704 7.1795 23.5716 6.71046C22.4393 6.24141 21.2256 6 19.9999 6C18.7742 6 17.5606 6.24141 16.4282 6.71046C15.2958 7.1795 14.2669 7.86699 13.4003 8.73367C12.5336 9.60035 11.8461 10.6292 11.377 11.7616C10.908 12.894 10.6666 14.1077 10.6666 15.3333V20.296C10.6667 20.4133 10.6436 20.5296 10.5988 20.638C10.554 20.7464 10.4882 20.845 10.4053 20.928L9.88525 21.448C9.72525 21.608 9.64659 21.6867 9.58392 21.7747C9.46396 21.9413 9.3841 22.1334 9.35059 22.336C9.33325 22.4427 9.33325 22.556 9.33325 22.7813C9.33325 23.296 9.33325 23.552 9.40259 23.76C9.46836 23.9548 9.57829 24.1317 9.72378 24.277C9.86926 24.4222 10.0464 24.5319 10.2413 24.5973C10.4479 24.6667 10.7026 24.6667 11.2133 24.6667H15.9999" stroke="#344054" stroke-width="2" stroke-linecap="round" stroke-linejoin="round"/>
</g>
<defs>
<filter id="filter0_d_4_2735" x="0" y="0" width="40" height="40" filterUnits="userSpaceOnUse" color-interpolation-filters="sRGB">
<feFlood flood-opacity="0" result="BackgroundImageFix"/>
<feColorMatrix in="SourceAlpha" type="matrix" values="0 0 0 0 0 0 0 0 0 0 0 0 0 0 0 0 0 0 127 0" result="hardAlpha"/>
<feOffset dy="2"/>
<feGaussianBlur stdDeviation="2"/>
<feComposite in2="hardAlpha" operator="out"/>
<feColorMatrix type="matrix" values="0 0 0 0 0 0 0 0 0 0 0 0 0 0 0 0 0 0 0.15 0"/>
<feBlend mode="normal" in2="BackgroundImageFix" result="effect1_dropShadow_4_2735"/>
<feBlend mode="normal" in="SourceGraphic" in2="effect1_dropShadow_4_2735" result="shape"/>
</filter>
</defs>
</svg>
