<svg width="24" height="24" viewBox="0 0 24 24" fill="none" xmlns="http://www.w3.org/2000/svg">
<path d="M4 17V19H20V17H4ZM4 6H6.2C6.11667 5.85 6.06234 5.69167 6.037 5.525C6.01167 5.35833 5.99934 5.18333 6 5C6 4.16667 6.29167 3.45833 6.875 2.875C7.45834 2.29167 8.16667 2 9 2C9.5 2 9.96267 2.12933 10.388 2.388C10.8133 2.64667 11.184 2.96733 11.5 3.35L12 4L12.5 3.35C12.8 2.95 13.1667 2.625 13.6 2.375C14.0333 2.125 14.5 2 15 2C15.8333 2 16.5417 2.29167 17.125 2.875C17.7083 3.45833 18 4.16667 18 5C18 5.18333 17.9873 5.35833 17.962 5.525C17.9367 5.69167 17.8827 5.85 17.8 6H20C20.55 6 21.0207 6.196 21.412 6.588C21.8033 6.98 21.9993 7.45067 22 8V19C22 19.55 21.804 20.021 21.412 20.413C21.02 20.805 20.5493 21.0007 20 21H4C3.45 21 2.979 20.804 2.587 20.412C2.195 20.02 1.99934 19.5493 2 19V8C2 7.45 2.196 6.979 2.588 6.587C2.98 6.195 3.45067 5.99933 4 6ZM4 14H20V8H14.9L17 10.85L15.4 12L12 7.4L8.6 12L7 10.85L9.05 8H4V14ZM9 6C9.28334 6 9.521 5.904 9.713 5.712C9.905 5.52 10.0007 5.28267 10 5C10 4.71667 9.904 4.479 9.712 4.287C9.52 4.095 9.28267 3.99933 9 4C8.71667 4 8.479 4.096 8.287 4.288C8.095 4.48 7.99934 4.71733 8 5C8 5.28333 8.096 5.521 8.288 5.713C8.48 5.905 8.71734 6.00067 9 6ZM15 6C15.2833 6 15.521 5.904 15.713 5.712C15.905 5.52 16.0007 5.28267 16 5C16 4.71667 15.904 4.479 15.712 4.287C15.52 4.095 15.2827 3.99933 15 4C14.7167 4 14.479 4.096 14.287 4.288C14.095 4.48 13.9993 4.71733 14 5C14 5.28333 14.096 5.521 14.288 5.713C14.48 5.905 14.7173 6.00067 15 6Z" fill="#344054"/>
</svg>
