<svg width="20" height="20" viewBox="0 0 20 20" fill="none" xmlns="http://www.w3.org/2000/svg">
<path d="M17.8517 14.0692L18.2926 14.5125L17.8509 14.0692H17.8517ZM7.34673 12.2725L7.78673 11.8292L7.3459 12.2725H7.34673ZM3.9084 3.44584L3.4684 3.00334L3.90923 3.44667L3.9084 3.44584ZM13.8567 11.5758L14.2376 11.1983L13.3551 10.3117L12.9767 10.6892L13.8567 11.5758ZM15.5117 11.04L17.1042 11.9058L17.7001 10.8075L16.1084 9.94251L15.5117 11.04ZM17.4101 13.6258L16.2267 14.8033L17.1076 15.6892L18.2909 14.5125L17.4101 13.6258ZM15.5051 15.1817C14.2967 15.295 11.1717 15.1942 7.78673 11.8292L6.90506 12.715C10.5984 16.3875 14.1142 16.5675 15.6217 16.4267L15.5042 15.1817H15.5051ZM7.78673 11.8292C4.5609 8.62084 4.0259 5.92334 3.95923 4.75251L2.7109 4.82334C2.79423 6.29667 3.45673 9.28667 6.90506 12.715L7.78673 11.8292ZM8.93256 6.67917L9.17173 6.44084L8.29173 5.55501L8.05256 5.79251L8.9334 6.67834L8.93256 6.67917ZM9.36173 3.41167L8.31173 2.00834L7.3109 2.75834L8.3609 4.16084L9.36173 3.41167ZM4.77756 1.70251L3.46923 3.00251L4.3509 3.88917L5.6584 2.58917L4.77756 1.70251ZM8.49256 6.23584C8.0509 5.79251 8.0509 5.79251 8.0509 5.79417H8.04923L8.04673 5.79751C8.00738 5.83766 7.97195 5.88147 7.9409 5.92834C7.8959 5.99501 7.84673 6.08251 7.80506 6.19334C7.70359 6.47944 7.67832 6.78702 7.73173 7.08584C7.8434 7.80667 8.34006 8.75917 9.61173 10.0242L10.4934 9.13751C9.30256 7.95417 9.01923 7.23417 8.96673 6.89417C8.94173 6.73251 8.96756 6.65251 8.97506 6.63417C8.97923 6.62251 8.9809 6.62167 8.97506 6.62917C8.96771 6.64073 8.95935 6.65161 8.95006 6.66167L8.94173 6.67001C8.93904 6.6726 8.93626 6.6751 8.9334 6.67751L8.49173 6.23584H8.49256ZM9.61173 10.0242C10.8842 11.2892 11.8417 11.7825 12.5634 11.8925C12.9326 11.9492 13.2301 11.9042 13.4559 11.82C13.5822 11.7733 13.7003 11.7069 13.8059 11.6233C13.8202 11.6114 13.8341 11.5988 13.8476 11.5858L13.8534 11.5808L13.8559 11.5783L13.8567 11.5767C13.8567 11.5767 13.8576 11.5758 13.4167 11.1325C12.9751 10.6892 12.9776 10.6883 12.9776 10.6883L12.9792 10.6867L12.9809 10.685L12.9859 10.6808L12.9942 10.6725C13.0042 10.6635 13.0148 10.6552 13.0259 10.6475C13.0342 10.6417 13.0317 10.6442 13.0201 10.6492C12.9992 10.6567 12.9176 10.6825 12.7534 10.6575C12.4084 10.6042 11.6834 10.3208 10.4934 9.13751L9.61173 10.0242ZM8.31173 2.00751C7.46173 0.874174 5.79173 0.694174 4.77756 1.70251L5.6584 2.58917C6.10173 2.14834 6.8884 2.19417 7.3109 2.75834L8.3109 2.00751H8.31173ZM3.96006 4.75334C3.9434 4.46501 4.0759 4.16334 4.3509 3.89001L3.4684 3.00334C3.0209 3.44834 2.6684 4.07834 2.7109 4.82334L3.96006 4.75334ZM16.2267 14.8033C15.9984 15.0317 15.7517 15.16 15.5059 15.1825L15.6217 16.4267C16.2342 16.3692 16.7351 16.0608 17.1084 15.69L16.2267 14.8033ZM9.17173 6.44084C9.99256 5.62501 10.0534 4.33584 9.36256 3.41251L8.36173 4.16167C8.69756 4.61084 8.64756 5.20001 8.2909 5.55584L9.17173 6.44084ZM17.1051 11.9067C17.7859 12.2767 17.8917 13.1483 17.4109 13.6267L18.2926 14.5125C19.4092 13.4017 19.0651 11.5492 17.7009 10.8083L17.1051 11.9067ZM14.2376 11.1992C14.5576 10.8808 15.0726 10.8025 15.5126 11.0408L16.1092 9.94334C15.2059 9.45167 14.0859 9.58751 13.3559 10.3125L14.2376 11.1992Z" fill="#667085"/>
</svg>
