<svg width="20" height="20" viewBox="0 0 20 20" fill="none" xmlns="http://www.w3.org/2000/svg">
<path d="M9.99992 14.1667C9.55789 14.1667 9.13397 13.9911 8.82141 13.6785C8.50885 13.366 8.33325 12.942 8.33325 12.5C8.33325 11.575 9.07492 10.8333 9.99992 10.8333C10.4419 10.8333 10.8659 11.0089 11.1784 11.3215C11.491 11.6341 11.6666 12.058 11.6666 12.5C11.6666 12.942 11.491 13.366 11.1784 13.6785C10.8659 13.9911 10.4419 14.1667 9.99992 14.1667ZM14.9999 16.6667V8.33334H4.99992V16.6667H14.9999ZM14.9999 6.66667C15.4419 6.66667 15.8659 6.84226 16.1784 7.15482C16.491 7.46739 16.6666 7.89131 16.6666 8.33334V16.6667C16.6666 17.1087 16.491 17.5326 16.1784 17.8452C15.8659 18.1577 15.4419 18.3333 14.9999 18.3333H4.99992C4.55789 18.3333 4.13397 18.1577 3.82141 17.8452C3.50885 17.5326 3.33325 17.1087 3.33325 16.6667V8.33334C3.33325 7.40834 4.07492 6.66667 4.99992 6.66667H5.83325V5C5.83325 3.89493 6.27224 2.83513 7.05364 2.05372C7.83504 1.27232 8.89485 0.833336 9.99992 0.833336C10.5471 0.833336 11.0889 0.94111 11.5944 1.1505C12.1 1.3599 12.5593 1.66681 12.9462 2.05372C13.3331 2.44063 13.64 2.89996 13.8494 3.40549C14.0588 3.91101 14.1666 4.45283 14.1666 5V6.66667H14.9999ZM9.99992 2.5C9.33688 2.5 8.70099 2.76339 8.23215 3.23224C7.76331 3.70108 7.49992 4.33696 7.49992 5V6.66667H12.4999V5C12.4999 4.33696 12.2365 3.70108 11.7677 3.23224C11.2988 2.76339 10.663 2.5 9.99992 2.5Z" fill="#667085"/>
</svg>
