<svg width="40" height="40" viewBox="0 0 40 40" fill="none" xmlns="http://www.w3.org/2000/svg">
<g clip-path="url(#clip0_942_1134)">
<path d="M30 33.3333L36.3733 26.96C36.5609 26.7726 36.6664 26.5185 36.6667 26.2533V17.5C36.6667 16.837 36.4033 16.2011 35.9344 15.7322C35.4656 15.2634 34.8297 15 34.1667 15C33.5036 15 32.8677 15.2634 32.3989 15.7322C31.9301 16.2011 31.6667 16.837 31.6667 17.5V25" stroke="#34A853" stroke-width="1.5" stroke-linecap="round" stroke-linejoin="round"/>
<path d="M29.9997 26.6667L31.4297 25.2367C31.5048 25.1616 31.5644 25.0725 31.605 24.9744C31.6456 24.8763 31.6665 24.7712 31.6663 24.665C31.6661 24.5151 31.6242 24.3683 31.5453 24.2408C31.4665 24.1134 31.3537 24.0104 31.2197 23.9433L30.4813 23.575C29.8558 23.2622 29.1478 23.1541 28.4574 23.266C27.7671 23.3779 27.1294 23.704 26.6347 24.1983L25.143 25.69C24.5178 26.315 24.1665 27.1627 24.1663 28.0467V33.3333M9.99967 33.3333L3.62634 26.96C3.43875 26.7726 3.33324 26.5185 3.33301 26.2533V17.5C3.33301 16.837 3.5964 16.2011 4.06524 15.7322C4.53408 15.2634 5.16997 15 5.83301 15C6.49605 15 7.13193 15.2634 7.60078 15.7322C8.06962 16.2011 8.33301 16.837 8.33301 17.5V25" stroke="#34A853" stroke-width="1.5" stroke-linecap="round" stroke-linejoin="round"/>
<path d="M9.99967 26.6662L8.56967 25.2362C8.49462 25.1612 8.43509 25.072 8.39448 24.9739C8.35387 24.8759 8.33298 24.7707 8.33301 24.6646C8.33301 24.3596 8.50634 24.0812 8.77967 23.9429L9.51801 23.5746C10.1435 23.2618 10.8516 23.1537 11.5419 23.2656C12.2323 23.3774 12.8699 23.7036 13.3647 24.1979L14.8563 25.6896C15.4815 26.3145 15.8328 27.1623 15.833 28.0462V33.3329" stroke="#34A853" stroke-width="1.5" stroke-linecap="round" stroke-linejoin="round"/>
<path d="M18.3337 6.66667C18.3337 6.50185 18.2848 6.34073 18.1932 6.20369C18.1017 6.06665 17.9715 5.95984 17.8192 5.89677C17.667 5.83369 17.4994 5.81719 17.3378 5.84935C17.1761 5.8815 17.0276 5.96087 16.9111 6.07741C16.7945 6.19396 16.7152 6.34244 16.683 6.50409C16.6509 6.66574 16.6674 6.8333 16.7304 6.98557C16.7935 7.13784 16.9003 7.26799 17.0374 7.35956C17.1744 7.45113 17.3355 7.5 17.5003 7.5C17.7213 7.5 17.9333 7.4122 18.0896 7.25592C18.2459 7.09964 18.3337 6.88768 18.3337 6.66667ZM22.0837 10.05C21.989 9.99456 21.8844 9.95833 21.7758 9.9434C21.6671 9.92848 21.5566 9.93514 21.4506 9.96301C21.3445 9.99088 21.245 10.0394 21.1577 10.1058C21.0704 10.1722 20.9971 10.2552 20.942 10.35C20.8474 10.5163 20.7104 10.6546 20.545 10.7508C20.3796 10.847 20.1917 10.8977 20.0003 10.8977C19.809 10.8977 19.621 10.847 19.4556 10.7508C19.2902 10.6546 19.1533 10.5163 19.0587 10.35C19.0035 10.2552 18.9302 10.1722 18.843 10.1058C18.7557 10.0394 18.6562 9.99088 18.5501 9.96301C18.444 9.93514 18.3335 9.92848 18.2249 9.9434C18.1162 9.95833 18.0116 9.99456 17.917 10.05C17.7264 10.1599 17.587 10.3408 17.5292 10.5531C17.4715 10.7654 17.5 10.992 17.6087 11.1833C17.8504 11.604 18.1988 11.9535 18.6187 12.1965C19.0386 12.4395 19.5152 12.5675 20.0003 12.5675C20.4855 12.5675 20.9621 12.4395 21.382 12.1965C21.8019 11.9535 22.1503 11.604 22.392 11.1833C22.5006 10.992 22.5292 10.7654 22.4714 10.5531C22.4137 10.3408 22.2743 10.1599 22.0837 10.05ZM22.5003 5.83333C22.3355 5.83333 22.1744 5.88221 22.0374 5.97378C21.9003 6.06534 21.7935 6.19549 21.7304 6.34776C21.6674 6.50004 21.6509 6.66759 21.683 6.82924C21.7152 6.99089 21.7945 7.13938 21.9111 7.25592C22.0276 7.37247 22.1761 7.45183 22.3378 7.48399C22.4994 7.51614 22.667 7.49964 22.8192 7.43657C22.9715 7.37349 23.1017 7.26668 23.1932 7.12964C23.2848 6.9926 23.3337 6.83148 23.3337 6.66667C23.3337 6.44565 23.2459 6.23369 23.0896 6.07741C22.9333 5.92113 22.7213 5.83333 22.5003 5.83333ZM20.0003 0C18.3522 0 16.741 0.488742 15.3706 1.40442C14.0002 2.3201 12.9321 3.62159 12.3013 5.1443C11.6706 6.66702 11.5056 8.34258 11.8271 9.95909C12.1487 11.5756 12.9423 13.0605 14.1078 14.2259C15.2732 15.3913 16.7581 16.185 18.3746 16.5065C19.9911 16.8281 21.6666 16.6631 23.1894 16.0323C24.7121 15.4016 26.0136 14.3335 26.9292 12.9631C27.8449 11.5927 28.3337 9.98151 28.3337 8.33333C28.3337 7.23898 28.1181 6.15535 27.6993 5.1443C27.2805 4.13326 26.6667 3.2146 25.8929 2.44078C25.1191 1.66696 24.2004 1.05313 23.1894 0.634337C22.1783 0.215548 21.0947 0 20.0003 0ZM20.0003 15C18.4481 15.0067 16.9422 14.4715 15.7423 13.4868C14.5423 12.5021 13.7237 11.1295 13.4274 9.60575C13.1312 8.08202 13.3759 6.50269 14.1194 5.14009C14.863 3.77749 16.0587 2.71706 17.5003 2.14167C17.4918 2.26096 17.4918 2.38071 17.5003 2.5C17.5003 3.16304 17.7637 3.79893 18.2326 4.26777C18.7014 4.73661 19.3373 5 20.0003 5C20.2213 5 20.4333 4.9122 20.5896 4.75592C20.7459 4.59964 20.8337 4.38768 20.8337 4.16667C20.8337 3.94565 20.7459 3.73369 20.5896 3.57741C20.4333 3.42113 20.2213 3.33333 20.0003 3.33333C19.7793 3.33333 19.5674 3.24554 19.4111 3.08926C19.2548 2.93298 19.167 2.72101 19.167 2.5C19.167 2.27899 19.2548 2.06702 19.4111 1.91074C19.5674 1.75446 19.7793 1.66667 20.0003 1.66667C21.7684 1.66667 23.4641 2.36905 24.7144 3.61929C25.9646 4.86953 26.667 6.56522 26.667 8.33333C26.667 10.1014 25.9646 11.7971 24.7144 13.0474C23.4641 14.2976 21.7684 15 20.0003 15Z" fill="#34A853"/>
</g>
<defs>
<clipPath id="clip0_942_1134">
<rect width="40" height="40" fill="white"/>
</clipPath>
</defs>
</svg>
