<svg width="32" height="33" viewBox="0 0 32 33" fill="none" xmlns="http://www.w3.org/2000/svg">
<path d="M26.6666 16.4997H5.33325M21.3333 5.83301H23.9999C24.7072 5.83301 25.3854 6.11396 25.8855 6.61406C26.3856 7.11415 26.6666 7.79243 26.6666 8.49967V11.1663M10.6666 27.1663H7.99992C7.29267 27.1663 6.6144 26.8854 6.1143 26.3853C5.6142 25.8852 5.33325 25.2069 5.33325 24.4997V21.833M26.6666 21.833V24.4997C26.6666 25.2069 26.3856 25.8852 25.8855 26.3853C25.3854 26.8854 24.7072 27.1663 23.9999 27.1663H21.3333M5.33325 11.1663V8.49967C5.33325 7.79243 5.6142 7.11415 6.1143 6.61406C6.6144 6.11396 7.29267 5.83301 7.99992 5.83301H10.6666" stroke="#344054" stroke-width="2" stroke-linecap="round" stroke-linejoin="round"/>
</svg>
