<svg width="24" height="24" viewBox="0 0 24 24" fill="none" xmlns="http://www.w3.org/2000/svg">
<path d="M18.8332 18.9997C19.452 18.9997 20.0455 19.2455 20.4831 19.6831C20.9207 20.1207 21.1665 20.7142 21.1665 21.333C21.1665 21.9518 20.9207 22.5453 20.4831 22.9829C20.0455 23.4205 19.452 23.6663 18.8332 23.6663C18.2143 23.6663 17.6208 23.4205 17.1833 22.9829C16.7457 22.5453 16.4998 21.9518 16.4998 21.333C16.4998 20.038 17.5382 18.9997 18.8332 18.9997ZM0.166504 0.333008H3.9815L5.07817 2.66634H22.3332C22.6426 2.66634 22.9393 2.78926 23.1581 3.00805C23.3769 3.22684 23.4998 3.52359 23.4998 3.83301C23.4998 4.03134 23.4415 4.22967 23.3598 4.41634L19.1832 11.9647C18.7865 12.6763 18.0165 13.1663 17.1415 13.1663H8.44984L7.39984 15.068L7.36484 15.208C7.36484 15.2854 7.39557 15.3596 7.45026 15.4142C7.50496 15.4689 7.57915 15.4997 7.6565 15.4997H21.1665V17.833H7.1665C6.54767 17.833 5.95417 17.5872 5.51659 17.1496C5.079 16.712 4.83317 16.1185 4.83317 15.4997C4.83317 15.0913 4.93817 14.7063 5.11317 14.3797L6.69984 11.5213L2.49984 2.66634H0.166504V0.333008ZM7.1665 18.9997C7.78534 18.9997 8.37883 19.2455 8.81642 19.6831C9.254 20.1207 9.49984 20.7142 9.49984 21.333C9.49984 21.9518 9.254 22.5453 8.81642 22.9829C8.37883 23.4205 7.78534 23.6663 7.1665 23.6663C6.54767 23.6663 5.95417 23.4205 5.51659 22.9829C5.079 22.5453 4.83317 21.9518 4.83317 21.333C4.83317 20.038 5.8715 18.9997 7.1665 18.9997ZM17.6665 10.833L20.9098 4.99967H6.16317L8.9165 10.833H17.6665Z" fill="#1D2939"/>
</svg>
