<svg width="28" height="28" viewBox="0 0 28 28" fill="none" xmlns="http://www.w3.org/2000/svg">
<path d="M24.4999 14.2567C24.4999 7.85167 19.5299 3.5 13.9999 3.5C8.52825 3.5 3.49992 7.75833 3.49992 14.3267C2.79992 14.7233 2.33325 15.47 2.33325 16.3333V18.6667C2.33325 19.95 3.38325 21 4.66658 21C5.30825 21 5.83325 20.475 5.83325 19.8333V14.2217C5.83325 9.75333 9.27492 5.845 13.7432 5.71667C14.8368 5.68341 15.926 5.87001 16.9461 6.2654C17.9662 6.66079 18.8966 7.25694 19.6821 8.01851C20.4676 8.78009 21.0923 9.69159 21.519 10.699C21.9458 11.7064 22.166 12.7893 22.1666 13.8833V22.1667H13.9999C13.3583 22.1667 12.8333 22.6917 12.8333 23.3333C12.8333 23.975 13.3583 24.5 13.9999 24.5H22.1666C23.4499 24.5 24.4999 23.45 24.4999 22.1667V20.7433C25.1882 20.3817 25.6666 19.67 25.6666 18.83V16.1467C25.6666 15.33 25.1882 14.6183 24.4999 14.2567Z" fill="black"/>
<path d="M10.4999 16.3333C11.1443 16.3333 11.6666 15.811 11.6666 15.1667C11.6666 14.5223 11.1443 14 10.4999 14C9.85559 14 9.33325 14.5223 9.33325 15.1667C9.33325 15.811 9.85559 16.3333 10.4999 16.3333Z" fill="black"/>
<path d="M17.4999 16.3333C18.1443 16.3333 18.6666 15.811 18.6666 15.1667C18.6666 14.5223 18.1443 14 17.4999 14C16.8556 14 16.3333 14.5223 16.3333 15.1667C16.3333 15.811 16.8556 16.3333 17.4999 16.3333Z" fill="black"/>
<path d="M21 12.8683C20.7219 11.2282 19.8724 9.73929 18.6019 8.66528C17.3314 7.59126 15.722 7.00137 14.0584 7C10.5234 7 6.72005 9.92833 7.02338 14.525C8.46204 13.9363 9.73266 13.0007 10.722 11.8017C11.7113 10.6028 12.3886 9.1776 12.6934 7.65333C14.2217 10.7217 17.36 12.8333 21 12.8683Z" fill="black"/>
</svg>
