<svg width="24" height="20" viewBox="0 0 24 20" fill="none" xmlns="http://www.w3.org/2000/svg">
<g clip-path="url(#clip0_7_6311)">
<path d="M22.4 14.5833V2.08333C22.4 1.97049 22.3604 1.87283 22.2812 1.79036C22.2021 1.7079 22.1083 1.66667 22 1.66667H2C1.89167 1.66667 1.79792 1.7079 1.71875 1.79036C1.63958 1.87283 1.6 1.97049 1.6 2.08333V14.5833C1.6 14.6962 1.63958 14.7938 1.71875 14.8763C1.79792 14.9588 1.89167 15 2 15H22C22.1083 15 22.2021 14.9588 22.2812 14.8763C22.3604 14.7938 22.4 14.6962 22.4 14.5833ZM24 2.08333V14.5833C24 15.1562 23.8042 15.6467 23.4125 16.0547C23.0208 16.4627 22.55 16.6667 22 16.6667H12.8V18.3333H17.2C17.3167 18.3333 17.4125 18.3724 17.4875 18.4505C17.5625 18.5286 17.6 18.6285 17.6 18.75V19.5833C17.6 19.7049 17.5625 19.8047 17.4875 19.8828C17.4125 19.9609 17.3167 20 17.2 20H6.8C6.68333 20 6.5875 19.9609 6.5125 19.8828C6.4375 19.8047 6.4 19.7049 6.4 19.5833V18.75C6.4 18.6285 6.4375 18.5286 6.5125 18.4505C6.5875 18.3724 6.68333 18.3333 6.8 18.3333H11.2V16.6667H2C1.45 16.6667 0.979167 16.4627 0.5875 16.0547C0.195833 15.6467 0 15.1562 0 14.5833V2.08333C0 1.51042 0.195833 1.01997 0.5875 0.611979C0.979167 0.203993 1.45 0 2 0H22C22.55 0 23.0208 0.203993 23.4125 0.611979C23.8042 1.01997 24 1.51042 24 2.08333Z" fill="#344054"/>
</g>
<defs>
<clipPath id="clip0_7_6311">
<rect width="24" height="20" fill="white"/>
</clipPath>
</defs>
</svg>
