<svg width="28" height="24" viewBox="0 0 28 24" fill="none" xmlns="http://www.w3.org/2000/svg">
<path d="M26.1333 17.0139V2.43056C26.1333 2.2989 26.0872 2.18497 25.9948 2.08876C25.9024 1.99255 25.7931 1.94444 25.6667 1.94444H2.33333C2.20694 1.94444 2.09757 1.99255 2.00521 2.08876C1.91285 2.18497 1.86667 2.2989 1.86667 2.43056V17.0139C1.86667 17.1455 1.91285 17.2595 2.00521 17.3557C2.09757 17.4519 2.20694 17.5 2.33333 17.5H25.6667C25.7931 17.5 25.9024 17.4519 25.9948 17.3557C26.0872 17.2595 26.1333 17.1455 26.1333 17.0139ZM28 2.43056V17.0139C28 17.6823 27.7715 18.2545 27.3146 18.7305C26.8576 19.2065 26.3083 19.4444 25.6667 19.4444H14.9333V21.3889H20.0667C20.2028 21.3889 20.3146 21.4345 20.4021 21.5256C20.4896 21.6168 20.5333 21.7332 20.5333 21.875V22.8472C20.5333 22.989 20.4896 23.1055 20.4021 23.1966C20.3146 23.2878 20.2028 23.3333 20.0667 23.3333H7.93333C7.79722 23.3333 7.68542 23.2878 7.59792 23.1966C7.51042 23.1055 7.46667 22.989 7.46667 22.8472V21.875C7.46667 21.7332 7.51042 21.6168 7.59792 21.5256C7.68542 21.4345 7.79722 21.3889 7.93333 21.3889H13.0667V19.4444H2.33333C1.69167 19.4444 1.14236 19.2065 0.685417 18.7305C0.228472 18.2545 0 17.6823 0 17.0139V2.43056C0 1.76215 0.228472 1.18996 0.685417 0.713976C1.14236 0.237992 1.69167 0 2.33333 0H25.6667C26.3083 0 26.8576 0.237992 27.3146 0.713976C27.7715 1.18996 28 1.76215 28 2.43056Z" fill="#1D2939"/>
</svg>
