<svg width="24" height="24" viewBox="0 0 24 24" fill="none" xmlns="http://www.w3.org/2000/svg">
<g clip-path="url(#clip0_4_2685)" filter="url(#filter0_d_4_2685)">
<path d="M4.00541 4.53904C3.99816 4.16929 4.09766 3.30704 5.22166 3.00679L16.5094 0.74707C17.3367 0.74707 18.0094 1.41981 18.0094 2.24707V4.25807L18.5094 4.25682C19.3337 4.26031 20.0037 4.93104 20.0037 5.75631V13.7533C20.0037 14.5806 19.3309 15.2533 18.5037 15.2533H5.49641C4.66915 15.2533 3.99641 14.5806 3.99641 13.7533L4.00541 4.53904ZM17.0094 2.24706C17.0094 1.98581 16.8082 1.77107 16.5529 1.74907L5.52168 3.98157C5.51768 3.98357 5.60368 4.26181 6.00418 4.25657H17.0094V2.24706ZM4.9962 13.7536C4.9962 14.0296 5.2202 14.2536 5.4962 14.2536H18.5037C18.7797 14.2536 19.0037 14.0296 19.0037 13.7536V5.75632C19.0037 5.48032 18.7797 5.25632 18.5037 5.25632H6.0027C5.51195 5.25632 4.99645 5.08907 4.99645 4.75807V13.7536H4.9962ZM17.0027 8.75807C17.5549 8.75807 18.0027 9.20582 18.0027 9.75807C18.0027 10.3103 17.5549 10.7581 17.0027 10.7581C16.4504 10.7581 16.0027 10.3103 16.0027 9.75807C16.0027 9.20582 16.4504 8.75807 17.0027 8.75807Z" fill="#ED1C24"/>
</g>
<defs>
<filter id="filter0_d_4_2685" x="0" y="0" width="24" height="24" filterUnits="userSpaceOnUse" color-interpolation-filters="sRGB">
<feFlood flood-opacity="0" result="BackgroundImageFix"/>
<feColorMatrix in="SourceAlpha" type="matrix" values="0 0 0 0 0 0 0 0 0 0 0 0 0 0 0 0 0 0 127 0" result="hardAlpha"/>
<feOffset dy="4"/>
<feGaussianBlur stdDeviation="2"/>
<feComposite in2="hardAlpha" operator="out"/>
<feColorMatrix type="matrix" values="0 0 0 0 0 0 0 0 0 0 0 0 0 0 0 0 0 0 0.25 0"/>
<feBlend mode="normal" in2="BackgroundImageFix" result="effect1_dropShadow_4_2685"/>
<feBlend mode="normal" in="SourceGraphic" in2="effect1_dropShadow_4_2685" result="shape"/>
</filter>
<clipPath id="clip0_4_2685">
<rect width="16" height="16" fill="white" transform="matrix(-1 0 0 1 20 0)"/>
</clipPath>
</defs>
</svg>
