<svg width="30" height="26" viewBox="0 0 30 26" fill="none" xmlns="http://www.w3.org/2000/svg">
<path d="M9.25741 6.58056C9.73688 5.42262 10.549 4.43289 11.591 3.73654C12.633 3.0402 13.8581 2.66852 15.1114 2.66852C16.3647 2.66852 17.5898 3.0402 18.6318 3.73654C19.6739 4.43289 20.486 5.42262 20.9654 6.58056C21.0669 6.82562 21.2616 7.02032 21.5066 7.12184C21.7517 7.22336 22.027 7.22338 22.2721 7.12189C22.5171 7.0204 22.7118 6.82572 22.8134 6.58067C22.9149 6.33562 22.9149 6.06028 22.8134 5.81522C22.1826 4.29169 21.1142 2.98945 19.7432 2.07323C18.3723 1.15701 16.7604 0.667969 15.1114 0.667969C13.4625 0.667969 11.8506 1.15701 10.4796 2.07323C9.10862 2.98945 8.04018 4.29169 7.40942 5.81522C7.30793 6.06028 7.30794 6.33562 7.40946 6.58067C7.51098 6.82572 7.70569 7.0204 7.95075 7.12189C8.19581 7.22338 8.47115 7.22336 8.7162 7.12184C8.96124 7.02032 9.15593 6.82562 9.25741 6.58056ZM8.33341 19.0019C8.33341 19.3555 8.19294 19.6947 7.94289 19.9447C7.69284 20.1947 7.3537 20.3352 7.00008 20.3352C6.64646 20.3352 6.30732 20.1947 6.05727 19.9447C5.80722 19.6947 5.66675 19.3555 5.66675 19.0019C5.66675 18.6483 5.80722 18.3091 6.05727 18.0591C6.30732 17.809 6.64646 17.6686 7.00008 17.6686C7.3537 17.6686 7.69284 17.809 7.94289 18.0591C8.19294 18.3091 8.33341 18.6483 8.33341 19.0019ZM12.3334 19.0019C12.3334 19.3555 12.1929 19.6947 11.9429 19.9447C11.6928 20.1947 11.3537 20.3352 11.0001 20.3352C10.6465 20.3352 10.3073 20.1947 10.0573 19.9447C9.80722 19.6947 9.66675 19.3555 9.66675 19.0019C9.66675 18.6483 9.80722 18.3091 10.0573 18.0591C10.3073 17.809 10.6465 17.6686 11.0001 17.6686C11.3537 17.6686 11.6928 17.809 11.9429 18.0591C12.1929 18.3091 12.3334 18.6483 12.3334 19.0019ZM16.6667 19.0019C16.6667 18.7367 16.7721 18.4823 16.9596 18.2948C17.1472 18.1072 17.4015 18.0019 17.6667 18.0019H23.0001C23.2653 18.0019 23.5197 18.1072 23.7072 18.2948C23.8947 18.4823 24.0001 18.7367 24.0001 19.0019C24.0001 19.2671 23.8947 19.5215 23.7072 19.709C23.5197 19.8965 23.2653 20.0019 23.0001 20.0019H17.6667C17.4015 20.0019 17.1472 19.8965 16.9596 19.709C16.7721 19.5215 16.6667 19.2671 16.6667 19.0019Z" fill="#344054"/>
<path fill-rule="evenodd" clip-rule="evenodd" d="M2.50408 3.46756C2.73431 3.33609 3.00732 3.30142 3.26309 3.37118C3.51887 3.44093 3.73648 3.60941 3.86808 3.83956L8.91342 12.6689H21.0868L26.1321 3.83956C26.267 3.61597 26.4839 3.45401 26.7367 3.38829C26.9894 3.32258 27.2578 3.35831 27.4845 3.48786C27.7112 3.61741 27.8782 3.8305 27.9499 4.08159C28.0216 4.33268 27.9922 4.60184 27.8681 4.83156L23.3894 12.6689C24.4468 12.6689 25.3388 12.6782 26.0588 12.7756C26.8961 12.8876 27.6521 13.1356 28.2588 13.7436C28.8668 14.3502 29.1148 15.1062 29.2268 15.9436C29.3334 16.7356 29.3334 17.7356 29.3334 18.9329V19.0716C29.3334 20.2702 29.3334 21.2689 29.2268 22.0609C29.1148 22.8982 28.8668 23.6542 28.2588 24.2609C27.6521 24.8689 26.8961 25.1169 26.0588 25.2289C25.2668 25.3356 24.2681 25.3356 23.0694 25.3356H6.93075C5.73342 25.3356 4.73342 25.3356 3.94142 25.2289C3.10408 25.1169 2.34808 24.8689 1.74141 24.2609C1.13341 23.6542 0.885415 22.8982 0.773415 22.0609C0.666748 21.2689 0.666748 20.2689 0.666748 19.0716V18.9329C0.666748 17.7342 0.666748 16.7356 0.773415 15.9436C0.885415 15.1062 1.13341 14.3502 1.74008 13.7436C2.34808 13.1356 3.10408 12.8876 3.94008 12.7756C4.66142 12.6782 5.55342 12.6689 6.61075 12.6689L2.13075 4.83156C1.99939 4.60117 1.96492 4.32804 2.03493 4.07224C2.10495 3.81644 2.2737 3.59893 2.50408 3.46756ZM21.6468 14.6689H23.0001C24.2854 14.6689 25.1494 14.6716 25.7934 14.7569C26.4081 14.8409 26.6721 14.9836 26.8454 15.1569C27.0188 15.3302 27.1614 15.5942 27.2454 16.2102C27.3308 16.8529 27.3334 17.7169 27.3334 19.0022C27.3334 20.2876 27.3308 21.1516 27.2441 21.7956C27.1614 22.4102 27.0188 22.6742 26.8441 22.8476C26.6707 23.0209 26.4081 23.1636 25.7934 23.2476C25.1494 23.3329 24.2854 23.3356 23.0001 23.3356H7.00008C5.71475 23.3356 4.85075 23.3329 4.20675 23.2462C3.59208 23.1636 3.32808 23.0209 3.15475 22.8462C2.98141 22.6729 2.83875 22.4102 2.75475 21.7956C2.66941 21.1516 2.66675 20.2876 2.66675 19.0022C2.66675 17.7169 2.66941 16.8529 2.75608 16.2089C2.83875 15.5942 2.98142 15.3302 3.15608 15.1569C3.32942 14.9836 3.59208 14.8409 4.20675 14.7569C4.85075 14.6716 5.71475 14.6689 7.00008 14.6689H21.6468Z" fill="#344054"/>
<path d="M15.112 6.00315C14.4633 6.0032 13.832 6.21343 13.3128 6.60235C12.7936 6.99127 12.4144 7.53795 12.232 8.16048C12.1577 8.41509 11.9854 8.62977 11.7528 8.7573C11.5203 8.88482 11.2466 8.91474 10.992 8.84048C10.7374 8.76622 10.5227 8.59386 10.3952 8.36132C10.2676 8.12877 10.2377 7.85509 10.312 7.60048C10.6157 6.56266 11.2476 5.65122 12.113 5.0028C12.9784 4.35438 14.0306 4.00391 15.112 4.00391C16.1933 4.00391 17.2456 4.35438 18.1109 5.0028C18.9763 5.65122 19.6082 6.56266 19.912 7.60048C19.9862 7.85509 19.9563 8.12877 19.8288 8.36132C19.7013 8.59386 19.4866 8.76622 19.232 8.84048C18.9774 8.91474 18.7037 8.88482 18.4711 8.7573C18.2386 8.62977 18.0662 8.41509 17.992 8.16048C17.8096 7.53795 17.4303 6.99127 16.9111 6.60235C16.3919 6.21343 15.7607 6.0032 15.112 6.00315Z" fill="#344054"/>
<path d="M15.1121 9.66667C15.4658 9.66667 15.8049 9.52619 16.055 9.27614C16.305 9.02609 16.4455 8.68696 16.4455 8.33333C16.4455 7.97971 16.305 7.64057 16.055 7.39052C15.8049 7.14048 15.4658 7 15.1121 7C14.7585 7 14.4194 7.14048 14.1693 7.39052C13.9193 7.64057 13.7788 7.97971 13.7788 8.33333C13.7788 8.68696 13.9193 9.02609 14.1693 9.27614C14.4194 9.52619 14.7585 9.66667 15.1121 9.66667Z" fill="#344054"/>
</svg>
